<?xml version="1.0" encoding="utf-8"?>
<!-- Generator: Adobe Illustrator 19.2.0, SVG Export Plug-In . SVG Version: 6.00 Build 0)  -->
<svg version="1.1" id="category-item_svg_accessories" xmlns:x="&ns_extend;" xmlns:i="&ns_ai;" xmlns:graph="&ns_graphs;"
	 xmlns="http://www.w3.org/2000/svg" xmlns:xlink="http://www.w3.org/1999/xlink" x="0px" y="0px" viewBox="0 0 3976 2646"
	 enable-background="new 0 0 3976 2646" xml:space="preserve">
<metadata>
	<sfw  xmlns="&ns_sfw;">
		<slices></slices>
		<sliceSourceBounds  bottomLeftOrigin="true" height="2082" width="953.9" x="424" y="-1581"></sliceSourceBounds>
	</sfw>
</metadata>
<g>
	<path fill="none" stroke-width="20" stroke-linecap="round" stroke-linejoin="round" stroke-miterlimit="10" d="
		M1769,507c-3,0-131,66-131,66l56,51l132-58.5c0,0,28,16.5,36,11.5s103-58,103-58l322-160l-66-67l-424,193L1769,507z"/>
	<path fill="none" stroke-width="20" stroke-linecap="round" stroke-linejoin="round" stroke-miterlimit="10" d="
		M1660.4,593.4l17.6,41.9l-9,22l19.7,60l54,54.7c0,0,13.3,96,17.3,234s0,334-36,444s-106,320-144,394s-118,210-118,210
		s29.6,64.5,41.6,78s88.5,55.5,97.5,61.5s21,21,21,21l321,139.5c0,0,54-42,58.5-51s7.5-30,21-40.5s15-22.5,15-22.5s-3-21,9-30
		c12-9,31.5-39,31.5-39l7.9-31c0,0,108.9-215.1,183.9-446.1c75-231,126-459,126-744.1c0-285-41.8-395.7-41.8-395.7l18-13.5l-12-61.5
		l35.8-27l-8.8-24l-39-33l-42,21L2287,359"/>
	<path fill="none" stroke-width="20" stroke-linecap="round" stroke-linejoin="round" stroke-miterlimit="10" d="
		M2354,554.1c0,0-43.4-124.3-48-138"/>
	
		<line fill="none" stroke-width="20" stroke-linecap="round" stroke-linejoin="round" stroke-miterlimit="10" x1="2325.3" y1="454.6" x2="2380.8" y2="422.9"/>
	<path fill="none" stroke-width="20" stroke-linecap="round" stroke-linejoin="round" stroke-miterlimit="10" d="
		M1503.6,2132c0,0,226.4-458,264.4-632s54-476,48-540s-34-190-34-190"/>
	<path fill="none" stroke-width="20" stroke-linecap="round" stroke-linejoin="round" stroke-miterlimit="10" d="
		M1823.3,566.6c0,0,27.3,100.7,27.3,112c0,11.3,3.3,38-14,58.7c-17.3,20.7-94,34.7-94,34.7S1722,637,1708,624"/>
	
		<polyline fill="none" stroke-width="18" stroke-linecap="round" stroke-linejoin="round" stroke-miterlimit="10" points="
		1681,669.3 1726,716 1735,752 	"/>
	
		<circle fill="none" stroke-width="20" stroke-linecap="round" stroke-linejoin="round" stroke-miterlimit="10" cx="1808" cy="641" r="8"/>
	
		<polyline fill="none" stroke-width="20" stroke-linecap="round" stroke-linejoin="round" stroke-miterlimit="10" points="
		1940,422.9 1998,479 1962.5,520.4 	"/>
	<path fill="none" stroke-width="20" stroke-linecap="round" stroke-linejoin="round" stroke-miterlimit="10" d="
		M2039,389c-17.9,10.3-53,30-41,40s53,12,72,0s41-27,30-40S2052.9,381,2039,389z"/>
	
		<polygon fill="none" stroke-width="20" stroke-linecap="round" stroke-linejoin="round" stroke-miterlimit="10" points="
		2118,371 2186,336.5 2208,353.7 2135,388.5 	"/>
	
		<line fill="none" stroke-width="20" stroke-linecap="round" stroke-linejoin="round" stroke-miterlimit="10" x1="2150.5" y1="354.5" x2="2167.5" y2="373"/>
	<path fill="none" stroke-width="20" stroke-linecap="round" stroke-linejoin="round" stroke-miterlimit="10" d="
		M1928.9,535c0,0,20.1,80,29.1,106s33,23,62,8c29-15,239-121.2,251-128.6c12-7.4,33-26.1,25-48.8c-8-22.6-32.2-101.1-32.2-101.1"/>
	<path fill="none" stroke-width="20" stroke-linecap="round" stroke-linejoin="round" stroke-miterlimit="10" d="
		M1862,577c0,0,55.9,185,66.9,289s35.1,392-12.9,556s-156.5,506.8-180,550c-15.8,29-21.6,34.8-21.6,34.8"/>
	<path fill="none" stroke-width="20" stroke-linecap="round" stroke-linejoin="round" stroke-miterlimit="10" d="
		M1577,2095.5c-10.6,18.9-4,28.1,10.5,36.5s31.5,12,37,16.5s12.5,16.5,16,19s198,95.5,218,103.5s26-3,30.5-12s16.5-24.5-17-39
		s-195-93.5-205-99s-49.5-26.5-59.5-30S1586,2079.5,1577,2095.5z"/>
	<path fill="none" stroke-width="20" stroke-linecap="round" stroke-linejoin="round" stroke-miterlimit="10" d="
		M1633.5,1999.5c-7.7,13.9,4,35.5,21,41s38.5,9,38.5,9l6,15c0,0,90,33,93,34.5s128,50,141,54.5s28-5.5,31-12.5s15.5-27,0-33.5
		s-228.5-88-235.5-91.5s-61-29-72.5-29S1638.5,1990.5,1633.5,1999.5z"/>
	
		<line fill="none" stroke-width="20" stroke-linecap="round" stroke-linejoin="round" stroke-miterlimit="10" x1="1687.5" y1="2052" x2="1651.5" y2="2109.5"/>
	
		<line fill="none" stroke-width="20" stroke-linecap="round" stroke-linejoin="round" stroke-miterlimit="10" x1="1625" y1="2154.6" x2="1604" y2="2188.5"/>
	<path fill="none" stroke-width="20" stroke-linecap="round" stroke-linejoin="round" stroke-miterlimit="10" d="
		M1975.3,2319.3c0,0-45.3-22-57.3-26.7c-12-4.7-14-16.7-8.7-25.3c5.3-8.7,12.3-18.3,23-13s72.5,31.3,72.5,31.3"/>
	<path fill="none" stroke-width="20" stroke-linecap="round" stroke-linejoin="round" stroke-miterlimit="10" d="
		M2017.3,2267.7l-116.7-56.4c0,0-30-20.4-24.7-31.5c5.3-11.2,3.4-28.8,70.3,0c67,28.8,92.6,42,92.6,42"/>
	<path fill="none" stroke-width="20" stroke-linecap="round" stroke-linejoin="round" stroke-miterlimit="10" d="
		M2084,2147.8c0,0-64-20.5-72-22.5s-22.7,3.3-25.3,14c-2.7,10.7-10.2,29.3,5.8,34.7c16,5.3,60.2,22.7,60.2,22.7"/>
	<path fill="none" stroke-width="20" stroke-linecap="round" stroke-linejoin="round" stroke-miterlimit="10" d="
		M2020.5,697c-13.1,3-20,16-20,24s6.5,41,10,66s29.1,236.6,23.1,343.1c-6,106.5-19.5,297-43.5,370.5s-95.7,312-113.1,349.5
		c-17.4,37.5-54.7,123.3-59.3,136.9c-4.7,13.7,4,25.7,12.7,28.3c8.7,2.7,34-13.3,52-60S1937,1832,1948,1792s63-179,74-229
		s35-140,40-184s11-121,13-154s9-119,9-159s-5-130-12-183s-16-121-20-146C2048,712,2042,692,2020.5,697z"/>
	<path fill="none" stroke-width="20" stroke-linecap="round" stroke-linejoin="round" stroke-miterlimit="10" d="
		M2101,655c-22.8,9.6-25,15-19,48s26.7,139,28.4,184c1.6,45,4.4,236,0,294c-4.4,58-19.1,270-31.2,323c-12.1,53-35.1,112-51.1,159
		s-43,129-55,164s-39,97-40,110s17,19,28,15s13-12,31-54s70-192,86-248s45-173,54-231s16-104,19-153s15-144,12-181s4-80,0.5-131
		c-3.5-51-10.5-110-14.5-152s-15-115.3-20-132.7C2124,652,2107.2,652.4,2101,655z"/>
	<path fill="none" stroke-width="20" stroke-linecap="round" stroke-linejoin="round" stroke-miterlimit="10" d="
		M2176.6,624c-18.6,8.8-19.3,12.7-18,29.7c1.3,17,20,81.7,26,153.7s19.9,319.8,6.4,442.8s-71.7,390-98.1,469.5
		c-26.4,79.5-82.5,222.9-108.5,267.4s-30.5,57.7-31.2,69c-0.7,11.3,14.5,21.3,20.3,22s35.7-30.1,47.7-62.4
		c12-32.3,59.3-130.9,80-196.3C2122,1754,2204,1534,2218,1402s36-306,30-376s-24-291.5-30-329.8C2212,658,2196.8,614.5,2176.6,624z"
		/>
	<path fill="none" stroke-width="20" stroke-linecap="round" stroke-linejoin="round" stroke-miterlimit="10" d="
		M2234.7,539.4c0,0,53.2,148.5,52.2,412.5s-23,438-51,544s-190.2,547.6-197.1,574.8s-2.3,27.2,3.7,29.9c6,2.7,25-19.7,35-49.3
		c10-29.7,108.4-268.8,142.9-375.3c34.5-106.5,82.7-349.4,85.5-403.5c24-466.5-25.5-672.7-27-695.6c-1.5-22.9,14.4-38.7,27.5-37.5
		c13,1.2,23.5,14.7,23.5,14.7s27,150,34.5,265.5s13,358.9,0,465"/>
	
		<line fill="none" stroke-width="20" stroke-linecap="round" stroke-linejoin="round" stroke-miterlimit="10" x1="2330" y1="554.1" x2="2313.8" y2="438.8"/>
</g>
</svg>
