<?xml version="1.0" encoding="utf-8"?>
<!-- Generator: Adobe Illustrator 19.2.0, SVG Export Plug-In . SVG Version: 6.00 Build 0)  -->
<svg version="1.1" id="category-item_svg_accums" xmlns:x="&ns_extend;" xmlns:i="&ns_ai;" xmlns:graph="&ns_graphs;"
	 xmlns="http://www.w3.org/2000/svg" xmlns:xlink="http://www.w3.org/1999/xlink" x="0px" y="0px" viewBox="0 0 3976 2646"
	 enable-background="new 0 0 3976 2646" xml:space="preserve">
<metadata>
	<sfw  xmlns="&ns_sfw;">
		<slices></slices>
		<sliceSourceBounds  bottomLeftOrigin="true" height="1672.6" width="1933.4" x="-53.9" y="-1375.5"></sliceSourceBounds>
	</sfw>
</metadata>
<g>
	<g>
		
			<path fill="none" stroke-width="26.7672" stroke-linecap="round" stroke-linejoin="round" stroke-miterlimit="10" d="
			M1816.9,1337.1c0,0-39.7,129.5-89.8,183.7c-50.1,54.3-165,158.7-165,158.7s148.3-8.4,175.4,0c27.1,8.4,970.9,323.6,970.9,323.6
			l179.6-348.6l-1010.6-317.5H1816.9z"/>
		
			<path fill="none" stroke-width="26.7672" stroke-linecap="round" stroke-linejoin="round" stroke-miterlimit="10" d="
			M1562.1,1679.5l-18.6,50.9c0,0,71,22.3,80.7,34.8c9.7,12.5,45.9,40.4,45.9,40.4l1032,339.5l165-338.3l20.9-152.3"/>
		
			<line fill="none" stroke-width="26.7672" stroke-linecap="round" stroke-linejoin="round" stroke-miterlimit="10" x1="2702.2" y1="2145.1" x2="2708.5" y2="2003.1"/>
		
			<path fill="none" stroke-width="43.1488" stroke-linecap="round" stroke-linejoin="round" stroke-miterlimit="10" d="
			M1815.3,1342c0,0-232.3-17.4-305.4-4.9c-73.1,12.5-378.4-37.5-378.4,364.6"/>
		
			<path fill="none" stroke-width="43.1488" stroke-linecap="round" stroke-linejoin="round" stroke-miterlimit="10" d="
			M1786.4,1395c0,0-190.8-114.3-297.3-105.9c-106.5,8.4-196.5-9.9-300.7,75.2c-104.2,85.1-113.9,275.3-120.2,308.7"/>
		
			<polygon fill="none" stroke-width="18.7906" stroke-linecap="round" stroke-linejoin="round" stroke-miterlimit="10" points="
			1031.5,1670.1 1167.2,1734.8 1177.7,1918.6 1034.2,1866.4 		"/>
		
			<polyline fill="none" stroke-width="18.7906" stroke-linecap="round" stroke-linejoin="round" stroke-miterlimit="10" points="
			1031.5,1670.1 983.5,1726.5 983.5,1918.6 1034.2,1866.4 		"/>
		
			<polyline fill="none" stroke-width="18.7906" stroke-linecap="round" stroke-linejoin="round" stroke-miterlimit="10" points="
			1189.2,1918.6 1136.5,1984.1 995,1918.6 		"/>
		
			<polygon fill="none" stroke-width="18.7906" stroke-linecap="round" stroke-linejoin="round" stroke-miterlimit="10" points="
			1074.2,1848.4 1074.2,1728.7 1131.5,1752.3 1131.5,1867.9 		"/>
		
			<polygon fill="none" stroke-width="11.8311" stroke-linecap="round" stroke-linejoin="round" stroke-miterlimit="10" points="
			1106.8,1918.6 1135.5,1930.5 1120.1,1956.3 1092.1,1943.7 		"/>
		
			<path fill="none" stroke-width="11.8311" stroke-linecap="round" stroke-linejoin="round" stroke-miterlimit="10" d="
			M1057.5,1895c13.2,7,13.9,16.5,10.4,23.6c-3.5,7.1-17.4,11.9-27.8,6.4c-10.4-5.6-10.5-15.3-5.9-21.6
			C1038.7,1897.1,1057.5,1895,1057.5,1895z"/>
		
			<polygon fill="none" stroke-width="18.7906" stroke-linecap="round" stroke-linejoin="round" stroke-miterlimit="10" points="
			2007.2,1452.3 2675.2,1654.6 2560,1882.4 1888,1654.6 		"/>
	</g>
	<g>
		
			<polyline fill="none" stroke-width="30" stroke-linecap="round" stroke-linejoin="round" stroke-miterlimit="10" points="
			2359.4,1479 2812.5,1335.9 2892.5,1167.9 2704.1,899 2696.6,842 2488.1,539 1031.7,819.5 1236.5,1671.9 1280.5,1819.9 
			1553.4,1733.7 		"/>
		
			<polyline fill="none" stroke-width="30" stroke-linecap="round" stroke-linejoin="round" stroke-miterlimit="10" points="
			1056.6,814.7 1047.3,755 2436.8,500.9 2458.5,539 		"/>
		
			<line fill="none" stroke-width="30" stroke-linecap="round" stroke-linejoin="round" stroke-miterlimit="10" x1="2095" y1="1400.3" x2="2892.5" y2="1167.9"/>
		
			<line fill="none" stroke-width="30" stroke-linecap="round" stroke-linejoin="round" stroke-miterlimit="10" x1="1231.7" y1="1651.9" x2="1731.1" y2="1506.4"/>
		
			<line fill="none" stroke-width="30" stroke-linecap="round" stroke-linejoin="round" stroke-miterlimit="10" x1="1141.1" y1="1274.7" x2="2704.1" y2="899"/>
		
			<line fill="none" stroke-width="30" stroke-linecap="round" stroke-linejoin="round" stroke-miterlimit="10" x1="2696.6" y1="842" x2="1125.3" y2="1209"/>
		
			<ellipse fill="none" stroke-width="17" stroke-linecap="round" stroke-linejoin="round" stroke-miterlimit="10" cx="1782.3" cy="1307.4" rx="38.3" ry="30.5"/>
		<path fill="none" stroke-width="17" stroke-linecap="round" stroke-linejoin="round" stroke-miterlimit="10" d="
			M1743.9,1316.9l-0.4,31c0,0,8.5,18.7,38.8,18.7s38.2-15.7,38.2-15.7l0.1-34"/>
		
			<ellipse fill="none" stroke-width="17" stroke-linecap="round" stroke-linejoin="round" stroke-miterlimit="10" cx="1974.1" cy="1254.3" rx="38.3" ry="30.5"/>
		<path fill="none" stroke-width="17" stroke-linecap="round" stroke-linejoin="round" stroke-miterlimit="10" d="
			M1935.8,1263.8l-0.4,31c0,0,8.5,18.7,38.8,18.7s38.2-15.7,38.2-15.7l0.1-34"/>
		
			<ellipse fill="none" stroke-width="17" stroke-linecap="round" stroke-linejoin="round" stroke-miterlimit="10" cx="2157.2" cy="1209.5" rx="38.3" ry="30.5"/>
		<path fill="none" stroke-width="17" stroke-linecap="round" stroke-linejoin="round" stroke-miterlimit="10" d="
			M2118.9,1219l-0.4,31c0,0,8.5,18.7,38.8,18.7s38.2-15.7,38.2-15.7l0.1-34"/>
		
			<ellipse fill="none" stroke-width="17" stroke-linecap="round" stroke-linejoin="round" stroke-miterlimit="10" cx="2333.7" cy="1164.7" rx="38.3" ry="30.5"/>
		<path fill="none" stroke-width="17" stroke-linecap="round" stroke-linejoin="round" stroke-miterlimit="10" d="
			M2295.4,1174.2l-0.4,31c0,0,8.5,18.7,38.8,18.7s38.2-15.7,38.2-15.7l0.1-34"/>
		
			<ellipse fill="none" stroke-width="17" stroke-linecap="round" stroke-linejoin="round" stroke-miterlimit="10" cx="2674.5" cy="963.9" rx="10" ry="7.2"/>
		
			<ellipse fill="none" stroke-width="17" stroke-linecap="round" stroke-linejoin="round" stroke-miterlimit="10" cx="2733.5" cy="1050.9" rx="10" ry="7.2"/>
		
			<polygon fill="none" stroke-width="30" stroke-linecap="round" stroke-linejoin="round" stroke-miterlimit="10" points="
			1514.5,1033.9 2295,857.9 2193.5,683.4 2040.5,711.9 2022.5,739.9 1448.5,862.9 		"/>
	</g>
</g>
</svg>
