<?xml version="1.0" encoding="utf-8"?>
<!-- Generator: Adobe Illustrator 19.2.0, SVG Export Plug-In . SVG Version: 6.00 Build 0)  -->
<svg version="1.1" id="category-item_svg_aims" xmlns:x="&ns_extend;" xmlns:i="&ns_ai;" xmlns:graph="&ns_graphs;"
	 xmlns="http://www.w3.org/2000/svg" xmlns:xlink="http://www.w3.org/1999/xlink" x="0px" y="0px" viewBox="0 0 3976 2646"
	 enable-background="new 0 0 3976 2646" xml:space="preserve">
<metadata>
	<sfw  xmlns="&ns_sfw;">
		<slices></slices>
		<sliceSourceBounds  bottomLeftOrigin="true" height="1012.1" width="2852" x="-395.8" y="-1046"></sliceSourceBounds>
	</sfw>
</metadata>
<g>
	<path fill="none" stroke-width="28" stroke-linecap="round" stroke-linejoin="round" stroke-miterlimit="10" d="
		M646.2,1515c0,165.7,105.1,300,215.1,300c109.9,0,183.1-134.3,183.1-300c0-165.7-134.1-300-244.1-300
		C690.3,1215,646.2,1349.3,646.2,1515z"/>
	<path fill="none" stroke-width="28" stroke-linecap="round" stroke-linejoin="round" stroke-miterlimit="10" d="
		M800.2,1215l337.2-47.8c109.9,0,244.1,134.3,244.1,300c0,165.7-73.1,300-183.1,300L861.2,1815"/>
	<path fill="none" stroke-width="28" stroke-linecap="round" stroke-linejoin="round" stroke-miterlimit="10" d="
		M3041.8,1354.2c99.4,0,180-106.8,180-238.5c0-131.7-80.6-238.5-180-238.5l248.2-46.2c99.4,0,180,106.8,180,238.5
		c0,131.7-80.6,238.5-180,238.5L3041.8,1354.2z"/>
	<path fill="none" stroke-width="28" stroke-linecap="round" stroke-linejoin="round" stroke-miterlimit="10" d="
		M3041.8,1354.2l-143.1-22c0,0,90-39,90-194c0-168-174-174-174-174l154-76l73.1-11"/>
	<path fill="none" stroke-width="28" stroke-linecap="round" stroke-linejoin="round" stroke-miterlimit="10" d="
		M1278.3,1740.2l358.5-182c0,0,56-86,42-166s-38-166-138-194c-333.3-28.6-378.3-28.6-378.3-28.6"/>
	
		<line fill="none" stroke-width="28" stroke-linecap="round" stroke-linejoin="round" stroke-miterlimit="10" x1="1986" y1="1126.8" x2="1555.9" y2="1203.1"/>
	
		<polyline fill="none" stroke-width="28" stroke-linecap="round" stroke-linejoin="round" stroke-miterlimit="10" points="
		2814.8,964.2 2688.8,1002.2 2376.8,1057.5 	"/>
	
		<line fill="none" stroke-width="28" stroke-linecap="round" stroke-linejoin="round" stroke-miterlimit="10" x1="1786.8" y1="1530.9" x2="1636.8" y2="1558.2"/>
	
		<line fill="none" stroke-width="28" stroke-linecap="round" stroke-linejoin="round" stroke-miterlimit="10" x1="2120.6" y1="1470.1" x2="1980.5" y2="1495.6"/>
	
		<line fill="none" stroke-width="28" stroke-linecap="round" stroke-linejoin="round" stroke-miterlimit="10" x1="2638.8" y1="1375.7" x2="2563.6" y2="1389.4"/>
	
		<line fill="none" stroke-width="28" stroke-linecap="round" stroke-linejoin="round" stroke-miterlimit="10" x1="2907.5" y1="1327.3" x2="2792.9" y2="1347"/>
	<path fill="none" stroke-width="28" stroke-linecap="round" stroke-linejoin="round" stroke-miterlimit="10" d="
		M2376.8,1092.6c0,0-102,35.6-200,35.6s-156-44.6-156-44.6V922.2c0,0,76-36,178-36s178,54,178,54V1092.6z"/>
	<path fill="none" stroke-width="28" stroke-linecap="round" stroke-linejoin="round" stroke-miterlimit="10" d="
		M2376.8,940.2c0,0-90,24-178,24s-178-42-178-42"/>
	
		<ellipse fill="none" stroke-width="28" stroke-linecap="round" stroke-linejoin="round" stroke-miterlimit="10" cx="2451.8" cy="1330.7" rx="119" ry="171.5"/>
	<path fill="none" stroke-width="28" stroke-linecap="round" stroke-linejoin="round" stroke-miterlimit="10" d="
		M2451.8,1159.2l-101-31.1c0,0-124,54.2-124,199.1c0,144.9,78,163.8,78,163.8l147,11.1"/>
	<path fill="none" stroke-width="23" stroke-linecap="round" stroke-linejoin="round" stroke-miterlimit="10" d="
		M2638.8,1375.7l120-91.5v-66l-216-207.3l128-24.7c0,0,118,113,134,129.5s86,87.4,86,87.4v53.1l-110,98v66v126l-110,36l-63-14.2
		l13-67.2l-104-9.6l18,39.7l-100.3,18.5v-46.8"/>
	
		<line fill="none" stroke-width="23" stroke-linecap="round" stroke-linejoin="round" stroke-miterlimit="10" x1="2890.8" y1="1218.2" x2="2758.8" y2="1242.2"/>
	
		<polyline fill="none" stroke-width="23" stroke-linecap="round" stroke-linejoin="round" stroke-miterlimit="10" points="
		1777.9,1157 2020.8,1364.2 2024.8,1447 1962.5,1498.8 1911.8,1513.2 1931.8,1565.2 1933.8,1614.2 1933.8,1764.2 1777.9,1798.2 
		1728.8,1782.2 1750.8,1740.2 1750.8,1714.2 1681,1706.2 1555.9,1690.2 1528.8,1720.2 1548.8,1740.2 1498.8,1740.2 1498.8,1628.2 	
		"/>
	
		<polyline fill="none" stroke-width="23" stroke-linecap="round" stroke-linejoin="round" stroke-miterlimit="10" points="
		1786.8,1798.2 1786.8,1600.2 1748.7,1537.8 	"/>
	
		<polyline fill="none" stroke-width="23" stroke-linecap="round" stroke-linejoin="round" stroke-miterlimit="10" points="
		1786.8,1530.9 1868.8,1477.6 1868.8,1389.4 1656.1,1185.3 	"/>
	
		<line fill="none" stroke-width="23" stroke-linecap="round" stroke-linejoin="round" stroke-miterlimit="10" x1="2020.8" y1="1389.4" x2="1868.8" y2="1420.2"/>
	
		<line fill="none" stroke-width="23" stroke-linecap="round" stroke-linejoin="round" stroke-miterlimit="10" x1="2670.8" y1="1582.2" x2="2670.8" y2="1354.2"/>
	<path fill="none" stroke-width="28" stroke-linecap="round" stroke-linejoin="round" stroke-miterlimit="10" d="
		M2332.8,1493.2c0,0-98,21.8-154,21.8s-56-37.4-56-37.4"/>
	<path fill="none" stroke-width="28" stroke-linecap="round" stroke-linejoin="round" stroke-miterlimit="10" d="
		M2012.8,1057.5c0,0-55.1,55.5-34.6,70.7c0,0,94.6,65.2,108.6,114c14,48.8,36,124.5,36,213.6"/>
	
		<line fill="none" stroke-width="28" stroke-linecap="round" stroke-linejoin="round" stroke-miterlimit="10" x1="2410.8" y1="1057.5" x2="2434.5" y2="1143"/>
	
		<ellipse fill="none" stroke-width="16" stroke-linecap="round" stroke-linejoin="round" stroke-miterlimit="10" cx="2785.1" cy="1164.9" rx="19.7" ry="10"/>
	
		<ellipse fill="none" stroke-width="16" stroke-linecap="round" stroke-linejoin="round" stroke-miterlimit="10" cx="1896.8" cy="1330.7" rx="17.9" ry="9.1"/>
	<path fill="none" stroke-width="28" stroke-linecap="round" stroke-linejoin="round" stroke-miterlimit="10" d="
		M902.1,1248.9c0,0-126.3,78.7-126.3,253.3c0,174.5,181.4,272.2,181.4,272.2"/>
</g>
</svg>
