<?xml version="1.0" encoding="utf-8"?>
<!-- Generator: Adobe Illustrator 19.2.0, SVG Export Plug-In . SVG Version: 6.00 Build 0)  -->
<svg version="1.1" id="category-item_svg_automate" xmlns:x="&ns_extend;" xmlns:i="&ns_ai;" xmlns:graph="&ns_graphs;"
	 xmlns="http://www.w3.org/2000/svg" xmlns:xlink="http://www.w3.org/1999/xlink" x="0px" y="0px" viewBox="0 0 3976 2646"
	 enable-background="new 0 0 3976 2646" xml:space="preserve">
<metadata>
	<sfw  xmlns="&ns_sfw;">
		<slices></slices>
		<sliceSourceBounds  bottomLeftOrigin="true"></sliceSourceBounds>
	</sfw>
</metadata>
<g>
	<path fill="none" stroke-width="16" stroke-linecap="round" stroke-linejoin="round" stroke-miterlimit="10" d="
		M3257,998.7h-353.3c0,0-18,6-15.3,14s8.7,46.7,8.7,46.7l26,47.7c0,0-38.9,40-34.9,50s6.9,41,12.9,44s59,18,59,18l30,55h68
		c0,0,6,20.3,11.7,20.3s56.3,0,56.3,0v36.3h52.3v-38h39.3c0,0,107.8,86.8,125.3,96.3s40-3.5,42.5-10.5s4-45.5,4-45.5l244.8,183.7
		c0,0,3.3,16.7,10,20.7s28,13.3,54.7-4s39.3-32.7,39.3-53.3s-16-422.7-16-422.7s-6-56.7-79.3-58.7S3257,998.7,3257,998.7z"/>
	<path fill="none" stroke-width="16" stroke-linecap="round" stroke-linejoin="round" stroke-miterlimit="10" d="
		M3058,1274c0,0-0.3-22,16.3-31.3c9.2-5.1-1.4-11.1,14.2-15.4c12.7-3.5,73.2-1.8,73.2-1.8s65.3-0.9,83.8,2.5
		c23.1,4.2,21.8,9.5,39.5,19.7c32,18.3,103.3,71.7,103.3,71.7v11.3"/>
	<path fill="none" stroke-width="16" stroke-linecap="round" stroke-linejoin="round" stroke-miterlimit="10" d="
		M3662.3,1000.6l10.7,48.4l15,370c0,0-5.7,108-12.9,120"/>
	
		<polyline fill="none" stroke-width="16" stroke-linecap="round" stroke-linejoin="round" stroke-miterlimit="10" points="
		3408.7,1347.4 3658,1503 3654,1539 	"/>
	<path fill="none" stroke-width="16" stroke-linecap="round" stroke-linejoin="round" stroke-miterlimit="10" d="
		M3658,1503v-301c0,0-40-6-53-20s-32-34-28-49s75-83,75-83l19.8-6.4"/>
	
		<line fill="none" stroke-width="16" stroke-linecap="round" stroke-linejoin="round" stroke-miterlimit="10" x1="3474.3" y1="1381.3" x2="3503" y2="1347.4"/>
	
		<line fill="none" stroke-width="16" stroke-linecap="round" stroke-linejoin="round" stroke-miterlimit="10" x1="3552.3" y1="1298" x2="3649.7" y2="1204.7"/>
	
		<circle fill="none" stroke-width="16" stroke-linecap="round" stroke-linejoin="round" stroke-miterlimit="10" cx="3526.7" cy="1326.3" r="25.7"/>
	<path fill="none" stroke-width="16" stroke-linecap="round" stroke-linejoin="round" stroke-miterlimit="10" d="
		M2923,1107c0,0,28,36.5,34.5,54.5s2.5,57.5,2.5,57.5"/>
	<path fill="none" stroke-width="16" stroke-linecap="round" stroke-linejoin="round" stroke-miterlimit="10" d="
		M2837.7,997.8h32c0,0,11.3,28.1,12,45.8s0,83.1,0,83.1s1.3,22.7-43.3,22.7C2838.3,1078,2837.7,997.8,2837.7,997.8z"/>
	
		<line fill="none" stroke-width="16" stroke-linecap="round" stroke-linejoin="round" stroke-miterlimit="10" x1="2882" y1="1133.3" x2="2893" y2="1133.3"/>
	<path fill="none" stroke-width="16" stroke-linecap="round" stroke-linejoin="round" stroke-miterlimit="10" d="
		M2838.3,1149.3v76c0,0-21.7,0-55.3,0s-62,35.7-62,60s0,29.5,0,45.3s228,330.8,228,330.8s-173.5,53.5-204.5,63s-34-16.5-29-29
		s-7.5-56-17.5-69s-60-94-60-94s-28-3-36-3c7.5-19.5,20-35.5,18.5-40.5s-40-58.5-40-58.5h-268.8L2008,1376c0,0-11-6.5,4.5-32.5
		c0-38,1-110,1-110S1972,1193,1962,1188c-3.5-22,0-49.5,0-49.5l3-0.5l43.4-7.3h174"/>
	
		<polyline fill="none" stroke-width="12" stroke-linecap="round" stroke-linejoin="round" stroke-miterlimit="10" points="
		1960.4,1134 1960.4,934.5 2008.5,934.5 2008.5,947.5 2033.5,947.5 2033.5,932.5 2053.5,932.5 2053.5,947 2077.5,947 2077.5,932.5 
		2097.5,932.5 2097.5,947.5 2118.5,947.5 2118.5,932.5 2139.5,932.5 2139.5,948.5 2164.5,948.5 2164.5,932.5 2183.5,932.5 
		2183.5,949.5 2209,949.5 2209,932.5 2227,932.5 2227,949.5 2252.5,949.5 2252.5,932.5 2271,932.5 2271,949.5 2293.5,949.5 
		2293.5,931 2312.5,931 2312.5,948.5 2337.5,948.5 2337.5,930.5 2358.5,930.5 2358.5,950.5 2381.5,950.5 2381.5,929 2399.5,929 
		2399.5,949 2425.5,949 	"/>
	<path fill="none" stroke-width="16" stroke-linecap="round" stroke-linejoin="round" stroke-miterlimit="10" d="
		M2464.3,952.7h-38.8V895h29.2l43.8-69c0,0,0-25.5,0-43s26.5-18.5,46-18.5s25.5-11,25.5-11h80l29.5,29.5v58h39l23.5,85.5"/>
	<path fill="none" stroke-width="16" stroke-linecap="round" stroke-linejoin="round" stroke-miterlimit="10" d="
		M2025.8,1379.2V1482c0,0,0.8,41.9,0,61.5s-65.3,277.5-65.3,277.5l253.6,71l20-17c0,0,60-219,63-247s14.7-176,14.7-197.5"/>
	
		<line fill="none" stroke-width="16" stroke-linecap="round" stroke-linejoin="round" stroke-miterlimit="10" x1="2257.7" y1="1130.7" x2="2297.7" y2="1130.7"/>
	<path fill="none" stroke-width="16" stroke-linecap="round" stroke-linejoin="round" stroke-miterlimit="10" d="
		M2371,1133.3c0,0,250,0,313.3,0s94.7-47.6,94.7-59.8s5-86.6,5-86.6h24.3l23,13.3"/>
	
		<line fill="none" stroke-width="16" stroke-linecap="round" stroke-linejoin="round" stroke-miterlimit="10" x1="2550" y1="952.7" x2="2644" y2="952.7"/>
	
		<polyline fill="none" stroke-width="16" stroke-linecap="round" stroke-linejoin="round" stroke-miterlimit="10" points="
		1959,990 1940.7,990 1940.7,959.3 1873,974.7 1870,1169.7 1938.3,1186 1938.7,1144 1959,1144 	"/>
	
		<polyline fill="none" stroke-width="12" stroke-linecap="round" stroke-linejoin="round" stroke-miterlimit="10" points="
		1870,1151.2 1857,1158.7 1857,1192.7 1836,1192.7 1836,1180.2 1814,1180.2 1814,1192.7 1794.5,1192.7 1794.5,1180.2 1770,1180.2 
		1770,1192.7 1750.5,1192.7 1750.5,1179.2 1727.5,1179.2 1727.5,1194.7 1707,1194.7 1707,1181.2 1684.5,1181.2 1684.5,1194.7 
		1663.5,1194.7 1663.5,1182.7 1642,1182.7 1642,1194.7 1619,1194.7 1619,1180.7 1597.5,1180.7 1597.5,1194.7 1576,1194.7 
		1576,1181.2 1553.5,1181.2 1553.5,1194.7 1532.5,1194.7 1532.5,1182.2 1510.5,1182.2 1510.5,1194.7 1488,1194.7 1488,1180.7 
		1470.7,1180.7 1470.7,1194.7 1447.3,1194.7 1447.3,1181.3 1427,1181.3 1427,1194.7 1402.7,1194.7 1402.7,1180.7 1383,1180.7 
		1383,1194.7 1358.7,1194.7 1358.7,1179.3 1338.7,1179.3 1338.7,1194.7 1314.3,1194.7 1314.3,1179.7 1295.7,1179.7 1295.7,1194.7 
		1273.8,1194.7 1273.8,1178.8 1254.8,1178.8 1254.8,1194.7 1229.5,1194.7 1229.5,1177 1209.3,1177 1209.3,1197.3 1187,1197.3 
		1185,1149 1172.5,1116.7 1172.5,1012 1185,979.7 1187,931.3 1209.3,931.3 1209.3,951.7 1229.5,951.7 1229.5,934 1254.8,934 
		1254.8,949.8 1273.8,949.8 1273.8,934 1295.7,934 1295.7,949 1314.3,949 1314.3,934 1338.7,934 1338.7,949.3 1358.7,949.3 
		1358.7,934 1383,934 1383,948 1402.7,948 1402.7,934 1427,934 1427,947.3 1447.3,947.3 1447.3,934 1470.7,934 1470.7,948 1488,948 
		1488,934 1510.5,934 1510.5,946.5 1532.5,946.5 1532.5,934 1553.5,934 1553.5,947.5 1576,947.5 1576,934 1597.5,934 1597.5,948 
		1619,948 1619,934 1642,934 1642,946 1663.5,946 1663.5,934 1684.5,934 1684.5,947.5 1707,947.5 1707,934 1727.5,934 1727.5,949.5 
		1750.5,949.5 1750.5,936 1770,936 1770,948.5 1794.5,948.5 1794.5,936 1814,936 1814,948.5 1836,948.5 1836,936 1857,936 1857,970 
		1870,977.5 	"/>
	<path fill="none" stroke-width="16" stroke-linecap="round" stroke-linejoin="round" stroke-miterlimit="10" d="
		M1183,984.8h-26.7l-128.7-178.2c0,0-21.3-20-34.7-20s-34,14.7-34,29.3s-6,221.3-6,221.3H794l-9.5,4.2h-91l-9-7.5H491h-42
		c0,0-8.7,23.3-8.7,43.3s6,36.7,6,36.7h234l12-7.3h84l12,7.3H949"/>
	
		<line fill="none" stroke-width="16" stroke-linecap="round" stroke-linejoin="round" stroke-miterlimit="10" x1="1151.7" y1="1114" x2="1007" y2="1114"/>
	<path fill="none" stroke-width="16" stroke-linecap="round" stroke-linejoin="round" stroke-miterlimit="10" d="
		M452,1034h-51.5l-13.5-3h-15H246.5c0,0-12.5,17-12.5,44s14,42.5,14,42.5h115l14-6.5l12,6.5l12.5-4l44.8,0.5"/>
	<path fill="none" stroke-width="16" stroke-linecap="round" stroke-linejoin="round" stroke-miterlimit="10" d="
		M515.5,1034c0,0-5.5,27-5.5,40.3s6.3,40.5,6.3,40.5"/>
	<path fill="none" stroke-width="16" stroke-linecap="round" stroke-linejoin="round" stroke-miterlimit="10" d="
		M687.7,1036.7c0,0-9.7,26.3-9.7,37.6s9.7,35.3,9.7,35.3"/>
	<path fill="none" stroke-width="16" stroke-linecap="round" stroke-linejoin="round" stroke-miterlimit="10" d="
		M780.5,1041.5c0,0,5.5,27,5.5,36.5s-5,31.5-5,31.5"/>
	
		<line fill="none" stroke-width="12" stroke-linecap="round" stroke-linejoin="round" stroke-miterlimit="10" x1="268" y1="1044.3" x2="335.3" y2="1044.3"/>
	
		<line fill="none" stroke-width="12" stroke-linecap="round" stroke-linejoin="round" stroke-miterlimit="10" x1="257.3" y1="1067.3" x2="340" y2="1067.3"/>
	<path fill="none" stroke-width="12" stroke-linecap="round" stroke-linejoin="round" stroke-miterlimit="10" d="
		M367,1041.5c0,0,0,19.2,0,29.2s0,38.8,0,38.8"/>
	<path fill="none" stroke-width="12" stroke-linecap="round" stroke-linejoin="round" stroke-miterlimit="10" d="
		M399,1036.7c0,0-6,26-5,35s2.4,42.3,2.4,42.3"/>
	<path fill="none" stroke-width="12" stroke-linecap="round" stroke-linejoin="round" stroke-miterlimit="10" d="
		M980.5,986V861.5h59.5c0,0,74.5,100,78.5,106s-1.5,17.5-6,18.5S980.5,986,980.5,986z"/>
	<path fill="none" stroke-width="12" stroke-linecap="round" stroke-linejoin="round" stroke-miterlimit="10" d="
		M985,924c0,0,25.5-3,27.5-8s10-51,10-51"/>
	
		<line fill="none" stroke-width="12" stroke-linecap="round" stroke-linejoin="round" stroke-miterlimit="10" x1="957.5" y1="1037.5" x2="953.5" y2="1114"/>
	<path fill="none" stroke-width="12" stroke-linecap="round" stroke-linejoin="round" stroke-miterlimit="10" d="
		M953.5,1119.5c0,0-27.5,10-29,11.5s-3.5,17-4,20.5s21.5,13.5,26,12.5s16.5,4.5,16.5,4.5l31,5.5l2.5-40l7.3-20c0,0-1.8-10-4.3-14
		s-3-38-3-48.5s16.5-37.5,16.5-37.5h83.5c0,0,14.5,9.5,12.5,15s-4,24.2-4,35.3s0,47.7,0,47.7"/>
	
		<line fill="none" stroke-width="12" stroke-linecap="round" stroke-linejoin="round" stroke-miterlimit="10" x1="977" y1="1019.5" x2="1007" y2="1019.5"/>
	
		<line fill="none" stroke-width="12" stroke-linecap="round" stroke-linejoin="round" stroke-miterlimit="10" x1="1007" y1="1032.5" x2="1105" y2="1032.5"/>
	<path fill="none" stroke-width="12" stroke-linecap="round" stroke-linejoin="round" stroke-miterlimit="10" d="
		M1109.2,1116c0,0,0,33,0,41.5s12.8,13.5,18.8,13.5s18.5-6.5,18.5-23s0-32,0-32l18.5-9.5"/>
	<path fill="none" stroke-width="12" stroke-linecap="round" stroke-linejoin="round" stroke-miterlimit="10" d="
		M1140,972c0,0,2.5,71.5,4,87.5s3.5,47,3.5,47"/>
	<path fill="none" stroke-width="12" stroke-linecap="round" stroke-linejoin="round" stroke-miterlimit="10" d="
		M1147.5,1149.5c0,0,11.5,11.5,22.5,12s13,0,13,0"/>
	
		<rect x="1215" y="1014" fill="none" stroke-width="12" stroke-linecap="round" stroke-linejoin="round" stroke-miterlimit="10" width="19" height="86"/>
	
		<rect x="1173.5" y="1014" fill="none" stroke-width="12" stroke-linecap="round" stroke-linejoin="round" stroke-miterlimit="10" width="19" height="86"/>
	
		<rect x="1258.5" y="1014" fill="none" stroke-width="12" stroke-linecap="round" stroke-linejoin="round" stroke-miterlimit="10" width="19" height="86"/>
	
		<rect x="1302" y="1014" fill="none" stroke-width="12" stroke-linecap="round" stroke-linejoin="round" stroke-miterlimit="10" width="19" height="86"/>
	
		<rect x="1345.5" y="1014" fill="none" stroke-width="12" stroke-linecap="round" stroke-linejoin="round" stroke-miterlimit="10" width="19" height="86"/>
	
		<rect x="1389" y="1014" fill="none" stroke-width="12" stroke-linecap="round" stroke-linejoin="round" stroke-miterlimit="10" width="19" height="86"/>
	
		<rect x="1432.5" y="1014" fill="none" stroke-width="12" stroke-linecap="round" stroke-linejoin="round" stroke-miterlimit="10" width="19" height="86"/>
	
		<rect x="1476" y="1014" fill="none" stroke-width="12" stroke-linecap="round" stroke-linejoin="round" stroke-miterlimit="10" width="19" height="86"/>
	
		<rect x="1519.5" y="1014" fill="none" stroke-width="12" stroke-linecap="round" stroke-linejoin="round" stroke-miterlimit="10" width="19" height="86"/>
	
		<rect x="1563" y="1014" fill="none" stroke-width="12" stroke-linecap="round" stroke-linejoin="round" stroke-miterlimit="10" width="19" height="86"/>
	
		<rect x="1606.5" y="1014" fill="none" stroke-width="12" stroke-linecap="round" stroke-linejoin="round" stroke-miterlimit="10" width="19" height="86"/>
	
		<rect x="1650" y="1014" fill="none" stroke-width="12" stroke-linecap="round" stroke-linejoin="round" stroke-miterlimit="10" width="19" height="86"/>
	
		<rect x="1693.5" y="1014" fill="none" stroke-width="12" stroke-linecap="round" stroke-linejoin="round" stroke-miterlimit="10" width="19" height="86"/>
	
		<rect x="1737" y="1014" fill="none" stroke-width="12" stroke-linecap="round" stroke-linejoin="round" stroke-miterlimit="10" width="19" height="86"/>
	
		<rect x="1780.5" y="1014" fill="none" stroke-width="12" stroke-linecap="round" stroke-linejoin="round" stroke-miterlimit="10" width="19" height="86"/>
	
		<rect x="1824" y="1014" fill="none" stroke-width="12" stroke-linecap="round" stroke-linejoin="round" stroke-miterlimit="10" width="19" height="86"/>
	
		<line fill="none" stroke-width="9" stroke-linecap="round" stroke-linejoin="round" stroke-miterlimit="10" x1="1192.5" y1="1024" x2="1215" y2="1024"/>
	
		<line fill="none" stroke-width="9" stroke-linecap="round" stroke-linejoin="round" stroke-miterlimit="10" x1="1192.5" y1="1091.5" x2="1215" y2="1091.5"/>
	
		<line fill="none" stroke-width="9" stroke-linecap="round" stroke-linejoin="round" stroke-miterlimit="10" x1="1234" y1="1024" x2="1256.5" y2="1024"/>
	
		<line fill="none" stroke-width="9" stroke-linecap="round" stroke-linejoin="round" stroke-miterlimit="10" x1="1234" y1="1091.5" x2="1256.5" y2="1091.5"/>
	
		<line fill="none" stroke-width="9" stroke-linecap="round" stroke-linejoin="round" stroke-miterlimit="10" x1="1277.5" y1="1024" x2="1300" y2="1024"/>
	
		<line fill="none" stroke-width="9" stroke-linecap="round" stroke-linejoin="round" stroke-miterlimit="10" x1="1277.5" y1="1091.5" x2="1300" y2="1091.5"/>
	
		<line fill="none" stroke-width="9" stroke-linecap="round" stroke-linejoin="round" stroke-miterlimit="10" x1="1321" y1="1024" x2="1343.5" y2="1024"/>
	
		<line fill="none" stroke-width="9" stroke-linecap="round" stroke-linejoin="round" stroke-miterlimit="10" x1="1321" y1="1091.5" x2="1343.5" y2="1091.5"/>
	
		<line fill="none" stroke-width="9" stroke-linecap="round" stroke-linejoin="round" stroke-miterlimit="10" x1="1364.5" y1="1024" x2="1387" y2="1024"/>
	
		<line fill="none" stroke-width="9" stroke-linecap="round" stroke-linejoin="round" stroke-miterlimit="10" x1="1364.5" y1="1091.5" x2="1387" y2="1091.5"/>
	
		<line fill="none" stroke-width="9" stroke-linecap="round" stroke-linejoin="round" stroke-miterlimit="10" x1="1408" y1="1024" x2="1430.5" y2="1024"/>
	
		<line fill="none" stroke-width="9" stroke-linecap="round" stroke-linejoin="round" stroke-miterlimit="10" x1="1408" y1="1091.5" x2="1430.5" y2="1091.5"/>
	
		<line fill="none" stroke-width="9" stroke-linecap="round" stroke-linejoin="round" stroke-miterlimit="10" x1="1451.5" y1="1024" x2="1474" y2="1024"/>
	
		<line fill="none" stroke-width="9" stroke-linecap="round" stroke-linejoin="round" stroke-miterlimit="10" x1="1451.5" y1="1091.5" x2="1474" y2="1091.5"/>
	
		<line fill="none" stroke-width="9" stroke-linecap="round" stroke-linejoin="round" stroke-miterlimit="10" x1="1495" y1="1024" x2="1517.5" y2="1024"/>
	
		<line fill="none" stroke-width="9" stroke-linecap="round" stroke-linejoin="round" stroke-miterlimit="10" x1="1495" y1="1091.5" x2="1517.5" y2="1091.5"/>
	
		<line fill="none" stroke-width="9" stroke-linecap="round" stroke-linejoin="round" stroke-miterlimit="10" x1="1538.5" y1="1024" x2="1561" y2="1024"/>
	
		<line fill="none" stroke-width="9" stroke-linecap="round" stroke-linejoin="round" stroke-miterlimit="10" x1="1538.5" y1="1091.5" x2="1561" y2="1091.5"/>
	
		<line fill="none" stroke-width="9" stroke-linecap="round" stroke-linejoin="round" stroke-miterlimit="10" x1="1582" y1="1024" x2="1604.5" y2="1024"/>
	
		<line fill="none" stroke-width="9" stroke-linecap="round" stroke-linejoin="round" stroke-miterlimit="10" x1="1582" y1="1091.5" x2="1604.5" y2="1091.5"/>
	
		<line fill="none" stroke-width="9" stroke-linecap="round" stroke-linejoin="round" stroke-miterlimit="10" x1="1625.5" y1="1024" x2="1648" y2="1024"/>
	
		<line fill="none" stroke-width="9" stroke-linecap="round" stroke-linejoin="round" stroke-miterlimit="10" x1="1625.5" y1="1091.5" x2="1648" y2="1091.5"/>
	
		<line fill="none" stroke-width="9" stroke-linecap="round" stroke-linejoin="round" stroke-miterlimit="10" x1="1669" y1="1024" x2="1691.5" y2="1024"/>
	
		<line fill="none" stroke-width="9" stroke-linecap="round" stroke-linejoin="round" stroke-miterlimit="10" x1="1669" y1="1091.5" x2="1691.5" y2="1091.5"/>
	
		<line fill="none" stroke-width="9" stroke-linecap="round" stroke-linejoin="round" stroke-miterlimit="10" x1="1712.5" y1="1024" x2="1735" y2="1024"/>
	
		<line fill="none" stroke-width="9" stroke-linecap="round" stroke-linejoin="round" stroke-miterlimit="10" x1="1712.5" y1="1091.5" x2="1735" y2="1091.5"/>
	
		<line fill="none" stroke-width="9" stroke-linecap="round" stroke-linejoin="round" stroke-miterlimit="10" x1="1756" y1="1024" x2="1778.5" y2="1024"/>
	
		<line fill="none" stroke-width="9" stroke-linecap="round" stroke-linejoin="round" stroke-miterlimit="10" x1="1756" y1="1091.5" x2="1778.5" y2="1091.5"/>
	
		<line fill="none" stroke-width="9" stroke-linecap="round" stroke-linejoin="round" stroke-miterlimit="10" x1="1799.5" y1="1024" x2="1822" y2="1024"/>
	
		<line fill="none" stroke-width="9" stroke-linecap="round" stroke-linejoin="round" stroke-miterlimit="10" x1="1799.5" y1="1091.5" x2="1822" y2="1091.5"/>
	
		<line fill="none" stroke-width="9" stroke-linecap="round" stroke-linejoin="round" stroke-miterlimit="10" x1="1843" y1="1024" x2="1865.5" y2="1024"/>
	
		<line fill="none" stroke-width="9" stroke-linecap="round" stroke-linejoin="round" stroke-miterlimit="10" x1="1843" y1="1091.5" x2="1865.5" y2="1091.5"/>
	
		<line fill="none" stroke-width="9" stroke-linecap="round" stroke-linejoin="round" stroke-miterlimit="10" x1="1187.7" y1="972" x2="1857" y2="972"/>
	
		<line fill="none" stroke-width="9" stroke-linecap="round" stroke-linejoin="round" stroke-miterlimit="10" x1="1185.3" y1="1155.6" x2="1857" y2="1155.6"/>
	
		<line fill="none" stroke-width="9" stroke-linecap="round" stroke-linejoin="round" stroke-miterlimit="10" x1="1887" y1="972" x2="1887" y2="1173.2"/>
	
		<line fill="none" stroke-width="9" stroke-linecap="round" stroke-linejoin="round" stroke-miterlimit="10" x1="1899.6" y1="969.1" x2="1899.6" y2="1177.5"/>
	
		<line fill="none" stroke-width="9" stroke-linecap="round" stroke-linejoin="round" stroke-miterlimit="10" x1="1912" y1="966.1" x2="1912" y2="1181.5"/>
	
		<line fill="none" stroke-width="9" stroke-linecap="round" stroke-linejoin="round" stroke-miterlimit="10" x1="1924.9" y1="962.9" x2="1924.9" y2="1183.5"/>
	
		<line fill="none" stroke-width="9" stroke-linecap="round" stroke-linejoin="round" stroke-miterlimit="10" x1="1940.5" y1="962.9" x2="1940.5" y2="1183.5"/>
	
		<circle fill="none" stroke-width="12" stroke-linecap="round" stroke-linejoin="round" stroke-miterlimit="10" cx="2508.5" cy="924.5" r="47"/>
	
		<circle fill="none" stroke-width="12" stroke-linecap="round" stroke-linejoin="round" stroke-miterlimit="10" cx="2626" cy="808.5" r="20.5"/>
	
		<line fill="none" stroke-width="12" stroke-linecap="round" stroke-linejoin="round" stroke-miterlimit="10" x1="2492.5" y1="891.5" x2="2527.5" y2="952.7"/>
	
		<polyline fill="none" stroke-width="12" stroke-linecap="round" stroke-linejoin="round" stroke-miterlimit="10" points="
		2502,816 2540,843.5 2558,843.5 2675,841 	"/>
	
		<line fill="none" stroke-width="12" stroke-linecap="round" stroke-linejoin="round" stroke-miterlimit="10" x1="2561" y1="841" x2="2561" y2="794"/>
	
		<line fill="none" stroke-width="12" stroke-linecap="round" stroke-linejoin="round" stroke-miterlimit="10" x1="2432" y1="912" x2="2454.7" y2="912"/>
	
		<polyline fill="none" stroke-width="12" stroke-linecap="round" stroke-linejoin="round" stroke-miterlimit="10" points="
		2555.5,912 2575.5,912 2578,946.5 	"/>
	<path fill="none" stroke-width="12" stroke-linecap="round" stroke-linejoin="round" stroke-miterlimit="10" d="
		M2644.6,976v-19l7.1-27.8l86.8-2.5c0,0,19.8-2.8,28.8-2.3s18.3,10.5,18.7,18.5s2,36.3,2,36.3"/>
	
		<line fill="none" stroke-width="12" stroke-linecap="round" stroke-linejoin="round" stroke-miterlimit="10" x1="2710" y1="976.7" x2="2742" y2="934"/>
	
		<line fill="none" stroke-width="12" stroke-linecap="round" stroke-linejoin="round" stroke-miterlimit="10" x1="1965.5" y1="1005" x2="2064.5" y2="1005"/>
	<path fill="none" stroke-width="12" stroke-linecap="round" stroke-linejoin="round" stroke-miterlimit="10" d="
		M2183,1005h564v61.5c0,0-40,64.5-75.5,67.5"/>
	<path fill="none" stroke-width="12" stroke-linecap="round" stroke-linejoin="round" stroke-miterlimit="10" d="
		M2075.7,987h98c0,0,14.3,22.7,3.3,33.7s-88,3.3-98.7,3.3S2067.7,997.3,2075.7,987z"/>
	
		<polyline fill="none" stroke-width="12" stroke-linecap="round" stroke-linejoin="round" stroke-miterlimit="10" points="
		2008.3,1130.7 2008.3,1088 2303,1088 	"/>
	
		<line fill="none" stroke-width="12" stroke-linecap="round" stroke-linejoin="round" stroke-miterlimit="10" x1="1965.5" y1="1103.3" x2="2008" y2="1103.3"/>
	
		<circle fill="none" stroke-width="12" stroke-linecap="round" stroke-linejoin="round" stroke-miterlimit="10" cx="1983.3" cy="1163.7" r="13.7"/>
	<path fill="none" stroke-width="12" stroke-linecap="round" stroke-linejoin="round" stroke-miterlimit="10" d="
		M2019,1341.3l164,30.7c0,0,22,12,40.7,12.7s34,0,34,0l45.3,4.7c0,0,10.7,32.7,16.7,34.7"/>
	
		<polyline fill="none" stroke-width="12" stroke-linecap="round" stroke-linejoin="round" stroke-miterlimit="10" points="
		2183,1372 2183,1116.7 2255,1116.7 2255,1200 	"/>
	<path fill="none" stroke-width="12" stroke-linecap="round" stroke-linejoin="round" stroke-miterlimit="10" d="
		M2193,1204.5c0,0,9.5-18.5,26-18.5s30.5,18.5,30.5,18.5H2193z"/>
	<path fill="none" stroke-width="12" stroke-linecap="round" stroke-linejoin="round" stroke-miterlimit="10" d="
		M2189,1231.5c0,0,8,24,32.2,24s28.3-21,28.3-21L2189,1231.5z"/>
	<path fill="none" stroke-width="12" stroke-linecap="round" stroke-linejoin="round" stroke-miterlimit="10" d="
		M2341.6,1205.7c7.4,2.3,14.4,7.3,15.4,14.3c1,9-7,18-16,18c-28,1-55,0-83,2c0,48,0,97-0.3,144.7"/>
	<path fill="none" stroke-width="12" stroke-linecap="round" stroke-linejoin="round" stroke-miterlimit="10" d="
		M2253,1204.5c21.7,0.5,43.5,0.5,65.2,0.1"/>
	<path fill="none" stroke-width="12" stroke-linecap="round" stroke-linejoin="round" stroke-miterlimit="10" d="
		M2324.7,1069.5c-3.3,2.4,3.7-2.2,9.3,0s21,16.8,21,32.5s-15.2,24.7-15.2,24.7l-2.2,42.3c0,0,1.7,23.2,0.3,26.3s-0.7,23.8-0.7,23.8
		h-22c0,0,4.8-17.8,2.9-23.8s0-17.3,0-17.3l2.4-49.7c0,0-15-7-15-27S2328,1067.1,2324.7,1069.5z"/>
	<path fill="none" stroke-width="12" stroke-linecap="round" stroke-linejoin="round" stroke-miterlimit="10" d="
		M2299,1388.9v-112.6c0,0,12-18,31.3-19.3s37.7-10,37.7-25.5s0-135.2,0-135.2l-13-12.3"/>
	<path fill="none" stroke-width="12" stroke-linecap="round" stroke-linejoin="round" stroke-miterlimit="10" d="
		M2307.4,1134c0,0-15.4,9.3-13.4,22.7s19,20,19,20"/>
	<path fill="none" stroke-width="12" stroke-linecap="round" stroke-linejoin="round" stroke-miterlimit="10" d="
		M2344.7,1130.7c0,0,17,14.3,17.7,26s-20,22.7-20,22.7"/>
	
		<circle fill="none" stroke-width="12" stroke-linecap="round" stroke-linejoin="round" stroke-miterlimit="10" cx="2388.3" cy="1198.8" r="7.8"/>
	
		<circle fill="none" stroke-width="12" stroke-linecap="round" stroke-linejoin="round" stroke-miterlimit="10" cx="2483.5" cy="1236" r="9"/>
	<path fill="none" stroke-width="12" stroke-linecap="round" stroke-linejoin="round" stroke-miterlimit="10" d="
		M2532.7,1182.7h25.3c0,0,8,10.3,5.7,12.7s-31,3.4-31,3.4S2524.7,1184.7,2532.7,1182.7z"/>
	
		<circle fill="none" stroke-width="12" stroke-linecap="round" stroke-linejoin="round" stroke-miterlimit="10" cx="2697.7" cy="1161" r="15.3"/>
	<path fill="none" stroke-width="12" stroke-linecap="round" stroke-linejoin="round" stroke-miterlimit="10" d="
		M2628,1194.7c0,0-10.7-10-23.3-10s-17.7,12.7-21.3,16.3s-11,9-11,9s10.7,7.7,13,12.3s8,14.1,23.3,14.1s24-12.8,24-12.8"/>
	<path fill="none" stroke-width="12" stroke-linecap="round" stroke-linejoin="round" stroke-miterlimit="10" d="
		M2660.7,1187.3c21,0,34.7,2.3,34.7,14.3s-9,19-33,19s-42.3-3.7-42.3-12s9-20.3,20.3-21.3S2660.7,1187.3,2660.7,1187.3z"/>
	
		<line fill="none" stroke-width="12" stroke-linecap="round" stroke-linejoin="round" stroke-miterlimit="10" x1="2305.7" y1="1287" x2="2348" y2="1287"/>
	<path fill="none" stroke-width="12" stroke-linecap="round" stroke-linejoin="round" stroke-miterlimit="10" d="
		M2721.2,1281.9h-133.7c0,0-23.4,9.1-23.4,19.6s0,125,0,125"/>
	
		<line fill="none" stroke-width="12" stroke-linecap="round" stroke-linejoin="round" stroke-miterlimit="10" x1="2578.8" y1="1286" x2="2515" y2="1286"/>
	<path fill="none" stroke-width="12" stroke-linecap="round" stroke-linejoin="round" stroke-miterlimit="10" d="
		M2342.3,1424l2.2-27c0,0-22.7-12-24.8-28s-2.5-38,7.2-50s25.7-42,47.2-42h115.5c0,0,20.5,8.5,35,29.5s20,22.5,20,51.5
		s-27.5,54.1-38.5,66"/>
	<path fill="none" stroke-width="12" stroke-linecap="round" stroke-linejoin="round" stroke-miterlimit="10" d="
		M2434,1277c0,0,25,31.5,28,46s6.5,28,3,41s-20,38-20,38s18-4.6,23.5-13.1s26.5-44.4,20-72.4s-9-39.5-9-39.5"/>
	<path fill="none" stroke-width="12" stroke-linecap="round" stroke-linejoin="round" stroke-miterlimit="10" d="
		M2671,1405.3c0,0,33.7-25.3,50.2-22.7s40.5,45.1,48.5,60.5s116.3,157.5,117.8,166.1s-2.5,25.3-9.8,30.7s-43.3,22.7-57.3,28
		s-30.7,8.7-48.7-14.7S2667,1484,2651,1460S2650.3,1418.7,2671,1405.3z"/>
	<path fill="none" stroke-width="12" stroke-linecap="round" stroke-linejoin="round" stroke-miterlimit="10" d="
		M2080,1388.9V1494c0,0-1.1,67-10.1,110s-61.6,230.4-61.6,230.4"/>
	<path fill="none" stroke-width="12" stroke-linecap="round" stroke-linejoin="round" stroke-miterlimit="10" d="
		M2109,1388.9c0,0,7,83.1,7,114.1s-20,117-27,152s-50.5,187.9-50.5,187.9"/>
	<path fill="none" stroke-width="12" stroke-linecap="round" stroke-linejoin="round" stroke-miterlimit="10" d="
		M2181.2,1407.1c0,0,0,61.9,0,87.9s-8.2,87-18.2,133s-56.4,233.9-56.4,233.9"/>
	<path fill="none" stroke-width="12" stroke-linecap="round" stroke-linejoin="round" stroke-miterlimit="10" d="
		M2204,1407.1c0,0,0,69.9,0,101.9s-9,97-21,144s-57.4,214.2-57.4,214.2"/>
	<path fill="none" stroke-width="12" stroke-linecap="round" stroke-linejoin="round" stroke-miterlimit="10" d="
		M2253,1420c0,0,0,62,0,86s-16,141-27,182s-50.9,193.1-50.9,193.1"/>
	<path fill="none" stroke-width="12" stroke-linecap="round" stroke-linejoin="round" stroke-miterlimit="10" d="
		M2277.7,1424.4c0,0,0,89.5,0,119.1S2262,1657,2249.5,1704s-50.4,183.8-50.4,183.8"/>
	
		<line fill="none" stroke-width="12" stroke-linecap="round" stroke-linejoin="round" stroke-miterlimit="10" x1="2949" y1="1130.7" x2="3576.5" y2="1130.7"/>
	
		<line fill="none" stroke-width="12" stroke-linecap="round" stroke-linejoin="round" stroke-miterlimit="10" x1="2965" y1="1204.7" x2="3658" y2="1204.7"/>
	<path fill="none" stroke-width="12" stroke-linecap="round" stroke-linejoin="round" stroke-miterlimit="10" d="
		M3373.7,1240.7h178.7c0,0,14.7,9.3,14.7,16s-13.9,13.9-13.9,13.9h-179.4c0,0-16.7-4.7-16.7-15S3373.7,1240.7,3373.7,1240.7z"/>
	<path fill="none" stroke-width="12" stroke-linecap="round" stroke-linejoin="round" stroke-miterlimit="10" d="
		M3601,1273.3c7.3,0,11.3,14,11.3,27.4s4,56.7,4,56.7s-11.3,8-11.3,17.3s-4,37.3-4,37.3l18,8c0,0,5.3,17.3-9,17.3s-23-5.3-23-34.7
		s0-106.9,0-120.7S3601,1273.3,3601,1273.3z"/>
	
		<line fill="none" stroke-width="12" stroke-linecap="round" stroke-linejoin="round" stroke-miterlimit="10" x1="3620" y1="1354.9" x2="3658" y2="1352"/>
	
		<line fill="none" stroke-width="12" stroke-linecap="round" stroke-linejoin="round" stroke-miterlimit="10" x1="3619" y1="1420" x2="3654.3" y2="1413.3"/>
</g>
</svg>
