<svg id="category_svg-image_auto" xmlns="http://www.w3.org/2000/svg" viewBox="0 0 3520.33 1154.5"><defs><style>.cls-1,.cls-2,.cls-3{fill:none;stroke-linecap:round;stroke-linejoin:round;}.cls-1{stroke-width:16px;}.cls-2{stroke-width:12px;}.cls-3{stroke-width:9px;}</style></defs><title>auto</title><path class="cls-1" d="M3257,998.67H2903.67s-18,6-15.33,14,8.67,46.67,8.67,46.67l26,47.67s-38.87,40-34.94,50,6.94,41,12.94,44,59,18,59,18l30,55h68s6,20.33,11.67,20.33H3126v36.33h52.33v-38h39.33S3325.5,1379.5,3343,1389s40-3.5,42.5-10.5,4-45.5,4-45.5l244.83,183.67s3.33,16.67,10,20.67,28,13.33,54.67-4,39.33-32.67,39.33-53.33-16-422.67-16-422.67-6-56.67-79.33-58.67S3257,998.67,3257,998.67Z" transform="translate(-226 -745.5)"/><path class="cls-1" d="M3058,1274s-0.33-22,16.33-31.33c9.19-5.15-1.42-11.1,14.17-15.41,12.68-3.51,73.17-1.75,73.17-1.75s65.28-.88,83.83,2.5c23.1,4.21,21.75,9.5,39.5,19.67,32,18.33,103.33,71.67,103.33,71.67v11.33" transform="translate(-226 -745.5)"/><path class="cls-1" d="M3662.26,1000.65L3673,1049l15,370s-5.74,108-12.87,120" transform="translate(-226 -745.5)"/><polyline class="cls-1" points="3182.7 601.9 3432 757.5 3428 793.5"/><path class="cls-1" d="M3658,1503V1202s-40-6-53-20-32-34-28-49,75-83,75-83l19.8-6.4" transform="translate(-226 -745.5)"/><line class="cls-1" x1="3248.33" y1="635.83" x2="3277" y2="601.9"/><line class="cls-1" x1="3326.33" y1="552.5" x2="3423.67" y2="459.17"/><circle class="cls-1" cx="3300.67" cy="580.83" r="25.67"/><path class="cls-1" d="M2923,1107s28,36.5,34.5,54.5,2.5,57.5,2.5,57.5" transform="translate(-226 -745.5)"/><path class="cls-1" d="M2837.67,997.78h32s11.33,28.09,12,45.82,0,83.07,0,83.07,1.33,22.67-43.33,22.67C2838.33,1078,2837.67,997.78,2837.67,997.78Z" transform="translate(-226 -745.5)"/><line class="cls-1" x1="2655.96" y1="387.83" x2="2667" y2="387.83"/><path class="cls-1" d="M2838.33,1149.33v76H2783c-33.67,0-62,35.67-62,60v45.33c0,15.83,228,330.83,228,330.83s-173.5,53.5-204.5,63-34-16.5-29-29-7.5-56-17.5-69-60-94-60-94-28-3-36-3c7.5-19.5,20-35.5,18.5-40.5s-40-58.5-40-58.5H2311.67L2008,1376s-11-6.5,4.5-32.5c0-38,1-110,1-110S1972,1193,1962,1188c-3.5-22,0-49.5,0-49.5l3-.5,43.38-7.33h174" transform="translate(-226 -745.5)"/><polyline class="cls-2" points="1734.44 388.5 1734.44 189 1782.5 189 1782.5 202 1807.5 202 1807.5 187 1827.5 187 1827.5 201.5 1851.5 201.5 1851.5 187 1871.5 187 1871.5 202 1892.5 202 1892.5 187 1913.5 187 1913.5 203 1938.5 203 1938.5 187 1957.5 187 1957.5 204 1983 204 1983 187 2001 187 2001 204 2026.5 204 2026.5 187 2045 187 2045 204 2067.5 204 2067.5 185.5 2086.5 185.5 2086.5 203 2111.5 203 2111.5 185 2132.5 185 2132.5 205 2155.5 205 2155.5 183.5 2173.5 183.5 2173.5 203.5 2199.5 203.5"/><path class="cls-1" d="M2464.33,952.67H2425.5V895h29.22l43.78-69V783c0-17.5,26.5-18.5,46-18.5s25.5-11,25.5-11h80l29.5,29.5v58h39l23.5,85.5" transform="translate(-226 -745.5)"/><path class="cls-1" d="M2025.79,1379.19V1482s0.79,41.9,0,61.45S1960.44,1821,1960.44,1821L2214,1892l20-17s60-219,63-247,14.67-176,14.67-197.5" transform="translate(-226 -745.5)"/><line class="cls-1" x1="2031.67" y1="385.17" x2="2071.67" y2="385.17"/><path class="cls-1" d="M2371,1133.33h313.33c63.33,0,94.67-47.56,94.67-59.78s5-86.56,5-86.56h24.33l23,13.33" transform="translate(-226 -745.5)"/><line class="cls-1" x1="2324" y1="207.17" x2="2418" y2="207.17"/><polyline class="cls-1" points="1733 244.5 1714.67 244.5 1714.67 213.83 1647 229.17 1644 424.17 1712.33 440.5 1712.67 398.5 1733 398.5"/><polyline class="cls-2" points="1644 405.67 1631 413.17 1631 447.17 1610 447.17 1610 434.67 1588 434.67 1588 447.17 1568.5 447.17 1568.5 434.67 1544 434.67 1544 447.17 1524.5 447.17 1524.5 433.67 1501.5 433.67 1501.5 449.17 1481 449.17 1481 435.67 1458.5 435.67 1458.5 449.17 1437.5 449.17 1437.5 437.17 1416 437.17 1416 449.17 1393 449.17 1393 435.17 1371.5 435.17 1371.5 449.17 1350 449.17 1350 435.67 1327.5 435.67 1327.5 449.17 1306.5 449.17 1306.5 436.67 1284.5 436.67 1284.5 449.17 1262 449.17 1262 435.17 1244.67 435.17 1244.67 449.17 1221.33 449.17 1221.33 435.83 1201 435.83 1201 449.17 1176.67 449.17 1176.67 435.17 1157 435.17 1157 449.17 1132.67 449.17 1132.67 433.83 1112.67 433.83 1112.67 449.17 1088.33 449.17 1088.33 434.17 1069.67 434.17 1069.67 449.17 1047.83 449.17 1047.83 433.33 1028.83 433.33 1028.83 449.17 1003.5 449.17 1003.5 431.5 983.33 431.5 983.33 451.83 961 451.83 959 403.5 946.5 371.17 946.5 266.5 959 234.17 961 185.83 983.33 185.83 983.33 206.17 1003.5 206.17 1003.5 188.5 1028.83 188.5 1028.83 204.33 1047.83 204.33 1047.83 188.5 1069.67 188.5 1069.67 203.5 1088.33 203.5 1088.33 188.5 1112.67 188.5 1112.67 203.83 1132.67 203.83 1132.67 188.5 1157 188.5 1157 202.5 1176.67 202.5 1176.67 188.5 1201 188.5 1201 201.83 1221.33 201.83 1221.33 188.5 1244.67 188.5 1244.67 202.5 1262 202.5 1262 188.5 1284.5 188.5 1284.5 201 1306.5 201 1306.5 188.5 1327.5 188.5 1327.5 202 1350 202 1350 188.5 1371.5 188.5 1371.5 202.5 1393 202.5 1393 188.5 1416 188.5 1416 200.5 1437.5 200.5 1437.5 188.5 1458.5 188.5 1458.5 202 1481 202 1481 188.5 1501.5 188.5 1501.5 204 1524.5 204 1524.5 190.5 1544 190.5 1544 203 1568.5 203 1568.5 190.5 1588 190.5 1588 203 1610 203 1610 190.5 1631 190.5 1631 224.5 1644 232"/><path class="cls-1" d="M1183,984.84h-26.67L1027.67,806.67s-21.33-20-34.67-20S959,801.33,959,816s-6,221.33-6,221.33H794l-9.5,4.17h-91l-9-7.5H449s-8.67,23.33-8.67,43.33a120.69,120.69,0,0,0,6,36.67h234l12-7.33h84l12,7.33H949" transform="translate(-226 -745.5)"/><line class="cls-1" x1="925.69" y1="368.5" x2="781" y2="368.5"/><path class="cls-1" d="M452,1034H400.5l-13.5-3H246.5s-12.5,17-12.5,44,14,42.5,14,42.5H363l14-6.5,12,6.5,12.5-4,44.83,0.5" transform="translate(-226 -745.5)"/><path class="cls-1" d="M515.5,1034s-5.5,27-5.5,40.25,6.25,40.5,6.25,40.5" transform="translate(-226 -745.5)"/><path class="cls-1" d="M687.7,1036.66S678,1063,678,1074.25s9.7,35.25,9.7,35.25" transform="translate(-226 -745.5)"/><path class="cls-1" d="M780.5,1041.5s5.5,27,5.5,36.5-5,31.5-5,31.5" transform="translate(-226 -745.5)"/><line class="cls-2" x1="42" y1="298.83" x2="109.33" y2="298.83"/><line class="cls-2" x1="31.33" y1="321.83" x2="114" y2="321.83"/><path class="cls-2" d="M367,1041.5v68" transform="translate(-226 -745.5)"/><path class="cls-2" d="M399,1036.66s-6,26-5,35,2.44,42.33,2.44,42.33" transform="translate(-226 -745.5)"/><path class="cls-2" d="M980.5,986V861.5H1040s74.5,100,78.5,106-1.5,17.5-6,18.5S980.5,986,980.5,986Z" transform="translate(-226 -745.5)"/><path class="cls-2" d="M985,924s25.5-3,27.5-8,10-51,10-51" transform="translate(-226 -745.5)"/><line class="cls-2" x1="731.5" y1="292" x2="727.5" y2="368.5"/><path class="cls-2" d="M953.5,1119.5s-27.5,10-29,11.5-3.5,17-4,20.5,21.5,13.5,26,12.5,16.5,4.5,16.5,4.5l31,5.5,2.5-40,7.25-20s-1.75-10-4.25-14-3-38-3-48.5S1013,1014,1013,1014h83.5s14.5,9.5,12.5,15-4,24.17-4,35.33V1112" transform="translate(-226 -745.5)"/><line class="cls-2" x1="751" y1="274" x2="781" y2="274"/><line class="cls-2" x1="781" y1="287" x2="879" y2="287"/><path class="cls-2" d="M1109.19,1116v41.5c0,8.5,12.81,13.5,18.81,13.5s18.5-6.5,18.5-23v-32l18.5-9.5" transform="translate(-226 -745.5)"/><path class="cls-2" d="M1140,972s2.5,71.5,4,87.5,3.5,47,3.5,47" transform="translate(-226 -745.5)"/><path class="cls-2" d="M1147.5,1149.5s11.5,11.5,22.5,12,13,0,13,0" transform="translate(-226 -745.5)"/><rect class="cls-2" x="989" y="268.5" width="19" height="86"/><rect class="cls-2" x="947.5" y="268.5" width="19" height="86"/><rect class="cls-2" x="1032.5" y="268.5" width="19" height="86"/><rect class="cls-2" x="1076" y="268.5" width="19" height="86"/><rect class="cls-2" x="1119.5" y="268.5" width="19" height="86"/><rect class="cls-2" x="1163" y="268.5" width="19" height="86"/><rect class="cls-2" x="1206.5" y="268.5" width="19" height="86"/><rect class="cls-2" x="1250" y="268.5" width="19" height="86"/><rect class="cls-2" x="1293.5" y="268.5" width="19" height="86"/><rect class="cls-2" x="1337" y="268.5" width="19" height="86"/><rect class="cls-2" x="1380.5" y="268.5" width="19" height="86"/><rect class="cls-2" x="1424" y="268.5" width="19" height="86"/><rect class="cls-2" x="1467.5" y="268.5" width="19" height="86"/><rect class="cls-2" x="1511" y="268.5" width="19" height="86"/><rect class="cls-2" x="1554.5" y="268.5" width="19" height="86"/><rect class="cls-2" x="1598" y="268.5" width="19" height="86"/><line class="cls-3" x1="966.5" y1="278.5" x2="989" y2="278.5"/><line class="cls-3" x1="966.5" y1="346" x2="989" y2="346"/><line class="cls-3" x1="1008" y1="278.5" x2="1030.5" y2="278.5"/><line class="cls-3" x1="1008" y1="346" x2="1030.5" y2="346"/><line class="cls-3" x1="1051.5" y1="278.5" x2="1074" y2="278.5"/><line class="cls-3" x1="1051.5" y1="346" x2="1074" y2="346"/><line class="cls-3" x1="1095" y1="278.5" x2="1117.5" y2="278.5"/><line class="cls-3" x1="1095" y1="346" x2="1117.5" y2="346"/><line class="cls-3" x1="1138.5" y1="278.5" x2="1161" y2="278.5"/><line class="cls-3" x1="1138.5" y1="346" x2="1161" y2="346"/><line class="cls-3" x1="1182" y1="278.5" x2="1204.5" y2="278.5"/><line class="cls-3" x1="1182" y1="346" x2="1204.5" y2="346"/><line class="cls-3" x1="1225.5" y1="278.5" x2="1248" y2="278.5"/><line class="cls-3" x1="1225.5" y1="346" x2="1248" y2="346"/><line class="cls-3" x1="1269" y1="278.5" x2="1291.5" y2="278.5"/><line class="cls-3" x1="1269" y1="346" x2="1291.5" y2="346"/><line class="cls-3" x1="1312.5" y1="278.5" x2="1335" y2="278.5"/><line class="cls-3" x1="1312.5" y1="346" x2="1335" y2="346"/><line class="cls-3" x1="1356" y1="278.5" x2="1378.5" y2="278.5"/><line class="cls-3" x1="1356" y1="346" x2="1378.5" y2="346"/><line class="cls-3" x1="1399.5" y1="278.5" x2="1422" y2="278.5"/><line class="cls-3" x1="1399.5" y1="346" x2="1422" y2="346"/><line class="cls-3" x1="1443" y1="278.5" x2="1465.5" y2="278.5"/><line class="cls-3" x1="1443" y1="346" x2="1465.5" y2="346"/><line class="cls-3" x1="1486.5" y1="278.5" x2="1509" y2="278.5"/><line class="cls-3" x1="1486.5" y1="346" x2="1509" y2="346"/><line class="cls-3" x1="1530" y1="278.5" x2="1552.5" y2="278.5"/><line class="cls-3" x1="1530" y1="346" x2="1552.5" y2="346"/><line class="cls-3" x1="1573.5" y1="278.5" x2="1596" y2="278.5"/><line class="cls-3" x1="1573.5" y1="346" x2="1596" y2="346"/><line class="cls-3" x1="1617" y1="278.5" x2="1639.5" y2="278.5"/><line class="cls-3" x1="1617" y1="346" x2="1639.5" y2="346"/><line class="cls-3" x1="961.67" y1="226.5" x2="1631" y2="226.5"/><line class="cls-3" x1="959.27" y1="410.11" x2="1631" y2="410.11"/><line class="cls-3" x1="1661" y1="226.5" x2="1661" y2="427.68"/><line class="cls-3" x1="1673.63" y1="223.59" x2="1673.63" y2="432"/><line class="cls-3" x1="1686.01" y1="220.55" x2="1686.01" y2="436"/><line class="cls-3" x1="1698.87" y1="217.41" x2="1698.87" y2="438"/><line class="cls-3" x1="1714.5" y1="217.41" x2="1714.5" y2="438"/><circle class="cls-2" cx="2282.5" cy="179" r="47"/><circle class="cls-2" cx="2400" cy="63" r="20.5"/><line class="cls-2" x1="2266.5" y1="146" x2="2301.5" y2="207.17"/><polyline class="cls-2" points="2276 70.5 2314 98 2332 98 2449 95.5"/><line class="cls-2" x1="2335" y1="95.5" x2="2335" y2="48.5"/><line class="cls-2" x1="2206" y1="166.5" x2="2228.72" y2="166.5"/><polyline class="cls-2" points="2329.5 166.5 2349.5 166.5 2352 201"/><path class="cls-2" d="M2644.63,976V957l7.13-27.75,86.75-2.5s19.83-2.75,28.83-2.25S2785.67,935,2786,943s2,36.33,2,36.33" transform="translate(-226 -745.5)"/><line class="cls-2" x1="2484" y1="231.17" x2="2516" y2="188.5"/><line class="cls-2" x1="1739.5" y1="259.5" x2="1838.5" y2="259.5"/><path class="cls-2" d="M2183,1005h564v61.5s-40,64.5-75.5,67.5" transform="translate(-226 -745.5)"/><path class="cls-2" d="M2075.67,987h98s14.33,22.67,3.33,33.67-88,3.33-98.67,3.33S2067.67,997.33,2075.67,987Z" transform="translate(-226 -745.5)"/><polyline class="cls-2" points="1782.33 385.17 1782.33 342.5 2077 342.5"/><line class="cls-2" x1="1739.5" y1="357.83" x2="1782" y2="357.83"/><circle class="cls-2" cx="1757.33" cy="418.17" r="13.67"/><path class="cls-2" d="M2019,1341.33L2183,1372s22,12,40.67,12.67,34,0,34,0l45.33,4.67s10.67,32.67,16.67,34.67" transform="translate(-226 -745.5)"/><polyline class="cls-2" points="1957 626.5 1957 371.17 2029 371.17 2029 454.5"/><path class="cls-2" d="M2193,1204.5s9.53-18.5,26-18.5,30.5,18.5,30.5,18.5H2193Z" transform="translate(-226 -745.5)"/><path class="cls-2" d="M2189,1231.5s8,24,32.24,24,28.26-21,28.26-21Z" transform="translate(-226 -745.5)"/><path class="cls-2" d="M2341.64,1205.67C2349,1208,2356,1213,2357,1220c1,9-7,18-16,18-28,1-55,0-83,2,0,48,0,97-.33,144.67" transform="translate(-226 -745.5)"/><path class="cls-2" d="M2253,1204.5q32.61,0.71,65.24.07" transform="translate(-226 -745.5)"/><path class="cls-2" d="M2324.67,1069.5c-3.32,2.44,3.67-2.17,9.33,0s21,16.83,21,32.5-15.17,24.67-15.17,24.67l-2.17,42.33s1.67,23.17.33,26.25-0.67,23.75-.67,23.75h-22s4.82-17.83,2.91-23.75,0-17.25,0-17.25l2.43-49.67s-15-7-15-27S2328,1067.06,2324.67,1069.5Z" transform="translate(-226 -745.5)"/><path class="cls-2" d="M2299,1388.93V1276.33s12-18,31.29-19.33,37.67-10,37.67-25.5V1096.33L2355,1084" transform="translate(-226 -745.5)"/><path class="cls-2" d="M2307.38,1134s-15.38,9.33-13.38,22.67,19,20,19,20" transform="translate(-226 -745.5)"/><path class="cls-2" d="M2344.67,1130.67s17,14.33,17.67,26-20,22.67-20,22.67" transform="translate(-226 -745.5)"/><circle class="cls-2" cx="2162.25" cy="453.25" r="7.75"/><circle class="cls-2" cx="2257.5" cy="490.5" r="9"/><path class="cls-2" d="M2532.67,1182.67H2558s8,10.33,5.67,12.67-31,3.42-31,3.42S2524.67,1184.67,2532.67,1182.67Z" transform="translate(-226 -745.5)"/><circle class="cls-2" cx="2471.67" cy="415.5" r="15.33"/><path class="cls-2" d="M2628,1194.67s-10.67-10-23.33-10-17.67,12.67-21.33,16.33a120.87,120.87,0,0,1-11,9s10.67,7.67,13,12.33,8,14.13,23.33,14.13,24-12.8,24-12.8" transform="translate(-226 -745.5)"/><path class="cls-2" d="M2660.67,1187.33c21,0,34.67,2.33,34.67,14.33s-9,19-33,19-42.33-3.67-42.33-12,9-20.33,20.33-21.33A114,114,0,0,1,2660.67,1187.33Z" transform="translate(-226 -745.5)"/><line class="cls-2" x1="2079.67" y1="541.5" x2="2122" y2="541.5"/><path class="cls-2" d="M2721.18,1281.89H2587.5s-23.41,9.11-23.41,19.61v125" transform="translate(-226 -745.5)"/><line class="cls-2" x1="2352.83" y1="540.5" x2="2289" y2="540.5"/><path class="cls-2" d="M2342.33,1424l2.17-27s-22.67-12-24.83-28-2.5-38,7.17-50,25.67-42,47.17-42h115.5a88.86,88.86,0,0,1,35,29.5c14.5,21,20,22.5,20,51.5s-27.5,54.06-38.5,66" transform="translate(-226 -745.5)"/><path class="cls-2" d="M2434,1277s25,31.5,28,46,6.5,28,3,41-20,38-20,38,18-4.65,23.5-13.07,26.5-44.43,20-72.43-9-39.5-9-39.5" transform="translate(-226 -745.5)"/><path class="cls-2" d="M2671,1405.33s33.69-25.33,50.18-22.67,40.49,45.07,48.49,60.53,116.3,157.46,117.82,166.13-2.48,25.33-9.82,30.67-43.33,22.67-57.33,28-30.67,8.67-48.67-14.67S2667,1484,2651,1460,2650.32,1418.67,2671,1405.33Z" transform="translate(-226 -745.5)"/><path class="cls-2" d="M2080,1388.93V1494s-1.1,67-10.06,110-61.63,230.41-61.63,230.41" transform="translate(-226 -745.5)"/><path class="cls-2" d="M2109,1388.93s7,83.07,7,114.07-20,117-27,152-50.52,187.85-50.52,187.85" transform="translate(-226 -745.5)"/><path class="cls-2" d="M2181.15,1407.08V1495c0,26-8.15,87-18.15,133s-56.42,233.92-56.42,233.92" transform="translate(-226 -745.5)"/><path class="cls-2" d="M2204,1407.08V1509c0,32-9,97-21,144s-57.44,214.23-57.44,214.23" transform="translate(-226 -745.5)"/><path class="cls-2" d="M2253,1420v86c0,24-16,141-27,182s-50.91,193.1-50.91,193.1" transform="translate(-226 -745.5)"/><path class="cls-2" d="M2277.67,1424.4v119.05c0,29.55-15.67,113.55-28.17,160.55s-50.45,183.81-50.45,183.81" transform="translate(-226 -745.5)"/><line class="cls-2" x1="2723" y1="385.17" x2="3350.46" y2="385.17"/><line class="cls-2" x1="2739" y1="459.17" x2="3432" y2="459.17"/><path class="cls-2" d="M3373.67,1240.67h178.67s14.67,9.33,14.67,16-13.91,13.91-13.91,13.91H3373.67s-16.67-4.67-16.67-15S3373.67,1240.67,3373.67,1240.67Z" transform="translate(-226 -745.5)"/><path class="cls-2" d="M3601,1273.3c7.33,0,11.33,14,11.33,27.37s4,56.67,4,56.67-11.33,8-11.33,17.33-4,37.33-4,37.33l18,8s5.33,17.33-9,17.33-23-5.33-23-34.67V1282C3587,1268.27,3601,1273.3,3601,1273.3Z" transform="translate(-226 -745.5)"/><line class="cls-2" x1="3393.97" y1="609.37" x2="3432" y2="606.5"/><line class="cls-2" x1="3393" y1="674.5" x2="3428.33" y2="667.83"/></svg>