<?xml version="1.0" encoding="utf-8"?>
<!-- Generator: Adobe Illustrator 19.2.0, SVG Export Plug-In . SVG Version: 6.00 Build 0)  -->
<svg version="1.1" id="category-item_svg_backpacks" xmlns:x="&ns_extend;" xmlns:i="&ns_ai;" xmlns:graph="&ns_graphs;"
	 xmlns="http://www.w3.org/2000/svg" xmlns:xlink="http://www.w3.org/1999/xlink" x="0px" y="0px" viewBox="0 0 3976 2646"
	 enable-background="new 0 0 3976 2646" xml:space="preserve">
<metadata>
	<sfw  xmlns="&ns_sfw;">
		<slices></slices>
		<sliceSourceBounds  bottomLeftOrigin="true" height="2483.7" width="2082.9" x="-142.5" y="-1786.1"></sliceSourceBounds>
	</sfw>
</metadata>
<g>
	<path fill="none" stroke-width="35" stroke-linecap="round" stroke-linejoin="round" stroke-miterlimit="10" d="
		M1049.5,1084.8c8-12,78-98,78-98s140-42,214-38s310,14,382,26s298,70,322,96s110,208,120,288s32,240,38,304s20,220,50,288
		s88,312,94,362s-14,162-14,176"/>
	<path fill="none" stroke-width="35" stroke-linecap="round" stroke-linejoin="round" stroke-miterlimit="10" d="
		M997.5,1323.1c0,0,18,209.6,20,249.6s16,292,32,346s100,262,122,298s54,86,58,114s46,96,68,116s264,44,340,54
		s452.8,33.9,533.8,45.9c81,12,309,0,360-15s135-42,192-54c57-12,165-36,177-48c12-12,21-87,21-141s-36.9-365.9-42.9-389.9"/>
	<path fill="none" stroke-width="35" stroke-linecap="round" stroke-linejoin="round" stroke-miterlimit="10" d="
		M2739.5,832.8l-54-22c0,0,8-82,10-118s6-88,6-110s-6-62-38-88s-122-58-154-80s-290.9-105.4-298.9-107.4"/>
	<path fill="none" stroke-width="35" stroke-linecap="round" stroke-linejoin="round" stroke-miterlimit="10" d="
		M1181.5,880.8c0,0-2-50,0-108s-8-62,0-110s20-106,28-132s26-86,26-86"/>
	<path fill="none" stroke-width="35" stroke-linecap="round" stroke-linejoin="round" stroke-miterlimit="10" d="
		M1381.1,318.8c0,0,135-45.9,190.5-50.4c55.5-4.5,210-33,249-36c0,0,39-3,90,0s175.5,36,175.5,36"/>
	<path fill="none" stroke-width="18" stroke-linecap="round" stroke-linejoin="round" stroke-miterlimit="10" d="
		M1127.5,986.8c0,0,280,0,354,16s312.9,27,354,40c111,35,178,118,192,166s82,410,90,460s56,344,66,380c10,36,24,106,24,106"/>
	<path fill="none" stroke-width="18" stroke-linecap="round" stroke-linejoin="round" stroke-miterlimit="10" d="
		M2301.5,2154.8c-10.8,5.2-144,10-144,10s28.7,69.3,32.7,88.7c4,19.3,26.7,128.7,35.3,149.3c8.7,20.7,79.3,93.3,82.7,94"/>
	<path fill="none" stroke-width="35" stroke-linecap="round" stroke-linejoin="round" stroke-miterlimit="10" d="
		M1200.3,2264.6c0,0,175.1,62.2,217.1,68.2s182,46,232,46s186,6,252,14s258-34,282-48s15.9-8.5,15.9-8.5"/>
	<path fill="none" stroke-width="35" stroke-linecap="round" stroke-linejoin="round" stroke-miterlimit="10" d="
		M2075.5,287.8c0,0,84,35,112,77s69,130,82,197s41.6,314.1,44.6,332.1c3,18,1.8,22.9,1.8,22.9"/>
	<path fill="none" stroke-width="35" stroke-linecap="round" stroke-linejoin="round" stroke-miterlimit="10" d="
		M2356,1043.9c0,0,33,88.5,54,153s45,219,49.5,273c4.5,54-40.5,214.1-45,248.8s7.5,174.8,16.5,218.7c9,43.9,40.5,183.4,40.5,183.4"
		/>
	<path fill="none" stroke-width="35" stroke-linecap="round" stroke-linejoin="round" stroke-miterlimit="10" d="
		M2485,2287.3c0,0,9,96,0,144s-29.9,88.4-54,102"/>
	<path fill="none" stroke-width="35" stroke-linecap="round" stroke-linejoin="round" stroke-miterlimit="10" d="
		M2607.5,914.8c0,0-46,68.2-56,129.1c-10,60.9-38,188.9-32,245.9s16,233,15,331s7,262,11,306s17.6,158,17.6,158"/>
	<path fill="none" stroke-width="35" stroke-linecap="round" stroke-linejoin="round" stroke-miterlimit="10" d="
		M2597.5,2206.8c0,0,32,110.8,30,122.4"/>
	
		<line fill="none" stroke-width="35" stroke-linecap="round" stroke-linejoin="round" stroke-miterlimit="10" x1="2539.5" y1="2348.8" x2="2653.5" y2="2348.8"/>
	<path fill="none" stroke-width="35" stroke-linecap="round" stroke-linejoin="round" stroke-miterlimit="10" d="
		M2653.5,2353.8c0,0,5,32,33,40c28,8,62,13,86,7s124-25.2,133-22.2"/>
	<path fill="none" stroke-width="35" stroke-linecap="round" stroke-linejoin="round" stroke-miterlimit="10" d="
		M2889.5,1604.8c0,0-16-270-24-328s6-138-14-220s-42.1-122-42.1-122c-28.1-16-85.9-20-85.9-20s-28,28-56,62s-48,66-60,106
		s-12,224-14.1,270s-5.9,84-5.9,136s6,206,10,268s0,328,0,328"/>
	<path fill="none" stroke-width="35" stroke-linecap="round" stroke-linejoin="round" stroke-miterlimit="10" d="
		M2690.5,756.3c0,0-199.1-354.6-255.9-373.7"/>
	<path fill="none" stroke-width="18" stroke-linecap="round" stroke-linejoin="round" stroke-miterlimit="10" d="
		M2547,519c0,0,95.1-30.2,128.7-12.2"/>
	<path fill="none" stroke-width="18" stroke-linecap="round" stroke-linejoin="round" stroke-miterlimit="10" d="
		M1694.6,231.1c0,0,34.5-81.2,51-96.2c16.5-15,61.5-40.5,97.5-40.5s120,4.5,169.5,13.5c49.5,9,73.5,27.2,73.5,54.8
		c0,27.7,0,101.2,0,101.2"/>
	<path fill="none" stroke-width="18" stroke-linecap="round" stroke-linejoin="round" stroke-miterlimit="10" d="
		M2053.4,119.9c0,0,97.1,22.5,124.1,43.5c27,21,33,60,33,85.5c0,25.5,0,58.5,0,58.5"/>
	<path fill="none" stroke-width="18" stroke-linecap="round" stroke-linejoin="round" stroke-miterlimit="10" d="
		M1822.1,220.4c0,0,0-48,18-61.5c18-13.5,76.5-27,99-31.5s58.5-9,79.5,0c21,9,56.9,7.8,56.9,7.8"/>
	<path fill="none" stroke-width="18" stroke-linecap="round" stroke-linejoin="round" stroke-miterlimit="10" d="
		M1518.8,335.4c0,0,138.9-17.3,175.8-20.7c36.9-3.3,86.8-4.1,127.5-7.4s74.7-8,116.1-8s84,4,104.7,11.3c20.7,7.3,92.7,40,110.7,86
		s64,146,72,220s22,214,28,264s10,62,10,62"/>
	<path fill="none" stroke-width="18" stroke-linecap="round" stroke-linejoin="round" stroke-miterlimit="10" d="
		M2284.8,1106.8c26.8,138.1,35.3,128.6,44.7,170c10,44,25.1,98,26.6,154s-1.4,120,0,166s6.4,158,13.4,191s18,144,21,177s9,178,9,178
		"/>
	<path fill="none" stroke-width="18" stroke-linecap="round" stroke-linejoin="round" stroke-miterlimit="10" d="
		M2431,2316.8c0,0,6.4,81,4.4,99s-6,42-10,54s2,27-26,33s-57,20-65,20s-11-26-11-26"/>
	<path fill="none" stroke-width="18" stroke-linecap="round" stroke-linejoin="round" stroke-miterlimit="10" d="
		M1079.6,1046.1c0,0,96-11.2,142.5-6.7c46.5,4.5,205.5,24,217.5,27c12,3,64.5,18,93,15c28.5-3,256.9,3.4,288.9,17.4s146,50,154,68
		s26,120.8,28,156.4c2,35.6,32,269.6,38,297.6s54,278,62,304s49.5,229,54,240"/>
	<path fill="none" stroke-width="18" stroke-linecap="round" stroke-linejoin="round" stroke-miterlimit="10" d="
		M2157.5,406.8c0,0,6,124,0,182s-4,152-12,212S2132,948.5,2132,948.5"/>
	<path fill="none" stroke-width="18" stroke-linecap="round" stroke-linejoin="round" stroke-miterlimit="10" d="
		M2260,926.9c0,0-41.1,10.2-84.6,15.9c-43.5,5.7-220,5.5-260,5.7c-40,0.3-259.9,1.7-296.9,0c-37.1-1.7-325.1-25.7-357.1-33.7
		l-40.7-7.3"/>
	
		<path fill="none" stroke-width="12.9409" stroke-linecap="round" stroke-linejoin="round" stroke-miterlimit="10" d="
		M996.5,1228.1l12,1.7v67l-17,19c0,0-6-6-13-17s13-73,13-73l-26-8c0,0-11.3,41.7-13.3,51c-2,9.3-2.3,31,0,36s24.4,7,27.4,6.3"/>
	
		<path fill="none" stroke-width="12.9409" stroke-linecap="round" stroke-linejoin="round" stroke-miterlimit="10" d="
		M950.5,1310.3c0,0-17.5,17-25.5,17s-26-15-31.5-21.5s5.5-22,5.5-22l26-50l28.5,9.5"/>
	
		<path fill="none" stroke-width="12.9409" stroke-linecap="round" stroke-linejoin="round" stroke-miterlimit="10" d="
		M950.5,1233.8c0,0,9.5-44,16.5-55.5s40-59.5,47.5-63.5s24.5-22.5,24.5-22.5"/>
	
		<line fill="none" stroke-width="12.9409" stroke-linecap="round" stroke-linejoin="round" stroke-miterlimit="10" x1="931" y1="1233.8" x2="958" y2="1193.8"/>
	
		<path fill="none" stroke-width="12.9409" stroke-linecap="round" stroke-linejoin="round" stroke-miterlimit="10" d="
		M982.5,1217.8c0,0,7.5-25,9.5-48.5s11.8-43.2,11.8-43.2s12.2-27.3,21.2-33.8c9-6.5,14-8.5,14-8.5"/>
	
		<path fill="none" stroke-width="12.9409" stroke-linecap="round" stroke-linejoin="round" stroke-miterlimit="10" d="
		M997.5,1223.8c0,0,0.5-9.5,3-27s1.5-32,8-44s19.4-49.1,19.4-49.1"/>
	
		<path fill="none" stroke-width="12.9409" stroke-linecap="round" stroke-linejoin="round" stroke-miterlimit="10" d="
		M1278.5,363.3l-48.5,47.5c0,0,2,22.5,11.5,28s22,9.5,22,9.5l45-60.5L1278.5,363.3z"/>
	
		<path fill="none" stroke-width="12.9409" stroke-linecap="round" stroke-linejoin="round" stroke-miterlimit="10" d="
		M1222,437.8c0,0-6.5-14.5-8-21.5s0-10.5,0-10.5l62-42.5"/>
	
		<polyline fill="none" stroke-width="12.9409" stroke-linecap="round" stroke-linejoin="round" stroke-miterlimit="10" points="
		1302.5,378.3 1298,354.3 1337,354.3 1386.5,326.8 1364,323.8 	"/>
	
		<polyline fill="none" stroke-width="12.9409" stroke-linecap="round" stroke-linejoin="round" stroke-miterlimit="10" points="
		1309.7,384.3 1340.5,384.3 1391.5,351 1388,328 	"/>
	
		<line fill="none" stroke-width="12.9409" stroke-linecap="round" stroke-linejoin="round" stroke-miterlimit="10" x1="1335.7" y1="356.1" x2="1340.5" y2="384.3"/>
	
		<line fill="none" stroke-width="12.9409" stroke-linecap="round" stroke-linejoin="round" stroke-miterlimit="10" x1="1362.2" y1="322.3" x2="1298" y2="352"/>
	
		<path fill="none" stroke-width="12.9409" stroke-linecap="round" stroke-linejoin="round" stroke-miterlimit="10" d="
		M1398.1,337.1c0,0,45.3,1.7,62,0c16.7-1.7,42.7-5.7,48.7-6.4c6-0.7,14,0,14,0"/>
	
		<polyline fill="none" stroke-width="12.9409" stroke-linecap="round" stroke-linejoin="round" stroke-miterlimit="10" points="
		2750.8,896.1 2768.1,890.1 2764.8,851.4 2750.8,856.1 	"/>
	
		<path fill="none" stroke-width="12.9409" stroke-linecap="round" stroke-linejoin="round" stroke-miterlimit="10" d="
		M2768.1,892.8l47.3,16.7c0,0,12-0.7,10-13.3c-2-12.7-5.3-31.3-10-34.7c-4.7-3.3-50.7-10-50.7-10"/>
	
		<line fill="none" stroke-width="12.9409" stroke-linecap="round" stroke-linejoin="round" stroke-miterlimit="10" x1="2820.8" y1="909.4" x2="2805.5" y2="924.1"/>
	
		<path fill="none" stroke-width="12.9409" stroke-linecap="round" stroke-linejoin="round" stroke-miterlimit="10" d="
		M2750.8,880.4c0,0-36.7-15-49.3-12.3c-12.7,2.7-38,7.3-46,12.3s-31.3,17-34,15.7"/>
	
		<path fill="none" stroke-width="12.9409" stroke-linecap="round" stroke-linejoin="round" stroke-miterlimit="10" d="
		M2753.5,864.8c0,0-28.7-15.3-35.3-13.3s-36,8.5-42,6.6s-35.3,0-35.3,0"/>
	
		<path fill="none" stroke-width="12.9409" stroke-linecap="round" stroke-linejoin="round" stroke-miterlimit="10" d="
		M2611.5,904.8c0,0,3.3-21.3,13.3-31c10-9.7,19.3-19.4,35.3-22.5c16-3.2,30.4,0.2,30.4,0.2"/>
	
		<path fill="none" stroke-width="12.9409" stroke-linecap="round" stroke-linejoin="round" stroke-miterlimit="10" d="
		M2872.5,1884.8c0,0,21,2,29,0s11-19,10-41s-4-54-4-54h-35"/>
	
		<path fill="none" stroke-width="12.9409" stroke-linecap="round" stroke-linejoin="round" stroke-miterlimit="10" d="
		M2911.6,1801.8c0,0,17.8-3,18.8-12s-4.8-43-9.4-48s-9.4-17-9.4-17v-17c0,0,4.2-15,0-25s-9.2-29-10.2-32s4-9,0-14s-9.4-16-9.4-16"/>
	
		<path fill="none" stroke-width="12.9409" stroke-linecap="round" stroke-linejoin="round" stroke-miterlimit="10" d="
		M2892.1,1958.8c5.4,0,51.4-6,59.4-14s14-20,8-31s-43-68-43-68"/>
	<path fill="none" stroke-width="18" stroke-linecap="round" stroke-linejoin="round" stroke-miterlimit="10" d="
		M2132,287.8c0,0,58.5,37,70.5,44s61,43,82,55s51,37,56,42s50,17,50,17s-4,14,12,14s65,0,65,0s-13-27-21-36s-46-27-46-27l-17-23"/>
	<path fill="none" stroke-width="18" stroke-linecap="round" stroke-linejoin="round" stroke-miterlimit="10" d="
		M2607.5,632.8c0,0-26,8-35,13s-34,23-34,23s-20,11-27,8.9s-30,23.1-44,33.1s-60,27-60,27l-25-101c0,0,21-17,40-25s62-31,62-31
		l62.6-45"/>
	
		<polygon fill="none" stroke-width="12.9409" stroke-linecap="round" stroke-linejoin="round" stroke-miterlimit="10" points="
		1115,949.3 1133,969.3 1186,932.8 1166,912.8 1174,896.8 1127.5,922.8 	"/>
	
		<line fill="none" stroke-width="12.9409" stroke-linecap="round" stroke-linejoin="round" stroke-miterlimit="10" x1="1162.5" y1="917.8" x2="1121.5" y2="948.5"/>
	
		<path fill="none" stroke-width="12.9409" stroke-linecap="round" stroke-linejoin="round" stroke-miterlimit="10" d="
		M1178.3,914.8c0,0,20.2-1.5,32.2-18s26-44.5,25-57.5s-9-53.5-8.5-58.5s-3.4-14,1.1-16"/>
	
		<path fill="none" stroke-width="12.9409" stroke-linecap="round" stroke-linejoin="round" stroke-miterlimit="10" d="
		M1175.5,907.4c0,0,24.8-13.2,31.4-26.7s9.7-25.5,13.9-37s11.2-34.6,14.7-36.1"/>
	
		<line fill="none" stroke-width="12.9409" stroke-linecap="round" stroke-linejoin="round" stroke-miterlimit="10" x1="1186" y1="932.8" x2="1193.5" y2="914.8"/>
	<path fill="none" stroke-width="18" stroke-linecap="round" stroke-linejoin="round" stroke-miterlimit="10" d="
		M1276,907.4c0,0-46.1-87.7-47.7-133.1s5.1-156.4,12.2-198.4c7.1-42,26.9-97.3,57.5-131.1c30.6-33.9,74.1-57.1,119.1-66.5
		c45-9.4,208.5-13.1,277.5-15c69-1.9,220.5-6.1,276,37.3s101.8,107.9,104.9,161.9c3.1,54-0.1,157.5,0,231s0,155.1,0,155.1"/>
	<path fill="none" stroke-width="18" stroke-linecap="round" stroke-linejoin="round" stroke-miterlimit="10" d="
		M1250.1,535.8c0,0,61-84.6,100.4-98c39.5-13.4,68-37.3,282.5-37.3s278.9-6.1,315.7,25.4c36.8,31.5,84.8,58.5,90.8,154.5
		s3.8,249,13.9,291c10.1,42,22,71.4,22,71.4"/>
	<path fill="none" stroke-width="18" stroke-linecap="round" stroke-linejoin="round" stroke-miterlimit="10" d="
		M1640.6,400.5c0,0-19.5,160.8-16.5,220.6c3,59.8,7.2,109.3,8.1,155.8c0.9,46.5,3.9,95.8,8.4,119.9c4.5,24.1,0,52.6,0,52.6"/>
	<path fill="none" stroke-width="18" stroke-linecap="round" stroke-linejoin="round" stroke-miterlimit="10" d="
		M1277.5,501.1c0,0,223.6,0.2,255.1,0c31.5-0.2,100.6,0,100.6,0s107.9,3,142.4-0.1c34.5-3.1,154.4-1.5,173.2,1.4
		c18.8,3,71.7,0,71.7,0"/>
	<path fill="none" stroke-width="18" stroke-linecap="round" stroke-linejoin="round" stroke-miterlimit="10" d="
		M1235.5,616.1c0,0,96.1-1.7,145.6,0c49.5,1.7,162,2.1,198,4.9c36,2.8,124.5-6.7,171-5.7s148.7,5.4,177.8,6.2
		c29.1,0.8,113.6-0.5,113.6-0.5"/>
	<path fill="none" stroke-width="18" stroke-linecap="round" stroke-linejoin="round" stroke-miterlimit="10" d="
		M1230,718.4c0,0,55.1-1.5,92.6,0c37.5,1.5,204-6,247.5,0c43.5,6,201-2.6,238.5,0.2c37.5,2.8,154.5,22.1,177,19.2s56-10.7,56-10.7"
		/>
	<path fill="none" stroke-width="18" stroke-linecap="round" stroke-linejoin="round" stroke-miterlimit="10" d="
		M1244.6,832.8c0,0,61.5-4.1,125.9,0c64.5,4.1,147.1,5.7,205.5,4.8c58.4-1,129-0.6,192,6.9c63,7.5,163.5,1.5,192,0
		s81.5,3.7,81.5,3.7"/>
	<path fill="none" stroke-width="18" stroke-linecap="round" stroke-linejoin="round" stroke-miterlimit="10" d="
		M1481.9,1076.5c0,0-2.4,98.4,0,190.2c2.4,91.8,23.4,313.8,17.4,367.9c-6,54,12.1,190.3,19.6,267.6c7.5,77.4,16.5,184.6,25.5,252.5
		c9,67.9,37.2,133,53.2,162s44.8,61.8,44.8,61.8"/>
	
		<line fill="none" stroke-width="18" stroke-linecap="round" stroke-linejoin="round" stroke-miterlimit="10" x1="2210.9" y1="1737.1" x2="2360.2" y2="1688.8"/>
	
		<line fill="none" stroke-width="18" stroke-linecap="round" stroke-linejoin="round" stroke-miterlimit="10" x1="2357.9" y1="1645.3" x2="2205.9" y2="1688.8"/>
	<path fill="none" stroke-width="18" stroke-linecap="round" stroke-linejoin="round" stroke-miterlimit="10" d="
		M2059.5,1076.5c0,0,61.3-45.8,100.7-57.8s89.3-32,89.3-32l32.5,120c0,0-118.3,154.9-124.5,174.1"/>
	<path fill="none" stroke-width="18" stroke-linecap="round" stroke-linejoin="round" stroke-miterlimit="10" d="
		M2223.6,996.8c0,0-0.1-24.7,5.9-36.7s27.3-26,27.3-26"/>
	<path fill="none" stroke-width="18" stroke-linecap="round" stroke-linejoin="round" stroke-miterlimit="10" d="
		M2240.2,970.8c0,0,11.3-14,28.6-13.3c17.3,0.7,25.3,28,27.3,39.3"/>
	<path fill="none" stroke-width="18" stroke-linecap="round" stroke-linejoin="round" stroke-miterlimit="10" d="
		M2304.8,1034.8c0,0,10,27.3,7.3,38s-16,22.7-16,22.7"/>
	<path fill="none" stroke-width="18" stroke-linecap="round" stroke-linejoin="round" stroke-miterlimit="10" d="
		M2284.8,957.4c0,0,64.7-59.3,75.3-69.3s26.7-30.1,26.7-30.1"/>
	
		<line fill="none" stroke-width="18" stroke-linecap="round" stroke-linejoin="round" stroke-miterlimit="10" x1="2318.8" y1="1061.4" x2="2399.5" y2="989.4"/>
	<path fill="none" stroke-width="18" stroke-linecap="round" stroke-linejoin="round" stroke-miterlimit="10" d="
		M2359.1,907.7c0,0,55,90.4,60.3,89.1c5.3-1.3,36-44.5,36-44.5"/>
	<path fill="none" stroke-width="18" stroke-linecap="round" stroke-linejoin="round" stroke-miterlimit="10" d="
		M2386.8,848.1c0,0,32-28.6,40.7-33.3c0,0,20-15.3,31.3,4.7s46.7,88,46,95.3c-0.7,7.3-20.7,30.1-27.3,33.7c-6.7,3.6-14-8.5-22-20.1
		c-8-11.6-30.7-44.9-36-54.6c-5.3-9.7-14-23.8-24-15.8"/>
	
		<polyline fill="none" stroke-width="18" stroke-linecap="round" stroke-linejoin="round" stroke-miterlimit="10" points="
		2455.5,802.1 2504.8,753.4 2573.5,842.1 2504.8,902.1 	"/>
	<path fill="none" stroke-width="18" stroke-linecap="round" stroke-linejoin="round" stroke-miterlimit="10" d="
		M2509.5,746.8c0,0,12-31.3,25.3-39.3s35.3-17.3,38.7-17.3s8,14,14,12s10-18,8-22.7c-2-4.7,16-16.7,16-16.7"/>
	<path fill="none" stroke-width="18" stroke-linecap="round" stroke-linejoin="round" stroke-miterlimit="10" d="
		M2581.5,849.9c0,0,7.3,0.9,26-7.8c18.7-8.7,39.3-29.3,39.3-29.3s0.7-18.7-6-27.3c-6.7-8.7-6.7-18,0-19.3c6.7-1.3,24,16.7,24,18.7
		s17.3-5.3,17.3-5.3"/>
	
		<polygon fill="none" stroke-width="18" stroke-linecap="round" stroke-linejoin="round" stroke-miterlimit="10" points="
		2566.1,715.4 2618.1,798.8 2592.1,822.8 2537.5,746.8 	"/>
	
		<line fill="none" stroke-width="18" stroke-linecap="round" stroke-linejoin="round" stroke-miterlimit="10" x1="2607.5" y1="679.4" x2="2665.5" y2="769.1"/>
	<path fill="none" stroke-width="18" stroke-linecap="round" stroke-linejoin="round" stroke-miterlimit="10" d="
		M1027.8,1123.4c0,0,168.5,26.3,200.1,27.4s169.6,6.8,184.6,12.9c15,6.1,68.2,6.1,68.2,6.1s119.5,25.3,152.4,23.9
		s125.9-7.5,158.9,0.1s192,5,192,5"/>
	<path fill="none" stroke-width="18" stroke-linecap="round" stroke-linejoin="round" stroke-miterlimit="10" d="
		M1018.1,1233.8c0,0,140.4,21.6,160.2,20.1s126.3,18.3,130.8,12.9"/>
	<path fill="none" stroke-width="18" stroke-linecap="round" stroke-linejoin="round" stroke-miterlimit="10" d="
		M1309.1,1154.4c0,0-3,152,0,180.5s0,148.5,0,148.5s96,24,112.5,24s135.9,10.5,139.9,13.5c4.1,3,90.7,1.5,90.9,0s-10.2-120-10.2-120
		l-9.1-207.1"/>
	<path fill="none" stroke-width="18" stroke-linecap="round" stroke-linejoin="round" stroke-miterlimit="10" d="
		M1012.7,1323.1l80.4,4.1c0,0,70.5,19.6,88.5,22.6s115.5,22.5,115.5,22.5h10.7"/>
	<path fill="none" stroke-width="18" stroke-linecap="round" stroke-linejoin="round" stroke-miterlimit="10" d="
		M1027.8,1435.3c0,0,86.2,4.5,107.2,6c21,1.5,174,42,174,42"/>
	<path fill="none" stroke-width="18" stroke-linecap="round" stroke-linejoin="round" stroke-miterlimit="10" d="
		M1643.1,1410.1c0,0,167,13.2,189.5,13.2s169.5-19.5,169.5-19.5"/>
	<path fill="none" stroke-width="18" stroke-linecap="round" stroke-linejoin="round" stroke-miterlimit="10" d="
		M1652.4,1520.8c0,0,124.7,18,144.2,19.5s214.5-16,219-17.8"/>
	<path fill="none" stroke-width="18" stroke-linecap="round" stroke-linejoin="round" stroke-miterlimit="10" d="
		M1027.8,1507.3c0,0,171.7,42,192.7,43.5s175.5,33,190.5,40.5s121.5,34.5,174,42s174-3,210,0s168,5.5,189,2.8s55.8-24.3,55.8-24.3"
		/>
	<path fill="none" stroke-width="18" stroke-linecap="round" stroke-linejoin="round" stroke-miterlimit="10" d="
		M1027.8,1624.8c0,0,50.2,11.5,107.2,20.6s207,37.4,237,43.5s94.8,29.4,129.1,38.8c34.4,9.3,158.9,12.3,217.4,16.8
		c58.5,4.5,156.2,7.5,209.3,6s134.7-22.8,134.7-22.8"/>
	<path fill="none" stroke-width="18" stroke-linecap="round" stroke-linejoin="round" stroke-miterlimit="10" d="
		M1037.6,1706.8c0,0,84.7,36.8,130.9,43.9c46.1,7.1,199.1,50.6,241.1,59.6c42,9,108,31.5,177,33s226.3,16.5,281.9,10.5
		s211.6-38.6,211.6-38.6"/>
	<path fill="none" stroke-width="18" stroke-linecap="round" stroke-linejoin="round" stroke-miterlimit="10" d="
		M1037.6,1831.3c0,0,150,39,184.5,43.5s183,46.5,216,54s135.4,22.5,204.2,22.5s181.3,10.5,254.8,10.5s207.6-32.9,207.6-32.9"/>
	<path fill="none" stroke-width="18" stroke-linecap="round" stroke-linejoin="round" stroke-miterlimit="10" d="
		M1063.1,1927.3c0,0,142.5,51,184.5,55.5c42,4.5,172.5,39,207,45c34.5,6,153,19.5,201,21c48,1.5,187.5,13.5,244.5,10.5
		s186.5-27.4,204.6-39c18.1-11.6,18.1-11.6,18.1-11.6"/>
	<path fill="none" stroke-width="18" stroke-linecap="round" stroke-linejoin="round" stroke-miterlimit="10" d="
		M1112.6,2047.3c0,0,150,45,193.5,52.5s191.3,43.9,236.6,43c45.4-1,165.4,22.5,241.8,22c76.5-0.5,184.5,6.5,238.5,0
		c54-6.5,121.5-55.4,121.5-55.4"/>
	<path fill="none" stroke-width="18" stroke-linecap="round" stroke-linejoin="round" stroke-miterlimit="10" d="
		M1151.6,2154.8c0,0,193.5,54.5,225,59s234,45,282,42s226.5,16,280.5,8.8c54-7.3,178.5-32.8,195-38.8s31.5-19,31.5-19"/>
	<path fill="none" stroke-width="18" stroke-linecap="round" stroke-linejoin="round" stroke-miterlimit="10" d="
		M1192.5,2251.3c0,0,239.5,43.5,265,49.5c25.5,6,171,29.7,234,28.4c63-1.4,127.5,16.6,204,12.1c76.5-4.5,223.2-30.3,261.9-44.6
		s37-22.4,37-22.4"/>
	
		<polyline fill="none" stroke-width="18" stroke-linecap="round" stroke-linejoin="round" stroke-miterlimit="10" points="
		2329,2167.5 2539.5,2107.4 2554,2219.8 2362,2353.8 	"/>
	<path fill="none" stroke-width="18" stroke-linecap="round" stroke-linejoin="round" stroke-miterlimit="10" d="
		M2558.5,2206.8l38-11c0,0-24.3-77.6-23-88.3"/>
	<path fill="none" stroke-width="18" stroke-linecap="round" stroke-linejoin="round" stroke-miterlimit="10" d="
		M2602.5,2190.8l95-17l4.2-31c0,0-3.2-18-0.2-27.6c3-9.6-23-74.4-23-74.4l-138,74.4"/>
	<path fill="none" stroke-width="18" stroke-linecap="round" stroke-linejoin="round" stroke-miterlimit="10" d="
		M2587.5,2101.8c0,0,66,5,73,0s31.9,41.1,37.9,65.8"/>
	<path fill="none" stroke-width="18" stroke-linecap="round" stroke-linejoin="round" stroke-miterlimit="10" d="
		M2627.6,2296.7c0,0,59.9,10.1,87.9,4.1s104-29.4,122-36.2s68-34,68-34"/>
	<path fill="none" stroke-width="18" stroke-linecap="round" stroke-linejoin="round" stroke-miterlimit="10" d="
		M2647.9,2182.6c0,0,41.6,19.1,67.6,14.1s75-16,91-19s83-43.3,83-43.3"/>
	<path fill="none" stroke-width="18" stroke-linecap="round" stroke-linejoin="round" stroke-miterlimit="10" d="
		M2705.5,2134.5c0,0,59-33.7,74-49.7s58-47,70-54s30-38,30-38"/>
	<path fill="none" stroke-width="18" stroke-linecap="round" stroke-linejoin="round" stroke-miterlimit="10" d="
		M2772,1981.5c0,0,40.5-25.8,58.5-36.8s20-23,22-35s10-72.1,10-72.1"/>
	<path fill="none" stroke-width="18" stroke-linecap="round" stroke-linejoin="round" stroke-miterlimit="10" d="
		M2612.5,1981.5c0,0,48,22.2,68,18.2s91.5-24,91.5-24"/>
	<path fill="none" stroke-width="18" stroke-linecap="round" stroke-linejoin="round" stroke-miterlimit="10" d="
		M2607.5,1876.3c0,0,104,12,143,0s108-38.6,108-38.6s-25,44.1-31,54.1s-27,34-36,45.6c-9,11.6-11,36.4-25,51.4s-81,52-81,52"/>
	<path fill="none" stroke-width="18" stroke-linecap="round" stroke-linejoin="round" stroke-miterlimit="10" d="
		M2607.5,1774.3c0,0,62.1,9,116,0s127.4-37.5,135-42s21-13.7,21-13.7l-17,119.1"/>
	<path fill="none" stroke-width="18" stroke-linecap="round" stroke-linejoin="round" stroke-miterlimit="10" d="
		M2607.5,1667c0,0,93,9.7,125.5,0c32.5-9.7,139.5-65.5,139.5-65.5"/>
	<path fill="none" stroke-width="18" stroke-linecap="round" stroke-linejoin="round" stroke-miterlimit="10" d="
		M2596.5,1559.8c0,0,89.5,6,142-7.5s124-52.6,124-52.6"/>
	<path fill="none" stroke-width="18" stroke-linecap="round" stroke-linejoin="round" stroke-miterlimit="10" d="
		M2607.5,1352.8c0,0,83-9,122-22.5s129-49.5,129-49.5"/>
	<path fill="none" stroke-width="18" stroke-linecap="round" stroke-linejoin="round" stroke-miterlimit="10" d="
		M2587.9,1459.3c0,0,84.6,7.5,129.6-7.5c45-15,155-63,155-63"/>
	<path fill="none" stroke-width="18" stroke-linecap="round" stroke-linejoin="round" stroke-miterlimit="10" d="
		M2607.5,1250.8c0,0,100.5-25.5,136-39c35.5-13.5,115-45,115-45"/>
	<path fill="none" stroke-width="18" stroke-linecap="round" stroke-linejoin="round" stroke-miterlimit="10" d="
		M2607.5,1133.8c0,0,84.5-28.8,131-38.4s102-34,102-34"/>
	<path fill="none" stroke-width="18" stroke-linecap="round" stroke-linejoin="round" stroke-miterlimit="10" d="
		M2872.5,1723.3c0,0,21.5-82.2,17-118.6"/>
	
		<line fill="none" stroke-width="12.9409" stroke-linecap="round" stroke-linejoin="round" stroke-miterlimit="10" x1="2062.6" y1="2316.8" x2="2035.5" y2="2247.7"/>
	
		<line fill="none" stroke-width="12.9409" stroke-linecap="round" stroke-linejoin="round" stroke-miterlimit="10" x1="1888.1" y1="2341.7" x2="1868.5" y2="2264.6"/>
	
		<line fill="none" stroke-width="12.9409" stroke-linecap="round" stroke-linejoin="round" stroke-miterlimit="10" x1="1738.1" y1="2329.2" x2="1712.5" y2="2256.8"/>
	
		<line fill="none" stroke-width="12.9409" stroke-linecap="round" stroke-linejoin="round" stroke-miterlimit="10" x1="1437.4" y1="2296.7" x2="1398" y2="2217.4"/>
	
		<line fill="none" stroke-width="12.9409" stroke-linecap="round" stroke-linejoin="round" stroke-miterlimit="10" x1="1300.1" y1="2266.2" x2="1268.6" y2="2197.6"/>
	
		<line fill="none" stroke-width="12.9409" stroke-linecap="round" stroke-linejoin="round" stroke-miterlimit="10" x1="1127.5" y1="2051.7" x2="1127.5" y2="1961.8"/>
	
		<line fill="none" stroke-width="12.9409" stroke-linecap="round" stroke-linejoin="round" stroke-miterlimit="10" x1="1251.9" y1="2087" x2="1247.6" y2="1982.8"/>
	
		<line fill="none" stroke-width="12.9409" stroke-linecap="round" stroke-linejoin="round" stroke-miterlimit="10" x1="1382.6" y1="2115.8" x2="1375.1" y2="2009.8"/>
	
		<line fill="none" stroke-width="12.9409" stroke-linecap="round" stroke-linejoin="round" stroke-miterlimit="10" x1="1693.5" y1="2154.8" x2="1681.1" y2="2051.7"/>
	
		<line fill="none" stroke-width="12.9409" stroke-linecap="round" stroke-linejoin="round" stroke-miterlimit="10" x1="1849.1" y1="2167.5" x2="1835.6" y2="2062.8"/>
	
		<line fill="none" stroke-width="12.9409" stroke-linecap="round" stroke-linejoin="round" stroke-miterlimit="10" x1="2015.5" y1="2167.5" x2="1993.4" y2="2047.3"/>
	
		<line fill="none" stroke-width="12.9409" stroke-linecap="round" stroke-linejoin="round" stroke-miterlimit="10" x1="1978.2" y1="1954.1" x2="1959.4" y2="1839"/>
	
		<line fill="none" stroke-width="12.9409" stroke-linecap="round" stroke-linejoin="round" stroke-miterlimit="10" x1="1814.5" y1="1959.1" x2="1801" y2="1854.6"/>
	
		<line fill="none" stroke-width="12.9409" stroke-linecap="round" stroke-linejoin="round" stroke-miterlimit="10" x1="1667.5" y1="1951.7" x2="1658.6" y2="1846.8"/>
	
		<line fill="none" stroke-width="12.9409" stroke-linecap="round" stroke-linejoin="round" stroke-miterlimit="10" x1="1364.3" y1="1909.6" x2="1367.6" y2="1800"/>
	
		<line fill="none" stroke-width="12.9409" stroke-linecap="round" stroke-linejoin="round" stroke-miterlimit="10" x1="1249.7" y1="1880.3" x2="1251.9" y2="1769.8"/>
	
		<line fill="none" stroke-width="12.9409" stroke-linecap="round" stroke-linejoin="round" stroke-miterlimit="10" x1="1127.5" y1="1737.1" x2="1112.6" y2="1850.3"/>
	
		<line fill="none" stroke-width="12.9409" stroke-linecap="round" stroke-linejoin="round" stroke-miterlimit="10" x1="1120" y1="1642.8" x2="1120" y2="1530.6"/>
	
		<line fill="none" stroke-width="12.9409" stroke-linecap="round" stroke-linejoin="round" stroke-miterlimit="10" x1="1237.1" y1="1667" x2="1233" y2="1552.5"/>
	
		<line fill="none" stroke-width="12.9409" stroke-linecap="round" stroke-linejoin="round" stroke-miterlimit="10" x1="1364.3" y1="1688.8" x2="1364.3" y2="1572.3"/>
	
		<line fill="none" stroke-width="12.9409" stroke-linecap="round" stroke-linejoin="round" stroke-miterlimit="10" x1="1636.1" y1="1737.1" x2="1628.6" y2="1642.8"/>
	
		<line fill="none" stroke-width="12.9409" stroke-linecap="round" stroke-linejoin="round" stroke-miterlimit="10" x1="1784.6" y1="1750.7" x2="1766.6" y2="1636.4"/>
	
		<line fill="none" stroke-width="12.9409" stroke-linecap="round" stroke-linejoin="round" stroke-miterlimit="10" x1="1939.3" y1="1749.7" x2="1927.9" y2="1637.3"/>
	
		<line fill="none" stroke-width="12.9409" stroke-linecap="round" stroke-linejoin="round" stroke-miterlimit="10" x1="1927.9" y1="1530.5" x2="1921" y2="1423.3"/>
	
		<line fill="none" stroke-width="12.9409" stroke-linecap="round" stroke-linejoin="round" stroke-miterlimit="10" x1="1766.6" y1="1536.7" x2="1757.6" y2="1423.3"/>
	<path fill="none" stroke-width="18" stroke-linecap="round" stroke-linejoin="round" stroke-miterlimit="10" d="
		M1638,1304.9c0,0,29.5-3,91,0s223.1,12,239.8,12s33.2-6.6,33.2-6.6"/>
	
		<line fill="none" stroke-width="12.9409" stroke-linecap="round" stroke-linejoin="round" stroke-miterlimit="10" x1="1762.1" y1="1310.2" x2="1762.1" y2="1190.6"/>
	
		<line fill="none" stroke-width="12.9409" stroke-linecap="round" stroke-linejoin="round" stroke-miterlimit="10" x1="1913.5" y1="1316.8" x2="1915" y2="1199.3"/>
	
		<line fill="none" stroke-width="12.9409" stroke-linecap="round" stroke-linejoin="round" stroke-miterlimit="10" x1="1207.3" y1="1457.2" x2="1177.1" y2="1357.3"/>
	
		<line fill="none" stroke-width="12.9409" stroke-linecap="round" stroke-linejoin="round" stroke-miterlimit="10" x1="1091.6" y1="1438.8" x2="1063.1" y2="1323.1"/>
	
		<line fill="none" stroke-width="12.9409" stroke-linecap="round" stroke-linejoin="round" stroke-miterlimit="10" x1="1039" y1="1243.3" x2="1049.5" y2="1126.7"/>
	
		<line fill="none" stroke-width="12.9409" stroke-linecap="round" stroke-linejoin="round" stroke-miterlimit="10" x1="1178.3" y1="1253.8" x2="1168.5" y2="1144"/>
	
		<line fill="none" stroke-width="12.9409" stroke-linecap="round" stroke-linejoin="round" stroke-miterlimit="10" x1="1342.2" y1="608.9" x2="1342.2" y2="503.7"/>
	
		<line fill="none" stroke-width="12.9409" stroke-linecap="round" stroke-linejoin="round" stroke-miterlimit="10" x1="1350.6" y1="830.9" x2="1342.2" y2="718.6"/>
	
		<line fill="none" stroke-width="12.9409" stroke-linecap="round" stroke-linejoin="round" stroke-miterlimit="10" x1="1489.1" y1="839.8" x2="1480.1" y2="716"/>
	
		<line fill="none" stroke-width="12.9409" stroke-linecap="round" stroke-linejoin="round" stroke-miterlimit="10" x1="1480.1" y1="618.1" x2="1489.1" y2="503.7"/>
	
		<line fill="none" stroke-width="12.9409" stroke-linecap="round" stroke-linejoin="round" stroke-miterlimit="10" x1="1778.6" y1="845.5" x2="1774.1" y2="718.6"/>
	
		<line fill="none" stroke-width="12.9409" stroke-linecap="round" stroke-linejoin="round" stroke-miterlimit="10" x1="1927.9" y1="848.1" x2="1927.9" y2="738"/>
	
		<line fill="none" stroke-width="12.9409" stroke-linecap="round" stroke-linejoin="round" stroke-miterlimit="10" x1="1940.5" y1="621.8" x2="1939.3" y2="501.5"/>
	
		<line fill="none" stroke-width="12.9409" stroke-linecap="round" stroke-linejoin="round" stroke-miterlimit="10" x1="1774.1" y1="615.3" x2="1775.6" y2="501"/>
	
		<line fill="none" stroke-width="12.9409" stroke-linecap="round" stroke-linejoin="round" stroke-miterlimit="10" x1="2743.5" y1="2287.3" x2="2743.5" y2="2197.6"/>
	
		<line fill="none" stroke-width="12.9409" stroke-linecap="round" stroke-linejoin="round" stroke-miterlimit="10" x1="2862.5" y1="2253" x2="2850.2" y2="2157.1"/>
	
		<line fill="none" stroke-width="12.9409" stroke-linecap="round" stroke-linejoin="round" stroke-miterlimit="10" x1="2750.5" y1="1876.3" x2="2751.3" y2="1768.5"/>
	
		<line fill="none" stroke-width="12.9409" stroke-linecap="round" stroke-linejoin="round" stroke-miterlimit="10" x1="2833" y1="1839" x2="2834.5" y2="1749.7"/>
	
		<line fill="none" stroke-width="12.9409" stroke-linecap="round" stroke-linejoin="round" stroke-miterlimit="10" x1="2743.5" y1="1663.4" x2="2738.5" y2="1561.2"/>
	
		<line fill="none" stroke-width="12.9409" stroke-linecap="round" stroke-linejoin="round" stroke-miterlimit="10" x1="2833" y1="1621.6" x2="2817.2" y2="1530.5"/>
	
		<line fill="none" stroke-width="12.9409" stroke-linecap="round" stroke-linejoin="round" stroke-miterlimit="10" x1="2733" y1="1446.4" x2="2729.5" y2="1330.3"/>
	
		<line fill="none" stroke-width="12.9409" stroke-linecap="round" stroke-linejoin="round" stroke-miterlimit="10" x1="2814.5" y1="1413.6" x2="2809.5" y2="1300.2"/>
	
		<line fill="none" stroke-width="12.9409" stroke-linecap="round" stroke-linejoin="round" stroke-miterlimit="10" x1="2703" y1="1224.9" x2="2678.6" y2="1111.2"/>
	
		<line fill="none" stroke-width="12.9409" stroke-linecap="round" stroke-linejoin="round" stroke-miterlimit="10" x1="2805.5" y1="1187.8" x2="2778.6" y2="1084.6"/>
</g>
</svg>
