<?xml version="1.0" encoding="utf-8"?>
<!-- Generator: Adobe Illustrator 19.2.0, SVG Export Plug-In . SVG Version: 6.00 Build 0)  -->
<svg version="1.1" id="category-item_svg_belts" xmlns:x="&ns_extend;" xmlns:i="&ns_ai;" xmlns:graph="&ns_graphs;"
	 xmlns="http://www.w3.org/2000/svg" xmlns:xlink="http://www.w3.org/1999/xlink" x="0px" y="0px" viewBox="0 0 3976 2646"
	 enable-background="new 0 0 3976 2646" xml:space="preserve">
<metadata>
	<sfw  xmlns="&ns_sfw;">
		<slices></slices>
		<sliceSourceBounds  bottomLeftOrigin="true" height="2333.8" width="2869.1" x="-572.4" y="-1634.6"></sliceSourceBounds>
	</sfw>
</metadata>
<g>
	<g>
		<path fill="none" stroke-width="35" stroke-linecap="round" stroke-linejoin="round" stroke-miterlimit="10" d="
			M2131,1646.5c-3.7,0-7.5,0-11.2-0.1"/>
		<path fill="none" stroke-width="35" stroke-linecap="round" stroke-linejoin="round" stroke-miterlimit="10" d="
			M2641.5,1644.4c-16.8,0.2-29.5,0.4-46.1,0.8"/>
		<path fill="none" stroke-width="35" stroke-linecap="round" stroke-linejoin="round" stroke-miterlimit="10" d="
			M2788.2,1303.8c72.9,3.9,144.9,9.9,217.9,14.9c10,0,19,1,29,1c25,2,50,8,75,10c11,0,23,0,34,1c29,3,57,9,84,19c2,1,4,3,7,4
			c22,7,46,16,54,40c7,21-3,42-18,56c-1,1-3,1-4,2c-3,3-6,5-9,8c-19,12-34,24-52,37c-2,1-5,1-7,2c-57,39-114,61-175,86
			c-12,5-23,11-35,16c-19,7-36,16-55,22c-28,9-56,16-86,17c-4,0-8,3-12,3c-45,2-89,7-134,1.3"/>
		<path fill="none" stroke-width="35" stroke-linecap="round" stroke-linejoin="round" stroke-miterlimit="10" d="
			M2049.2,1281.3c137,0.3,273,1.3,410,6.6"/>
		<path fill="none" stroke-width="35" stroke-linecap="round" stroke-linejoin="round" stroke-miterlimit="10" d="
			M1127.3,1973.6c-73.1-11.9-142.1-24.9-217.1-38.9c-27-5-51-10-77-17c-9-2-16-5-25-7c-48-12-93-21-138-39c-17-7-33-16-49-27
			c-26-20-49-38-67-66c-1-1-2-1-3-2c-52-69-80-149-78-233c4-26,6-56,24-77c36-16,71-32,107-48c3-1,7-2,10-3c11-6,21-10,32-15
			c34-13,68-26,103-37c3-1,7-1,10-2c17-6,33-10,51-13c72-13,138-23,209-34c12-2,22-4,34-7c8-1,16-1,24-2c64-9,125-15,187.9-17.9"/>
		<path fill="none" stroke-width="35" stroke-linecap="round" stroke-linejoin="round" stroke-miterlimit="10" d="
			M487.5,1496.4c0,0,42.7,39.2,156.8,60.2c114,21,483,78,483,78"/>
		<path fill="none" stroke-width="35" stroke-linecap="round" stroke-linejoin="round" stroke-miterlimit="10" d="
			M2589.7,1980.4c44.2-3.2,87.2-12.1,130-23.3c43-11.3,85.9-22.7,128.6-34.9c42.3-12,84.4-24.6,126.3-38.1
			c41.8-13.5,83.3-28.1,124.3-44c38.9-15.1,77.1-31.6,111.8-55.1c17.5-11.9,33.4-25.6,46.8-42c12.9-15.8,23.4-34.3,30.7-53.4
			c7.5-19.5,11.4-40,14.2-60.6c3-22.5,4.5-45.1,4.8-67.8c0.3-22.5-0.7-45.1-2.5-67.5c-0.9-11.4-2-22.8-3.2-34.1
			c-1.1-9.8-1.5-19.8-3.2-29.5c-1.5-8.4-4.2-16.7-9.6-23.4"/>
		<path fill="none" stroke-width="35" stroke-linecap="round" stroke-linejoin="round" stroke-miterlimit="10" d="
			M2009.3,1973.6c105.8,5.1,210.8,7.1,317.2,9.8"/>
		
			<line fill="none" stroke-width="35" stroke-linecap="round" stroke-linejoin="round" stroke-miterlimit="10" x1="1462.2" y1="2007.1" x2="1773.5" y2="2000.7"/>
		<path fill="none" stroke-width="18" stroke-linecap="round" stroke-linejoin="round" stroke-miterlimit="10" d="
			M706.3,1883.2c0,0,99.8-299.3,116.4-296.6"/>
		<path fill="none" stroke-width="18" stroke-linecap="round" stroke-linejoin="round" stroke-miterlimit="10" d="
			M1790.6,2000.7c0,0,37.5,40.6,54,40.6c16.5,0,220.5-106.5,220.5-106.5"/>
		<path fill="none" stroke-width="18" stroke-linecap="round" stroke-linejoin="round" stroke-miterlimit="10" d="
			M1856.5,1748.8c5.7,81.9,7.7,163.9-3.3,244.9c-18,0-37,1-51.7-9.4"/>
		<path fill="none" stroke-width="18" stroke-linecap="round" stroke-linejoin="round" stroke-miterlimit="10" d="
			M2031,1743.5c-41.7,0.6-83.4,1.7-125.1,1.7c-5,0-9.9,0-14.8-0.1v189.7c0,0,3,25.5,18,25.5c15,0,126-55.5,126-55.5s27-111,12-142.5
			C2044.2,1756.3,2038.5,1749.9,2031,1743.5z"/>
		<path fill="none" stroke-width="18" stroke-linecap="round" stroke-linejoin="round" stroke-miterlimit="10" d="
			M2330.8,1924.8c-83.6,3.8-167.6,7.8-251.6,8.8c-16-4-38-14-38.4-33.4"/>
		<path fill="none" stroke-width="18" stroke-linecap="round" stroke-linejoin="round" stroke-miterlimit="10" d="
			M2199.3,1729.8c41.1-0.1,82.1-0.1,123.2-0.1"/>
		<path fill="none" stroke-width="18" stroke-linecap="round" stroke-linejoin="round" stroke-miterlimit="10" d="
			M2040.8,1753.1c1.1-2.8,4.1-4.8,6.5-6.3"/>
		<path fill="none" stroke-width="18" stroke-linecap="round" stroke-linejoin="round" stroke-miterlimit="10" d="
			M1378.7,1720.7c2.5,93,3.5,185,5.5,278c29,2,58,4,87,4.1"/>
		<path fill="none" stroke-width="18" stroke-linecap="round" stroke-linejoin="round" stroke-miterlimit="10" d="
			M1264.1,2069.8c-31-3.1-62-3.1-92-11.1c-18-10-27-28-39-44c0-122,0-243,0-365c3-9,4-19,10-28c12-16,33-12,49.9-12.1"/>
		<path fill="none" stroke-width="18" stroke-linecap="round" stroke-linejoin="round" stroke-miterlimit="10" d="
			M1341.5,2069.8c0,0,65.3-8.7,74.7-9.4c9.3-0.7,45.3-36.7,46-53.3"/>
		<path fill="none" stroke-width="18" stroke-linecap="round" stroke-linejoin="round" stroke-miterlimit="10" d="
			M1341.5,2031.7c0,0,30.6-4.9,36.6-19s11.4-14.1,11.4-14.1"/>
		<path fill="none" stroke-width="18" stroke-linecap="round" stroke-linejoin="round" stroke-miterlimit="10" d="
			M1221.1,1659.7c-3.9,0.9-7.9,1.9-11.9,2.9c-2,1-4,2-7,3c-5,2-8,6-8,11c0,9,0,19,0,28c-2,96-1,193,2,289c7,5,13,12,19,18
			c4,4,9,7,14,9c14,8,30,8,45.5,5.6c0,9.9-3.1,0.9,0,0c0.5,15.4-3.5,30.4,1.5,45.4c0,3,4,6,8,6c17,1,36,4,51-4c3-16,0-31,1-47.4"/>
		<path fill="none" stroke-width="18" stroke-linecap="round" stroke-linejoin="round" stroke-miterlimit="10" d="
			M1255.3,2027.2c0,0,51.9-35.6,96.2,0"/>
		<path fill="none" stroke-width="18" stroke-linecap="round" stroke-linejoin="round" stroke-miterlimit="10" d="
			M1796.4,1745.1c-0.3,85.6-0.3,170.6,0.1,256.7"/>
	</g>
	<g>
		<path fill="none" stroke-width="35" stroke-linecap="round" stroke-linejoin="round" stroke-miterlimit="10" d="
			M1962.1,444.3c0,0-157-116-190-132s-126-21-146,5s-15,166-13,184c2,18,45,79,68,104s277,212,310,223s205,138,210,161"/>
		<path fill="none" stroke-width="35" stroke-linecap="round" stroke-linejoin="round" stroke-miterlimit="10" d="
			M1626.1,317.3c0,0,37.1,56.6,67.1,88.1c30,31.5,238.5,196.9,238.5,196.9"/>
		<path fill="none" stroke-width="35" stroke-linecap="round" stroke-linejoin="round" stroke-miterlimit="10" d="
			M2005.2,609.5c0,0,185.8,139.5,200.9,190.5c15.1,51,39.1,189-19.4,235.5c-58.5,46.5-286.5,159-367.5,162s-382.5,72-454.5,75
			s-154.5,13.5-159,61.5c-4.5,48,54,112.5,117,126c63,13.5,727.5,39,741,40.5s47.6,211.5,47,223.5s-54.5,30-98,28.5
			s-618-31.5-661.5-43.5c-43.5-12-163.5-36-192-169.5c-28.5-133.5-56.3-217.3,36-246c27.9-8.6,70.1-8.6,70.1-8.6"/>
		<path fill="none" stroke-width="35" stroke-linecap="round" stroke-linejoin="round" stroke-miterlimit="10" d="
			M1288,1447.3c0,0,223.1-14,277.1-30s268-64,310-74s238-84,274-114s102-84,102-194s-41.9-224-41.9-224"/>
		<path fill="none" stroke-width="35" stroke-linecap="round" stroke-linejoin="round" stroke-miterlimit="10" d="
			M2018.1,496.8c0,0,156.8-33.5,205.9-83.5s121.1-148,157.1-196s102-116,206-116s218,66,252,116s102,128,90,304s2,226-34,318
			s-98,204-116,262s-30,148-30,148"/>
		<path fill="none" stroke-width="35" stroke-linecap="round" stroke-linejoin="round" stroke-miterlimit="10" d="
			M2060.9,653.1c0,0,54.2-1.8,116.2-67.8s148-142,184-174s90-116,176-128s158-24.5,208,15.8s96,66.3,108,122.3s14,106.2-8,188.1
			c-22,81.9-76,249.9-106,299.9s-66,102-120,142s-88,128-94,209c66,23,198.6,60.1,198.6,60.1l25.4-71.1"/>
		<path fill="none" stroke-width="35" stroke-linecap="round" stroke-linejoin="round" stroke-miterlimit="10" d="
			M2507.1,1337.3l205,48l-69,208c0,0-77-36-109-42s-112-19-112-30S2480.1,1342.3,2507.1,1337.3z"/>
		<path fill="none" stroke-width="35" stroke-linecap="round" stroke-linejoin="round" stroke-miterlimit="10" d="
			M2377.2,1704.4l222,28.5c0,0,18,49.5,0,88.5s-24,283.5-24,283.5h-237v-162c0,0,16.5-130.5,21-136.5S2359.1,1702.1,2377.2,1704.4z"
			/>
		<path fill="none" stroke-width="18" stroke-linecap="round" stroke-linejoin="round" stroke-miterlimit="10" d="
			M2338.2,2026.9c0,0-57,36-54,67.5s72,109.5,76.5,132c4.5,22.5,10.5,142.5,15,160.5c4.5,18,53.9,23,85.4,21.5s34.6-110,42.1-137
			c7.5-27,37.9-70.5,63.9-85.5c26.1-15,54.6-57,54.6-81s-22.4-74.9-33-78"/>
		<path fill="none" stroke-width="18" stroke-linecap="round" stroke-linejoin="round" stroke-miterlimit="10" d="
			M2326.2,2104.9c0,0-19.5,4.5,25.5,52.5s42,34.5,42,34.5s6-41.7,15-42.6s73.5,0,73.5,0l9,36.6c0,0,55.5-39,69-49.5
			c13.5-10.5,31.5-13.5,28.5-31.5"/>
		
			<line fill="none" stroke-width="18" stroke-linecap="round" stroke-linejoin="round" stroke-miterlimit="10" x1="2393.7" y1="2191.9" x2="2370.8" y2="2342.1"/>
		
			<line fill="none" stroke-width="18" stroke-linecap="round" stroke-linejoin="round" stroke-miterlimit="10" x1="2492.7" y1="2191.9" x2="2495.2" y2="2323.8"/>
		
			<line fill="none" stroke-width="18" stroke-linecap="round" stroke-linejoin="round" stroke-miterlimit="10" x1="2393.7" y1="2209.9" x2="2492.7" y2="2209.9"/>
		
			<polyline fill="none" stroke-width="18" stroke-linecap="round" stroke-linejoin="round" stroke-miterlimit="10" points="
			2370.8,1795.9 2589,1810.9 2347.2,1987.9 2579.4,1996.9 		"/>
		
			<line fill="none" stroke-width="18" stroke-linecap="round" stroke-linejoin="round" stroke-miterlimit="10" x1="2382.2" y1="1795.9" x2="2567.1" y2="1996.9"/>
		<path fill="none" stroke-width="18" stroke-linecap="round" stroke-linejoin="round" stroke-miterlimit="10" d="
			M2519.7,1218.4c0,0-27.8,5.8-40.9,41.9c-13.1,36.1-38.6,97.6-31.1,112.6c7.5,15,20.4,22.5,20.4,22.5"/>
		<path fill="none" stroke-width="18" stroke-linecap="round" stroke-linejoin="round" stroke-miterlimit="10" d="
			M2756.6,1260.3c0,0,28.5,16.6,22.5,46.6c-6,30-30,120-34.5,130.5c-4.5,10.5-53,37.3-61,33.7"/>
		
			<line fill="none" stroke-width="18" stroke-linecap="round" stroke-linejoin="round" stroke-miterlimit="10" x1="1911.1" y1="563.3" x2="1921.1" y2="430.3"/>
		
			<line fill="none" stroke-width="18" stroke-linecap="round" stroke-linejoin="round" stroke-miterlimit="10" x1="1890" y1="763.3" x2="1890" y2="571.3"/>
		
			<polyline fill="none" stroke-width="18" stroke-linecap="round" stroke-linejoin="round" stroke-miterlimit="10" points="
			1993.7,829.3 2002.1,675.3 2128.1,775.3 2128.1,907.3 2009.1,689.3 		"/>
		
			<line fill="none" stroke-width="18" stroke-linecap="round" stroke-linejoin="round" stroke-miterlimit="10" x1="2003.1" y1="811.3" x2="2128.1" y2="775.3"/>
		<path fill="none" stroke-width="18" stroke-linecap="round" stroke-linejoin="round" stroke-miterlimit="10" d="
			M1931.7,609.5c0,0,73.4,47.9,106.4,72.9s135,116,151,129c16,13,25,26,25,26"/>
		<path fill="none" stroke-width="18" stroke-linecap="round" stroke-linejoin="round" stroke-miterlimit="10" d="
			M1955.1,491.3c0,0,0-39,18-45s46,4,37,45s-12,80-12,80s2,51-10,55s-47-14.8-49-30.4C1937.1,580.3,1955.1,491.3,1955.1,491.3z"/>
		<path fill="none" stroke-width="18" stroke-linecap="round" stroke-linejoin="round" stroke-miterlimit="10" d="
			M2076.4,1498c0,0,73.3,16.7,93.3,32c20,15.3,40,28.7,40,28.7h123.3c0,0,49.3,16,55.3,20.7c6,4.7,16.7,40.7,16.7,50.7
			s-27.3,18-34,24s-52,16-79.3,16s-61.3,16-64,20.7c-2.7,4.7-46.7,56-59.3,66c-12.7,10-36.1,20-57.7,28.7c-21.6,8.7-45.6,16.7-55,4
			c-9.3-12.7-20-36.9-20-36.9"/>
		<path fill="none" stroke-width="18" stroke-linecap="round" stroke-linejoin="round" stroke-miterlimit="10" d="
			M2116.4,1721.3c0,0,32-13.3,46-25.3s38-37.3,48.7-44.7c10.7-7.3,49.3-10,68.7-14.7s76.7-14,83.3-14s23.8,17.3,20.5,24.3"/>
		<path fill="none" stroke-width="18" stroke-linecap="round" stroke-linejoin="round" stroke-miterlimit="10" d="
			M2089.7,1541.3l60.7,38c0,0-12,26-14,34s4.7,61.3,7.3,68c2.7,6.7,6.7,19.3,6.7,19.3"/>
		<path fill="none" stroke-width="18" stroke-linecap="round" stroke-linejoin="round" stroke-miterlimit="10" d="
			M2268.1,1639c0,0-23-3.6-47.7-2.3c-24.7,1.3-53.3-5.3-60.7-22.7c-7.3-17.3,4.7-37.3,4.7-37.3s48-12.7,70-12.7"/>
		
			<line fill="none" stroke-width="18" stroke-linecap="round" stroke-linejoin="round" stroke-miterlimit="10" x1="2224" y1="1564.7" x2="2242" y2="1636.6"/>
		<path fill="none" stroke-width="18" stroke-linecap="round" stroke-linejoin="round" stroke-miterlimit="10" d="
			M2326.6,1666.6c0,0-9.1,36.1,0,57.4s20.5,58.7,20.5,58.7"/>
		<path fill="none" stroke-width="18" stroke-linecap="round" stroke-linejoin="round" stroke-miterlimit="10" d="
			M2611.7,1817.3c0,0,41.3-34.7,50.7-68.7s30-92.8,30.7-109.7c0.7-17,5.3-86.3-22.7-99"/>
		<path fill="none" stroke-width="18" stroke-linecap="round" stroke-linejoin="round" stroke-miterlimit="10" d="
			M2414.4,1514.7c0,0-45.2,32.7-46.3,56"/>
		<path fill="none" stroke-width="18" stroke-linecap="round" stroke-linejoin="round" stroke-miterlimit="10" d="
			M2426.4,1474.7c0,0-36-1.3-64.7,28s-30.7,52.7-30.7,52.7"/>
		<path fill="none" stroke-width="18" stroke-linecap="round" stroke-linejoin="round" stroke-miterlimit="10" d="
			M2405.1,1632.7c0,0,57.3-20.7,63-26.7s27-10,41.7-9.3c14.7,0.7,60,36,70,47.3c10,11.3,30.7,39.3,41.3,39.3s14.7-6.7,21.3-20
			c6.7-13.3,23.3-58.8,20-66.7c-3.3-7.9-3.3-7.9-3.3-7.9h-6.3"/>
		<path fill="none" stroke-width="18" stroke-linecap="round" stroke-linejoin="round" stroke-miterlimit="10" d="
			M2378.7,1692c0,0,67.7-38,71.7-40.7c4-2.7,46-28.7,56.7-28.7s68,60,72.7,65.3c4.7,5.3,27.4,40,27.4,40"/>
	</g>
</g>
</svg>
