<?xml version="1.0" encoding="utf-8"?>
<!-- Generator: Adobe Illustrator 19.2.0, SVG Export Plug-In . SVG Version: 6.00 Build 0)  -->
<svg version="1.1" id="category-item_svg_clothes" xmlns:x="&ns_extend;" xmlns:i="&ns_ai;" xmlns:graph="&ns_graphs;"
	 xmlns="http://www.w3.org/2000/svg" xmlns:xlink="http://www.w3.org/1999/xlink" x="0px" y="0px" viewBox="0 0 3976 2646"
	 enable-background="new 0 0 3976 2646" xml:space="preserve">
<metadata>
	<sfw  xmlns="&ns_sfw;">
		<slices></slices>
		<sliceSourceBounds  bottomLeftOrigin="true" height="1975.4" width="1604.6" x="12.1" y="-1375.7"></sliceSourceBounds>
	</sfw>
</metadata>
<g>
	<path fill="none" stroke-width="18" stroke-linecap="round" stroke-linejoin="round" stroke-miterlimit="10" d="
		M1642.4,562.9c0,0-167.4,17.8-214.4,49.6c-47,31.8-80.5,73.7-130.1,161.4c-49.6,87.7-64.8,124.6-64.8,124.6s-69.9,106.8-80.1,134.7
		c-10.2,28-92.8,226.3-97.9,274.6c-5.1,48.3-15.3,52.1,12.7,118.2c-15.3,69.9-10.2,83.9-10.2,83.9s1.3,50.8,0,77.5
		c-1.3,26.7-7.6,69.9,0,85.2c7.6,15.3,8.9,34.3,8.9,34.3c0,44.5,0,87.7,0,87.7s-3.8,55.9,2.5,71.2c6.4,15.3,26.7,61,28,73.7
		c1.3,12.7-6.4,50.8-2.5,64.8c3.8,14,14,29.2,25.4,36.9c11.4,7.6,21.6,22.9,29.2,38.1c7.6,15.3,22.9,52.1,26.7,59.7
		c3.8,7.6,17.8,8.9,24.2,10.2s68.6-15.3,83.9-17.8c15.3-2.5,71.2-34.3,72.5-39.4s-1.3-47-5.1-54.7c-3.8-7.6-1-36.9-5.6-44.5
		c-4.6-7.6,4.6-24.2,0-36.9c-4.6-12.7-41.5-24.2-41.5-24.2s-8.9-30.5-8.9-39.4c0-8.9,14-25.4,16.5-43.2s-5.1-108.1-5.1-108.1
		s22.9-34.3,29.2-68.6c6.4-34.3-5.1-62.3-5.1-62.3s8.9-30.5,5.1-43.2c8.9-17.8,39.4-106.8,39.4-133.5c0-26.7-4.6-34.4-4.6-34.4
		c13-9.6,32.2-48,32.2-48v50.9c0,0-10.7,37.9-11.3,68.9c-0.6,31.1,1.1,47.5,1.1,53.1c0,5.7-15.3,85.9-14.7,119.2
		c0.6,33.3,4,189.8,7.3,206.2s10.7,62.2,11.3,72.9c0.6,10.7-11.9,74.6-12.4,86.4c-0.6,11.9,2.3,15.8,2.3,15.8s-9.6,15.3-6.8,24.3
		c2.8,9,13,23.2,20.3,28.8c7.3,5.7,13,8.5,30.5,14.7c17.5,6.2,143,40.3,178.6,47.9c35.6,7.6,158.4,10.3,172,9
		c13.6-1.4,120.3,0.8,129.2-2.6c8.9-3.4,19.1-13.1,19.1-13.1l15.3,0.1c0,0-3.4,13.6,7.3,13.6s36.7-0.6,40.1-1.1
		c3.4-0.6,145.8-8.8,180.5-17.2c34.7-8.5,127.4-39.3,135.9-47.7c8.5-8.5,11.9-23.7,11.9-33.9c0-10.2-7.9-31.1-7.9-31.1
		s-5.1-40.7-4-53.1c1.1-12.4-4-54.1-0.2-66.8c3.8-12.7,7.6-48.3,5.1-73.7c-2.5-25.4-12.7-118.2-35.6-164c6.4-45.8,5-62.8,5-84.8
		s-7.2-75-8.9-86.4c-1.7-11.4,4.2-38.1,6.8-42.8c2.5-4.7,19.9-26.1,19.9-63.4c0-37.3-2.8-70.6-2.3-74c0.6-3.4,6.2-19.2,6.2-19.2
		s10.2,61,18.6,79.7s22.6,58.8,22.6,58.8s-22.6,20.3-22,59.3s31.6,70.6,31.6,70.6v20.9c0,0,19.8,27.7,20.9,39
		c1.1,11.3,0.6,74.6,4.5,83.1c4,8.5,10.7,79.7,13.6,96.6s9.6,39.5,15.3,49.7c-14.1,19.2-20.3,64.4-20.3,70.6
		c0,6.2-8.5,18.6-6.2,26.6c2.3,7.9-4.5,18.1-4,24.3c0.6,6.2-10.7,17-10.7,23.2s-2.8,32.2-2.8,32.2s26.6,27.7,88.7,35
		c62.2,7.3,93.2,5.7,101.1-9c7.9-14.7,8.8-35.6,12.1-40.7c3.4-5.1,0-33.1,0-33.1s10.2-11.9,8.5-20.3c-1.7-8.5,16.1,0,18.6-14.4
		c2.5-14.4,0-51.7,0-51.7s14.4-34.7,17-53.4c2.5-18.6-6.8-70.3-4.2-78c2.5-7.6,9.4-28,4.7-39c-4.7-11,10.6-12.7,10.6-21.2
		c0-8.5-6.4-36-4.7-45.8c1.7-9.7,11.9-25,9.7-44.9c-2.1-19.9-5.7-49.2-4.5-59.3c1.1-10.2-7.9-27.7-7.9-27.7
		c2.3-10.2-1.7-16.4-1.7-16.4c7.3-5.7,8.5-30.5,7.9-34.5c-0.6-4-14.7-40.1-19.2-40.7c17.5-14.7,27.7-35.6,29.4-47.5
		c1.7-11.9,7.3-83.3,0-109.2c-7.3-25.8-28.5-162.6-83.2-273.2c-54.7-110.6-63.6-136-64.8-139.8c-1.3-3.8-35.6-86.4-45.8-104.2
		c-10.2-17.8-67.4-115.7-180.5-146.2c-113.1-30.5-99.6-23-99.6-23s6.8-9.7,10.6-18.2c3.8-8.5,2.8-27.4,2.8-27.4s5.9-7.9,5.9-14.1
		c0-6.2-2.5-20.3-2.5-20.3s9-34.5,13-45.8c4-11.3-4.5-51.4-17-62.2c-12.4-10.7-45.8-58.8-52-70.1c-6.2-11.3-76.8-71.2-89.3-81.9
		c-12.4-10.7-59.9-46.9-111.3-51.4c-51.4-4.5-98.9,15.8-115.8,25.4c-17,9.6-75.1,66.7-75.1,66.7s-50.3,36.2-57.6,55.4
		c-7.3,19.2-8.5,46.9-5.7,55.9c-8.5,16.4-13.3,60-13.3,69.4c0,9.3-10.6,23.7-7.2,28.4c3.4,4.7-0.4,17.4-0.8,25.4
		c-0.4,8.1,3.4,34.7,4.2,40.3"/>
	<path fill="none" stroke-width="35" stroke-linecap="round" stroke-linejoin="round" stroke-miterlimit="10" d="
		M1965.3,602.3c0,0-25.4,147.5-28,170.3c-2.5,22.9-1.3,90.3,0,108.1c1.3,17.8,12.5,59.7,13.3,91.5c0.7,31.8,9.6,289.8,8.4,306.4
		c-1.3,16.5,1.3,256.8-1.3,279.7c-2.5,22.9,1.3,181.8,1.3,205.9c0,24.2-7.8,260.6-8.4,279.7s-5.7,89.9-5.7,89.9"/>
	
		<line fill="none" stroke-width="35" stroke-linecap="round" stroke-linejoin="round" stroke-miterlimit="10" x1="1217.7" y1="1319.6" x2="1293.2" y2="1131.5"/>
	<path fill="none" stroke-width="35" stroke-linecap="round" stroke-linejoin="round" stroke-miterlimit="10" d="
		M1554.2,1108.6c0,0,20.3,105.9,25.4,127.1c5.1,21.2,9.3,61.9,4.2,83.9c-5.1,22-24.6,112.7-22,129.7c2.5,17,8.4,33.9,8.4,33.9"/>
	
		<path fill="none" stroke-width="12.9409" stroke-linecap="round" stroke-linejoin="round" stroke-miterlimit="10" d="
		M2305.1,1128.9c0,0-21.2,81.4-22,98.3s1.7,101.7,0,118.7s-28,112.7-28,112.7"/>
	<path fill="none" stroke-width="35" stroke-linecap="round" stroke-linejoin="round" stroke-miterlimit="10" d="
		M2480.5,1208.6c0,0,13.6,62.7,5.1,90.7"/>
	
		<path fill="none" stroke-width="12.9409" stroke-linecap="round" stroke-linejoin="round" stroke-miterlimit="10" d="
		M1697.4,361.1c9.5-19.2,64.4-55.1,90.7-67.8c26.3-12.7,90.7-20.3,110.2-19.5c19.5,0.8,104.2,30.5,119.5,38.1
		c15.3,7.6,82.2,55.1,94.9,67c12.7,11.9,47.5,35.6,43.2,55.9c-4.2,20.3-11,43.2-19.5,59.3c-8.5,16.1-27.1,33.1-36.4,33.1
		c-9.3,0-72.9-17-87.3-16.1c-14.4,0.8-13.6-10.2-25.4-10.2c-11.9,0-42.4-2.5-46.6,4.2c-4.2,6.8-24.6,2.5-28.8,1.7
		c-4.2-0.8-88.1-6.8-101.7-7.6c-13.6-0.8-37.3-9.3-43.2-19.5c-5.9-10.2-34.7-41.5-42.4-52.5C1716.9,416.2,1692.4,371.3,1697.4,361.1
		z"/>
	
		<path fill="none" stroke-width="12.9409" stroke-linecap="round" stroke-linejoin="round" stroke-miterlimit="10" d="
		M1733.9,296.7c0,0,67.8-55.9,75.4-61c7.6-5.1,85.6-24.6,103.4-24.6c17.8,0,73.7,20.3,82.2,27.1c8.5,6.8,52.5,44.1,52.5,44.1"/>
	
		<path fill="none" stroke-width="12.9409" stroke-linecap="round" stroke-linejoin="round" stroke-miterlimit="10" d="
		M1636.7,563.7c0,0,40,56.4,69.3,80.5c29.2,24.2,95.7,71.2,118.4,78.8c22.7,7.6,87.5,24.2,87.5,24.2"/>
	
		<path fill="none" stroke-width="12.9409" stroke-linecap="round" stroke-linejoin="round" stroke-miterlimit="10" d="
		M1976.7,735.8c0,0,91.5-36.9,104.2-43.2c12.7-6.4,42-35.6,52.1-48.3c10.2-12.7,24.9-59.9,24.9-59.9"/>
	
		<path fill="none" stroke-width="12.9409" stroke-linecap="round" stroke-linejoin="round" stroke-miterlimit="10" d="
		M2461.9,1874.4c0,0-13.6-36.2-13-63.8c0.6-27.7,7.9-28.8,2.8-52s-29.9-105.7-31.1-117.5"/>
	
		<path fill="none" stroke-width="12.9409" stroke-linecap="round" stroke-linejoin="round" stroke-miterlimit="10" d="
		M2389.6,1916.2c0,0,49.4-11.9,84.2-5.9s94.1,21.2,104.2,34.7"/>
	
		<path fill="none" stroke-width="12.9409" stroke-linecap="round" stroke-linejoin="round" stroke-miterlimit="10" d="
		M2383.8,1945.1c0,0,34.1-3.4,41.7,0c7.6,3.4,18.1,14.4,15.8,20.3c-2.3,5.9-11.9,19.5-20.6,19.5c-8.8,0-50.2,0-50.2,0"/>
	
		<path fill="none" stroke-width="12.9409" stroke-linecap="round" stroke-linejoin="round" stroke-miterlimit="10" d="
		M2430.4,1948.1c0,0,47.6-5.5,81.5,6.3c33.9,11.9,55.9,20.3,55.9,20.3"/>
	
		<path fill="none" stroke-width="12.9409" stroke-linecap="round" stroke-linejoin="round" stroke-miterlimit="10" d="
		M2426.3,1984.9c0,0,58.5,11,81.4,16.1c22.9,5.1,53.4,14.4,53.4,14.4"/>
	
		<path fill="none" stroke-width="12.9409" stroke-linecap="round" stroke-linejoin="round" stroke-miterlimit="10" d="
		M2420.6,1584.6l-9.6,22l-9,23.2l-11.9,61.6v41.8l13-2.8c0,0,10.7-74.6,10.7-82.5c0-7.9,7.3-28.3,9.6-32.2c2.3-4,9-31.1,9-31.1
		H2420.6z"/>
	
		<line fill="none" stroke-width="12.9409" stroke-linecap="round" stroke-linejoin="round" stroke-miterlimit="10" x1="2406" y1="1619.5" x2="2420.6" y2="1622.2"/>
	
		<path fill="none" stroke-width="12.9409" stroke-linecap="round" stroke-linejoin="round" stroke-miterlimit="10" d="
		M2427.4,1054c0,0,8.5,11.9,10.2,20.9c1.7,9,0,20.3,0,22c0,1.7,9,13.6,9,13.6h6.2l9.6,37c0,0,3.4,26.3,4,28.5
		c0.6,2.3,7.3,19.2,7.3,19.2l14.7-2.3c0,0-18-81.4-18-86.4c0-5.1-3.4-19.8-3.4-19.8s-13-11.9-14.7-16.4
		c-1.7-4.5-11.3-23.2-11.3-23.2S2428,1044.4,2427.4,1054z"/>
	
		<line fill="none" stroke-width="12.9409" stroke-linecap="round" stroke-linejoin="round" stroke-miterlimit="10" x1="2450" y1="1107.2" x2="2468.7" y2="1094.8"/>
	
		<path fill="none" stroke-width="12.9409" stroke-linecap="round" stroke-linejoin="round" stroke-miterlimit="10" d="
		M2609.3,1195.3c0,0-33.9,24.3-44.6,30.5c-10.7,6.2-36.2,19.2-36.2,19.2s-7.3-18.6-8.5-25.4c-1.1-6.8-27.1-132.2-31.7-148.6
		c-4.6-16.4-10.7-25.4-15.8-37.9c0,0,30.5-24.3,37.3-31.1c6.8-6.8,30.1-22.4,30.1-22.4"/>
	
		<path fill="none" stroke-width="12.9409" stroke-linecap="round" stroke-linejoin="round" stroke-miterlimit="10" d="
		M2305.1,960.3c-1,4.8,0,34.5,0,34.5s-0.3,26,0,31.6s-0.3,26-0.9,39.6c-0.5,13.6,2.8,31.6,0,37.9c-2.8,6.2-1.3,17.1-0.1,17.3
		c1.2,0.2,11.4-0.9,13.7-2.6c2.3-1.7,11.3-73.5,13-87.6c1.7-14.1,2.8-28.3,2.3-31.6c-0.6-3.4-10.7-26-11.9-29.9
		c-1.1-4-5.7-15.8-5.7-15.8S2305.7,957.5,2305.1,960.3z"/>
	
		<line fill="none" stroke-width="12.9409" stroke-linecap="round" stroke-linejoin="round" stroke-miterlimit="10" x1="2308.8" y1="1006.6" x2="2328.5" y2="996.4"/>
	
		<path fill="none" stroke-width="12.9409" stroke-linecap="round" stroke-linejoin="round" stroke-miterlimit="10" d="
		M1529.6,971c0,5.7,2.3,22.6,0,26.6c-2.3,4-5.1,15.8-5.1,23.2c0,7.3-3.4,11.3,0,22c3.4,10.7,3.7,24.9,6.1,32.8
		c2.4,7.9,4.1,14.7,2.4,24.3c-1.7,9.6-2.5,29.9-4.6,33.9c-2.1,4,4.6,2.8,9.7,2.8c5.1,0,22.6-49.2,20.3-57.6s-1.7-55.4-4.2-58.8
		c-2.5-3.4-5.9-22.6-5.4-27.1c0.6-4.5-7-13.6-8-17C1539.8,972.7,1529.6,971,1529.6,971z"/>
	
		<line fill="none" stroke-width="12.9409" stroke-linecap="round" stroke-linejoin="round" stroke-miterlimit="10" x1="1524.9" y1="1015.5" x2="1552.3" y2="1015.5"/>
	
		<path fill="none" stroke-width="12.9409" stroke-linecap="round" stroke-linejoin="round" stroke-miterlimit="10" d="
		M1077.5,1229.9c0,0,71.6,43.1,80.1,44.8c8.5,1.7,11.9,3.5,26.3-22.4c14.4-25.9,75.4-183.5,75.4-183.5s14.4-17.8-18.6-32.2
		c-33.1-14.4-70.7-36.4-70.7-36.4"/>
	
		<path fill="none" stroke-width="12.9409" stroke-linecap="round" stroke-linejoin="round" stroke-miterlimit="10" d="
		M1321.1,1043.3c-3.8,4.2-11,12.3-11.4,19.5s1.7,19.5-4.7,24.2c-6.4,4.7-19.1,17.4-23.3,21.6c-4.2,4.2-27.1,27.4-28.4,28.1
		c-1.3,0.7-14,14.7-15.7,16.4c-1.7,1.7,10.6,4.2,14.8,3.8c4.2-0.4,21.6-13.1,21.6-13.1s33.1-26.3,36-29.7c3-3.4,11-17.8,14-19.9
		c3-2.1,8.9-8.5,8.9-13.1c0-4.7,1.3-9.3,0-13.1c-1.3-3.8,2.1-15.3,2.5-17.4C1336,1048.4,1321.1,1043.3,1321.1,1043.3z"/>
	
		<line fill="none" stroke-width="12.9409" stroke-linecap="round" stroke-linejoin="round" stroke-miterlimit="10" x1="1309.7" y1="1070.4" x2="1335.6" y2="1073"/>
	<path fill="none" stroke-width="10" stroke-linecap="round" stroke-linejoin="round" stroke-miterlimit="10" d="
		M1059.3,1307.7c0,0,50.9,22.9,64.4,27.1c13.6,4.2,51.7,17.8,64.4,22.9c12.7,5.1,44.1,19.7,55.9,10.3c11.9-9.4,41.8-42.5,42.5-48.4
		c0.7-5.9,54.1-129.1,54.1-129.1s43.2-126,44.9-132.7c1.7-6.8,19.5-47.5-6.8-76.3c-26.3-28.8-141.3-92.8-141.3-92.8"/>
	<path fill="none" stroke-width="10" stroke-linecap="round" stroke-linejoin="round" stroke-miterlimit="10" d="
		M2509.4,916.1c0,0-59.7,37-76.3,44.7c-16.5,7.6-55.9,39.4-58.5,52.1c-2.5,12.7-8.9,36.9,0,59.7c8.9,22.9,29.2,115.5,36.9,135.9
		c7.6,20.4,7.7,57.3,15.9,77.6c8.2,20.3,14.9,58.5,31.9,61c17,2.5,86.9-14,100.9-17.8c14-3.8,74.5-40.8,74.5-40.8"/>
	<path fill="none" stroke-width="10" stroke-linecap="round" stroke-linejoin="round" stroke-miterlimit="10" d="
		M1384.4,2008.9c0,0,67.3,38.7,106.7,46.4c39.4,7.6,85.2,24.2,137.3,31.8c52.1,7.6,73.7,7.6,101.7,10.2c28,2.5,77.5-5.1,105.5,0
		c28,5.1,78.8,6.4,78.8,6.4"/>
	<path fill="none" stroke-width="10" stroke-linecap="round" stroke-linejoin="round" stroke-miterlimit="10" d="
		M1978.2,2103.6c0,0,149.8-16.1,175.2-17.8c25.4-1.7,69.5-17,83.1-22c13.6-5.1,78-42.7,78-42.7"/>
	<path fill="none" stroke-width="10" stroke-linecap="round" stroke-linejoin="round" stroke-miterlimit="10" d="
		M1910.6,2146.8c0,0,9-66.7,10.2-90.5c1.3-23.9,7.6-166.9,7.6-181.8c0-14.9,3.8-195.4,0-205.6c-3.8-10.2,4.7-192,1.7-199.6
		c-3-7.6,3-240.4,0.6-260.7c-2.3-20.3-4.6-222.4-9.8-245.3c-5.2-22.9-11.7-200.8-10.4-208.5c1.3-7.6,11.6-43.2,10.3-49.6
		c-1.3-6.4,17.3-115.9,15-120.9s-9.4-75.5-9.4-75.5"/>
	<path fill="none" stroke-width="10" stroke-linecap="round" stroke-linejoin="round" stroke-miterlimit="10" d="
		M1941.1,508.9c0,0,10.1,49.2,9.5,51.4c-0.6,2.1,5.8,27.5,5.8,27.5"/>
	<path fill="none" stroke-width="10" stroke-linecap="round" stroke-linejoin="round" stroke-miterlimit="10" d="
		M1951.7,567.7c0,0,19.2-7.9,25.1-15.1c5.9-7.2,16.5-32.6,16.5-35.2c0-2.5,0-13.6,0-13.6"/>
	<path fill="none" stroke-width="10" stroke-linecap="round" stroke-linejoin="round" stroke-miterlimit="10" d="
		M1981.8,552.2c0,0,6.4,9.8,11.4,15.5c5.1,5.7-1.3,9.9,0,16.7c1.3,6.8,5.5,29.7,5.5,29.7s-2.1,11.4,0,25.4
		c2.1,14,10.6,46.2,10.6,46.2l-27.5,5.5c0,0-17.2-42.4-16.5-45.8"/>
	
		<line fill="none" stroke-width="10" stroke-linecap="round" stroke-linejoin="round" stroke-miterlimit="10" x1="1974.6" y1="591.6" x2="1990.7" y2="584.4"/>
	
		<line fill="none" stroke-width="10" stroke-linecap="round" stroke-linejoin="round" stroke-miterlimit="10" x1="1755.1" y1="454.3" x2="1831.4" y2="500.7"/>
	
		<line fill="none" stroke-width="10" stroke-linecap="round" stroke-linejoin="round" stroke-miterlimit="10" x1="2134.7" y1="497.1" x2="2057.8" y2="518.7"/>
	
		<line fill="none" stroke-width="10" stroke-linecap="round" stroke-linejoin="round" stroke-miterlimit="10" x1="1876.3" y1="572.4" x2="1876.3" y2="601.2"/>
	
		<line fill="none" stroke-width="10" stroke-linecap="round" stroke-linejoin="round" stroke-miterlimit="10" x1="1872.6" y1="635.4" x2="1874" y2="624.9"/>
	<path fill="none" stroke-width="10" stroke-linecap="round" stroke-linejoin="round" stroke-miterlimit="10" d="
		M1879.1,611.9c-3.9,1.1-7.3,4.8-2.8,9.7c4.5,4.9,10.5,7.5,15.3,6.9c4.8-0.6,11.6-5.9,9.9-11C1899.7,612.5,1893.2,608,1879.1,611.9z
		"/>
	
		<line fill="none" stroke-width="10" stroke-linecap="round" stroke-linejoin="round" stroke-miterlimit="10" x1="1842.3" y1="609.1" x2="1871.4" y2="621.7"/>
	<path fill="none" stroke-width="10" stroke-linecap="round" stroke-linejoin="round" stroke-miterlimit="10" d="
		M1841.2,609.1c0,0,3.1-5.2,9.9-6.8c6.8-1.7,43.5,6.8,43.5,6.8"/>
	
		<line fill="none" stroke-width="10" stroke-linecap="round" stroke-linejoin="round" stroke-miterlimit="10" x1="1856.9" y1="686.1" x2="1841.2" y2="733.5"/>
	<path fill="none" stroke-width="10" stroke-linecap="round" stroke-linejoin="round" stroke-miterlimit="10" d="
		M1834.4,733.5l-20.9,24.7c0,0,8.2,13,13.8,14.1c5.6,1.1,11.9-1.1,11.9-1.1l9.8-30.5l-13.5-7.2"/>
	
		<line fill="none" stroke-width="10" stroke-linecap="round" stroke-linejoin="round" stroke-miterlimit="10" x1="2030.1" y1="679.7" x2="2050.8" y2="733.5"/>
	<path fill="none" stroke-width="10" stroke-linecap="round" stroke-linejoin="round" stroke-miterlimit="10" d="
		M2044.6,739.9l12.7-6.4l19.2,23.6c0,0,0.3,9-4.8,11.3c-5.1,2.3-15.5,2.5-15.5,2.5L2044.6,739.9z"/>
	
		<line fill="none" stroke-width="10" stroke-linecap="round" stroke-linejoin="round" stroke-miterlimit="10" x1="2028.5" y1="613.9" x2="2030.1" y2="599.2"/>
	
		<line fill="none" stroke-width="10" stroke-linecap="round" stroke-linejoin="round" stroke-miterlimit="10" x1="2030.1" y1="569.6" x2="2030.1" y2="575.2"/>
	<path fill="none" stroke-width="10" stroke-linecap="round" stroke-linejoin="round" stroke-miterlimit="10" d="
		M2011,580.3c9.2-7.2,16.7,2.8,15,6.5c-1.7,3.7-1.4,12.1-6.2,12.4C2015,599.5,1998,590.5,2011,580.3z"/>
	<path fill="none" stroke-width="10" stroke-linecap="round" stroke-linejoin="round" stroke-miterlimit="10" d="
		M2021.7,599.2l27.7-12.4c0,0-2.3-10.7-4-11.6c-1.7-0.8-20.6,2.5-20.6,2.5"/>
	
		<path fill="none" stroke-width="12.9409" stroke-linecap="round" stroke-linejoin="round" stroke-miterlimit="10" d="
		M1148.8,2061.5c0,0,40.7-33.9,72.9-42.9c32.2-9,84.2-22,99.4-22c15.3,0,22.6,2.8,22.6,2.8"/>
	
		<path fill="none" stroke-width="12.9409" stroke-linecap="round" stroke-linejoin="round" stroke-miterlimit="10" d="
		M1169.7,2108.9c0,0,32.2-24.3,60.5-33.9c28.3-9.6,67.8-24.9,88.7-25.4c20.9-0.6,35.2,0,35.2,0"/>
	
		<path fill="none" stroke-width="12.9409" stroke-linecap="round" stroke-linejoin="round" stroke-miterlimit="10" d="
		M1340.9,2003.3c0,0-20.3,3.4-17.5,19.2c2.8,15.8,23.2,20.3,23.2,20.3"/>
	
		<path fill="none" stroke-width="12.9409" stroke-linecap="round" stroke-linejoin="round" stroke-miterlimit="10" d="
		M1195.1,2143.9c0,0-11.9-9.6,7.9-19.8s57.1-31.1,83.1-36.2s43.5-8.2,52.5-8.9c9-0.7,10.7,13.4,10.7,13.4"/>
	
		<path fill="none" stroke-width="12.9409" stroke-linecap="round" stroke-linejoin="round" stroke-miterlimit="10" d="
		M2381.6,2028.1c0,0,13.4-9,48.8-4c35.4,5.1,80.1,10.2,94.7,16.4c14.7,6.2,27.6,11.8,27.6,11.8"/>
	<path fill="none" stroke-width="10" stroke-linecap="round" stroke-linejoin="round" stroke-miterlimit="10" d="
		M1971.7,2146.8c0,0,7.6-69.2,6.4-90.5c0,0,3.8-142.1,6.4-165c2.5-22.9,2.5-109.4,3.8-133.5c1.3-24.1-2.5-163.9,0-211
		c2.5-47,3.1-232.8,0.3-253c-2.8-20.3-8.3-172.8-7.5-210.9c0.8-38.1-18.2-289.3-15.7-311.8c2.5-22.5,17.3-74.6,17.3-74.6l-0.8-5.2"
		/>
	<path fill="none" stroke-width="18" stroke-linecap="round" stroke-linejoin="round" stroke-miterlimit="10" d="
		M1403.1,1351.2c0,0,13-12.1,31.6-57.5c18.6-45.3,37.3-89.3,37.3-136.8s1.7-127.2,0-132.3"/>
	<path fill="none" stroke-width="18" stroke-linecap="round" stroke-linejoin="round" stroke-miterlimit="10" d="
		M2304.8,1288c0,0,22.6-42.9,23.7-70.1c1.1-27.1,4.7-81.2,4.7-81.2"/>
</g>
</svg>
