<?xml version="1.0" encoding="utf-8"?>
<!-- Generator: Adobe Illustrator 19.2.0, SVG Export Plug-In . SVG Version: 6.00 Build 0)  -->
<svg version="1.1" id="category-item_svg_flac-ackets" xmlns:x="&ns_extend;" xmlns:i="&ns_ai;" xmlns:graph="&ns_graphs;"
	 xmlns="http://www.w3.org/2000/svg" xmlns:xlink="http://www.w3.org/1999/xlink" x="0px" y="0px" viewBox="0 0 3976 2646"
	 enable-background="new 0 0 3976 2646" xml:space="preserve">
<metadata>
	<sfw  xmlns="&ns_sfw;">
		<slices></slices>
		<sliceSourceBounds  bottomLeftOrigin="true" height="2201.6" width="1623.8" x="13.3" y="-1554.2"></sliceSourceBounds>
	</sfw>
</metadata>
<g>
	<path fill="none" stroke-width="35" stroke-linecap="round" stroke-linejoin="round" stroke-miterlimit="10" d="
		M1837.4,2285.2c0,0-136.5,25.5-198,21c-61.5-4.5-162-19.5-256.5-27c-94.5-7.5-232.5-87-286.5-118.5c-54-31.5-34.5-51-33-90
		c1.5-39,27-268.5,39-324c12-55.5,27-289.5,19.5-322.5c-7.5-33-24-208.5-27-270s25.5-184.5,43.5-267c18-82.5,1.5-187.5,0-232.5
		c-1.5-45,34.5-181.5,43.5-228c9-46.5,90-91.5,90-91.5c30.9-13.6,92.9,12.4,128.9,42.4s162,146,202,190s84,90,106,88"/>
	<path fill="none" stroke-width="35" stroke-linecap="round" stroke-linejoin="round" stroke-miterlimit="10" d="
		M1123.5,1439.3c0,0,71.9,67.4,154.4,92.9c82.5,25.5,241.5,81,349.5,73.5c108-7.5,229.5-24,229.5-24"/>
	<path fill="none" stroke-width="35" stroke-linecap="round" stroke-linejoin="round" stroke-miterlimit="10" d="
		M1386.2,1565.8c0,0,53.4-54.1,104-134.1c50.6-80,114.6-248,130.6-324s6-224,22-280s56-160,56-160"/>
	<path fill="none" stroke-width="35" stroke-linecap="round" stroke-linejoin="round" stroke-miterlimit="10" d="
		M1814.9,650.3c0,0,268.5-22.5,330-31.5c61.5-9,271.5-51,271.5-51"/>
	<path fill="none" stroke-width="35" stroke-linecap="round" stroke-linejoin="round" stroke-miterlimit="10" d="
		M1856.9,1550.7c0,0,14.9,143,12.9,203s-1.3,153.6-6.4,258.5c-5,105-15.5,307.5-15.5,307.5s168-52.5,229.5-73.5
		c61.5-21,274.5-78,325.5-100.5c51-22.5,163.5-78,163.5-78s40.4-35,52.4-66s15-129,16-163s9.5-298.9,9.5-343.9c0-45-18-126-18-126
		s-1.5,4.5-57,19.5c-55.5,15-247.5,64.5-285,72c-37.5,7.5-118.5,31.5-174,45c-55.5,13.5-172.5,30-195,36
		C1892.9,1547.2,1856.9,1550.7,1856.9,1550.7z"/>
	<path fill="none" stroke-width="35" stroke-linecap="round" stroke-linejoin="round" stroke-miterlimit="10" d="
		M2613.7,1374.8c0,0,24.2-67.1,30.6-107.1s1.5-180,0-216s-43.5-100-57.5-140s-22-124-20-168s-2.6-64-0.3-104c2.3-40,6.3-72-23.7-110
		s-62-62-62-62s-48.9-96-64.4-124"/>
	<path fill="none" stroke-width="35" stroke-linecap="round" stroke-linejoin="round" stroke-miterlimit="10" d="
		M1967.9,636.9c0,0-25.5-96.1-15-123.1c10.5-27,36-103.5,54-132c18-28.5,96-133.5,108.7-144c27.7-3,48.7,30,63.7,48
		c15,18,79.5,145.5,106.5,178.5c27,33,87.4,99.5,99,103.5"/>
	<path fill="none" stroke-width="30" stroke-linecap="round" stroke-linejoin="round" stroke-miterlimit="10" d="
		M1732.8,425.7c0,0,64-56.2,97-94.1c33-37.9,97-105.9,133-135.9s88-28,108-12s62,53.9,62,53.9"/>
	<path fill="none" stroke-width="30" stroke-linecap="round" stroke-linejoin="round" stroke-miterlimit="10" d="
		M1358.4,350.4c0,0-7.6,33.3,8.4,75.3s88,88,118,92s68.5,0,68.5,0"/>
	<path fill="none" stroke-width="18" stroke-linecap="round" stroke-linejoin="round" stroke-miterlimit="10" d="
		M2115.6,155.7c-12.3,5.1,53.2,49,69.2,62s78,49,91,51s70-10,86-11s21-14,13-28s-143-79-160-83S2144.4,143.7,2115.6,155.7z"/>
	<path fill="none" stroke-width="18" stroke-linecap="round" stroke-linejoin="round" stroke-miterlimit="10" d="
		M2300.2,382.8c0,0-49.5-111.9-12.5-113.9s73.9-24.5,85.9-15.5c11.9,9,42.7,90.3,42.7,90.3"/>
	<path fill="none" stroke-width="18" stroke-linecap="round" stroke-linejoin="round" stroke-miterlimit="10" d="
		M2292.8,386.7c0,0,38,84,43,89s125.9-16.4,133-17c7.1-0.6-44.7-100.7-44.7-100.7S2313.8,371.7,2292.8,386.7z"/>
	<path fill="none" stroke-width="18" stroke-linecap="round" stroke-linejoin="round" stroke-miterlimit="10" d="
		M2356.8,476.4c0,0,31,10.2,65,44.2s60,60.5,63,116.2c3,55.8,21,143.8,27,187.8s25,138,29,138s56-27.1,56-27.1"/>
	<path fill="none" stroke-width="18" stroke-linecap="round" stroke-linejoin="round" stroke-miterlimit="10" d="
		M1298.8,315.7c0,0,42.7-15.5,50-16.7"/>
	<path fill="none" stroke-width="18" stroke-linecap="round" stroke-linejoin="round" stroke-miterlimit="10" d="
		M1448.1,259.7c-20.4,3.4-65.3,12.7-72,19.3c-6.7,6.7-25.3,22.7-16.7,32.7c8.7,10,72.7,24,84.7,32s62,32.7,81.3,30
		c19.3-2.7,87.3-32.2,100-42.1c12.7-9.9,16-22.7,4.7-32.6c-11.3-9.9-70.7-23.9-94.7-29.3C1511.5,264.3,1472.4,255.7,1448.1,259.7z"
		/>
	<path fill="none" stroke-width="18" stroke-linecap="round" stroke-linejoin="round" stroke-miterlimit="10" d="
		M1503.8,373.9c0,0,53,66.8,67,84.8s14,18,14,18"/>
	<path fill="none" stroke-width="18" stroke-linecap="round" stroke-linejoin="round" stroke-miterlimit="10" d="
		M1581.8,480.7c0,0,66,73,74,81s34-15,54-19s51-22.4,59-23.2c8-0.8-15-61.8-31-75.8s-39-26.5-39-26.5S1591.8,465.7,1581.8,480.7z"/>
	<path fill="none" stroke-width="18" stroke-linecap="round" stroke-linejoin="round" stroke-miterlimit="10" d="
		M1622.3,333.7c0,0,66.5,73.9,69,86.9"/>
	<path fill="none" stroke-width="18" stroke-linecap="round" stroke-linejoin="round" stroke-miterlimit="10" d="
		M1676.1,563.4c0,0,26.3,34.4,39.8,62.9c13.5,28.5,4.5,102-7.5,126c-12,24-7.5,61.5-9,100.5c-1.5,39,0,241.5,0,241.5l130.4-12
		c0,0-25.4-150-25.4-192c0-42,2.2-267-2.3-281.2s-41.3-87-41.3-87"/>
	<path fill="none" stroke-width="18" stroke-linecap="round" stroke-linejoin="round" stroke-miterlimit="10" d="
		M1130.9,1553.2c0,0,129,72,183,87c54,15,193.5,40.5,258,45s232.5,13.5,285-19.5"/>
	<path fill="none" stroke-width="18" stroke-linecap="round" stroke-linejoin="round" stroke-miterlimit="10" d="
		M1123.5,1665.7c0,0,68.9,121.5,347.9,133.5s378.1,3,397.5-10.5"/>
	<path fill="none" stroke-width="18" stroke-linecap="round" stroke-linejoin="round" stroke-miterlimit="10" d="
		M1112.9,1772.2c0,0,103.5,60,172.5,81c69,21,201,52.5,276,52.5s266.9-5.9,305.9-14.9"/>
	<path fill="none" stroke-width="18" stroke-linecap="round" stroke-linejoin="round" stroke-miterlimit="10" d="
		M1083.4,1878.1c0,0,142,71.2,217,90.7c75,19.5,157.2,43.5,242.1,46.5c84.9,3,208.9,3,264.9,0c56-3,59.9-10.5,59.9-10.5"/>
	<path fill="none" stroke-width="18" stroke-linecap="round" stroke-linejoin="round" stroke-miterlimit="10" d="
		M1073.9,1959.4c0,0,85.5,61.8,147,87.3c61.5,25.5,155.9,51,269.2,58.5c113.3,7.5,200.3,15,261.8,6c61.5-9,105-18,105-18"/>
	<path fill="none" stroke-width="18" stroke-linecap="round" stroke-linejoin="round" stroke-miterlimit="10" d="
		M1064.3,2057.4c0,0,51.7,59.8,110.2,80.8c58.5,21,144,58.5,225,67.5c81,9,144,18,235.5,19.5c91.5,1.5,218.8-17.9,218.8-17.9"/>
	
		<line fill="none" stroke-width="18" stroke-linecap="round" stroke-linejoin="round" stroke-miterlimit="10" x1="2035.5" y1="172.4" x2="2121.6" y2="153.4"/>
	<path fill="none" stroke-width="18" stroke-linecap="round" stroke-linejoin="round" stroke-miterlimit="10" d="
		M1868.9,1656.7c0,0,245.9-51.1,256.4-50.3c10.5,0.8,336-79.4,346.5-83.6s170.5-61.6,168.8-73.8"/>
	<path fill="none" stroke-width="18" stroke-linecap="round" stroke-linejoin="round" stroke-miterlimit="10" d="
		M1867.3,1782.7c0,0,168.1-49.5,204.1-54c36-4.5,249-51,294-63c45-12,272.9-79.5,275.3-93"/>
	<path fill="none" stroke-width="18" stroke-linecap="round" stroke-linejoin="round" stroke-miterlimit="10" d="
		M1868.9,1860.7c0,0,148.4-21,200.9-30c52.5-9,253.5-57,319.5-78c66-21,193.5-75,193.5-75l57.8-30.9"/>
	<path fill="none" stroke-width="18" stroke-linecap="round" stroke-linejoin="round" stroke-miterlimit="10" d="
		M1864.3,1992.8c0,0,114.1-37.6,187.6-45.1c73.5-7.5,222-49.4,285-69.7c63-20.3,167.9-50.7,209.9-73.2c42-22.5,87.6-51.1,87.6-51.1"
		/>
	<path fill="none" stroke-width="18" stroke-linecap="round" stroke-linejoin="round" stroke-miterlimit="10" d="
		M1864.3,2057.4c0,0,102.5-4.3,168.5-20c66-15.7,178.4-33.3,221.2-44.5s176.8-59.2,218.8-73.2s162-81,162-81"/>
	<path fill="none" stroke-width="18" stroke-linecap="round" stroke-linejoin="round" stroke-miterlimit="10" d="
		M1856.9,2187.7c0,0,123.9-34,177.9-38c54-4,222-60,272-74s198.4-86,225.2-96c26.8-10,97.6-41.8,97.6-41.8"/>
	
		<line fill="none" stroke-width="12.9409" stroke-linecap="round" stroke-linejoin="round" stroke-miterlimit="10" x1="1199.7" y1="1589.9" x2="1190.1" y2="1726.3"/>
	
		<line fill="none" stroke-width="12.9409" stroke-linecap="round" stroke-linejoin="round" stroke-miterlimit="10" x1="1270.8" y1="1624" x2="1268.8" y2="1763.6"/>
	
		<line fill="none" stroke-width="12.9409" stroke-linecap="round" stroke-linejoin="round" stroke-miterlimit="10" x1="1386.2" y1="1665.7" x2="1386.2" y2="1791.5"/>
	
		<line fill="none" stroke-width="12.9409" stroke-linecap="round" stroke-linejoin="round" stroke-miterlimit="10" x1="1542.5" y1="1682.4" x2="1542.5" y2="1804.8"/>
	
		<line fill="none" stroke-width="12.9409" stroke-linecap="round" stroke-linejoin="round" stroke-miterlimit="10" x1="1715.9" y1="1693.8" x2="1715.9" y2="1804.7"/>
	
		<line fill="none" stroke-width="12.9409" stroke-linecap="round" stroke-linejoin="round" stroke-miterlimit="10" x1="1171.3" y1="1919.5" x2="1173" y2="1804.7"/>
	
		<line fill="none" stroke-width="12.9409" stroke-linecap="round" stroke-linejoin="round" stroke-miterlimit="10" x1="1270.8" y1="1959.4" x2="1270.8" y2="1844.2"/>
	
		<line fill="none" stroke-width="12.9409" stroke-linecap="round" stroke-linejoin="round" stroke-miterlimit="10" x1="1386.2" y1="1990.9" x2="1386.2" y2="1879.7"/>
	
		<line fill="none" stroke-width="12.9409" stroke-linecap="round" stroke-linejoin="round" stroke-miterlimit="10" x1="1542.5" y1="2015.2" x2="1542.5" y2="1905.7"/>
	
		<line fill="none" stroke-width="12.9409" stroke-linecap="round" stroke-linejoin="round" stroke-miterlimit="10" x1="1706.9" y1="2017.5" x2="1709.9" y2="1905.7"/>
	
		<line fill="none" stroke-width="12.9409" stroke-linecap="round" stroke-linejoin="round" stroke-miterlimit="10" x1="1709.9" y1="2225.3" x2="1709.9" y2="2115.3"/>
	
		<line fill="none" stroke-width="12.9409" stroke-linecap="round" stroke-linejoin="round" stroke-miterlimit="10" x1="1529.8" y1="2219.8" x2="1529.9" y2="2107.9"/>
	
		<line fill="none" stroke-width="12.9409" stroke-linecap="round" stroke-linejoin="round" stroke-miterlimit="10" x1="1373.8" y1="2202" x2="1376.7" y2="2091.1"/>
	
		<line fill="none" stroke-width="12.9409" stroke-linecap="round" stroke-linejoin="round" stroke-miterlimit="10" x1="1242.9" y1="2163.8" x2="1248.7" y2="2057.4"/>
	
		<line fill="none" stroke-width="12.9409" stroke-linecap="round" stroke-linejoin="round" stroke-miterlimit="10" x1="1145.7" y1="2124.8" x2="1159.7" y2="2015.2"/>
	
		<line fill="none" stroke-width="12.9409" stroke-linecap="round" stroke-linejoin="round" stroke-miterlimit="10" x1="2023" y1="1739.4" x2="2015.3" y2="1626.8"/>
	
		<line fill="none" stroke-width="12.9409" stroke-linecap="round" stroke-linejoin="round" stroke-miterlimit="10" x1="2023" y1="1951.8" x2="2023" y2="1838.2"/>
	
		<line fill="none" stroke-width="12.9409" stroke-linecap="round" stroke-linejoin="round" stroke-miterlimit="10" x1="2015.3" y1="2151.9" x2="2015.3" y2="2041.1"/>
	
		<line fill="none" stroke-width="12.9409" stroke-linecap="round" stroke-linejoin="round" stroke-miterlimit="10" x1="2148.7" y1="2123.3" x2="2152.4" y2="2015.2"/>
	
		<line fill="none" stroke-width="12.9409" stroke-linecap="round" stroke-linejoin="round" stroke-miterlimit="10" x1="2161.1" y1="1927" x2="2162.4" y2="1810.9"/>
	
		<line fill="none" stroke-width="12.9409" stroke-linecap="round" stroke-linejoin="round" stroke-miterlimit="10" x1="2161.1" y1="1711.5" x2="2152.4" y2="1601.2"/>
	
		<line fill="none" stroke-width="12.9409" stroke-linecap="round" stroke-linejoin="round" stroke-miterlimit="10" x1="2285.8" y1="2083" x2="2285.3" y2="1983.5"/>
	
		<line fill="none" stroke-width="12.9409" stroke-linecap="round" stroke-linejoin="round" stroke-miterlimit="10" x1="2281.1" y1="1895" x2="2279.2" y2="1782.7"/>
	
		<line fill="none" stroke-width="12.9409" stroke-linecap="round" stroke-linejoin="round" stroke-miterlimit="10" x1="2280.2" y1="1685.7" x2="2281.1" y2="1570.8"/>
	
		<line fill="none" stroke-width="12.9409" stroke-linecap="round" stroke-linejoin="round" stroke-miterlimit="10" x1="2398.4" y1="1646.9" x2="2395.3" y2="1542.7"/>
	
		<line fill="none" stroke-width="12.9409" stroke-linecap="round" stroke-linejoin="round" stroke-miterlimit="10" x1="2404.4" y1="1860.7" x2="2400" y2="1749.2"/>
	
		<line fill="none" stroke-width="12.9409" stroke-linecap="round" stroke-linejoin="round" stroke-miterlimit="10" x1="2404.4" y1="2033.3" x2="2404.4" y2="1947.8"/>
	
		<line fill="none" stroke-width="12.9409" stroke-linecap="round" stroke-linejoin="round" stroke-miterlimit="10" x1="2496.1" y1="1513.9" x2="2496.7" y2="1626.8"/>
	
		<line fill="none" stroke-width="12.9409" stroke-linecap="round" stroke-linejoin="round" stroke-miterlimit="10" x1="2510.7" y1="1707.4" x2="2511.3" y2="1820.6"/>
	
		<line fill="none" stroke-width="12.9409" stroke-linecap="round" stroke-linejoin="round" stroke-miterlimit="10" x1="2506.1" y1="1905.7" x2="2506.7" y2="1990.5"/>
	
		<line fill="none" stroke-width="12.9409" stroke-linecap="round" stroke-linejoin="round" stroke-miterlimit="10" x1="2585.7" y1="1478.8" x2="2586.1" y2="1597.4"/>
	
		<line fill="none" stroke-width="12.9409" stroke-linecap="round" stroke-linejoin="round" stroke-miterlimit="10" x1="2582.8" y1="1677.7" x2="2579.5" y2="1786.6"/>
	
		<line fill="none" stroke-width="12.9409" stroke-linecap="round" stroke-linejoin="round" stroke-miterlimit="10" x1="2579" y1="1868.9" x2="2575.7" y2="1961.6"/>
	<path fill="none" stroke-width="18" stroke-linecap="round" stroke-linejoin="round" stroke-miterlimit="10" d="
		M1804.9,729.7c0,0,293.9-42,327.9-48s350.4-61.1,350.5-60.1"/>
	<path fill="none" stroke-width="18" stroke-linecap="round" stroke-linejoin="round" stroke-miterlimit="10" d="
		M1804.9,859.2c0,0,183.9-33.6,247.9-39.6c64-6,290.1-44,344.1-58s99.9-29.4,99.9-29.4"/>
	<path fill="none" stroke-width="18" stroke-linecap="round" stroke-linejoin="round" stroke-miterlimit="10" d="
		M1810.3,953.7c0,0,214.1-34.1,305.3-48.1c91.2-14,289.2-38.9,323.2-46.4s73-34.6,73-34.6"/>
	<path fill="none" stroke-width="18" stroke-linecap="round" stroke-linejoin="round" stroke-miterlimit="10" d="
		M1829.8,1082.3c0,0,215-36.6,261-42.6c46-6,246-48,282-58s159.2-38,159.2-38"/>
	<path fill="none" stroke-width="18" stroke-linecap="round" stroke-linejoin="round" stroke-miterlimit="10" d="
		M1664.8,1199.7l11.3,134c0,0,218.7-32,326.7-50c108-18,270-70,340-84s243.3-62,243.3-62l-4.9-114c0,0-166.4,47.2-230.4,58.6
		s-280,61.4-346,71.4C1938.8,1163.7,1686.8,1199.7,1664.8,1199.7z"/>
	<path fill="none" stroke-width="18" stroke-linecap="round" stroke-linejoin="round" stroke-miterlimit="10" d="
		M1518.8,1449.1v104.2c0,0,307-23.2,345.5-30.4c38.5-7.2,286.6-52.1,316.6-59.6s150-45,187.5-54c37.5-9,256.1-66.1,256.1-66.1
		l22.7-115.4l-115.2,25.5c0,0-271.6,72.3-304.6,80.4c-33,8.1-298.5,59.1-331.5,65.1C1862.9,1404.8,1557.9,1450.3,1518.8,1449.1z"/>
	
		<line fill="none" stroke-width="12.9409" stroke-linecap="round" stroke-linejoin="round" stroke-miterlimit="10" x1="1682.8" y1="1540.3" x2="1676.1" y2="1431.3"/>
	
		<line fill="none" stroke-width="12.9409" stroke-linecap="round" stroke-linejoin="round" stroke-miterlimit="10" x1="1847.9" y1="1525.2" x2="1847.9" y2="1406.4"/>
	
		<line fill="none" stroke-width="12.9409" stroke-linecap="round" stroke-linejoin="round" stroke-miterlimit="10" x1="1990.7" y1="1499.6" x2="1986.9" y2="1381.4"/>
	
		<line fill="none" stroke-width="12.9409" stroke-linecap="round" stroke-linejoin="round" stroke-miterlimit="10" x1="2120.3" y1="1475.5" x2="2114.6" y2="1356.7"/>
	
		<line fill="none" stroke-width="12.9409" stroke-linecap="round" stroke-linejoin="round" stroke-miterlimit="10" x1="2246.1" y1="1439.3" x2="2239.6" y2="1330.6"/>
	
		<line fill="none" stroke-width="12.9409" stroke-linecap="round" stroke-linejoin="round" stroke-miterlimit="10" x1="2368.4" y1="1409.3" x2="2358.8" y2="1299.2"/>
	
		<line fill="none" stroke-width="12.9409" stroke-linecap="round" stroke-linejoin="round" stroke-miterlimit="10" x1="2463.6" y1="1385" x2="2457.3" y2="1273.1"/>
	
		<line fill="none" stroke-width="12.9409" stroke-linecap="round" stroke-linejoin="round" stroke-miterlimit="10" x1="2561" y1="1359.7" x2="2561" y2="1246.8"/>
	
		<line fill="none" stroke-width="12.9409" stroke-linecap="round" stroke-linejoin="round" stroke-miterlimit="10" x1="1820.5" y1="1312.2" x2="1820.5" y2="1180.1"/>
	
		<line fill="none" stroke-width="12.9409" stroke-linecap="round" stroke-linejoin="round" stroke-miterlimit="10" x1="1966.9" y1="1289.5" x2="1964.8" y2="1159.6"/>
	
		<line fill="none" stroke-width="12.9409" stroke-linecap="round" stroke-linejoin="round" stroke-miterlimit="10" x1="2114.6" y1="1259.3" x2="2107.5" y2="1133.7"/>
	
		<line fill="none" stroke-width="12.9409" stroke-linecap="round" stroke-linejoin="round" stroke-miterlimit="10" x1="2239.6" y1="1227.8" x2="2232.8" y2="1106.8"/>
	
		<line fill="none" stroke-width="12.9409" stroke-linecap="round" stroke-linejoin="round" stroke-miterlimit="10" x1="2363.6" y1="1195.2" x2="2368.4" y2="1082.3"/>
	
		<line fill="none" stroke-width="12.9409" stroke-linecap="round" stroke-linejoin="round" stroke-miterlimit="10" x1="2496.1" y1="1159.6" x2="2496.1" y2="1047.1"/>
	
		<line fill="none" stroke-width="12.9409" stroke-linecap="round" stroke-linejoin="round" stroke-miterlimit="10" x1="1946.6" y1="1062.6" x2="1937.4" y2="933.6"/>
	
		<line fill="none" stroke-width="12.9409" stroke-linecap="round" stroke-linejoin="round" stroke-miterlimit="10" x1="2072.7" y1="1042.3" x2="2060.6" y2="914.2"/>
	
		<line fill="none" stroke-width="12.9409" stroke-linecap="round" stroke-linejoin="round" stroke-miterlimit="10" x1="2215.7" y1="1016.3" x2="2210.5" y2="892.1"/>
	
		<line fill="none" stroke-width="12.9409" stroke-linecap="round" stroke-linejoin="round" stroke-miterlimit="10" x1="2338.8" y1="989.9" x2="2328.8" y2="875.9"/>
	
		<line fill="none" stroke-width="12.9409" stroke-linecap="round" stroke-linejoin="round" stroke-miterlimit="10" x1="2449.9" y1="962.7" x2="2446.3" y2="857.3"/>
	
		<line fill="none" stroke-width="12.9409" stroke-linecap="round" stroke-linejoin="round" stroke-miterlimit="10" x1="1927.6" y1="837.9" x2="1912.7" y2="714.2"/>
	
		<line fill="none" stroke-width="12.9409" stroke-linecap="round" stroke-linejoin="round" stroke-miterlimit="10" x1="2052.8" y1="819.7" x2="2047.1" y2="694.7"/>
	
		<line fill="none" stroke-width="12.9409" stroke-linecap="round" stroke-linejoin="round" stroke-miterlimit="10" x1="2167.6" y1="803.6" x2="2161.1" y2="676.7"/>
	
		<line fill="none" stroke-width="12.9409" stroke-linecap="round" stroke-linejoin="round" stroke-miterlimit="10" x1="2298.3" y1="781.5" x2="2282.7" y2="655.6"/>
	
		<line fill="none" stroke-width="12.9409" stroke-linecap="round" stroke-linejoin="round" stroke-miterlimit="10" x1="2416.4" y1="756.5" x2="2409.6" y2="633.7"/>
	
		<path fill="none" stroke-width="12.9409" stroke-linecap="round" stroke-linejoin="round" stroke-miterlimit="10" d="
		M1622.3,943.7c0,0-149.4,39.6-203.4,46.2c-54,6.6-168,33.8-168,33.8l-48-328.6c0,0,37.5-5.8,102-11.8c64.5-6,306.4-45.2,317.4-49.6
		c11.1-4.4,34.5-10,34.5-10"/>
	
		<polyline fill="none" stroke-width="12.9409" stroke-linecap="round" stroke-linejoin="round" stroke-miterlimit="10" points="
		1503.8,667.7 1553.3,943.7 1664.8,650.3 	"/>
	
		<line fill="none" stroke-width="12.9409" stroke-linecap="round" stroke-linejoin="round" stroke-miterlimit="10" x1="1518.8" y1="667.7" x2="1645.1" y2="819.7"/>
	
		<path fill="none" stroke-width="12.9409" stroke-linecap="round" stroke-linejoin="round" stroke-miterlimit="10" d="
		M1220.9,633.7c0,0,216-46.4,256.5-56.9c40.5-10.5,91.5-27,91.5-27"/>
	<path fill="none" stroke-width="35" stroke-linecap="round" stroke-linejoin="round" stroke-miterlimit="10" d="
		M1814.9,629.5c0,0,27.1-6.6,22.5-37.7c-4.6-31.1-97.6-156.8-97.6-156.8"/>
	
		<path fill="none" stroke-width="12.9409" stroke-linecap="round" stroke-linejoin="round" stroke-miterlimit="10" d="
		M1796.8,516.6c0,0,66-16.7,76-26.3c10-9.6,75.1-119,77.5-132.3c2.5-13.3,49.5-93.4,57.5-99.3c8-6,33.4-36,64-21"/>
	
		<line fill="none" stroke-width="12.9409" stroke-linecap="round" stroke-linejoin="round" stroke-miterlimit="10" x1="1876" y1="486.4" x2="1920.2" y2="503.7"/>
	
		<path fill="none" stroke-width="12.9409" stroke-linecap="round" stroke-linejoin="round" stroke-miterlimit="10" d="
		M1496.2,1005.8c0,0,85.5,122.4,88.1,127.9"/>
	
		<path fill="none" stroke-width="12.9409" stroke-linecap="round" stroke-linejoin="round" stroke-miterlimit="10" d="
		M1171.3,1023.7c0,0-19.5,113.2,0,235.6c19.5,122.4,49.6,248.8,49.6,248.8"/>
</g>
</svg>
