<?xml version="1.0" encoding="utf-8"?>
<!-- Generator: Adobe Illustrator 19.2.0, SVG Export Plug-In . SVG Version: 6.00 Build 0)  -->
<svg version="1.1" id="category-item_svg_glasses" xmlns:x="&ns_extend;" xmlns:i="&ns_ai;" xmlns:graph="&ns_graphs;"
	 xmlns="http://www.w3.org/2000/svg" xmlns:xlink="http://www.w3.org/1999/xlink" x="0px" y="0px" viewBox="0 0 3976 2646"
	 enable-background="new 0 0 3976 2646" xml:space="preserve">
<metadata>
	<sfw  xmlns="&ns_sfw;">
		<slices></slices>
		<sliceSourceBounds  bottomLeftOrigin="true" height="1372.7" width="3820.6" x="-921.4" y="-1175.6"></sliceSourceBounds>
	</sfw>
</metadata>
<g>
	<g>
		
			<path fill="none" stroke-width="26.7672" stroke-linecap="round" stroke-linejoin="round" stroke-miterlimit="10" d="
			M3315.1,1387c0,0-338-94-546-106s-364,4-434,20s-144,36-176,76c44,54,110,114,120,120s38,22,38,22l28,31h50c0,0,118-13,196-15
			s344,10,380,15s76,47,95,73c107,2,275,0,275,0s266-70,318-82s146-20,190,9c18,11,40.7,11,47.3,7c6.7-4,17.3-36.7,17.3-48
			s-34.6-36.9-72.1-42.9c-37.5-6-403.5-4.5-544.5,6c-141,10.5-352.5-3-393-4.5s-261,27-279,21c-18-6-52.1-20.9-176.1-19.6
			c-8.7-4.7-74-18.7-74-18.7l-63.3-28h90.7c0,0,122.7-53.3,180.7-62.3s129-16,192-13s241,21,372,70c124,12,148,15,148,15
			L3315.1,1387z"/>
		
			<path fill="none" stroke-width="11.8311" stroke-linecap="round" stroke-linejoin="round" stroke-miterlimit="10" d="
			M2377.8,1550c0,0,4.5-26.9,12-40.4c7.5-13.5,41.6-46.2,41.6-46.2"/>
		
			<path fill="none" stroke-width="11.8311" stroke-linecap="round" stroke-linejoin="round" stroke-miterlimit="10" d="
			M2317.1,1519c0,0,5.3-19.9,18-38.6c12.7-18.7,34-32.7,34-32.7"/>
		
			<path fill="none" stroke-width="11.8311" stroke-linecap="round" stroke-linejoin="round" stroke-miterlimit="10" d="
			M2335.1,1301c-14,22-23.3,121.3-23.3,121.3s-81.3-67.2-65.4-97.2"/>
		
			<path fill="none" stroke-width="11.8311" stroke-linecap="round" stroke-linejoin="round" stroke-miterlimit="10" d="
			M2461.3,1398.3v-36.6c0,0,111.6-86.2,179-84.8"/>
		
			<path fill="none" stroke-width="11.8311" stroke-linecap="round" stroke-linejoin="round" stroke-miterlimit="10" d="
			M3020.1,1317.2c0,0,151.1,74,154.1,102.5"/>
		
			<polyline fill="none" stroke-width="11.8311" stroke-linecap="round" stroke-linejoin="round" stroke-miterlimit="10" points="
			3201.1,1623.9 3167.1,1550 3201.1,1475.9 		"/>
		
			<path fill="none" stroke-width="11.8311" stroke-linecap="round" stroke-linejoin="round" stroke-miterlimit="10" d="
			M3341.1,1623l-12-34c0,0,48-26.2,66-39.1s28-68.2,0-66.5c-28,1.7-114,23.4-114,23.4l-18-30.9"/>
		
			<path fill="none" stroke-width="11.8311" stroke-linecap="round" stroke-linejoin="round" stroke-miterlimit="10" d="
			M3412.6,1604.3l12.6-45.3c0,0,88-48.6,114-52.3s315.7-30.9,362.8,42.7"/>
		
			<path fill="none" stroke-width="11.8311" stroke-linecap="round" stroke-linejoin="round" stroke-miterlimit="10" d="
			M2216.4,1439.8c0,0-13.3,95.3,38.7,217.3s98,186.7,112,202.7s20.4,26.2,31.8,19.6c11.3-6.7-3.6-51.6-4.3-54.2"/>
		
			<path fill="none" stroke-width="11.8311" stroke-linecap="round" stroke-linejoin="round" stroke-miterlimit="10" d="
			M2553.1,1865c0,0,48.7,44.7,64,56.7s28,22.7,34,26.7s18.7,6,42,2.7s221.6-52.9,274.1-61.9c52.5-9,154.5-16.5,180-18
			c25.5-1.5,32.8-7.5,53.9-46.5c21.1-39,35-55.6,40.5-65.1s15.5-15.5-3.5-50.5s-25.5-45.5-30.5-52.5s-10.5-8.5-57.5-8.5
			c-64.5,0-84-25-84-25"/>
		
			<path fill="none" stroke-width="11.8311" stroke-linecap="round" stroke-linejoin="round" stroke-miterlimit="10" d="
			M2414.2,1693c0,0,28.9,56.7,45.6,80c16.7,23.3,58,79.3,58,79.3s11.3,16,20.7,14.7c9.3-1.3,24.7-6.7,23.3-20.7
			c-1.3-14-64-90.7-64-90.7s-48.7-73.3-53.3-84c-4.7-10.7-28.7-35.3-46-35.3s-40.7,18-41.3,26.7s-5.3,78.7-4,97.3s8,56,18.7,64.7
			c10.7,8.7,16,1.3,18-1.3s0-9.5-3.4-27.9c-3.4-18.4-7.3-52.8-8.6-67.4s-2-37.3,10-42.7S2409.2,1683.4,2414.2,1693z"/>
		
			<path fill="none" stroke-width="11.8311" stroke-linecap="round" stroke-linejoin="round" stroke-miterlimit="10" d="
			M2390.2,1816c0,0,17.2,19,27.2,9.5s45.7-47.9,45.7-47.9"/>
	</g>
	<g>
		<path fill="none" stroke-width="27" stroke-linecap="round" stroke-linejoin="round" stroke-miterlimit="10" d="
			M222,784.1c0,0-16,50-18,80s0,390,0,436c0,46,6,147,42,204s142,187,212,205s82.1,12.9,107.6,0c25.5-12.9,115.5-188.4,129-206.4
			c13.5-18,45-58.5,93-58.5c48,0,117,61.5,139.5,111c22.5,49.5,66,148.5,87,187.5c21,39,66,118.5,142.5,124.5s191.4,21.9,294.4,15.9
			s238-37,285-50s211-64,243-81s63-34,79-44c16-10,54-28,54-160s0-268,0-317s28-107-176-163c-204-56-584-130-658-136s-88-6-218-22
			s-134,26-240,6s-222-86-280-102s-186-52-240-52C246,762.1,222,784.1,222,784.1z"/>
		<path fill="none" stroke-width="27" stroke-linecap="round" stroke-linejoin="round" stroke-miterlimit="10" d="
			M2265.2,1694.4c-32.4,9-63.4,16-96.4,25c-27,7-53,10-81,14c-26,3-51,4-77.3,1.8"/>
		<path fill="none" stroke-width="27" stroke-linecap="round" stroke-linejoin="round" stroke-miterlimit="10" d="
			M261.1,762.1c22.6-11.7,48.6-17.7,74.6-19.7c2,0,4-2,6-2c64-6,125,3,189,11c11,1,22,2,33,3c14,2,28,5,42,7c29,6,55,11,84,18
			c34,9,66,15,100,23c65,15,125,28,188,39c160,14,316,38,477,59c78,9,153,18,230,25c67,12,131,23,200,39c31,7,60,14,89,24
			c45,22,87,47,132,70c12,5,23,11,34,17c4,3,9,6,14,9c1,1,2,2,3,3c22,13,43,24,65,38c26,16,50,31,76,46c4,47,1,93,1.9,140.3"/>
		<path fill="none" stroke-width="27" stroke-linecap="round" stroke-linejoin="round" stroke-miterlimit="10" d="
			M2260.5,1231.1c-1.8,30.3-3.8,59.3-4.9,89.1"/>
		<path fill="none" stroke-width="27" stroke-linecap="round" stroke-linejoin="round" stroke-miterlimit="10" d="
			M203.1,1331.7c0,0-51.5-39-83-79.5c0-85.5,0-456,0-456s211.5-84,232.5-88.5c21-4.5,10.5,31.5,10.5,31.5"/>
		<path fill="none" stroke-width="27" stroke-linecap="round" stroke-linejoin="round" stroke-miterlimit="10" d="
			M1837.8,1042.9c0-51.8,63.1-74.6,63.1-74.6"/>
		<path fill="none" stroke-width="27" stroke-linecap="round" stroke-linejoin="round" stroke-miterlimit="10" d="
			M543.3,752.9c0,0,4.7-106.8,30.7-106.8s136,44.8,166,53.4s418.2,88.6,418.2,88.6s177.8,20,245.8,24s364,28,364,28s166,6,206,72
			s69.7,112.6,69.7,112.6"/>
		<path fill="none" stroke-width="27" stroke-linecap="round" stroke-linejoin="round" stroke-miterlimit="10" d="
			M559.5,659.7c0,0-5.6-67.7,52.4-59.7s146,60,184,68s210,44,296,56s262,32,334,38s238,14,308,28s196,32,236,60
			c40,28,89.2,145.6,107.6,192.8"/>
		<path fill="none" stroke-width="27" stroke-linecap="round" stroke-linejoin="round" stroke-miterlimit="10" d="
			M2424.1,1028.1c27.3,3.6,54.5,7.7,61.9,14.8c16,15.2,50,45.2,40,61.2s-66,72-88,72s-138.5,28-138.5,28"/>
		<path fill="none" stroke-width="27" stroke-linecap="round" stroke-linejoin="round" stroke-miterlimit="10" d="
			M2361,1011.7c-0.8,0.8-1.2,1.6-1.1,2.4"/>
		<path fill="none" stroke-width="27" stroke-linecap="round" stroke-linejoin="round" stroke-miterlimit="10" d="
			M2022.8,921.9c0,0,279.2,6.2,345.2,18.2s160,10.4,132,28.2c-13.2,8.4-45.5,16.4-75.8,23.7"/>
		<path fill="none" stroke-width="27" stroke-linecap="round" stroke-linejoin="round" stroke-miterlimit="10" d="
			M2542.1,1260c-4.4-56.6-9.4-112.6-14.3-169.9"/>
		<path fill="none" stroke-width="27" stroke-linecap="round" stroke-linejoin="round" stroke-miterlimit="10" d="
			M2560.2,1469.7c-2.8-30.4-5.5-60.8-8.1-91.2"/>
		
			<polyline fill="none" stroke-width="27" stroke-linecap="round" stroke-linejoin="round" stroke-miterlimit="10" points="
			2360,1014.1 2370.6,1186.6 2419.6,1178.2 2424.2,1024.7 		"/>
		
			<polyline fill="none" stroke-width="27" stroke-linecap="round" stroke-linejoin="round" stroke-miterlimit="10" points="
			2360,1014.1 2387.9,943.2 2424.2,947.4 2424.2,1024.7 		"/>
		
			<line fill="none" stroke-width="27" stroke-linecap="round" stroke-linejoin="round" stroke-miterlimit="10" x1="2505.1" y1="1061.3" x2="2505.1" y2="962.5"/>
		
			<path fill="none" stroke-width="11.8311" stroke-linecap="round" stroke-linejoin="round" stroke-miterlimit="10" d="
			M2120,1186.6l62,17.5c0,0,6,152,0,216s-14,236-14,236h-69.5"/>
		
			<polyline fill="none" stroke-width="11.8311" stroke-linecap="round" stroke-linejoin="round" stroke-miterlimit="10" points="
			203.1,853.2 174.1,853.2 166.6,1249.2 203.1,1276.2 		"/>
		
			<path fill="none" stroke-width="11.8311" stroke-linecap="round" stroke-linejoin="round" stroke-miterlimit="10" d="
			M242.9,866.7c0,0,0,288,0,343.5s-8.8,139.5,27.2,210c36,70.5,94.5,150,133.5,168c39,18,90,57,117,39c27-18,73.5-100.5,85.5-127.5
			c12-27,66-144,186-144c120,0,159.9,86.4,182.9,114.4s114,207,129,230s28,65,88,77s187,17,187,17s241.1-21.4,320.6-37.9
			c79.5-16.5,228-57,255-87c27-30,42-114,43.5-153s0-226.5,0-267s-34.5-82.5-105-100.5c-70.5-18-555-118.9-681-123.9
			c-126-5-337.5-11-387-12.5c-49.5-1.5-234-84-274.5-99c-40.5-15-186-55.5-232.5-60C271.6,848.7,242.9,853.2,242.9,866.7z"/>
	</g>
</g>
</svg>
