<?xml version="1.0" encoding="utf-8"?>
<!-- Generator: Adobe Illustrator 19.2.0, SVG Export Plug-In . SVG Version: 6.00 Build 0)  -->
<svg version="1.1" id="category-item_svg_gloves" xmlns:x="&ns_extend;" xmlns:i="&ns_ai;" xmlns:graph="&ns_graphs;"
	 xmlns="http://www.w3.org/2000/svg" xmlns:xlink="http://www.w3.org/1999/xlink" x="0px" y="0px" viewBox="0 0 3976 2646"
	 enable-background="new 0 0 3976 2646" xml:space="preserve">
<metadata>
	<sfw  xmlns="&ns_sfw;">
		<slices></slices>
		<sliceSourceBounds  bottomLeftOrigin="true" height="1992.9" width="2449.6" x="-339.3" y="-1406.3"></sliceSourceBounds>
	</sfw>
</metadata>
<g>
	<g>
		<path fill="none" stroke-width="26" stroke-linecap="round" stroke-linejoin="round" stroke-miterlimit="10" d="
			M705,1845.2c0,0-10-68,5-79c-10-17-2-54,0-63s79.7-320.2,82.7-344.2"/>
		<path fill="none" stroke-width="26" stroke-linecap="round" stroke-linejoin="round" stroke-miterlimit="10" d="
			M788,1211.2c10.2-28.9,48-132,80-133s149,26,185,45s190,88,217,144s35,106,12,157s-62,87-98,95s-96,11-155-11s-184-70-205-95
			s-44.5-71-44.2-121C780,1242.2,777.8,1240.1,788,1211.2z"/>
		<path fill="none" stroke-width="26" stroke-linecap="round" stroke-linejoin="round" stroke-miterlimit="10" d="
			M861,1078.1c0,0,10-83,26-123s93.2-164,150.6-192S1252,632.1,1252,632.1"/>
		<path fill="none" stroke-width="26" stroke-linecap="round" stroke-linejoin="round" stroke-miterlimit="10" d="
			M1089,785.2c0,0-78,55-98,82.5c-20,27.5-76,121.5-76,121.5s-20,47.2,0,49.6s52-51.6,58-65.6c0,0,38-70,48-87s89-126,100-135
			s93-79,107-94s58-60,73-76s43-40,59-39s54,13,52,30s-8,24-8,24"/>
		<path fill="none" stroke-width="26" stroke-linecap="round" stroke-linejoin="round" stroke-miterlimit="10" d="
			M1125,936.4c0,0-76,82.6-80.6,102.4s3.3,32.4,9.3,33.1s35.3-44.7,35.3-44.7s45.3-118,56.7-137.3c11.3-19.3,36.7-61.3,49.3-81.3
			c12.7-20,64-72.7,84.7-90.7s51.3-46.7,69.3-62.7s79-74,91-85s71-31.1,93-28c22,3,76,22,36,107s-17,49-17,49"/>
		<path fill="none" stroke-width="26" stroke-linecap="round" stroke-linejoin="round" stroke-miterlimit="10" d="
			M1565.5,555.6c0,0-8.5,49.4-27.5,76.5c-19,27.1-59,96.1-78,114.1s-109,127-128,153s-88,130-96,146s-40,60-42,87s34,29,43,15
			s34-79,42-95s50-83,61-92s20-41,34-57s78-79.7,87-96.3c9-16.7,51-46.7,57-59.7s60-80,87-89s61-13,80,12s32,34,18,65
			s-59,120-77,143s-26.3,41-42.6,76c-16.4,35-21.4,41-29.4,74c-8,33-21,89-33,104s-10,87-39,129s-51.8,110-59.4,123
			c-7.6,13-2.6,36,23.4,41s37-8,61-41s84-105,102-124s101.1-103.6,134.1-120s66-25.4,85.5-10.4s27,43.5,15,70.5
			c-12,27-30,54-43.5,88.5c-13.5,34.5-28.5,87-37.5,114s-36,54-63,96c-27,42-57,97.5-88.5,132c-31.5,34.5-85.5,85.5-111,102
			c-25.5,16.5-25.5,16.5-25.5,16.5s-18.1,41.4-57.6,44.9c-27.5,31-40,43-48,50s-28,19.5-47,24c-8,29-31.5,80.5-40,89.5s-33,12-41,16
			s-24.5,15.5-25,26.5s-20.5,31-39.5,28.5S974,1995.2,928,1974.2s-111.6-60-148.3-86c-36.7-26-72.7-35-72.7-35"/>
		<path fill="none" stroke-width="26" stroke-linecap="round" stroke-linejoin="round" stroke-miterlimit="10" d="
			M1517.1,1140.2c0,0-59,6.1-78.5,37.6c-19.5,31.5-57,115.5-61.5,148.5c-4.5,33-15,106.5,0,127.5c15,21,54,64.5,93,46.5
			c39-18,75-60,81-79.5c6-19.5,0-31.5,0-31.5l-39-12"/>
		<path fill="none" stroke-width="26" stroke-linecap="round" stroke-linejoin="round" stroke-miterlimit="10" d="
			M1551.1,1389.2c0,0,39,12,39,34.5c0,22.5-3,63-19.5,90c-16.5,27-33,64.5-55.5,88.5c-22.5,24-53.6,87-49.5,106.5s9,40.5,9,40.5"/>
		<path fill="none" stroke-width="26" stroke-linecap="round" stroke-linejoin="round" stroke-miterlimit="10" d="
			M1613.4,1255.6c0,0,37.6,21.6,62.6,41.6s62,51,71,77s13.3,34.6,13.3,34.6"/>
		<path fill="none" stroke-width="26" stroke-linecap="round" stroke-linejoin="round" stroke-miterlimit="10" d="
			M1778,1322.3c0,0-95-56.2-117-61.2s-39.7-13.7-39.7-13.7"/>
		<path fill="none" stroke-width="26" stroke-linecap="round" stroke-linejoin="round" stroke-miterlimit="10" d="
			M1667,1255.6c0,0,92.9-117.8,111-125.4"/>
		
			<line fill="none" stroke-width="26" stroke-linecap="round" stroke-linejoin="round" stroke-miterlimit="10" x1="1462.3" y1="743.9" x2="1482.7" y2="782.9"/>
		<path fill="none" stroke-width="26" stroke-linecap="round" stroke-linejoin="round" stroke-miterlimit="10" d="
			M1507.3,760.1c0,0,33,17.1,48.4,22.7c15.3,5.6,52,21,56,27s36,33.7,36,33.7"/>
		<path fill="none" stroke-width="26" stroke-linecap="round" stroke-linejoin="round" stroke-miterlimit="10" d="
			M1405.6,869.8c0,0,44.4,27.4,66.9,44.1s52.5,34,65.2,46s30.5,26.2,30.5,26.2"/>
		<path fill="none" stroke-width="26" stroke-linecap="round" stroke-linejoin="round" stroke-miterlimit="10" d="
			M1441,831.8c0,0,58,35.4,73.3,45.4s69.6,53.7,75.8,62.5"/>
	</g>
	<g>
		
			<path fill="none" stroke-width="38.4615" stroke-linecap="round" stroke-linejoin="round" stroke-miterlimit="10" d="
			M2886.1,355.6c-138,0-292,64-396,312s-116,536-40,734c76,198,126,352,274,422s272,38,304,12s70-176,48-310
			c49.1-264.4,52.1-759.4,29.6-853.9c0,0-21-94.5-36-130.5C3050.1,469.2,3001,355.6,2886.1,355.6z"/>
		
			<path fill="none" stroke-width="38.4615" stroke-linecap="round" stroke-linejoin="round" stroke-miterlimit="10" d="
			M2943.4,366.3c0,0-3.3-46.7-17.3-78.7s-44-59.7-120-70c-76-10.3-318,24-372,36c-54,12-274,78-290,92c-4,34-1.8,45.3-1.8,45.3"/>
		
			<path fill="none" stroke-width="38.4615" stroke-linecap="round" stroke-linejoin="round" stroke-miterlimit="10" d="
			M2171.2,649.2c0,0,46.5,61.5,67.5,108c21,46.5,49.5,181.5,49.5,238.5c0,57,6,171,0,228c-6,57-37.5,142.5-34.5,157.5
			c3,15,8.4,196.4,4.4,206.4"/>
		
			<line fill="none" stroke-width="38.4615" stroke-linecap="round" stroke-linejoin="round" stroke-miterlimit="10" x1="2273.1" y1="1690.5" x2="2293.4" y2="1765.1"/>
		
			<path fill="none" stroke-width="38.4615" stroke-linecap="round" stroke-linejoin="round" stroke-miterlimit="10" d="
			M2334.7,1835.6c0,0,21,75,40.5,88.5c19.5,13.5,99,76.5,120,102c21,25.5,99,94.5,142.5,118.5c43.5,24,139.5,25.5,195,25.5
			c55.5,0,150-67.5,172.5-120c22.5-52.5,37.8-154.7,16.6-210.1"/>
		<path fill="none" stroke-width="27" stroke-linecap="round" stroke-linejoin="round" stroke-miterlimit="10" d="
			M3049.4,483.1c0,0-84.4-87.5-145.4-87.5c-190.2,0-613.2,386.8-375.9,1066.6c99.6,285.3,292.3,360,393,360s144-99.7,144-99.7"/>
		
			<ellipse transform="matrix(0.9956 -9.352834e-002 9.352834e-002 0.9956 -43.6916 259.6176)" fill="none" stroke-width="18" stroke-linecap="round" stroke-linejoin="round" stroke-miterlimit="10" cx="2747.9" cy="595.9" rx="71.2" ry="75.2"/>
		
			<ellipse transform="matrix(0.9956 -9.352802e-002 9.352802e-002 0.9956 -43.7496 258.3765)" fill="none" stroke-width="12.9409" stroke-linecap="round" stroke-linejoin="round" stroke-miterlimit="10" cx="2734.6" cy="595.9" rx="51.2" ry="54.1"/>
		
			<ellipse transform="matrix(0.9956 -9.352806e-002 9.352806e-002 0.9956 -72.5134 248.4274)" fill="none" stroke-width="18" stroke-linecap="round" stroke-linejoin="round" stroke-miterlimit="10" cx="2614.1" cy="897.8" rx="71.2" ry="75.2"/>
		
			<ellipse transform="matrix(0.9956 -9.352819e-002 9.352819e-002 0.9956 -72.554 247.5617)" fill="none" stroke-width="12.9409" stroke-linecap="round" stroke-linejoin="round" stroke-miterlimit="10" cx="2604.8" cy="897.8" rx="51.2" ry="54.1"/>
		
			<ellipse transform="matrix(0.9956 -9.353526e-002 9.353526e-002 0.9956 -114.3085 251.5172)" fill="none" stroke-width="18" stroke-linecap="round" stroke-linejoin="round" stroke-miterlimit="10" cx="2626" cy="1345.2" rx="71.2" ry="75.2"/>
		
			<ellipse transform="matrix(0.9956 -9.353399e-002 9.353399e-002 0.9956 -113.9692 250.7236)" fill="none" stroke-width="12.9409" stroke-linecap="round" stroke-linejoin="round" stroke-miterlimit="10" cx="2617.7" cy="1341.2" rx="51.2" ry="54.1"/>
		<path fill="none" stroke-width="27" stroke-linecap="round" stroke-linejoin="round" stroke-miterlimit="10" d="
			M2042.2,343.2c0,0,97.5,54,135,70.5s124.5,37.5,124.5,82.5s-28.5,64.5-79.5,99.7s-133.5,132.7-141,146.2c-46.5,9-66,9-66,9
			s-18-309-21-339c-3-30,6-56.6,6-56.6L2042.2,343.2z"/>
		<path fill="none" stroke-width="27" stroke-linecap="round" stroke-linejoin="round" stroke-miterlimit="10" d="
			M1994.1,387.4c0,0,45-10.2,48,0c3,10.2,14,311.2,14,311.2s-31.7,11.3-43.4,10.1"/>
		
			<path fill="none" stroke-width="12.9409" stroke-linecap="round" stroke-linejoin="round" stroke-miterlimit="10" d="
			M2133.4,462.2c0,0-26.7-17.3-37.3-17.3s-24,54.7-24,86s6,93.3,16,97.3s59.6-48,59.6-48l33.1-26.7c0,0-10.4-20-9.6-39.3
			c0.9-19.3,4.9-30.7,4.9-30.7L2133.4,462.2z"/>
		
			<path fill="none" stroke-width="38.4615" stroke-linecap="round" stroke-linejoin="round" stroke-miterlimit="10" d="
			M2139,478.9c0,0-3.3,80,2.6,90.7"/>
		
			<path fill="none" stroke-width="12.9409" stroke-linecap="round" stroke-linejoin="round" stroke-miterlimit="10" d="
			M2176.1,483.6c0,0,10-22,23-26c0,0,35-8.5,49.5,8.5c10.9,12.8,12,29.5,10.5,46c-1.8,20.3-5.5,43.5-24.5,49s-31.2,11.5-53.8-7.5"/>
		<path fill="none" stroke-width="27" stroke-linecap="round" stroke-linejoin="round" stroke-miterlimit="10" d="
			M2046.7,751.2c0,0,56.4,22.5,100.9,30c44.6,7.5,105.3,16.7,105.3,16.7"/>
		<path fill="none" stroke-width="27" stroke-linecap="round" stroke-linejoin="round" stroke-miterlimit="10" d="
			M2069.4,1456.6c0,0-22.3-12-21.3,55s5,247,5,247s37,52,41,53"/>
		<path fill="none" stroke-width="27" stroke-linecap="round" stroke-linejoin="round" stroke-miterlimit="10" d="
			M2080.6,1493.6l12.4,279c0,0,7,108,14,115s64.1,22,64.1,22s177.1-87,230-109c52.9-22,71.9-97-9.1-136s-203-103-230.5-152
			c-44.5-9-63.5-9-63.5-9c-78-33,23-94,69-108.3c46-14.3,86.6-14.1,86.6-14.1"/>
		<path fill="none" stroke-width="27" stroke-linecap="round" stroke-linejoin="round" stroke-miterlimit="10" d="
			M2082.9,1543.5c0,0,50.2,3,53.2,16s35.1,311,35.1,311s-59-4.4-70.6-13.7"/>
		
			<path fill="none" stroke-width="12.9409" stroke-linecap="round" stroke-linejoin="round" stroke-miterlimit="10" d="
			M2188.7,1633.6c-10.2,7.9-14,51.3-10.7,76.6c3.3,25.3,10,85.3,19.3,94.7c9.3,9.3,34.7,8,49.3,0c14.7-8,70-36,70-36
			s-11.3-18.7-9.3-34c2-15.3,9.3-32.7,9.3-32.7S2200.7,1624.4,2188.7,1633.6z"/>
		
			<path fill="none" stroke-width="12.9409" stroke-linecap="round" stroke-linejoin="round" stroke-miterlimit="10" d="
			M2316.7,1702.2c0,0,20-19.3,40.7-19.3c20.7,0,57.3,32,57.3,56.7c0,24.7-18,51.3-40.7,51.3s-40,0.7-57.3-22"/>
	</g>
</g>
</svg>
