<?xml version="1.0" encoding="utf-8"?>
<!-- Generator: Adobe Illustrator 19.2.0, SVG Export Plug-In . SVG Version: 6.00 Build 0)  -->
<svg version="1.1" id="category-item_svg_grenades" xmlns:x="&ns_extend;" xmlns:i="&ns_ai;" xmlns:graph="&ns_graphs;"
	 xmlns="http://www.w3.org/2000/svg" xmlns:xlink="http://www.w3.org/1999/xlink" x="0px" y="0px" viewBox="0 0 3976 2646"
	 enable-background="new 0 0 3976 2646" xml:space="preserve">
<metadata>
	<sfw  xmlns="&ns_sfw;">
		<slices></slices>
		<sliceSourceBounds  bottomLeftOrigin="true" height="1771.8" width="1909.3" x="73.1" y="-1333.2"></sliceSourceBounds>
	</sfw>
</metadata>
<g>
	<g>
		
			<path fill="none" stroke-width="26.2116" stroke-linecap="round" stroke-linejoin="round" stroke-miterlimit="10" d="
			M1334.6,551.6h-95.9c0,0-124.5,81-124.5,186s0,1282.4,0,1282.4s-4.7,34.5,220.4,34.5"/>
		
			<path fill="none" stroke-width="26.2116" stroke-linecap="round" stroke-linejoin="round" stroke-miterlimit="10" d="
			M1543.4,2031.7c-29.8,14.3-62.8,15.3-95.8,18.3c-3,0-5,2-8,2c-13,2-26,1-39,2c-22,1-44-1-66,0.5"/>
		
			<path fill="none" stroke-width="26.2116" stroke-linecap="round" stroke-linejoin="round" stroke-miterlimit="10" d="
			M1334.6,551.6c31-0.7,62,1.3,93-0.7c2,0,4,1,6,2c12,9,22,17,33,26c25,21,44,44,62,72c9,14,15,28,20,43c7,22,7,44,6.4,67"/>
		<path fill="none" stroke-width="14" stroke-linecap="round" stroke-linejoin="round" stroke-miterlimit="10" d="
			M1478.3,542.6c0,4.1-3.4,7.5-7.5,7.5h-272.2c-4.1,0-7.5-3.4-7.5-7.5l0,0c0-4.1,3.4-7.5,7.5-7.5h272.2
			C1474.9,535.2,1478.3,538.5,1478.3,542.6L1478.3,542.6z"/>
		
			<rect x="1300.1" y="475.2" fill="none" stroke-width="24.9639" stroke-linecap="round" stroke-linejoin="round" stroke-miterlimit="10" width="69.2" height="60"/>
		
			<line fill="none" stroke-width="26.2116" stroke-linecap="round" stroke-linejoin="round" stroke-miterlimit="10" x1="1334.6" y1="465.2" x2="1334.6" y2="411"/>
		
			<line fill="none" stroke-width="24.9639" stroke-linecap="round" stroke-linejoin="round" stroke-miterlimit="10" x1="1334.6" y1="411" x2="1334.6" y2="356.9"/>
		
			<path fill="none" stroke-width="26.2116" stroke-linecap="round" stroke-linejoin="round" stroke-miterlimit="10" d="
			M1114.2,737.6c0,0,144.8,34.4,210.8,34.4v1096.3c-66,0-210.8-34.4-210.8-34.4"/>
	</g>
	<g>
		
			<path fill="none" stroke-width="26.2116" stroke-linecap="round" stroke-linejoin="round" stroke-miterlimit="10" d="
			M1462.7,812.9l-41.9,132.9c0,0,26.2,220.2,41.9,254.3c15.7,34.1,36.7,102.2,36.7,146.8c0,44.6,10.5,228,26.2,277.8
			c15.7,49.8,39.3,125.8,39.3,125.8s-18.3,71.4-18.3,103.9c0,32.4,0,210.7,0,210.7s87.8,14.4,121.9,21c34.1,6.6,224.1,17,284.4,17
			s184,1.9,217.5-11.8c33.4-13.8,49.2-35.4,66.8-35.4c17.7,0,114,21.6,114,21.6s51.3-351.7,51.3-391c0-39.3,31.4-330.2,47.2-373.4
			c15.7-43.2,66.8-387.7,66.8-443.5c0-55.8,0-197.3,0-197.3h-345.9c0,0-247.6,11.8-283,15.7c-35.4,3.9-208.3,33.1-259.4,53.9
			C1577,762.7,1462.7,812.9,1462.7,812.9z"/>
		
			<path fill="none" stroke-width="19.6587" stroke-linecap="round" stroke-linejoin="round" stroke-miterlimit="10" d="
			M1499.4,1346.8c0,0,301.6,112.7,469.3,112.7s473.2-112.7,473.2-112.7"/>
		
			<circle fill="none" stroke-width="19.6587" stroke-linecap="round" stroke-linejoin="round" stroke-miterlimit="10" cx="1966" cy="1097.8" r="275.2"/>
		
			<circle fill="none" stroke-width="19.6587" stroke-linecap="round" stroke-linejoin="round" stroke-miterlimit="10" cx="1966" cy="1097.8" r="182.6"/>
		
			<line fill="none" stroke-width="26.2116" stroke-linecap="round" stroke-linejoin="round" stroke-miterlimit="10" x1="1510.5" y1="1528.2" x2="1599.6" y2="1439.1"/>
		
			<line fill="none" stroke-width="26.2116" stroke-linecap="round" stroke-linejoin="round" stroke-miterlimit="10" x1="1534.8" y1="1653.9" x2="1728.3" y2="1460.4"/>
		
			<line fill="none" stroke-width="26.2116" stroke-linecap="round" stroke-linejoin="round" stroke-miterlimit="10" x1="1564.9" y1="1750.5" x2="1833.3" y2="1482.1"/>
		
			<line fill="none" stroke-width="26.2116" stroke-linecap="round" stroke-linejoin="round" stroke-miterlimit="10" x1="1546.6" y1="1886.8" x2="1926.6" y2="1506.7"/>
		
			<line fill="none" stroke-width="26.2116" stroke-linecap="round" stroke-linejoin="round" stroke-miterlimit="10" x1="1555.1" y1="2038.8" x2="2086.8" y2="1507"/>
		
			<line fill="none" stroke-width="26.2116" stroke-linecap="round" stroke-linejoin="round" stroke-miterlimit="10" x1="1668.5" y1="2086" x2="2312.3" y2="1442.1"/>
		
			<line fill="none" stroke-width="26.2116" stroke-linecap="round" stroke-linejoin="round" stroke-miterlimit="10" x1="1839.4" y1="2097.1" x2="2371.8" y2="1564.6"/>
		
			<line fill="none" stroke-width="26.2116" stroke-linecap="round" stroke-linejoin="round" stroke-miterlimit="10" x1="2011.1" y1="2103.1" x2="2327.7" y2="1786.5"/>
		
			<line fill="none" stroke-width="26.2116" stroke-linecap="round" stroke-linejoin="round" stroke-miterlimit="10" x1="2237.2" y1="2055.8" x2="2337.9" y2="1955.1"/>
		
			<circle fill="none" stroke-width="6.5529" stroke-linecap="round" stroke-linejoin="round" stroke-miterlimit="10" cx="1555.1" cy="1346.8" r="20.6"/>
		
			<circle fill="none" stroke-width="6.5529" stroke-linecap="round" stroke-linejoin="round" stroke-miterlimit="10" cx="1602.3" cy="1346.8" r="20.6"/>
		
			<circle fill="none" stroke-width="6.5529" stroke-linecap="round" stroke-linejoin="round" stroke-miterlimit="10" cx="1638.4" cy="1367.5" r="20.6"/>
		
			<circle fill="none" stroke-width="6.5529" stroke-linecap="round" stroke-linejoin="round" stroke-miterlimit="10" cx="1581.7" cy="1308.8" r="20.6"/>
		
			<circle fill="none" stroke-width="6.5529" stroke-linecap="round" stroke-linejoin="round" stroke-miterlimit="10" cx="1540.4" cy="1302.7" r="20.6"/>
		
			<circle fill="none" stroke-width="6.5529" stroke-linecap="round" stroke-linejoin="round" stroke-miterlimit="10" cx="1623" cy="1308.8" r="20.6"/>
		
			<circle fill="none" stroke-width="6.5529" stroke-linecap="round" stroke-linejoin="round" stroke-miterlimit="10" cx="1659.1" cy="1329.4" r="20.6"/>
		
			<circle fill="none" stroke-width="6.5529" stroke-linecap="round" stroke-linejoin="round" stroke-miterlimit="10" cx="1679.7" cy="1367.5" r="20.6"/>
		
			<circle fill="none" stroke-width="6.5529" stroke-linecap="round" stroke-linejoin="round" stroke-miterlimit="10" cx="1700.4" cy="1329.4" r="20.6"/>
		
			<circle fill="none" stroke-width="6.5529" stroke-linecap="round" stroke-linejoin="round" stroke-miterlimit="10" cx="1716" cy="1388.1" r="20.6"/>
		
			<circle fill="none" stroke-width="6.5529" stroke-linecap="round" stroke-linejoin="round" stroke-miterlimit="10" cx="1753.3" cy="1403.2" r="20.6"/>
		
			<circle fill="none" stroke-width="6.5529" stroke-linecap="round" stroke-linejoin="round" stroke-miterlimit="10" cx="1514.2" cy="1333.1" r="20.6"/>
		
			<circle fill="none" stroke-width="6.5529" stroke-linecap="round" stroke-linejoin="round" stroke-miterlimit="10" cx="2241.2" cy="1282.1" r="20.6"/>
		
			<circle fill="none" stroke-width="6.5529" stroke-linecap="round" stroke-linejoin="round" stroke-miterlimit="10" cx="2312.3" cy="1320.2" r="20.6"/>
		
			<circle fill="none" stroke-width="6.5529" stroke-linecap="round" stroke-linejoin="round" stroke-miterlimit="10" cx="2264.3" cy="1327.4" r="20.6"/>
		
			<circle fill="none" stroke-width="6.5529" stroke-linecap="round" stroke-linejoin="round" stroke-miterlimit="10" cx="2284.9" cy="1280.5" r="20.6"/>
		
			<circle fill="none" stroke-width="6.5529" stroke-linecap="round" stroke-linejoin="round" stroke-miterlimit="10" cx="2201" cy="1265.5" r="20.6"/>
		
			<circle fill="none" stroke-width="6.5529" stroke-linecap="round" stroke-linejoin="round" stroke-miterlimit="10" cx="2333" cy="1277.4" r="20.6"/>
		
			<circle fill="none" stroke-width="6.5529" stroke-linecap="round" stroke-linejoin="round" stroke-miterlimit="10" cx="2373.8" cy="1293.7" r="20.6"/>
		
			<circle fill="none" stroke-width="6.5529" stroke-linecap="round" stroke-linejoin="round" stroke-miterlimit="10" cx="2386.8" cy="1335" r="20.6"/>
		
			<circle fill="none" stroke-width="6.5529" stroke-linecap="round" stroke-linejoin="round" stroke-miterlimit="10" cx="2415.1" cy="1282.1" r="20.6"/>
		
			<circle fill="none" stroke-width="6.5529" stroke-linecap="round" stroke-linejoin="round" stroke-miterlimit="10" cx="2345.5" cy="1352.4" r="20.6"/>
		
			<circle fill="none" stroke-width="6.5529" stroke-linecap="round" stroke-linejoin="round" stroke-miterlimit="10" cx="2429" cy="1321.8" r="20.6"/>
		
			<circle fill="none" stroke-width="6.5529" stroke-linecap="round" stroke-linejoin="round" stroke-miterlimit="10" cx="2174.8" cy="1306.8" r="20.6"/>
		
			<ellipse transform="matrix(0.8692 -0.4944 0.4944 0.8692 -423.1618 1224.8724)" fill="none" stroke-width="6.5529" stroke-linecap="round" stroke-linejoin="round" stroke-miterlimit="10" cx="2104" cy="1412.4" rx="20.6" ry="20.6"/>
		
			<ellipse transform="matrix(0.8692 -0.4944 0.4944 0.8692 -411.4597 1244.428)" fill="none" stroke-width="6.5529" stroke-linecap="round" stroke-linejoin="round" stroke-miterlimit="10" cx="2146.8" cy="1400.1" rx="20.6" ry="20.6"/>
		
			<ellipse transform="matrix(0.8693 -0.4944 0.4944 0.8693 -401.7791 1264.3533)" fill="none" stroke-width="6.5529" stroke-linecap="round" stroke-linejoin="round" stroke-miterlimit="10" cx="2189.4" cy="1391.8" rx="20.6" ry="20.6"/>
		
			<ellipse transform="matrix(0.8692 -0.4944 0.4944 0.8692 -399.0877 1220.7435)" fill="none" stroke-width="6.5529" stroke-linecap="round" stroke-linejoin="round" stroke-miterlimit="10" cx="2108.3" cy="1364.9" rx="20.6" ry="20.6"/>
		
			<ellipse transform="matrix(0.8692 -0.4944 0.4944 0.8692 -411.3986 1203.3596)" fill="none" stroke-width="6.5529" stroke-linecap="round" stroke-linejoin="round" stroke-miterlimit="10" cx="2069.2" cy="1379.4" rx="20.6" ry="20.6"/>
		
			<ellipse transform="matrix(0.8693 -0.4944 0.4944 0.8693 -387.2767 1236.564)" fill="none" stroke-width="6.5529" stroke-linecap="round" stroke-linejoin="round" stroke-miterlimit="10" cx="2144.2" cy="1350.5" rx="20.6" ry="20.6"/>
		
			<ellipse transform="matrix(0.8693 -0.4944 0.4944 0.8693 -379.5406 1256.5548)" fill="none" stroke-width="6.5529" stroke-linecap="round" stroke-linejoin="round" stroke-miterlimit="10" cx="2185.8" cy="1345.8" rx="20.6" ry="20.6"/>
		
			<ellipse transform="matrix(0.8692 -0.4944 0.4944 0.8692 -387.9463 1279.3253)" fill="none" stroke-width="6.5529" stroke-linecap="round" stroke-linejoin="round" stroke-miterlimit="10" cx="2224.5" cy="1373.1" rx="20.6" ry="20.6"/>
		
			<ellipse transform="matrix(0.8692 -0.4944 0.4944 0.8692 -364.7576 1271.6549)" fill="none" stroke-width="6.5529" stroke-linecap="round" stroke-linejoin="round" stroke-miterlimit="10" cx="2221.7" cy="1325.4" rx="20.6" ry="20.6"/>
		
			<ellipse transform="matrix(0.8693 -0.4944 0.4944 0.8693 -383.4542 1302.6248)" fill="none" stroke-width="6.5529" stroke-linecap="round" stroke-linejoin="round" stroke-miterlimit="10" cx="2271" cy="1376.3" rx="20.6" ry="20.6"/>
		
			<ellipse transform="matrix(0.8692 -0.4944 0.4944 0.8692 -372.7435 1317.3833)" fill="none" stroke-width="6.5529" stroke-linecap="round" stroke-linejoin="round" stroke-miterlimit="10" cx="2304.2" cy="1363.4" rx="20.6" ry="20.6"/>
		
			<ellipse transform="matrix(0.8693 -0.4944 0.4944 0.8693 -432.7918 1204.9227)" fill="none" stroke-width="6.5529" stroke-linecap="round" stroke-linejoin="round" stroke-miterlimit="10" cx="2061.6" cy="1420.7" rx="20.6" ry="20.6"/>
		
			<ellipse transform="matrix(0.8693 -0.4944 0.4944 0.8693 -436.096 1058.6005)" fill="none" stroke-width="6.5529" stroke-linecap="round" stroke-linejoin="round" stroke-miterlimit="10" cx="1783.3" cy="1353.8" rx="20.6" ry="20.6"/>
		
			<ellipse transform="matrix(0.8693 -0.4944 0.4944 0.8693 -419.2081 1047.8405)" fill="none" stroke-width="6.5529" stroke-linecap="round" stroke-linejoin="round" stroke-miterlimit="10" cx="1771.4" cy="1316.5" rx="20.6" ry="20.6"/>
		
			<ellipse transform="matrix(0.8693 -0.4944 0.4944 0.8693 -455.3661 1068.2811)" fill="none" stroke-width="6.5529" stroke-linecap="round" stroke-linejoin="round" stroke-miterlimit="10" cx="1792" cy="1395.1" rx="20.6" ry="20.6"/>
		
			<ellipse transform="matrix(0.8693 -0.4943 0.4943 0.8693 -436.9353 1085.2467)" fill="none" stroke-width="6.5529" stroke-linecap="round" stroke-linejoin="round" stroke-miterlimit="10" cx="1833.3" cy="1368.7" rx="20.6" ry="20.6"/>
		
			<ellipse transform="matrix(0.8692 -0.4944 0.4944 0.8692 -457.2031 1090.6996)" fill="none" stroke-width="6.5529" stroke-linecap="round" stroke-linejoin="round" stroke-miterlimit="10" cx="1833.3" cy="1409.7" rx="20.6" ry="20.6"/>
		
			<ellipse transform="matrix(0.8693 -0.4944 0.4944 0.8693 -459.921 1111.0348)" fill="none" stroke-width="6.5529" stroke-linecap="round" stroke-linejoin="round" stroke-miterlimit="10" cx="1870.6" cy="1425.1" rx="20.6" ry="20.6"/>
		
			<ellipse transform="matrix(0.8693 -0.4943 0.4943 0.8693 -459.2435 1129.5775)" fill="none" stroke-width="6.5529" stroke-linecap="round" stroke-linejoin="round" stroke-miterlimit="10" cx="1906" cy="1433" rx="20.6" ry="20.6"/>
		
			<ellipse transform="matrix(0.8693 -0.4943 0.4943 0.8693 -453.8427 1149.974)" fill="none" stroke-width="6.5529" stroke-linecap="round" stroke-linejoin="round" stroke-miterlimit="10" cx="1947.3" cy="1433" rx="20.6" ry="20.6"/>
		
			<ellipse transform="matrix(0.8693 -0.4944 0.4944 0.8693 -448.7061 1169.4425)" fill="none" stroke-width="6.5529" stroke-linecap="round" stroke-linejoin="round" stroke-miterlimit="10" cx="1986.6" cy="1433" rx="20.6" ry="20.6"/>
		
			<ellipse transform="matrix(0.8693 -0.4943 0.4943 0.8693 -444.2902 1186.087)" fill="none" stroke-width="6.5529" stroke-linecap="round" stroke-linejoin="round" stroke-miterlimit="10" cx="2020.4" cy="1433" rx="20.6" ry="20.6"/>
		
			<ellipse transform="matrix(0.8692 -0.4944 0.4944 0.8692 -421.5557 1184.2023)" fill="none" stroke-width="6.5529" stroke-linecap="round" stroke-linejoin="round" stroke-miterlimit="10" cx="2027.9" cy="1389" rx="20.6" ry="20.6"/>
		
			<ellipse transform="matrix(0.8692 -0.4944 0.4944 0.8692 -428.2964 1164.0945)" fill="none" stroke-width="6.5529" stroke-linecap="round" stroke-linejoin="round" stroke-miterlimit="10" cx="1986.6" cy="1391.8" rx="20.6" ry="20.6"/>
		
			<ellipse transform="matrix(0.8693 -0.4944 0.4944 0.8693 -433.434 1144.6255)" fill="none" stroke-width="6.5529" stroke-linecap="round" stroke-linejoin="round" stroke-miterlimit="10" cx="1947.3" cy="1391.8" rx="20.6" ry="20.6"/>
		
			<ellipse transform="matrix(0.8693 -0.4944 0.4944 0.8693 -438.0645 1127.1366)" fill="none" stroke-width="6.5529" stroke-linecap="round" stroke-linejoin="round" stroke-miterlimit="10" cx="1911.9" cy="1391.8" rx="20.6" ry="20.6"/>
		
			<ellipse transform="matrix(0.8692 -0.4944 0.4944 0.8692 -439.0123 1108.1404)" fill="none" stroke-width="6.5529" stroke-linecap="round" stroke-linejoin="round" stroke-miterlimit="10" cx="1875.4" cy="1384" rx="20.6" ry="20.6"/>
		
			<ellipse transform="matrix(0.8693 -0.4944 0.4944 0.8693 -417.1822 998.8224)" fill="none" stroke-width="6.5529" stroke-linecap="round" stroke-linejoin="round" stroke-miterlimit="10" cx="1679.7" cy="1288.1" rx="20.6" ry="20.6"/>
		
			<ellipse transform="matrix(0.8693 -0.4944 0.4944 0.8693 -414.0595 1025.9684)" fill="none" stroke-width="6.5529" stroke-linecap="round" stroke-linejoin="round" stroke-miterlimit="10" cx="1732.7" cy="1295.8" rx="20.6" ry="20.6"/>
		
			<ellipse transform="matrix(0.8693 -0.4944 0.4944 0.8693 -442.2057 1035.5231)" fill="none" stroke-width="6.5529" stroke-linecap="round" stroke-linejoin="round" stroke-miterlimit="10" cx="1736.6" cy="1353.8" rx="20.6" ry="20.6"/>
	</g>
	<g>
		
			<path fill="none" stroke-width="26.2116" stroke-linecap="round" stroke-linejoin="round" stroke-miterlimit="10" d="
			M2365.1,2042.9c52.5,25.1,110.5,38.1,168.5,41.1c4,1,8,1,12,2c19,1,37,2,56.4,1.4"/>
		
			<path fill="none" stroke-width="26.2116" stroke-linecap="round" stroke-linejoin="round" stroke-miterlimit="10" d="
			M2602.1,1187.4c-42.4-0.4-85.4-0.4-127.4,0"/>
		
			<path fill="none" stroke-width="26.2116" stroke-linecap="round" stroke-linejoin="round" stroke-miterlimit="10" d="
			M2602.1,1187.4H2851v18v830c0,0-65.8,52-248.9,52"/>
		
			<path fill="none" stroke-width="26.2116" stroke-linecap="round" stroke-linejoin="round" stroke-miterlimit="10" d="
			M2479.6,1155.7c78-0.8,155-0.8,233-2.8c13,0,26,0,40-2c27-5,52-8,80-13c1,0,2,1,2,1c24,99,46,191,71,290c4,18,8,34,13,51
			c7,27,10,54,24,79c5,9,17,11,28,11c10-1,21-5,25-16c3-9,1-19,1-28c-1-5-1-9-2-14c-2-59-15-114-28-174c0-1-2-3-2-4c-1-7-2-13-4-19
			c-25-82-48-161-72-242c0-9-1-18,1-27c2-13,5-25,2-37c-5-14-12-27-17-41c-6-15-13-29-20-43c-1-2,0-3-1-5c-11-23-20-47-37-68
			c-5-7-15-8-24-10c-45-7-89-8-133-8c-17-1-33,3-50,7c-32,8-62,14-91.7,22.8"/>
		
			<line fill="none" stroke-width="26.2116" stroke-linecap="round" stroke-linejoin="round" stroke-miterlimit="10" x1="2483.8" y1="1156.2" x2="2483.8" y2="1187.4"/>
		
			<line fill="none" stroke-width="26.2116" stroke-linecap="round" stroke-linejoin="round" stroke-miterlimit="10" x1="2719.3" y1="1156.2" x2="2719.3" y2="1187.4"/>
		
			<path fill="none" stroke-width="26.2116" stroke-linecap="round" stroke-linejoin="round" stroke-miterlimit="10" d="
			M2519.1,932.8c12.6,3.2,25.6,4.2,38.6,10.2c4,1,8-1,11-2c20-9,42-15,62.1-23.5c0.3,1.2-18.5,6.8,0,0c0.3,1.2,2.1,9.6-1.4,7
			c-2.5-1.9-1.2-6.1,1.4-7c2.2,8.9,4.7,17.9,8.5,26.3c5.4,13.2,14.4,29.2,31.4,26.2c9-2,13-9,19-15c1-1,0-2,1-3c8-10,10-22,13-34
			c3-7,11-5,17-6c3,0,5,0,8,0c8-1,16-2,24-2c14-1,28-3,42-5c3,3,3,7,5,10c9,26,19,52,28,78c1,48,5,97,7.1,145"/>
	</g>
</g>
</svg>
