<?xml version="1.0" encoding="utf-8"?>
<!-- Generator: Adobe Illustrator 19.2.0, SVG Export Plug-In . SVG Version: 6.00 Build 0)  -->
<svg version="1.1" id="category-item_svg_helmets" xmlns:x="&ns_extend;" xmlns:i="&ns_ai;" xmlns:graph="&ns_graphs;"
	 xmlns="http://www.w3.org/2000/svg" xmlns:xlink="http://www.w3.org/1999/xlink" x="0px" y="0px" viewBox="0 0 3976 2646"
	 enable-background="new 0 0 3976 2646" xml:space="preserve">
<metadata>
	<sfw  xmlns="&ns_sfw;">
		<slices></slices>
		<sliceSourceBounds  bottomLeftOrigin="true" height="1571.6" width="3134.2" x="-608.7" y="-1310"></sliceSourceBounds>
	</sfw>
</metadata>
<g>
	<g>
		
			<path fill="none" stroke-width="28.1474" stroke-linecap="round" stroke-linejoin="round" stroke-miterlimit="10" d="
			M471.3,1666.3c0,0,41.3-152,48.8-182c7.5-30,61.9-110.7,73.2-135.1c11.3-24.4,30-112.6,31.9-138.9
			c1.9-26.3,86.3-669.9,952.2-561.3c520.5,65.3,666.4,406.5,707.6,595.4"/>
		<path fill="none" stroke-width="23" stroke-linecap="round" stroke-linejoin="round" stroke-miterlimit="10" d="
			M607,1304.8c0,0,159.3-24.4,249,0c89.7,24.4,142.6,80.1,172.6,117.6"/>
		
			<path fill="none" stroke-width="28.1474" stroke-linecap="round" stroke-linejoin="round" stroke-miterlimit="10" d="
			M2143,1546.5c-105.4,1-245,1.3-292.6-1.6c-71.3-4.3-472.9-38.1-529.2-45.6c-56.3-7.5-253.2-2.7-320.8,19.8
			c-67.5,22.5-168.9,129.5-202.7,163.2c-33.8,33.8-66.1,71.8-102.7,76c-36.6,4.2-152-28.1-178.7-47.8
			c-26.7-19.7-56.3-61.6-60.5-44.2c-4.2,17.4-22.5,86.4-22.5,86.4s53.5,50.7,95.7,67.5c42.2,16.9,197,47.8,235,18.3
			c38-29.6,118.2-133.7,149.2-163.2c31-29.6,129.5-90.1,225.2-91.5c95.7-1.4,511.2,54.3,605.1,58.1c93.8,3.8,230.9,8.1,326.6,2.4
			c24.6-1.4,43-1.4,66.5-2"/>
		<path fill="none" stroke-width="23" stroke-linecap="round" stroke-linejoin="round" stroke-miterlimit="10" d="
			M764.1,1838.5c0,0,166.9-112.2,183.8-134.7c16.9-22.5,152.9-119.9,373.9-105.9"/>
		<path fill="none" stroke-width="23" stroke-linecap="round" stroke-linejoin="round" stroke-miterlimit="10" d="
			M1050.7,1640.3c0,0,407.6,86.1,460.1,93.6c52.5,7.5,270.2,46.9,307.7,60c37.5,13.1,138.9,33.8,183.9,24.4
			c45-9.4,99.5-60.8,114.5-100.7c15-40,22.9-75.4,22.9-75.4"/>
		<path fill="none" stroke-width="23" stroke-linecap="round" stroke-linejoin="round" stroke-miterlimit="10" d="
			M1503.7,1617.9c0,0,303.6,98,367.4,112.6c63.8,14.6,139,23.2,187.7,14.6l52.2-14.6"/>
		
			<circle fill="none" stroke-width="17.8263" stroke-linecap="round" stroke-linejoin="round" stroke-miterlimit="10" cx="1188.4" cy="1401.1" r="40.1"/>
	</g>
	<g>
		
			<path fill="none" stroke-width="21.9248" stroke-linecap="round" stroke-linejoin="round" stroke-miterlimit="10" d="
			M2123,652.6c17.5,3.3,98.9,46.9,98.9,46.9c20.8,7.7,141.4,76.7,141.4,76.7s138.1,77.8,166.6,95.4c28.5,17.5,137.7,61.3,194.7,83.2
			c57,21.9,306.3,116.3,341.3,119.6c35.1,3.3,123.5,47.1,172.4,77c49,30,85.5,14.6,95,11.7c9.5-2.9,14.6-38.7,13.9-63.6
			c7.3-15.3,13.6-71.2,20.1-116.1c6.6-44.9-23-85.5-50.4-104.1c-27.4-18.6-86.6-50.4-109.6-70.2c-23-19.7-234.6-184.2-277.3-213.8
			c-42.8-29.6-173.3-63-201-63s-46.8,8.8-52.6,17.5c-5.8,8.8-97.9,76-97.9,76s-29.2,20.5-83.3,48.2c-26.3-4.4-201.7-20.5-292.3-23.4
			c-90.6-2.9-147.6,11.7-147.6,11.7c-5.8,13.2,13.2,29.2,26.3,33.6c13.2,4.4,247,89.2,247,89.2s-1.5,30.7,11.7,35.1
			c13.2,4.4,33.6,11.7,33.6,11.7l2.4-37"/>
		
			<polyline fill="none" stroke-width="21.9248" stroke-linecap="round" stroke-linejoin="round" stroke-miterlimit="10" points="
			2377.6,839.7 2527.7,908.8 2544.2,886.9 		"/>
		
			<path fill="none" stroke-width="18.2706" stroke-linecap="round" stroke-linejoin="round" stroke-miterlimit="10" d="
			M2544.2,905.5c0,0,476.8,206.1,493.3,217c16.4,11,86.6,42.8,91,53.7c4.4,11-2.2,36.2-4.4,46c-2.2,9.9-55.9,222.5-58.1,229.1
			c-2.2,6.6-18.6,15.3-44.9,23c-26.3,7.7-156.8,21.9-217,20.8c-60.3-1.1-257.6-20.8-292.7-60.3c-35.1-39.5-34-70.9-39.5-101.2
			c-5.5-30.3-26.3-104.8-40.6-122.4c-14.3-17.5-32.9-41.7-53.7-35.1c-20.8,6.6-46,21.9-46,29.6"/>
		
			<path fill="none" stroke-width="21.9248" stroke-linecap="round" stroke-linejoin="round" stroke-miterlimit="10" d="
			M3296.1,1169.6c0,0,97.9,45.4,140.3,67.3c42.4,21.9,102.3,59.9,105.2,86.2c2.9,26.3-1.5,70.2-8.8,92.1s-24.8,45.3-33.6,39.5
			c-8.8-5.8,5.8-74.5,5.8-86.2c0-11.7-54.6-43-85.8-55.8C3388.2,1299.7,3204,1212,3204,1212s-78.1,229.5-74.1,233.9
			c4,4.4-0.4,26.3,9.8,35.1c10.2,8.8,223.6,81.9,238.2,92.1c14.6,10.2,38,11.7,48.2,0c0,0,67.3-140.6,67.3-156.7"/>
		
			<path fill="none" stroke-width="21.9248" stroke-linecap="round" stroke-linejoin="round" stroke-miterlimit="10" d="
			M2331.5,1213c0,0-16.4-10.4-51.5,37.8c-35.1,48.2-83.3,116.2-87.7,131.5c-4.4,15.3-39.5,80-42.8,130.4s-14.3,176.5-7.7,208.3
			c6.6,31.8,14.3,101.9,13.2,122.8c-1.1,20.8-11,53.7-9.9,68c1.1,14.3,19.7,64.7,39.5,86.6c19.7,21.9,91,63.6,120.6,69.1
			c29.6,5.5,74.5,16.4,100.8,14.3c26.3-2.2,61.4-18.6,86.6-38.4c25.2-19.7,179.3-113,238.1-134.9c58.8-21.9,186-41.7,258.3-52.6
			c72.4-11,256.5-35.1,271.9-43.9c15.3-8.8,128.4-109.5,142.6-129.2c14.3-19.7,97.6-158.9,100.8-168.8c3.3-9.9,6.6-31.8-5.5-31.8
			s-34,28.5-34,28.5"/>
		
			<path fill="none" stroke-width="21.9248" stroke-linecap="round" stroke-linejoin="round" stroke-miterlimit="10" d="
			M2926.4,1865.6c0,0,73-71.8,96.4-120.1c23.4-48.2,49.7-133,49.7-133"/>
		
			<path fill="none" stroke-width="21.9248" stroke-linecap="round" stroke-linejoin="round" stroke-miterlimit="10" d="
			M3176.7,1496.6c0,0,0,0-7.7,21.6c-24.1-6.6-96.5-1.1-122.8,3.3c-26.3,4.4-54.8,28.5-95.4,27.4c-40.6-1.1-174.3,7.7-220.1,5.5
			c-45.8-2.2-182.2-24.1-209.6-34c-27.4-9.9-65.8-35.1-81.1-68c-15.3-32.9-32.9-127.2-37.3-151.3c-4.4-24.1-14.3-62.5-38.4-87.1
			h-32.9c0,0,30.6,18.4,26.2,44.7c-4.4,26.3-7.3,127.2-5.8,172.5c1.5,45.3,16.1,125.7,38,159.3c21.9,33.6,54.1,83.3,112.5,87.7
			c58.5,4.4,161.8-2.9,208.8-7.3c47-4.4,203.5-46.8,215.1-52.6c11.7-5.8,55.5-29.2,65.7-30.7c10.2-1.5,39.5-14.6,62.9,14.6
			c0,0,25.6,8.8,46.8,0.7c21.2-8,56.3-40.2,57-43.8c0.7-3.7,22.3,0.8,48.6,5.2c26.3,4.4,147.2,16.3,170.6,8.7"/>
		
			<path fill="none" stroke-width="21.9248" stroke-linecap="round" stroke-linejoin="round" stroke-miterlimit="10" d="
			M2465.2,1485.8c0,0,2.2,56.5,37.2,78.4s134.5,49.7,163.7,48.2c29.2-1.5,260.2-31.2,260.2-31.2s21.9,21,11.7,31.2"/>
		
			<path fill="none" stroke-width="21.9248" stroke-linecap="round" stroke-linejoin="round" stroke-miterlimit="10" d="
			M2285.3,1243.7c0,0,52.2-402.5,71.1-417.9"/>
		
			<path fill="none" stroke-width="19.7323" stroke-linecap="round" stroke-linejoin="round" stroke-miterlimit="10" d="
			M2991.2,640.7c0,0-79.5,80.2-89.8,90.4c-10.2,10.2-58.5,52.6-81.1,62.9c-22.7,10.2-72.4,2.9-103,0
			c-30.7-2.9-203.2-26.3-203.2-26.3l70.2,72.1c0,0,222.2,37.5,254.3,46.3c32.2,8.8,135.9,40.9,166.6,36.5
			c30.7-4.4,249.5-81.6,253.1-79.4"/>
		
			<path fill="none" stroke-width="19.7323" stroke-linecap="round" stroke-linejoin="round" stroke-miterlimit="10" d="
			M3117.8,948.9c-12.9,4,0,26.3,21.9,40.9c21.9,14.6,95.5,61.4,118.7,73.1c23.1,11.7,42.1,27.8,53.8,17.5
			c11.7-10.2,30.7-92.1,30.7-103.8c0-11.7-7.3-51.8-30.7-53.7C3288.8,921.1,3136.8,943.1,3117.8,948.9z"/>
		
			<path fill="none" stroke-width="19.7323" stroke-linecap="round" stroke-linejoin="round" stroke-miterlimit="10" d="
			M2490.8,1590.6c15.3,5.8,34.3,11,35.8,14.6c1.5,3.7-15.3,39.1-17.9,41.8c-2.6,2.8-11.3,15.5-36.2,0c-24.8-15.5-19-21-13.9-24.4
			C2463.7,1619.1,2490.8,1590.6,2490.8,1590.6z"/>
		
			<path fill="none" stroke-width="19.7323" stroke-linecap="round" stroke-linejoin="round" stroke-miterlimit="10" d="
			M2580.4,1672.4c0,0,5.4-16.6,6.8-20.5c1.5-3.9,8.8-27.8,6.3-29.4c-2.4-1.6-33.1-7.1-39.5-7.6l-30.7,54.1"/>
		
			<polyline fill="none" stroke-width="19.7323" stroke-linecap="round" stroke-linejoin="round" stroke-miterlimit="10" points="
			2662.7,1672.4 2668.1,1631.5 2619.9,1628.1 2606.7,1672.4 		"/>
		
			<polyline fill="none" stroke-width="19.7323" stroke-linecap="round" stroke-linejoin="round" stroke-miterlimit="10" points="
			2687.6,1668 2694.9,1632.5 2737.8,1628.1 2737.8,1658.3 		"/>
		
			<polyline fill="none" stroke-width="19.7323" stroke-linecap="round" stroke-linejoin="round" stroke-miterlimit="10" points="
			2761.2,1654.6 2761.2,1628.1 2938.1,1596.7 		"/>
		
			<path fill="none" stroke-width="19.7323" stroke-linecap="round" stroke-linejoin="round" stroke-miterlimit="10" d="
			M3054.9,1602.3c0,0-56.9,34.2-78.9,41.4c-21.9,7.2-368.7,112.5-522,89.4"/>
		
			<path fill="none" stroke-width="19.7323" stroke-linecap="round" stroke-linejoin="round" stroke-miterlimit="10" d="
			M3060.8,1648.1c0,0-348.4,147.5-502.1,145.4"/>
		
			<path fill="none" stroke-width="19.7323" stroke-linecap="round" stroke-linejoin="round" stroke-miterlimit="10" d="
			M3041.6,1701.2c0,0-353.8,157.5-500.7,164.3"/>
		
			<path fill="none" stroke-width="19.7323" stroke-linecap="round" stroke-linejoin="round" stroke-miterlimit="10" d="
			M3022.8,1745.5c0,0-352.5,176.2-519.2,193.7"/>
		
			<path fill="none" stroke-width="19.7323" stroke-linecap="round" stroke-linejoin="round" stroke-miterlimit="10" d="
			M2285.3,1359.3c0,0,28.2,44.9,35.5,52.6"/>
		
			<path fill="none" stroke-width="19.7323" stroke-linecap="round" stroke-linejoin="round" stroke-miterlimit="10" d="
			M2266.8,1441.5c0,0,42.3,63.6,54,73.4"/>
		
			<path fill="none" stroke-width="19.7323" stroke-linecap="round" stroke-linejoin="round" stroke-miterlimit="10" d="
			M2248.2,1521.6c0,0,85.5,83.3,98.7,91"/>
		
			<path fill="none" stroke-width="19.7323" stroke-linecap="round" stroke-linejoin="round" stroke-miterlimit="10" d="
			M2236.2,1602.3c0,0,111.8,92.3,128.3,99"/>
		
			<path fill="none" stroke-width="19.7323" stroke-linecap="round" stroke-linejoin="round" stroke-miterlimit="10" d="
			M2236.2,1679.6c0,0,115.1,86.4,143.6,94.1"/>
		
			<path fill="none" stroke-width="19.7323" stroke-linecap="round" stroke-linejoin="round" stroke-miterlimit="10" d="
			M2236.2,1758.3c0,0,99.8,73.4,175.4,89.9"/>
		
			<path fill="none" stroke-width="19.7323" stroke-linecap="round" stroke-linejoin="round" stroke-miterlimit="10" d="
			M2236.2,1830.7c0,0,119.5,66.9,186.4,81.1"/>
		
			<path fill="none" stroke-width="19.7323" stroke-linecap="round" stroke-linejoin="round" stroke-miterlimit="10" d="
			M2254.8,1342.9c0,0-29.8,7.9-42.9,5.1"/>
		
			<path fill="none" stroke-width="19.7323" stroke-linecap="round" stroke-linejoin="round" stroke-miterlimit="10" d="
			M2221.9,1411.9c0,0-32.5,12.8-47.5,13"/>
		
			<path fill="none" stroke-width="19.7323" stroke-linecap="round" stroke-linejoin="round" stroke-miterlimit="10" d="
			M2198.1,1495.3c0,0-24.5,3.3-42,0"/>
		
			<line fill="none" stroke-width="19.7323" stroke-linecap="round" stroke-linejoin="round" stroke-miterlimit="10" x1="2183.5" y1="1567.1" x2="2146.3" y2="1558.5"/>
		
			<line fill="none" stroke-width="19.7323" stroke-linecap="round" stroke-linejoin="round" stroke-miterlimit="10" x1="2174.4" y1="1638.9" x2="2146.3" y2="1622.6"/>
		
			<line fill="none" stroke-width="19.7323" stroke-linecap="round" stroke-linejoin="round" stroke-miterlimit="10" x1="2164.9" y1="1711.2" x2="2139.8" y2="1683.8"/>
		
			<line fill="none" stroke-width="19.7323" stroke-linecap="round" stroke-linejoin="round" stroke-miterlimit="10" x1="2170.4" y1="1783.4" x2="2148.9" y2="1766"/>
	</g>
</g>
</svg>
