<?xml version="1.0" encoding="utf-8"?>
<!-- Generator: Adobe Illustrator 19.2.0, SVG Export Plug-In . SVG Version: 6.00 Build 0)  -->
<svg version="1.1" id="category-item_svg_holsters" xmlns:x="&ns_extend;" xmlns:i="&ns_ai;" xmlns:graph="&ns_graphs;"
	 xmlns="http://www.w3.org/2000/svg" xmlns:xlink="http://www.w3.org/1999/xlink" x="0px" y="0px" viewBox="0 0 3976 2646"
	 enable-background="new 0 0 3976 2646" xml:space="preserve">
<metadata>
	<sfw  xmlns="&ns_sfw;">
		<slices></slices>
		<sliceSourceBounds  bottomLeftOrigin="true" height="2452.7" width="2560.1" x="-329.1" y="-1762.1"></sliceSourceBounds>
	</sfw>
</metadata>
<g>
	<g>
		<path fill="none" stroke-width="35" stroke-linecap="round" stroke-linejoin="round" stroke-miterlimit="10" d="
			M1186.4,887.3c0,0-180,10-290,70s-168,100-176,284s-2,394,0,422s20,80,20,80l168,22l116-130c0,0,2-376,6-460
			S996.4,899.3,1186.4,887.3z"/>
		<path fill="none" stroke-width="35" stroke-linecap="round" stroke-linejoin="round" stroke-miterlimit="10" d="
			M1024.4,1635.3l70,182c0,0,322,14,352,0s114-160,118-182s0-186,0-270s1.8-458,1.8-522s66.2-122,136.2-118s154,86,162,148
			s52,102,56,178s0,332,0,332l24,922l-30,12l-32,58h-102c0,0-72,64-118,90s-26,66-178,14s-298-92-298-92s-22-12-40-30
			c-22,16-22,16-22,16s-202-54-242-68s-54,16-62-62s-18-286-18-286"/>
		<path fill="none" stroke-width="35" stroke-linecap="round" stroke-linejoin="round" stroke-miterlimit="10" d="
			M1186.4,887.3c0,0,78.2-57.3,187-102.3c108.8-45,258.3-97.2,338.4-58.8"/>
		<path fill="none" stroke-width="18" stroke-linecap="round" stroke-linejoin="round" stroke-miterlimit="10" d="
			M1638.9,2483.5c0,0,104.4,32.7,167.4,44.7c63,12,117,9,120,0s-11.9-210.9-11.9-210.9"/>
		<path fill="none" stroke-width="18" stroke-linecap="round" stroke-linejoin="round" stroke-miterlimit="10" d="
			M790.9,1749.9c0,0,10.4,69.4,0,89.4c-10.4,20-26.4,54-21.4,71s29,38,59,43s56,9,63,6s5-171,5-177s0.3-17,0.3-17"/>
		<path fill="none" stroke-width="18" stroke-linecap="round" stroke-linejoin="round" stroke-miterlimit="10" d="
			M866.3,1959c0,0-7.1-72.1,0-103.9c7.1-31.8,20.1-89.8,20.1-89.8"/>
		<path fill="none" stroke-width="18" stroke-linecap="round" stroke-linejoin="round" stroke-miterlimit="10" d="
			M896.7,1944.8l93.8,14.2c0,0,15-6.7,0-48.7c-15-42-12-116.2-10.5-145.1c1.5-28.9,1.7-82.2,1.7-82.2"/>
		
			<line fill="none" stroke-width="18" stroke-linecap="round" stroke-linejoin="round" stroke-miterlimit="10" x1="979.6" y1="1773.7" x2="1081.7" y2="1784.1"/>
		<path fill="none" stroke-width="18" stroke-linecap="round" stroke-linejoin="round" stroke-miterlimit="10" d="
			M1186.4,1820.6c0,0,2,78.7,0,126.7s-10,102,0,104s74,14,102,20s78,0,85,0s0-248,0-248"/>
		<path fill="none" stroke-width="18" stroke-linecap="round" stroke-linejoin="round" stroke-miterlimit="10" d="
			M1353.5,1823.4c0,0-1,230.3-3,249.4"/>
		<path fill="none" stroke-width="18" stroke-linecap="round" stroke-linejoin="round" stroke-miterlimit="10" d="
			M1469,1796.1c0,0,147,15.3,202.5,7.8c55.5-7.5,187.5-2,198-7.8c10.5-5.7,13.5-389.7,12-407.7c-1.5-18-120-6-144-7.5s-173,3-173,3"
			/>
		<path fill="none" stroke-width="18" stroke-linecap="round" stroke-linejoin="round" stroke-miterlimit="10" d="
			M1565,1181.3c0,0,67.5-3,94.5,12c27,15,100.5,66,139.5,78c39,12,122.7,0,122.7,0l-1,88.5c0,0-99.3,3-117.3,0
			c-18-3-98.6-57-128.1-64.5c-29.4-7.5-110.4-12-110.4-12"/>
		<path fill="none" stroke-width="35" stroke-linecap="round" stroke-linejoin="round" stroke-miterlimit="10" d="
			M1146.4,2357.3l-36.2-40c0,0-9-129.7,0-244.4c9-114.7,1-204.1-4-249.4"/>
		<path fill="none" stroke-width="18" stroke-linecap="round" stroke-linejoin="round" stroke-miterlimit="10" d="
			M1081.7,2361.7c0,0-27.3-70.5-27.3-146.5s13.3-162,13.6-246c0.4-84-23.6-185.1-23.6-185.1"/>
		
			<polygon fill="none" stroke-width="12.9409" stroke-linecap="round" stroke-linejoin="round" stroke-miterlimit="10" points="
			768.5,1139.3 760.4,1699.3 912.4,1713.3 947,1085.3 		"/>
		
			<path fill="none" stroke-width="12.9409" stroke-linecap="round" stroke-linejoin="round" stroke-miterlimit="10" d="
			M886.4,962.7c0,0-31.5,117-32.7,150.7c-1.3,33.8-32,591.4-32,591.4"/>
		
			<path fill="none" stroke-width="12.9409" stroke-linecap="round" stroke-linejoin="round" stroke-miterlimit="10" d="
			M1335.4,801.7c0,0-47.8,23.5-56.4,243.5c-8.6,220-21.6,721.2-21.6,721.2"/>
		
			<polygon fill="none" stroke-width="12.9409" stroke-linecap="round" stroke-linejoin="round" stroke-miterlimit="10" points="
			1449.1,975.3 1118.4,1085.3 1130.4,1769.8 1450.4,1761.4 		"/>
		
			<path fill="none" stroke-width="12.9409" stroke-linecap="round" stroke-linejoin="round" stroke-miterlimit="10" d="
			M1833.5,1284.1c0,0,6-223.4-9-299.2c-15-75.9-4.5-111-48-163.5c-43.5-52.5-48.2-51.6-94.6-95.5"/>
	</g>
	<g>
		<path fill="none" stroke-width="35" stroke-linecap="round" stroke-linejoin="round" stroke-miterlimit="10" d="
			M1941.5,1953.2c8.5,10.1,17.1,20.1,25.7,30.1c0.2,0.2,0.4,0.5,0.6,0.7"/>
		<path fill="none" stroke-width="35" stroke-linecap="round" stroke-linejoin="round" stroke-miterlimit="10" d="
			M1982.8,1188.9c-19.4,0.1-38.4,0.1-57.3,1.2"/>
		<path fill="none" stroke-width="35" stroke-linecap="round" stroke-linejoin="round" stroke-miterlimit="10" d="
			M2858.9,1074.9c0,0,81,75,141,90c60,15,135,9,186,159c51,150,69,279,45,363c-24,84-115.5,252-180.8,297
			c-65.3,45-194.3,138-326.3,147"/>
		<path fill="none" stroke-width="35" stroke-linecap="round" stroke-linejoin="round" stroke-miterlimit="10" d="
			M1931.9,1822.5c25.8,100,73.9,273.6,92.2,326.5c24.8,72,77.4,150.1,151,184.6s240.1,54,309.1,63c69,9,204,37.5,219-132
			s38.8-343.6,38.8-343.6l96-747.1l33-249c0,0,12.2-86.7,15.2-124.2c3-37.5-49.5-54-73.5-57s-106.5-27-147-19.5
			c-40.5,7.5-78,43.5-118.5,75c-40.5,31.5-101.5,78-159.5,90s-185.5,13.5-262,87c-76.5,73.5-93.9,123.3-101.6,149.9
			c0,0-23,92-53,111s-23.5,15.4-45.5,20.1"/>
		<path fill="none" stroke-width="18" stroke-linecap="round" stroke-linejoin="round" stroke-miterlimit="10" d="
			M2057,1056.1c0,0,123,72,145,84s28,16,26,106s-22,462-22,492s28,48,72,56s93.2-8,109.6-10s42.4-158.3,46.4-181.1"/>
		
			<line fill="none" stroke-width="18" stroke-linecap="round" stroke-linejoin="round" stroke-miterlimit="10" x1="2208.5" y1="1752.7" x2="2146" y2="2317.1"/>
		<path fill="none" stroke-width="18" stroke-linecap="round" stroke-linejoin="round" stroke-miterlimit="10" d="
			M2354,970.1c0,0-2,152,20,255s78,356.7,104,377.9s138,39.1,172,37.1s71.7-8,73.9-64s-2.1-306,0-330s-31.9-20-53.9-48
			s-30-90-22-134c8-44,16-164,16-164"/>
		<path fill="none" stroke-width="18" stroke-linecap="round" stroke-linejoin="round" stroke-miterlimit="10" d="
			M2482,1686.1l57.2,8l-73.2,634l-238-34l44-448c0,0,85.2,10,115.6,4s68.4-50,74.4-80S2482,1686.1,2482,1686.1z"/>
		<path fill="none" stroke-width="18" stroke-linecap="round" stroke-linejoin="round" stroke-miterlimit="10" d="
			M1974.1,1528.2l160.5-118.5c0,0,11.4-144,11.4-193.5s-63.9-51-78.9-48c-15,3-16.5,38.8-28.5,56.9c-12,18.1-39,33.4-39,33.4
			L1974.1,1528.2z"/>
		<path fill="none" stroke-width="18" stroke-linecap="round" stroke-linejoin="round" stroke-miterlimit="10" d="
			M1974.1,1640.3l147-112.1c0,0,1.5,178.5,0,231c-1.5,52.5-94.5,97.5-120,28.5C1975.6,1718.7,1974.1,1640.3,1974.1,1640.3z"/>
		
			<polygon fill="none" stroke-width="18" stroke-linecap="round" stroke-linejoin="round" stroke-miterlimit="10" points="
			2323.6,1282.2 2284.6,1730.7 2343.1,1738.2 2383.6,1496.7 		"/>
		
			<polyline fill="none" stroke-width="35" stroke-linecap="round" stroke-linejoin="round" stroke-miterlimit="10" points="
			2724.5,722.8 2770,456.1 2558,414.1 2485,844.5 		"/>
		<path fill="none" stroke-width="35" stroke-linecap="round" stroke-linejoin="round" stroke-miterlimit="10" d="
			M1537.2,714.5c-3.8-1.4-8.8-2.4-12.8-4.4c-28-7-58-5-81-24c-4-4-8-10-10-16c-9-27-16-56-12-85c20-134,37-262,57-393
			c21-25,43-48,66-71c4-3,7-7,12-9c6-3,12-2,18-2c32,3,61,13,91,23c6,2,11,5,17,7c26,11,46,28,70,45c91,64,172,123,258,185
			c66,40,131,78,201,112c7,3,14,5,21,9c2,1,3,0,5,1c34,14,71,21,107,20c23,0,46-6,64-22c2-2,3-4,5-6c6-6,12-12,17-19
			c26-30,45-64,55-101c10-1,19,0,28,4c13,6,19,18,27,30c2,2,4,4,5.6,6"/>
		<path fill="none" stroke-width="35" stroke-linecap="round" stroke-linejoin="round" stroke-miterlimit="10" d="
			M2049.4,1068.1c-1-34.1-17-65.1-32-95.1c-2-4-7-7-11-9c-34-16-67-31-99-50c-7,3-15,4-21.8,6.6"/>
		
			<line fill="none" stroke-width="18" stroke-linecap="round" stroke-linejoin="round" stroke-miterlimit="10" x1="2546" y1="527.7" x2="2753.2" y2="554.6"/>
		
			<line fill="none" stroke-width="18" stroke-linecap="round" stroke-linejoin="round" stroke-miterlimit="10" x1="2530.8" y1="574.3" x2="2744.5" y2="605.6"/>
		
			<line fill="none" stroke-width="18" stroke-linecap="round" stroke-linejoin="round" stroke-miterlimit="10" x1="2521.5" y1="629.3" x2="2735.8" y2="656.7"/>
		
			<line fill="none" stroke-width="18" stroke-linecap="round" stroke-linejoin="round" stroke-miterlimit="10" x1="2512.4" y1="683" x2="2724.5" y2="706.2"/>
		
			<line fill="none" stroke-width="18" stroke-linecap="round" stroke-linejoin="round" stroke-miterlimit="10" x1="2502.9" y1="738.9" x2="2607.9" y2="751.7"/>
		
			<line fill="none" stroke-width="18" stroke-linecap="round" stroke-linejoin="round" stroke-miterlimit="10" x1="2502.9" y1="788.7" x2="2555.4" y2="792.7"/>
		<path fill="none" stroke-width="18" stroke-linecap="round" stroke-linejoin="round" stroke-miterlimit="10" d="
			M1566.2,605.6l517.5,279.1l24-49.5l9,9.3c0,0,13.5-125.5,24-149.9c10.5-24.4,21-52.2,27-65.3c6-13.1-19.5-44.5-57-55
			c-37.5-10.5-238.5-132-267-166.5c-28.5-34.5-130.5-108-168-126c-37.5-18-60-46.5-75,27C1585.6,382.2,1561.7,589,1566.2,605.6z"/>
		
			<polyline fill="none" stroke-width="18" stroke-linecap="round" stroke-linejoin="round" stroke-miterlimit="10" points="
			2083.6,884.7 2065,925.1 2083.6,935.1 2065,981.1 2099.7,1002.6 		"/>
		
			<polyline fill="none" stroke-width="18" stroke-linecap="round" stroke-linejoin="round" stroke-miterlimit="10" points="
			2113.2,841 2187,874.1 2163,943.7 		"/>
	</g>
</g>
</svg>
