<?xml version="1.0" encoding="utf-8"?>
<!-- Generator: Adobe Illustrator 19.2.0, SVG Export Plug-In . SVG Version: 6.00 Build 0)  -->
<svg version="1.1" id="category-item_svg_knifes" xmlns:x="&ns_extend;" xmlns:i="&ns_ai;" xmlns:graph="&ns_graphs;"
	 xmlns="http://www.w3.org/2000/svg" xmlns:xlink="http://www.w3.org/1999/xlink" x="0px" y="0px" viewBox="0 0 3976 2646"
	 enable-background="new 0 0 3976 2646" xml:space="preserve">
<metadata>
	<sfw  xmlns="&ns_sfw;">
		<slices></slices>
		<sliceSourceBounds  bottomLeftOrigin="true" height="1769.1" width="2017.5" x="-308" y="-1306.3"></sliceSourceBounds>
	</sfw>
</metadata>
<g>
	<g>
		<path fill="none" stroke-width="18" stroke-linecap="round" stroke-linejoin="round" stroke-miterlimit="10" d="
			M1466.5,1265.6c3.6-12.6,11.6-22.6,22.6-30.6c7-6,15-10,24-13c13-4,25-10,39-12c4,0,8-3,8-7c1-30,3-60,12-90c5-15,13-30,28-38
			c16-7,30-15,42-27c4-3,7-6,11-9c7-4,13-8,20-12c26-13,52-19,78-31c5-2,9-2,14-4c2-1,4-2,7-3c3-2,6-4,9-6c6-2,12-3,17-5
			c18-9,36-18,54-27c23-13,47-25,65.3-44"/>
		<path fill="none" stroke-width="18" stroke-linecap="round" stroke-linejoin="round" stroke-miterlimit="10" d="
			M2120.4,709.6c3.8-4.6,9.8-7.6,13.8-13.6c2-2,4-2,6-3c13-11,24-20,38-30c3-2,5-2,8-4c19-13,38-21,58-28c40-14,82-12,124-10
			c6,0,12,2,18-1c2-1,3-3,4-5c6-17,16-31,22-48c5-14,10-29,12-44c1-18-2-36-10-53c-1-2,0-3-1-5c-11-19-13-40-9-62c1-6,1-12,0-18
			c-2-9-12-11-20-13c-20-3-40-2-59-9c-13-5-25-13-38-16c-24-7-47-15-71-17c-2,0-4,3-6,4c-14,13-25,27-39,38c-39,32-77,57-120,82
			c-4,3-8,6-12,9c-24,14-45,26-69,39c-10,5-20,8-29,15c-3,2-6,2-9,3c-24,11-48,21-72,31c-13,6-25,12-37,18c-92,49-175,103-254,172
			c-32,29-59,59-87,91c-40,47-74,91-110,143c-6,10-12,18-18,28c-10,15-17,29-26,44c-22,43-37,87-54.4,131.2c0.5-1.3,0.9-2.6,1.4-3.8
			c-0.1,7.6,1.9,15.6,2.9,23.6c-5,2-11,3-16,5c-7,4-9,12-12,19c-1,2-3,4-5,4c-12,1-13,12-13,21c0,2-2,3-3,4c-5,2-10,3-14,6
			c-5,4-5,11-10,15c-2,2-4,3-6,3c-10-1-15,8-20,16c-6,8-17,0-24,6s-9,18-18,22c-7,2-14,4-21,6c-13,18-22,37-34,57c-3,4-5,8-8,12
			c-5,10-11,20-16,30c-6,10-11,19-17,29c-3,4-5,8-8,12c-1,1-1,3-2,5c-2,2-4,4-5,7c-6,13-12,24-19,36c-5,7-10,13-12,21
			c-67,111-130,224-195,336c-1,8-4,15-6,22c-2,6-4,12-7,18c-2,8-5,16-7,24c-12,34-24,67-36,101c-5,15-10,30-15.1,45.4
			c7-1.6,1.2-3.3,0,0c43.7-10.4,86.7-26.3,127.8-44.3c40.2-17.6,79.3-38.3,115.4-63.4c35.2-24.4,66.2-54.1,95.7-85.1
			c30.4-31.9,58.9-65.7,83.7-102.2c25.4-37.5,46.7-77.6,69.9-116.5c23.1-38.8,47.3-77,73.8-113.6c25.5-35.2,52-69.9,82.6-100.8
			c22.7-23,47.5-43.9,73.7-62.9"/>
		<path fill="none" stroke-width="18" stroke-linecap="round" stroke-linejoin="round" stroke-miterlimit="10" d="
			M2012.1,818.3c20-19.9,39.8-40,59.5-60"/>
		<path fill="none" stroke-width="18" stroke-linecap="round" stroke-linejoin="round" stroke-miterlimit="10" d="
			M2088.9,572.4c12.2-5.5,24.2-11.5,37.2-15.5c36-10,72-15,109-18c7-1,13-4,20-5c49-2,98,7,147-7c9-2,15-9,21.8-15.7"/>
		<path fill="none" stroke-width="18" stroke-linecap="round" stroke-linejoin="round" stroke-miterlimit="10" d="
			M2012.1,625.3c14.7-13.2,30.6-24.9,47.3-35.5"/>
		<path fill="none" stroke-width="18" stroke-linecap="round" stroke-linejoin="round" stroke-miterlimit="10" d="
			M1560.7,1195.9c0,0-56.5-19.7-68.3-57.1c-11.8-37.4,11.7-123.7,26.8-143.6c15-19.9,77.4-89.3,128.9-109.7
			c51.5-20.4,151.9-57.9,186.5-84.6c25.2-19.5,76.4-70.8,117.7-113.9"/>
		<path fill="none" stroke-width="18" stroke-linecap="round" stroke-linejoin="round" stroke-miterlimit="10" d="
			M2074,515.2c18.4-9.9,35.7-21.6,52.3-34.3c16.8-12.9,33.5-26.6,48.2-41.8c28.5-29.7,42.6-69.1,44.9-109.8"/>
		<path fill="none" stroke-width="18" stroke-linecap="round" stroke-linejoin="round" stroke-miterlimit="10" d="
			M2010.7,540.1c17.7-4.4,34.9-10.8,51.3-18.8"/>
		<path fill="none" stroke-width="18" stroke-linecap="round" stroke-linejoin="round" stroke-miterlimit="10" d="
			M1846,558.2c22.3,1.3,44.7,1.8,67,0.7c22-1.1,43.6-5,64.9-10.2"/>
		<path fill="none" stroke-width="18" stroke-linecap="round" stroke-linejoin="round" stroke-miterlimit="10" d="
			M2314.9,358c0,0-54.4,34.1-46.2,71.6c8.2,37.4,34.9,70.8,59.5,68.3c24.6-2.5,39.2,9.5,87.6-25.7"/>
		
			<ellipse transform="matrix(0.9441 -0.3297 0.3297 0.9441 -304.0335 529.5224)" fill="none" stroke-width="12.9409" stroke-linecap="round" stroke-linejoin="round" stroke-miterlimit="10" cx="1409.3" cy="1161.2" rx="35.7" ry="35.7"/>
		
			<ellipse transform="matrix(0.9441 -0.3297 0.3297 0.9441 -368.5127 470.3803)" fill="none" stroke-width="12.9409" stroke-linecap="round" stroke-linejoin="round" stroke-miterlimit="10" cx="1202.7" cy="1321.8" rx="24.3" ry="24.3"/>
		
			<ellipse transform="matrix(0.9441 -0.3297 0.3297 0.9441 -198.5523 546.6169)" fill="none" stroke-width="12.9409" stroke-linecap="round" stroke-linejoin="round" stroke-miterlimit="10" cx="1512.4" cy="858.7" rx="20.7" ry="20.7"/>
		
			<ellipse transform="matrix(0.1666 -0.986 0.986 0.1666 961.7398 2329.8301)" fill="none" stroke-width="12.9409" stroke-linecap="round" stroke-linejoin="round" stroke-miterlimit="10" cx="1859.1" cy="596" rx="20.7" ry="20.7"/>
		
			<ellipse transform="matrix(0.1666 -0.986 0.986 0.1666 1532.0574 2673.6555)" fill="none" stroke-width="12.9409" stroke-linecap="round" stroke-linejoin="round" stroke-miterlimit="10" cx="2347.7" cy="430.5" rx="25.6" ry="25.6"/>
		
			<ellipse transform="matrix(0.1666 -0.986 0.986 0.1666 1491.433 2530.8965)" fill="none" stroke-width="12.9409" stroke-linecap="round" stroke-linejoin="round" stroke-miterlimit="10" cx="2242.9" cy="383.1" rx="20.7" ry="20.7"/>
		
			<polyline fill="none" stroke-width="12.9409" stroke-linecap="round" stroke-linejoin="round" stroke-miterlimit="10" points="
			731.4,2073.3 818.5,1901 886.1,1720.7 		"/>
		
			<path fill="none" stroke-width="12.9409" stroke-linecap="round" stroke-linejoin="round" stroke-miterlimit="10" d="
			M818.5,1901c45.6-41,88.6-81,124.6-134c2-4,4-8,6-12c46-71,88-132,137-202c33-47,65-86,102-128c13-14,25-28,39-41
			c24-21,45-43,71-63c5-4,11-2,17-2c37,6,71,15,109,23c5,1,9,5,13.8,5.3"/>
		<path fill="none" stroke-width="18" stroke-linecap="round" stroke-linejoin="round" stroke-miterlimit="10" d="
			M1277.7,1197.9c0,0,26.2,68.1,78.4,77.6c52.1,9.5,79.4,13.8,108.2-10.1"/>
	</g>
	<g>
		<path fill="none" stroke-width="18" stroke-linecap="round" stroke-linejoin="round" stroke-miterlimit="10" d="
			M2140.2,955.7c0,0,6.9-88.3,5.4-109.1c-1.5-20.7,0-47.6,0-47.6l-17.7-46.9l-53-238.2h-12.3c0,0-6.9,146-6.9,179.8
			c11.5,17.7,16.1,45.3,16.9,59.9c0.8,14.6-4.6,33.8-4.6,33.8s32.3-5.4,43.8,3.8c11.5,9.2,12.3,34.6,12.3,34.6v62.2
			c0,0-6.1,1.5-39.2-1.5C2102.6,888.9,2141,938.8,2140.2,955.7c-0.8,16.9-17.7,48.4-31.5,56.1c-13.8,7.7-46.1,26.1-78.4,26.1
			c-32.3,0-28.4,0-61.5-16.1c-33-16.1-51.5-64.5-51.5-64.5s-0.8-79.9,0-125.2c0.8-45.3,15.4-50.7,15.4-50.7l16.9-83l40.7-184.4h14.6
			l7.7,177.5c0,0-22.3,43.8-21.5,56.8c0.8,13.1,13.8,22.3,16.1,42.3c2.3,20,16.1,79.9,16.1,84.5c0,4.6,15.4-76.1,15.4-76.1
			s13.8-30,18.4-32.3c4.6-2.3,11.5-7.7,11.5-7.7"/>
		
			<line fill="none" stroke-width="18" stroke-linecap="round" stroke-linejoin="round" stroke-miterlimit="10" x1="1924.7" y1="1012.6" x2="1932" y2="985.5"/>
		
			<line fill="none" stroke-width="18" stroke-linecap="round" stroke-linejoin="round" stroke-miterlimit="10" x1="2139.4" y1="1012.6" x2="2133.1" y2="980"/>
		<path fill="none" stroke-width="18" stroke-linecap="round" stroke-linejoin="round" stroke-miterlimit="10" d="
			M2005,1054.1c0,0-70.7-48.4-104.5-41.5c-33.8,6.9-31.5,68.4-35.3,89.9c-3.8,21.5-20.7,89.9-22.3,104.5
			c-1.5,14.6-43,205.1-43,205.1l-37.6,179l-33,157.5c0,0-30,121.4-30,126c0,4.6-10,49.2,14.6,63.8c24.6,14.6,37.6,30.7,63,23.8
			c25.4-6.9,39.2-9.2,55.3-24.6c16.1-15.4,48.4-196.7,48.4-196.7l25.4-162.1l59.2-253.5l51.5-225.9
			C2016.5,1099.4,2017.5,1062.1,2005,1054.1z"/>
		<path fill="none" stroke-width="18" stroke-linecap="round" stroke-linejoin="round" stroke-miterlimit="10" d="
			M2013.4,1037.8c0,0,26.9,27.1,31.6,53.2c4.6,26.1,34.6,178.2,34.6,178.2l80.7,407.2l35.3,216.6c0,0,0.8,39.2,6.9,42.3
			c6.1,3.1,10,18.7,45.3,28.5c35.3,9.9,46.9,11.4,70.7-7c23.8-18.4,44.6-33,34.2-84.9c-10.4-51.9-46.1-195.9-46.1-195.9
			s-44.9-32.3-56.5-42.6c-11.5-10.4-11.5-21.9-17.3-55.3c-5.8-33.4-21.9-116.4-27.7-147.5c-5.8-31.1,38-58.8,39.2-74.9
			c1.2-16.1-18.4-77.9-18.4-77.9s-42.6-228.6-48.4-256.2c-5.8-27.7-43.8-5.8-59.9,0c-16.1,5.8-58.8,26.5-61.1,46.1
			c-2.3,19.6-3.9,49.5-3.9,49.5"/>
		
			<circle fill="none" stroke-width="12.9409" stroke-linecap="round" stroke-linejoin="round" stroke-miterlimit="10" cx="2031.8" cy="957.5" r="45.5"/>
		
			<path fill="none" stroke-width="12.9409" stroke-linecap="round" stroke-linejoin="round" stroke-miterlimit="10" d="
			M1958.6,943.1c0,0,28.8-47.2,73.2-47.2c44.4,0,74.3,47.2,74.3,47.2"/>
		
			<circle fill="none" stroke-width="12.9409" stroke-linecap="round" stroke-linejoin="round" stroke-miterlimit="10" cx="2090" cy="834.8" r="17.3"/>
		
			<circle fill="none" stroke-width="12.9409" stroke-linecap="round" stroke-linejoin="round" stroke-miterlimit="10" cx="1968.4" cy="833.1" r="9.8"/>
		
			<circle fill="none" stroke-width="12.9409" stroke-linecap="round" stroke-linejoin="round" stroke-miterlimit="10" cx="1943.6" cy="1091.8" r="34.6"/>
		
			<circle fill="none" stroke-width="12.9409" stroke-linecap="round" stroke-linejoin="round" stroke-miterlimit="10" cx="2117" cy="1091.2" r="34"/>
		
			<circle fill="none" stroke-width="12.9409" stroke-linecap="round" stroke-linejoin="round" stroke-miterlimit="10" cx="1765" cy="1889.2" r="39.2"/>
		
			<circle fill="none" stroke-width="12.9409" stroke-linecap="round" stroke-linejoin="round" stroke-miterlimit="10" cx="2292.8" cy="1889.2" r="39.2"/>
		
			<polyline fill="none" stroke-width="12.9409" stroke-linecap="round" stroke-linejoin="round" stroke-miterlimit="10" points="
			1880.5,1740.9 1863.6,1727.8 1875.9,1627.9 1895.1,1627.9 		"/>
		
			<polyline fill="none" stroke-width="12.9409" stroke-linecap="round" stroke-linejoin="round" stroke-miterlimit="10" points="
			2170.7,1740.9 2188.6,1727.8 2174.8,1631.8 2152,1635.3 		"/>
		
			<path fill="none" stroke-width="12.9409" stroke-linecap="round" stroke-linejoin="round" stroke-miterlimit="10" d="
			M1756.9,1971c0,0-168.2,0-227,0c-58.8,0-107.2-57.6-112.9-81.8c-5.8-24.2-6.9-51.9-6.9-51.9s91,76.1,127.9,76.1
			c36.9,0,63.4,6.9,63.4,6.9s17.3-21.9,8.1-31.1s-28.8-21.9-47.2-21.9c15-15,38-17.3,38-17.3l120.1,92.3"/>
		
			<line fill="none" stroke-width="12.9409" stroke-linecap="round" stroke-linejoin="round" stroke-miterlimit="10" x1="1533.3" y1="1952.9" x2="1606.3" y2="1952.9"/>
		
			<polyline fill="none" stroke-width="12.9409" stroke-linecap="round" stroke-linejoin="round" stroke-miterlimit="10" points="
			1606.3,1850 1616.5,1837.3 1690.3,1919.3 		"/>
		
			<path fill="none" stroke-width="12.9409" stroke-linecap="round" stroke-linejoin="round" stroke-miterlimit="10" d="
			M1616.5,1837.3l-178.8-182.1c0,0-8.2-21.9-8.2-30.4c0-8.5,28.8-6.9,40.3,0c11.5,6.9,155.3,147,155.3,147s57.9,51.2,65.1,53.3"/>
		
			<path fill="none" stroke-width="12.9409" stroke-linecap="round" stroke-linejoin="round" stroke-miterlimit="10" d="
			M1476.2,1694.5c0,0-30.8-63.4-34.9-66.5"/>
		
			<path fill="none" stroke-width="12.9409" stroke-linecap="round" stroke-linejoin="round" stroke-miterlimit="10" d="
			M1690.3,1889.2l-192.6-194.7c0,0-9.2-11.7-3.1-17.9c6.1-6.1,23,7.8,23,7.8l172.6,156.6"/>
		
			<path fill="none" stroke-width="12.9409" stroke-linecap="round" stroke-linejoin="round" stroke-miterlimit="10" d="
			M1699.2,1874.6c0,0-30-186.7-34.6-226.6c-4.6-39.9-4.6-195.1,0-233.5c4.6-38.4,20.5-187.5,28.7-222.3c8.2-34.8,28.7,3.1,33.8,6.1
			c5.1,3.1-6.1,10.2-6.1,10.2l15.9,15.4l-16.9,8.2l16.9,12.8l-13.8,12.3l17.4,12l-15.9,13.1l21,22.5l-20,3.6l20,16.9l-18.4,4.6
			l22,14.9l-23,6.7l23,14.3l-21,5.1l23.6,17.4l-19,8.7l19,12.8l-17.9,7.7l17.9,13.3l-14.9,6.7l14.9,11.3l-11.3,7.7l19,12.3
			l-17.4,10.2l17.4,6.7l-17.9,12.8l17.9,8.2l-15.9,11.3l19.5,8.2l-15.9,10.3l15.9,9.7l-13.3,12.3l13.3,9.7l-10.2,19l4.1,6.7"/>
		
			<path fill="none" stroke-width="12.9409" stroke-linecap="round" stroke-linejoin="round" stroke-miterlimit="10" d="
			M1642.4,1786.8l-189.8-401.7c0,0-17.9-32.3-11.3-69.1c6.7-36.9,38.9-66.1,60.4-75.3c27.7,55.3,30.7,60.7,30.7,60.7l4.6,20l10,6.1
			l-1.5,10l10,10.8c0,0-2.8,20.7,4.4,26.9c7.2,6.1,22.5,19.2,22.5,19.2l-5.4,12.3l14.3,6.1l-5.1,11.5l12.3,3.1
			c0,0-5.4,22.3,3.8,33.8c9.2,11.5,17.7,13.8,17.7,13.8l-3.8,12.8l13.1,4.1l-1.5,16.1l10,5.7c0,0-5.4,11.2,0.8,20.4
			c6.1,9.2,22.7,25.4,22.7,25.4"/>
		
			<polyline fill="none" stroke-width="12.9409" stroke-linecap="round" stroke-linejoin="round" stroke-miterlimit="10" points="
			1441.4,1316 1667.7,1764.7 1684.6,1782.1 		"/>
		
			<line fill="none" stroke-width="12.9409" stroke-linecap="round" stroke-linejoin="round" stroke-miterlimit="10" x1="2235.7" y1="1371.3" x2="2283.5" y2="1589.6"/>
		
			<path fill="none" stroke-width="12.9409" stroke-linecap="round" stroke-linejoin="round" stroke-miterlimit="10" d="
			M2268.9,1648.3l55-283.4c0,0,8.1-34.6,17.3-59.9c9.2-25.3,40.3-56.5,51.9-70.3c11.5-13.8,34.6-30,34.6-30s12.7,77.2,8.1,102.6
			c-4.6,25.4-44.9,346.8-44.9,346.8l-35.3,240.8"/>
		
			<path fill="none" stroke-width="12.9409" stroke-linecap="round" stroke-linejoin="round" stroke-miterlimit="10" d="
			M2384.3,1446.6l-21,164.9c0,0,6.1,23.6,15.4,27.7c6.7-44,26.6-200.8,26.6-200.8S2389.4,1435.4,2384.3,1446.6z"/>
		
			<path fill="none" stroke-width="12.9409" stroke-linecap="round" stroke-linejoin="round" stroke-miterlimit="10" d="
			M2394,1627.9c0,0,157.9-288,169.4-311.9c11.5-24,10.3-26.1,20.6-26.6c10.2-0.5,36.9-5.6,40.5-5.1c3.6,0.5,3.6,23,0,35.9
			c-3.6,12.8-20.6,95.5-37.9,151.9c-17.3,56.5-92.2,217.8-102.6,230.5"/>
		
			<path fill="none" stroke-width="12.9409" stroke-linecap="round" stroke-linejoin="round" stroke-miterlimit="10" d="
			M2303.4,1966.5l101.9,4.5c0,0,13.1,11.9,13.1,26.5c0,14.6-8.5,36.1-34.1,36.1s-45.8-21.5-45.8-37.6c0-16.1,9.2-24.9,9.2-24.9"/>
		
			<path fill="none" stroke-width="12.9409" stroke-linecap="round" stroke-linejoin="round" stroke-miterlimit="10" d="
			M2405.3,1971l13.8-15c0,0,17.6,13.8,17.6,42.3c0,28.4-29.1,52.2-52.4,52.2s-42-13.1-42-13.1s-1.5-6.1-10.3,13.1
			c-4.9-4.6-10.4-10.8-23.5-26.9c-13.1-16.1-13.1-52.6-13.1-52.6"/>
		
			<path fill="none" stroke-width="12.9409" stroke-linecap="round" stroke-linejoin="round" stroke-miterlimit="10" d="
			M2419.1,1956l36.1-4.6c0,0,10,12.6,16.1,15.2c6.1,2.5,16.1,3.5,16.1-2.7c0-6.3,0-17,0-17l204-35.7l-10.7-63.9l-201.8,33.3
			c0,0-57.9,5.1-79.4,2.6c-21.5-2.6-40.8-11-40.8-11"/>
		
			<path fill="none" stroke-width="12.9409" stroke-linecap="round" stroke-linejoin="round" stroke-miterlimit="10" d="
			M2465.1,1881.5c0,0,46.6-21.1,68.1-28.8c21.5-7.7,94.2-54.8,106-64.5c11.8-9.7,63-34.8,74.8-54.3c11.8-19.5,16.9-41,16.9-41
			l-319.1,137.3c0,0-38,16.4-49.5,16.9"/>
		
			<path fill="none" stroke-width="12.9409" stroke-linecap="round" stroke-linejoin="round" stroke-miterlimit="10" d="
			M2642.9,1745.2c0,0-16.4,13.8-9.2,17.9c7.2,4.1,18.4,0.5,24.1-2.6c5.6-3.1,12.8-8.7,10.2-15.4
			C2665.4,1738.6,2654.2,1741.1,2642.9,1745.2z"/>
		
			<polyline fill="none" stroke-width="12.9409" stroke-linecap="round" stroke-linejoin="round" stroke-miterlimit="10" points="
			2366,1813.1 2464.5,1719.8 2565.9,1627.9 2627.1,1574.6 2650.2,1594.2 2614.3,1649.5 2482.6,1799.8 		"/>
		
			<path fill="none" stroke-width="12.9409" stroke-linecap="round" stroke-linejoin="round" stroke-miterlimit="10" d="
			M2440.2,1742.8c0,0-11.9-3.2-12.4-10.9c-0.5-7.7,15.9-35.9,23-45.6c7.2-9.7,39.9-67.6,43.5-70.2c3.6-2.6,10.1-10.8,13.7-7.7
			c3.7,3.1-5.5,23-9.6,30.7c-4.1,7.7-51.2,96.9-51.2,96.9"/>
	</g>
</g>
</svg>
