<?xml version="1.0" encoding="utf-8"?>
<!-- Generator: Adobe Illustrator 19.2.0, SVG Export Plug-In . SVG Version: 6.00 Build 0)  -->
<svg version="1.1" id="category-item_svg_other-weapons" xmlns:x="&ns_extend;" xmlns:i="&ns_ai;" xmlns:graph="&ns_graphs;"
	 xmlns="http://www.w3.org/2000/svg" xmlns:xlink="http://www.w3.org/1999/xlink" x="0px" y="0px" viewBox="0 0 3976 2646"
	 enable-background="new 0 0 3976 2646" xml:space="preserve">
<metadata>
	<sfw  xmlns="&ns_sfw;">
		<slices></slices>
		<sliceSourceBounds  bottomLeftOrigin="true" height="796.6" width="3731.4" x="-866.7" y="-916.6"></sliceSourceBounds>
	</sfw>
</metadata>
<path fill="none" stroke-width="30" stroke-linecap="round" stroke-linejoin="round" stroke-miterlimit="10" d="
	M891.6,1278.1H317.2c0,0-27,129-9,205.5s51,181.5,51,181.5l439.5-121.5c0,0,37.5-18,42,4.5s43.5,37.5,75,45c31.5,7.5,87,0,87,0
	s25.5-79.5,36-102s81-84,106.5-87S1681,1377,1681,1377l116-25l1064-18c0,0,16-64,14-94s-14-50-14-50l-988,7v-41l-29.5-29.5H1714
	v83.5c0,0,2,28-44,28s-194-1-214-1s-39-26-39-39s1-27,1-27h-132c0,0-121,74-166,93s-131,48-131,48s-27,11-48,11
	S891.6,1278.1,891.6,1278.1z"/>
<path fill="none" stroke-width="30" stroke-linecap="round" stroke-linejoin="round" stroke-miterlimit="10" d="
	M266.2,1285.6c0,0-12,157.5,0,216c12,58.5,49.5,163.5,49.5,163.5l-87,19.5c0,0-28.5-105-36-186c-7.5-81-15-154.5-15-154.5
	S158.2,1293.1,266.2,1285.6z"/>
<line fill="none" stroke-width="30" stroke-linecap="round" stroke-linejoin="round" stroke-miterlimit="10" x1="262.4" y1="1353.1" x2="302" y2="1353.1"/>
<line fill="none" stroke-width="30" stroke-linecap="round" stroke-linejoin="round" stroke-miterlimit="10" x1="298.3" y1="1614.2" x2="343.7" y2="1614.2"/>
<path fill="none" stroke-width="30" stroke-linecap="round" stroke-linejoin="round" stroke-miterlimit="10" d="
	M1168.8,1402.4c0,0-26.8,52.6-11.8,70.6s53,36,92,36s89-27.6,96-53.3s0-59.9,0-59.9"/>
<path fill="none" stroke-width="30" stroke-linecap="round" stroke-linejoin="round" stroke-miterlimit="10" d="
	M1203.9,1400.5c0,0-16.1,55.5,0,65.5"/>
<path fill="none" stroke-width="30" stroke-linecap="round" stroke-linejoin="round" stroke-miterlimit="10" d="
	M1789.1,1087.6h44.5l247.5,25.5h181.5c0,0,12-58.5,12-102c0-43.5-27-88.5-27-88.5h-88.5l-324,67.5h-549L1050,957
	c0,0-26.4,25.2-26.4,87.1c0,61.5,23.4,98.9,23.4,98.9l233.1-43v-12.4h63.4"/>
<polyline fill="none" stroke-width="30" stroke-linecap="round" stroke-linejoin="round" stroke-miterlimit="10" points="
	1392.5,1087.6 1506.6,1087.6 1741.1,1087.6 "/>
<path fill="none" stroke-width="30" stroke-linecap="round" stroke-linejoin="round" stroke-miterlimit="10" d="
	M1110.6,965.5c0,0-10.6,44.5-10.6,77.5s10.1,89.8,10.1,89.8"/>
<path fill="none" stroke-width="30" stroke-linecap="round" stroke-linejoin="round" stroke-miterlimit="10" d="
	M1282.3,989.6c0,0-6.7,31.5-6.7,53.4c0,21.9,4.5,44.6,4.5,44.6"/>
<path fill="none" stroke-width="30" stroke-linecap="round" stroke-linejoin="round" stroke-miterlimit="10" d="
	M1835.1,990.1c0,0,7.9,30.9,7.9,50.9s-9.4,46.6-9.4,46.6"/>
<line fill="none" stroke-width="30" stroke-linecap="round" stroke-linejoin="round" stroke-miterlimit="10" x1="2159.1" y1="922.6" x2="2159.1" y2="1113.1"/>
<polyline fill="none" stroke-width="30" stroke-linecap="round" stroke-linejoin="round" stroke-miterlimit="10" points="
	1343.5,1171 1343.5,990.1 1392.5,990.1 1392.5,1171 "/>
<rect x="1741.1" y="990.1" fill="none" stroke-width="30" stroke-linecap="round" stroke-linejoin="round" stroke-miterlimit="10" width="48" height="136.4"/>
<line fill="none" stroke-width="30" stroke-linecap="round" stroke-linejoin="round" stroke-miterlimit="10" x1="1417" y1="1182" x2="1709" y2="1182"/>
<polyline fill="none" stroke-width="30" stroke-linecap="round" stroke-linejoin="round" stroke-miterlimit="10" points="
	1526,990.1 1526,918 1624,918 1624,989.6 "/>
<line fill="none" stroke-width="30" stroke-linecap="round" stroke-linejoin="round" stroke-miterlimit="10" x1="1526" y1="1038.6" x2="1624" y2="1038.6"/>
<path fill="none" stroke-width="30" stroke-linecap="round" stroke-linejoin="round" stroke-miterlimit="10" d="
	M1873,1160h1984c0,0,20.7,13.7,20.7,35s-19.3,35-19.3,35h-984.4"/>
<polyline fill="none" stroke-width="30" stroke-linecap="round" stroke-linejoin="round" stroke-miterlimit="10" points="
	3699.7,1160 3699.7,1126.7 3785,1126.7 3785,1160 "/>
</svg>
