<?xml version="1.0" encoding="utf-8"?>
<!-- Generator: Adobe Illustrator 19.2.0, SVG Export Plug-In . SVG Version: 6.00 Build 0)  -->
<svg version="1.1" id="category-item_svg_outside-spare-parts" xmlns:x="&ns_extend;" xmlns:i="&ns_ai;" xmlns:graph="&ns_graphs;"
	 xmlns="http://www.w3.org/2000/svg" xmlns:xlink="http://www.w3.org/1999/xlink" x="0px" y="0px" viewBox="0 0 3976 2646"
	 enable-background="new 0 0 3976 2646" xml:space="preserve">
<metadata>
	<sfw  xmlns="&ns_sfw;">
		<slices></slices>
		<sliceSourceBounds  bottomLeftOrigin="true" height="2238.9" width="3012.1" x="-412.8" y="-1757.5"></sliceSourceBounds>
	</sfw>
</metadata>
<g>
	<path fill="none" stroke-width="40" stroke-linecap="round" stroke-linejoin="round" stroke-miterlimit="10" d="
		M3246.4,617.2h-48c0,0-46.7,23.7-98,23.7s-88-20.7-88-20.7h-44c0,0-39.3,6.7-55.3,21.3s-27.6,42.6-27.6,77.3
		c0,34.7,0,205.5,22.5,240c22.5,34.5,87,60,91.5,66s31.5,60,28.5,87c-3,27-9,367.5-12,399c-3,31.5-15,270-16.5,316.5s-3,183-3,219
		s1.5,81,1.5,81l-3,133.5c0,0,15.1,10.1,33.2,10.1s218.2,0,218.2,0"/>
	<path fill="none" stroke-width="40" stroke-linecap="round" stroke-linejoin="round" stroke-miterlimit="10" d="
		M3012.4,620.2c0,0,0,122,0,160s11,79,92,79s81-53,81-77s0-159.3,0-159.3"/>
	
		<rect x="3049.7" y="676.5" fill="none" stroke-width="20" stroke-linecap="round" stroke-linejoin="round" stroke-miterlimit="10" width="95" height="65"/>
	
		<rect x="3067.3" y="741.5" fill="none" stroke-width="20" stroke-linecap="round" stroke-linejoin="round" stroke-miterlimit="10" width="62.4" height="75"/>
	<path fill="none" stroke-width="40" stroke-linecap="round" stroke-linejoin="round" stroke-miterlimit="10" d="
		M3095.9,2270.8"/>
	<path fill="none" stroke-width="40" stroke-linecap="round" stroke-linejoin="round" stroke-miterlimit="10" d="
		M3246.4,1209c0,0-67.2,18-85.2,51s-36,156-48,237s-13.6,333-17.3,435c-2.4,65.7-1.7,187.4-0.9,265.7"/>
	<path fill="none" stroke-width="40" stroke-linecap="round" stroke-linejoin="round" stroke-miterlimit="10" d="
		M2995,2260.7c0,0,48.5-45,99.2-63s121.6-28.5,152.1-28.5"/>
	<path fill="none" stroke-width="40" stroke-linecap="round" stroke-linejoin="round" stroke-miterlimit="10" d="
		M3246.4,2520.2h-59c0,0-96,4-133-16s-36-21-38-45s-15.4-195.1-15.4-195.1"/>
	<path fill="none" stroke-width="40" stroke-linecap="round" stroke-linejoin="round" stroke-miterlimit="10" d="
		M3246.4,2270.8"/>
	<path fill="none" stroke-width="30" stroke-linecap="round" stroke-linejoin="round" stroke-miterlimit="10" d="
		M3003.8,2344.2h35.7c0,0,16,0.9,17,29.9s5.2,133.3,5.2,133.3"/>
	<path fill="none" stroke-width="30" stroke-linecap="round" stroke-linejoin="round" stroke-miterlimit="10" d="
		M3159.4,2520.5c0,0-2-115.3-4-138.3s1-42,28-42s63,0,63,0"/>
	<path fill="none" stroke-width="40" stroke-linecap="round" stroke-linejoin="round" stroke-miterlimit="10" d="
		M3027,1130.4c0,0-24.5,13.1-20.5,39.1s18.5,26.7,18.5,26.7"/>
	<path fill="none" stroke-width="40" stroke-linecap="round" stroke-linejoin="round" stroke-miterlimit="10" d="
		M3016.5,1365c0,0-24.5,13.1-20.5,39.1s18.5,26.7,18.5,26.7"/>
	<path fill="none" stroke-width="40" stroke-linecap="round" stroke-linejoin="round" stroke-miterlimit="10" d="
		M3006,1608.7c0,0-24.5,13.1-20.5,39.1s18.5,26.7,18.5,26.7"/>
	<path fill="none" stroke-width="40" stroke-linecap="round" stroke-linejoin="round" stroke-miterlimit="10" d="
		M2995.5,1881c0,0-24.5,13.1-20.5,39.1s18.5,26.7,18.5,26.7"/>
	<path fill="none" stroke-width="40" stroke-linecap="round" stroke-linejoin="round" stroke-miterlimit="10" d="
		M2985,2149.1c0,0-24.5,13.1-20.5,39.1s18.5,26.7,18.5,26.7"/>
	<path fill="none" stroke-width="40" stroke-linecap="round" stroke-linejoin="round" stroke-miterlimit="10" d="
		M3246.4,617.2h48c0,0,46.7,23.7,98,23.7s88-20.7,88-20.7h44c0,0,39.3,6.7,55.3,21.3s27.6,42.6,27.6,77.3c0,34.7,0,205.5-22.5,240
		c-22.5,34.5-87,60-91.5,66s-31.5,60-28.5,87c3,27,9,367.5,12,399c3,31.5,15,270,16.5,316.5s3,183,3,219s-1.5,81-1.5,81l3,133.5
		c0,0-15.1,10.1-33.2,10.1s-218.2,0-218.2,0"/>
	<path fill="none" stroke-width="40" stroke-linecap="round" stroke-linejoin="round" stroke-miterlimit="10" d="
		M3480.4,620.2c0,0,0,122,0,160s-11,79-92,79s-81-53-81-77s0-159.3,0-159.3"/>
	
		<rect x="3348.1" y="676.5" fill="none" stroke-width="20" stroke-linecap="round" stroke-linejoin="round" stroke-miterlimit="10" width="95" height="65"/>
	
		<rect x="3363.1" y="741.5" fill="none" stroke-width="20" stroke-linecap="round" stroke-linejoin="round" stroke-miterlimit="10" width="62.4" height="75"/>
	<path fill="none" stroke-width="40" stroke-linecap="round" stroke-linejoin="round" stroke-miterlimit="10" d="
		M3396.9,2270.8"/>
	<path fill="none" stroke-width="40" stroke-linecap="round" stroke-linejoin="round" stroke-miterlimit="10" d="
		M3246.4,1209c0,0,67.2,18,85.2,51s36,156,48,237s13.6,333,17.3,435c2.4,65.7,1.7,187.4,0.9,265.7"/>
	<path fill="none" stroke-width="40" stroke-linecap="round" stroke-linejoin="round" stroke-miterlimit="10" d="
		M3497.8,2260.7c0,0-48.5-45-99.2-63s-121.6-28.5-152.1-28.5"/>
	<path fill="none" stroke-width="40" stroke-linecap="round" stroke-linejoin="round" stroke-miterlimit="10" d="
		M3246.4,2520.2h59c0,0,96,4,133-16s36-21,38-45s15.4-195.1,15.4-195.1"/>
	<path fill="none" stroke-width="40" stroke-linecap="round" stroke-linejoin="round" stroke-miterlimit="10" d="
		M3246.4,2270.8"/>
	<path fill="none" stroke-width="30" stroke-linecap="round" stroke-linejoin="round" stroke-miterlimit="10" d="
		M3489.1,2344.2h-35.7c0,0-16,0.9-17,29.9s-5.2,133.3-5.2,133.3"/>
	<path fill="none" stroke-width="30" stroke-linecap="round" stroke-linejoin="round" stroke-miterlimit="10" d="
		M3333.4,2520.5c0,0,2-115.3,4-138.3s-1-42-28-42s-63,0-63,0"/>
	<path fill="none" stroke-width="40" stroke-linecap="round" stroke-linejoin="round" stroke-miterlimit="10" d="
		M3465.9,1130.4c0,0,24.5,13.1,20.5,39.1s-18.5,26.7-18.5,26.7"/>
	<path fill="none" stroke-width="40" stroke-linecap="round" stroke-linejoin="round" stroke-miterlimit="10" d="
		M3476.4,1365c0,0,24.5,13.1,20.5,39.1s-18.5,26.7-18.5,26.7"/>
	<path fill="none" stroke-width="40" stroke-linecap="round" stroke-linejoin="round" stroke-miterlimit="10" d="
		M3486.9,1608.7c0,0,24.5,13.1,20.5,39.1s-18.5,26.7-18.5,26.7"/>
	<path fill="none" stroke-width="40" stroke-linecap="round" stroke-linejoin="round" stroke-miterlimit="10" d="
		M3497.4,1881c0,0,24.5,13.1,20.5,39.1s-18.5,26.7-18.5,26.7"/>
	<path fill="none" stroke-width="40" stroke-linecap="round" stroke-linejoin="round" stroke-miterlimit="10" d="
		M3507.8,2149.1c0,0,24.5,13.1,20.5,39.1s-18.5,26.7-18.5,26.7"/>
	<path fill="none" stroke-width="40" stroke-linecap="round" stroke-linejoin="round" stroke-miterlimit="10" d="
		M2999.5,1024.8c0,0,54.9,15.7,246.9,15.7s246.9-15.7,246.9-15.7"/>
	
		<line fill="none" stroke-width="40" stroke-linecap="round" stroke-linejoin="round" stroke-miterlimit="10" x1="3170.3" y1="1154.2" x2="3307.4" y2="1154.2"/>
	
		<line fill="none" stroke-width="40" stroke-linecap="round" stroke-linejoin="round" stroke-miterlimit="10" x1="3178.4" y1="1398" x2="3307.4" y2="1398"/>
	
		<line fill="none" stroke-width="48.5445" stroke-linecap="round" stroke-linejoin="round" stroke-miterlimit="10" x1="3147.9" y1="1914" x2="3337.9" y2="1914"/>
	
		<line fill="none" stroke-width="48.5445" stroke-linecap="round" stroke-linejoin="round" stroke-miterlimit="10" x1="3147.9" y1="2116.2" x2="3337.9" y2="2116.2"/>
	
		<line fill="none" stroke-width="48.0833" stroke-linecap="round" stroke-linejoin="round" stroke-miterlimit="10" x1="3154.9" y1="1641.6" x2="3337.9" y2="1641.6"/>
</g>
<g>
	<path fill="none" stroke-width="40" stroke-linecap="round" stroke-linejoin="round" stroke-miterlimit="10" d="
		M767,322c0,0-81,9-96,13s-31,41-32,80s-8,209,0,241s102,568,102,568s88,600,90,666s26,394,32,446s52,110,86,108s34-2,34-2l-40-580
		l-72-558L771,764L767,322z"/>
	<path fill="none" stroke-width="40" stroke-linecap="round" stroke-linejoin="round" stroke-miterlimit="10" d="
		M3027.7,1137.6c-13.7,8.4-24.7,18.4-38.7,26.4c-4,2-8,5-12,7c-2,2-4,4-7,6c-39,26-73,48-112,74c-31,22-58,40-90,61
		c-23,17-44,30-66,47c-4,3-9,4-13,7c-37,27-70,48-107,75c-2,1-3,1-5,2c-57,40-106,72-163,112c-12,8-23,14-35,22c-7,6-13,11-21,16
		c-7,4-13,8-20,12c-5,4-10,8-15,11c-9,5-16,10-24,15c-11,8-19,15-30,22c-14,8-26,16-40,25c-55,39-103,71-158,110c-2,1-3,1-5,2
		c-25,19-48,33-73,51c-9,5-16,11-25,16c-6,4-10,8-16,12c-2,1-3,1-5,2c-11,8-21,15-32,23c-2,1-3,1-5,2c-12,9-23,17-36,26
		c-13,8-24,16-37,25c-2,1-3,1-5,2c-140,97-259,177-399,271c-22,15-40,26-61,41c-14,11-20,26-28,40c-16,30-27,60-44,89c-1,1-2,2-3,3
		c-18,29-49,48-82,50c-77,3-155,1-232,1.1"/>
	<path fill="none" stroke-width="40" stroke-linecap="round" stroke-linejoin="round" stroke-miterlimit="10" d="
		M767,322c891,1,1780-2,2671,1c21,1,43,6,59,21c16,16,13,40,18,61c6,72,15,144,11.4,217.1"/>
	<path fill="none" stroke-width="40" stroke-linecap="round" stroke-linejoin="round" stroke-miterlimit="10" d="
		M2640.6,1075.6c-0.6-21.6,2.4-44.6,16.4-62.6c9-11,22-18,36-18c73-5,145-3,218-1c21,0,43,7,57,26c5,8,6,16,5,25c-1,8-5,15-11,19
		c-70,50-130,91-201,141c-13,9-24,16-37,25c-51,37-95,67-147,102c-36,24-65,45-100,70c-138,95-255,177-393,272
		c-100,70-184,129-285,197c-54,37-99,69-153,106c-7,5-13,10-20,15c-2,1-3,1-5,2c-18,14-35,24-53,38c-7,4-12,8-19,12
		c-33,22-61,44-95,65c-3,2-5,4-7,6c-46,32-88,60-140,76c-22,7-45,10-68,5c-33-5-63-12-93-28c-48-25-72-78-82-130
		c-16-162-38-322-49-485c-1-11-3-22-4-34c-16-118-36-227-57-345c-2-10-4-18-6-28c-10-57-20-110-31-167c-2-12-5-24-6-36
		c-1-8-4-15-5-22c-1-12,2-23,8-34c12-20,35-26,56-29c637,0,1273,0,1910.2-0.2"/>
	<path fill="none" stroke-width="30" stroke-linecap="round" stroke-linejoin="round" stroke-miterlimit="10" d="
		M1630.8,761.8c0,16.6-13.4,30-30,30h-390c-16.6,0-30-13.4-30-30v-3c0-16.6,13.4-30,30-30h390c16.6,0,30,13.4,30,30V761.8z"/>
	<path fill="none" stroke-width="30" stroke-linecap="round" stroke-linejoin="round" stroke-miterlimit="10" d="
		M2886.7,778.9c-1.8-16.8,0.8-33.4,1.2-50.1h-197.4c-16.6,0-30,13.4-30,30v3c0,16.6,13.4,30,30,30h197.8
		C2887.6,787.5,2887.1,783.1,2886.7,778.9z"/>
	<path fill="none" stroke-width="30" stroke-linecap="round" stroke-linejoin="round" stroke-miterlimit="10" d="
		M1132,1723.7c1.6,16.5-10.5,31.2-26.9,32.8l0,0c-16.5,1.6-31.2-10.5-32.8-26.9l-42.8-439c-1.6-16.5,10.5-31.2,26.9-32.8l0,0
		c16.5-1.6,31.2,10.5,32.8,26.9L1132,1723.7z"/>
	<path fill="none" stroke-width="30" stroke-linecap="round" stroke-linejoin="round" stroke-miterlimit="10" d="
		M1697.6,1874c-13.6,9.4-32.3,6-41.7-7.7l0,0c-9.4-13.6-6-32.3,7.7-41.7l363-250.5c13.6-9.4,32.3-6,41.7,7.7l0,0
		c9.4,13.6,6,32.3-7.7,41.7L1697.6,1874z"/>
	<path fill="none" stroke-width="40" stroke-linecap="round" stroke-linejoin="round" stroke-miterlimit="10" d="
		M1940,1003.6c0,0-614.9,0-679.4,0s-129,46.5-120,142.5s42,313,55.5,422.7s24,236.8,34.5,310.5s76.5,123.2,169.5,49.7
		s648-508.5,648-508.5s214.5-175.5,273-225s39-136.5,30-148.5"/>
	<path fill="none" stroke-width="30" stroke-linecap="round" stroke-linejoin="round" stroke-miterlimit="10" d="
		M1581,1196c0,0,12,57.3,20,61.7s7,0.3,49.5-9.7s506.5-158,506.5-158s162-20,168-20c8-40,82-70,152-86s114-30,114-30s24-142-366-68
		c-47.2,9-77.9,26-77.9,26L1897,1030l-52,68L1581,1196c0,0-4-6-14-36s28-46,52-56s210-100.4,210-100.4"/>
	
		<circle fill="none" stroke-width="30" stroke-linecap="round" stroke-linejoin="round" stroke-miterlimit="10" cx="2220.6" cy="982.6" r="48"/>
	<path fill="none" stroke-width="40" stroke-linecap="round" stroke-linejoin="round" stroke-miterlimit="10" d="
		M2501,982.6c0,0,0,109.4,0,142.4s15,61,47,61s51-27,51-59s0-173,0-173"/>
</g>
</svg>
