<?xml version="1.0" encoding="utf-8"?>
<!-- Generator: Adobe Illustrator 19.2.0, SVG Export Plug-In . SVG Version: 6.00 Build 0)  -->
<svg version="1.1" id="category-item_svg_patches" xmlns:x="&ns_extend;" xmlns:i="&ns_ai;" xmlns:graph="&ns_graphs;"
	 xmlns="http://www.w3.org/2000/svg" xmlns:xlink="http://www.w3.org/1999/xlink" x="0px" y="0px" viewBox="0 0 3976 2646"
	 enable-background="new 0 0 3976 2646" xml:space="preserve">
<metadata>
	<sfw  xmlns="&ns_sfw;">
		<slices></slices>
		<sliceSourceBounds  bottomLeftOrigin="true" height="1567.2" width="1191.3" x="254.2" y="-1455.4"></sliceSourceBounds>
	</sfw>
</metadata>
<g>
	<g>
		<path  d="M1656.1,1597.7h221.7h267.8l-122.4-211.9L1656.1,1597.7z M1842.9,1546.6l162.2-93.7l54.1,93.7H1842.9z"/>
		<path  d="M1957.9,1272.2l-80-138.8l-134,232.1v0.2l-111,192.1l367.3-212.1L1957.9,1272.2z M1769.6,1420.2l24.3-42
			v-0.2l83.9-145.4v0.2l11.8,20.5l13.4,23.2l13.5,23.4l15.5,26.7L1769.6,1420.2z"/>
		<path  d="M1877.8,940.5l-192.1,332.9l-13.4,23.2c-68.6,118.7-137,237.4-205.6,356.1l-23.3,40.4h46.5
			c258.6,0,517.3,0,775.9,0h46.5L1877.8,940.5z M2185.7,1643.9h-307.9h-307.9H1530l20-34.6l153.9-266.7l153.9-266.5l20-34.6l20,34.6
			l99.9,173l0.1-0.1v0.2l53.9,93.4l153.9,266.7l20,34.6H2185.7z"/>
	</g>
	<path fill="none" stroke-width="41" stroke-linecap="round" stroke-linejoin="round" stroke-miterlimit="10" d="
		M1877.8,765.6c-171.8,0-575.2-74-575.2-74s0,438.8,0,803.1c0,364.3,575.2,723.2,575.2,723.2S2453,1859,2453,1494.7
		c0-364.3,0-803.1,0-803.1S2049.6,765.6,1877.8,765.6z"/>
</g>
</svg>
