<?xml version="1.0" encoding="utf-8"?>
<!-- Generator: Adobe Illustrator 19.2.0, SVG Export Plug-In . SVG Version: 6.00 Build 0)  -->
<svg version="1.1" id="category-item_svg_pistols" xmlns:x="&ns_extend;" xmlns:i="&ns_ai;" xmlns:graph="&ns_graphs;"
	 xmlns="http://www.w3.org/2000/svg" xmlns:xlink="http://www.w3.org/1999/xlink" x="0px" y="0px" viewBox="0 0 3976 2646"
	 enable-background="new 0 0 3976 2646" xml:space="preserve">
<metadata>
	<sfw  xmlns="&ns_sfw;">
		<slices></slices>
		<sliceSourceBounds  bottomLeftOrigin="true" height="1224.1" width="1792.6" x="63.7" y="-1098.8"></sliceSourceBounds>
	</sfw>
</metadata>
<g>
	
		<path fill="none" stroke-width="23.6633" stroke-linecap="round" stroke-linejoin="round" stroke-miterlimit="10" d="
		M1119.1,734.1V873l452.3,12.2c0,0,154.1,0,175.4,0c21.3,0,32.5-9.1,155.2-9.1c0,11.2,0,11.2,0,11.2h478.7c0,0,294.1,0,316.4,0
		s15.2-25.4,15.2-40.6c0-15.2,0-104.5,0-121.7c0-17.2-20.3-23.3-49.7-23.3s-1491.7,0-1515,0S1119.1,716.8,1119.1,734.1z"/>
	
		<line fill="none" stroke-width="23.6633" stroke-linecap="round" stroke-linejoin="round" stroke-miterlimit="10" x1="1103.6" y1="737.7" x2="1103.6" y2="845"/>
	
		<path fill="none" stroke-width="23.6633" stroke-linecap="round" stroke-linejoin="round" stroke-miterlimit="10" d="
		M1121.4,873c0,0-2.3,53.3-2.3,89.8c0,36.5,19.8,48,68.5,48c48.7,0,384.7,16.2,457.7,16.2c73,0,73,66.3,73,78.4
		c0,12.2,0,40.6,0,62.2c0,21.6-23.7,85.2-20.3,94.7c3.4,9.5,8.1,12.2,81.1,12.2c0,0,209.6,13.5,255.6,13.5
		c46,0,82.5-37.9,112.2-35.2s51.4,40.6,59.5,62.2c8.1,21.6,17.6,44.6,10.8,108.2c21.6,20.3,47.3,36.5,59.5,67.6
		c12.2,31.1,6.8,50,0,75.7c37.9,31.1,61.5,60.2,64.2,72.3c2.7,12.2,20.3,64.2,16.9,83.2c-3.4,18.9-12.2,29.1,3.4,43.3
		c15.6,14.2-22.3,44.7,153.2,41.6c175.4-3,277.9-9.1,277.9-9.1s53.7-28.4,71.3-44.7c17.6-16.2,4.1-43.3,0-63.6
		c-4.1-20.3-5.4-78.4-52.7-155.5c-47.3-77.1-112.2-173.1-136.6-239.3c-24.3-66.3-55.4-142-60.8-182.5c-5.4-40.6-4.1-101.4,23-120.3
		c27-18.9,53.4-16.2,91.3-39.2c36.9-22.4-15.3-66.1-14.5-65.5"/>
	
		<path fill="none" stroke-width="10.1414" stroke-linecap="round" stroke-linejoin="round" stroke-miterlimit="10" d="
		M1807.7,1037.3c0,0-42.6,21.3-44.6,52.7c-2,31.4-5.1,86.2,5.1,104.5s22.3,49.7,64.9,49.7c42.6,0,150.1,0,202.8,0
		c52.7,0,75-36.5,81.1-54.8c6.1-18.3,11.2-63.9,0-85.2c-11.2-21.3-28.4-47.7-148.1-60.8C1849.2,1030.2,1841.1,1028.1,1807.7,1037.3z
		"/>
	
		<polyline fill="none" stroke-width="10.8175" stroke-linecap="round" stroke-linejoin="round" stroke-miterlimit="10" points="
		1151.1,697.1 1173.4,673.5 1189,673.5 1203.2,692.4 	"/>
	
		<path fill="none" stroke-width="10.8175" stroke-linecap="round" stroke-linejoin="round" stroke-miterlimit="10" d="
		M1113,887.2c0,0-9,15.5-9.5,22.7c-0.5,7.2,9.5,23,9.5,23"/>
	
		<polyline fill="none" stroke-width="10.8175" stroke-linecap="round" stroke-linejoin="round" stroke-miterlimit="10" points="
		2589.5,693.5 2603.7,663.1 2628.1,663.1 2640.2,693.5 	"/>
	
		<polyline fill="none" stroke-width="10.8175" stroke-linecap="round" stroke-linejoin="round" stroke-miterlimit="10" points="
		2341.7,882.4 2341.7,725.1 2368.3,725.1 2368.3,882.4 	"/>
	
		<polyline fill="none" stroke-width="10.8175" stroke-linecap="round" stroke-linejoin="round" stroke-miterlimit="10" points="
		2385.9,882.4 2385.9,725.1 2412.5,725.1 2412.5,882.4 	"/>
	
		<polyline fill="none" stroke-width="10.8175" stroke-linecap="round" stroke-linejoin="round" stroke-miterlimit="10" points="
		2430.1,882.4 2430.1,725.1 2456.7,725.1 2456.7,882.4 	"/>
	
		<polyline fill="none" stroke-width="10.8175" stroke-linecap="round" stroke-linejoin="round" stroke-miterlimit="10" points="
		2474.2,882.4 2474.2,725.1 2500.8,725.1 2500.8,882.4 	"/>
	
		<polyline fill="none" stroke-width="10.8175" stroke-linecap="round" stroke-linejoin="round" stroke-miterlimit="10" points="
		2518.4,882.4 2518.4,725.1 2545,725.1 2545,882.4 	"/>
	
		<polyline fill="none" stroke-width="10.8175" stroke-linecap="round" stroke-linejoin="round" stroke-miterlimit="10" points="
		2562.6,882.4 2562.6,725.1 2589.2,725.1 2589.2,882.4 	"/>
	
		<polyline fill="none" stroke-width="10.8175" stroke-linecap="round" stroke-linejoin="round" stroke-miterlimit="10" points="
		2606.7,882.4 2606.7,725.1 2633.3,725.1 2633.3,882.4 	"/>
	
		<polyline fill="none" stroke-width="10.8175" stroke-linecap="round" stroke-linejoin="round" stroke-miterlimit="10" points="
		1127.2,910 1560.2,921.7 1560.2,955.1 1127.2,948 1119.4,969.6 1560.2,985.5 1560.2,1024.9 	"/>
	
		<polyline fill="none" stroke-width="10.8175" stroke-linecap="round" stroke-linejoin="round" stroke-miterlimit="10" points="
		1596.7,1011.9 1602.8,985.5 1602.8,887.2 	"/>
	
		<path fill="none" stroke-width="10.8175" stroke-linecap="round" stroke-linejoin="round" stroke-miterlimit="10" d="
		M1602.8,981.5c0,0,186.6,0,195.7,0"/>
	
		<path fill="none" stroke-width="10.8175" stroke-linecap="round" stroke-linejoin="round" stroke-miterlimit="10" d="
		M1837.1,897.3c-23.3-0.4-55.8,4.1-54.8,12.7c1,8.6,17.2,65.4,22.3,71.5c5.1,6.1,26.4,16.2,57.8,21.3c31.4,5.1,62.9,5.1,63.9-5.1
		c1-10.1-13.2-55.8-19.3-66.9C1901,919.6,1892.9,898.3,1837.1,897.3z"/>
	
		<polygon fill="none" stroke-width="10.8175" stroke-linecap="round" stroke-linejoin="round" stroke-miterlimit="10" points="
		1831.9,925.6 1857.2,994.6 1875.7,986.5 1853.8,916.2 	"/>
	
		<line fill="none" stroke-width="10.8175" stroke-linecap="round" stroke-linejoin="round" stroke-miterlimit="10" x1="1844" y1="958.5" x2="1864.8" y2="951.7"/>
	
		<circle fill="none" stroke-width="10.8175" stroke-linecap="round" stroke-linejoin="round" stroke-miterlimit="10" cx="2001.6" cy="982.4" r="18.3"/>
	
		<circle fill="none" stroke-width="10.8175" stroke-linecap="round" stroke-linejoin="round" stroke-miterlimit="10" cx="2026.8" cy="1079.7" r="7.4"/>
	
		<circle fill="none" stroke-width="10.8175" stroke-linecap="round" stroke-linejoin="round" stroke-miterlimit="10" cx="2018.2" cy="921.2" r="12.5"/>
	
		<circle fill="none" stroke-width="10.8175" stroke-linecap="round" stroke-linejoin="round" stroke-miterlimit="10" cx="2556.6" cy="1126.1" r="12.5"/>
	
		<path fill="none" stroke-width="10.8175" stroke-linecap="round" stroke-linejoin="round" stroke-miterlimit="10" d="
		M2197.1,892.3c0,0,0,26.2,5.1,41.5c5.1,15.3,8.1,20.6,39.5,18c31.4-2.7,53.7-10.8,51.7-25c-2-14.2-8.1-34.5-8.1-34.5"/>
	
		<path fill="none" stroke-width="10.8175" stroke-linecap="round" stroke-linejoin="round" stroke-miterlimit="10" d="
		M1983.4,1045.1c0,0,22,54.1,12.4,88.5s-47.7,88.1-53.5,90.2c-5.8,2.1,20.5,5,32.7,0c12.2-5,73-62.4,75-88
		c44.6-21.5,64.2-37,62-40.2"/>
	
		<path fill="none" stroke-width="10.8175" stroke-linecap="round" stroke-linejoin="round" stroke-miterlimit="10" d="
		M1998,1120.5c0,0-30,38.7-38.2,47.8c-8.2,9.1-50.4,23.7-47.6,29.3c2.8,5.6,47,6,47,6"/>
	
		<path fill="none" stroke-width="10.8175" stroke-linecap="round" stroke-linejoin="round" stroke-miterlimit="10" d="
		M2048.3,1142.9c0,0,56.3-4.9,57.2-10.8c0.9-5.9-7.8-22.7-7.8-22.7"/>
	
		<path fill="none" stroke-width="10.8175" stroke-linecap="round" stroke-linejoin="round" stroke-miterlimit="10" d="
		M2220.9,1426.6c0,0,71.5-18.1,71.5-22.2"/>
	
		<path fill="none" stroke-width="10.8175" stroke-linecap="round" stroke-linejoin="round" stroke-miterlimit="10" d="
		M2283.8,1572.4c0,0,69.4-9.9,74.5-19"/>
	
		<polyline fill="none" stroke-width="10.8175" stroke-linecap="round" stroke-linejoin="round" stroke-miterlimit="10" points="
		2215.3,1317.2 2243.7,1312.1 2266,1365.8 2225.5,1382.1 	"/>
	
		<path fill="none" stroke-width="10.8175" stroke-linecap="round" stroke-linejoin="round" stroke-miterlimit="10" d="
		M2220.9,1340.1c0.5,1.4,31.4-7.3,31.4-7.3"/>
	
		<line fill="none" stroke-width="10.8175" stroke-linecap="round" stroke-linejoin="round" stroke-miterlimit="10" x1="2220.9" y1="1361.8" x2="2256.7" y2="1347.1"/>
	
		<polyline fill="none" stroke-width="10.8175" stroke-linecap="round" stroke-linejoin="round" stroke-miterlimit="10" points="
		2276.2,1468.9 2304.6,1463.8 2326.9,1517.5 2286.3,1533.8 	"/>
	
		<path fill="none" stroke-width="10.8175" stroke-linecap="round" stroke-linejoin="round" stroke-miterlimit="10" d="
		M2281.7,1491.8c0.5,1.4,31.4-7.3,31.4-7.3"/>
	
		<line fill="none" stroke-width="10.8175" stroke-linecap="round" stroke-linejoin="round" stroke-miterlimit="10" x1="2281.7" y1="1513.5" x2="2317.5" y2="1498.8"/>
	
		<polyline fill="none" stroke-width="10.8175" stroke-linecap="round" stroke-linejoin="round" stroke-miterlimit="10" points="
		2342.9,1625.5 2371.3,1620.5 2393.6,1674.2 2353,1690.4 	"/>
	
		<path fill="none" stroke-width="10.8175" stroke-linecap="round" stroke-linejoin="round" stroke-miterlimit="10" d="
		M2348.5,1648.5c0.5,1.4,31.4-7.3,31.4-7.3"/>
	
		<line fill="none" stroke-width="10.8175" stroke-linecap="round" stroke-linejoin="round" stroke-miterlimit="10" x1="2348.5" y1="1670.2" x2="2384.2" y2="1655.4"/>
	
		<polygon fill="none" stroke-width="10.8175" stroke-linecap="round" stroke-linejoin="round" stroke-miterlimit="10" points="
		2166.7,1173.2 2197.1,1244.1 2238.8,1223.8 2220.9,1162 	"/>
	
		<path fill="none" stroke-width="10.8175" stroke-linecap="round" stroke-linejoin="round" stroke-miterlimit="10" d="
		M2397.8,1195.4c-37.9,1.2-86.9-1.4-98.2-3.4c-11.3-2-37.6-10.1-23.4,31.8c14.2,41.9,183.2,456.4,183.2,456.4s98.7,3.4,150.8,4.1
		c52.1,0.7,119.7-1.4,136.6-6.8s10.8-17.1,6.1-28.8c-4.7-11.7-103.4-190.9-119.7-216.6c-16.2-25.7-67.6-137.9-73.7-156.2
		s-21.6-73.6-27-85.8c-5.4-12.2-7.4-29.8-43.3-17.6C2453.3,1184.6,2414.8,1194.8,2397.8,1195.4z"/>
	
		<path fill="none" stroke-width="10.8175" stroke-linecap="round" stroke-linejoin="round" stroke-miterlimit="10" d="
		M2656.8,1597c0,11.2-9.1,20.3-20.3,20.3h-66.9c-11.2,0-20.3-9.1-20.3-20.3v-49.4c0-11.2,9.1-20.3,20.3-20.3h66.9
		c11.2,0,20.3,9.1,20.3,20.3V1597z"/>
	
		<path fill="none" stroke-width="10.8175" stroke-linecap="round" stroke-linejoin="round" stroke-miterlimit="10" d="
		M2272.1,1135.8c0,0,53.8,12.3,102.5,7.1c48.7-5.2,84.2-22.4,84.2-22.4"/>
	
		<path fill="none" stroke-width="10.8175" stroke-linecap="round" stroke-linejoin="round" stroke-miterlimit="10" d="
		M2628,1168.3l-38.9,14.2c0,0,36.5,126.2,60.8,164.5c24.3,38.3,135.2,220.9,143.3,254.7c8.1,33.8,20.3,82.6,20.3,82.6
		s31.1-2.6,41.9-14.2"/>
	
		<path fill="none" stroke-width="10.8175" stroke-linecap="round" stroke-linejoin="round" stroke-miterlimit="10" d="
		M2631.1,1307.4c0,0,45.6,3.4,52.7,0"/>
	
		<path fill="none" stroke-width="10.8175" stroke-linecap="round" stroke-linejoin="round" stroke-miterlimit="10" d="
		M2642.2,1332.8c0,0,51.8,5.5,55.8,0"/>
	
		<path fill="none" stroke-width="10.8175" stroke-linecap="round" stroke-linejoin="round" stroke-miterlimit="10" d="
		M2656.8,1357.8c0,0,40.1-0.6,45.2-3.4"/>
	
		<path fill="none" stroke-width="10.8175" stroke-linecap="round" stroke-linejoin="round" stroke-miterlimit="10" d="
		M2671.7,1382.1c0,0,34.4,0.2,42.5-5.5"/>
	
		<path fill="none" stroke-width="10.8175" stroke-linecap="round" stroke-linejoin="round" stroke-miterlimit="10" d="
		M2683.8,1402.9c0,0,34.4,0.2,42.5-5.5"/>
	
		<path fill="none" stroke-width="10.8175" stroke-linecap="round" stroke-linejoin="round" stroke-miterlimit="10" d="
		M2696.7,1423.7c0,0,34.4,0.2,42.5-5.5"/>
	
		<path fill="none" stroke-width="10.8175" stroke-linecap="round" stroke-linejoin="round" stroke-miterlimit="10" d="
		M2708.9,1444.5c0,0,34.4,0.2,42.5-5.5"/>
	
		<path fill="none" stroke-width="10.8175" stroke-linecap="round" stroke-linejoin="round" stroke-miterlimit="10" d="
		M2722.4,1460.7c0,0,34.4,0.2,42.5-5.5"/>
	
		<path fill="none" stroke-width="10.8175" stroke-linecap="round" stroke-linejoin="round" stroke-miterlimit="10" d="
		M2733,1482.3c0,0,34.4,0.2,42.6-5.5"/>
	
		<path fill="none" stroke-width="10.8175" stroke-linecap="round" stroke-linejoin="round" stroke-miterlimit="10" d="
		M2746.1,1504.4c0,0,34.4,0.2,42.5-5.5"/>
	
		<path fill="none" stroke-width="10.8175" stroke-linecap="round" stroke-linejoin="round" stroke-miterlimit="10" d="
		M2757.8,1527.4c0,0,34.4,0.2,42.6-5.5"/>
	
		<path fill="none" stroke-width="10.8175" stroke-linecap="round" stroke-linejoin="round" stroke-miterlimit="10" d="
		M2769.7,1547.7c0,0,34.4,0.2,42.5-5.5"/>
	
		<path fill="none" stroke-width="10.8175" stroke-linecap="round" stroke-linejoin="round" stroke-miterlimit="10" d="
		M2781.8,1568.8c0,0,34.4,0.2,42.5-5.5"/>
	
		<path fill="none" stroke-width="10.8175" stroke-linecap="round" stroke-linejoin="round" stroke-miterlimit="10" d="
		M2790.9,1591.3c0,0,34.4,0.2,42.6-5.5"/>
	
		<path fill="none" stroke-width="10.8175" stroke-linecap="round" stroke-linejoin="round" stroke-miterlimit="10" d="
		M2798.2,1613.5c0,0,34.4,0.2,42.5-5.5"/>
	
		<path fill="none" stroke-width="10.8175" stroke-linecap="round" stroke-linejoin="round" stroke-miterlimit="10" d="
		M2803.1,1633.6c0,0,34.4,0.2,42.5-5.5"/>
	
		<path fill="none" stroke-width="10.8175" stroke-linecap="round" stroke-linejoin="round" stroke-miterlimit="10" d="
		M2808.5,1655.2c0,0,34.4,0.2,42.5-5.5"/>
	
		<path fill="none" stroke-width="23.6633" stroke-linecap="round" stroke-linejoin="round" stroke-miterlimit="10" d="
		M2414.7,1807.2c0,0,0,34.3,0,41.1c0,6.8-1.4,21.6,42.8,21.6c44.2,0,284.4,0,295.2,0s6.1-18,5.1-24.8c-1-6.8-27.4-38-27.4-38"/>
</g>
</svg>
