<?xml version="1.0" encoding="utf-8"?>
<!-- Generator: Adobe Illustrator 19.2.0, SVG Export Plug-In . SVG Version: 6.00 Build 0)  -->
<svg version="1.1" id="category-item_svg_radios" xmlns:x="&ns_extend;" xmlns:i="&ns_ai;" xmlns:graph="&ns_graphs;"
	 xmlns="http://www.w3.org/2000/svg" xmlns:xlink="http://www.w3.org/1999/xlink" x="0px" y="0px" viewBox="0 0 3976 2646"
	 enable-background="new 0 0 3976 2646" xml:space="preserve">
<metadata>
	<sfw  xmlns="&ns_sfw;">
		<slices></slices>
		<sliceSourceBounds  bottomLeftOrigin="true" height="2494.1" width="2118.1" x="-14.1" y="-1785.8"></sliceSourceBounds>
	</sfw>
</metadata>
<g>
	<g>
		<path fill="none" stroke-width="18" stroke-linecap="round" stroke-linejoin="round" stroke-miterlimit="10" d="
			M1273,83.7c-32.3-0.5-38.4,26.4-38.6,40.4c-0.2,14,1.5,972.1,1.5,972.1l111.7-2.3c0,0-35.2-930.5-34.7-965
			C1313.3,100.6,1305.3,84.2,1273,83.7z"/>
		
			<line fill="none" stroke-width="18" stroke-linecap="round" stroke-linejoin="round" stroke-miterlimit="10" x1="1234.4" y1="167.8" x2="1313.9" y2="169"/>
		
			<line fill="none" stroke-width="18" stroke-linecap="round" stroke-linejoin="round" stroke-miterlimit="10" x1="1228.8" y1="1120.1" x2="1354.2" y2="1118"/>
		
			<line fill="none" stroke-width="18" stroke-linecap="round" stroke-linejoin="round" stroke-miterlimit="10" x1="1229.8" y1="1145.9" x2="1355.2" y2="1143.8"/>
		
			<line fill="none" stroke-width="18" stroke-linecap="round" stroke-linejoin="round" stroke-miterlimit="10" x1="1229.4" y1="1173" x2="1354.7" y2="1170.9"/>
		
			<line fill="none" stroke-width="18" stroke-linecap="round" stroke-linejoin="round" stroke-miterlimit="10" x1="1240.5" y1="1096.3" x2="1242.5" y2="1188.4"/>
		
			<line fill="none" stroke-width="18" stroke-linecap="round" stroke-linejoin="round" stroke-miterlimit="10" x1="1342.6" y1="1094" x2="1346.1" y2="1189.9"/>
		<path fill="none" stroke-width="18" stroke-linecap="round" stroke-linejoin="round" stroke-miterlimit="10" d="
			M1227.7,1193.5l0.2,76.7c0,0,45.3,4.7,62.6,4.3c17.3-0.4,70.1-6.9,70.1-6.9l1.2-77.3c0,0-48.7,1.7-70,2.1
			C1270.7,1192.6,1227.7,1193.5,1227.7,1193.5z"/>
		<path fill="none" stroke-width="18" stroke-linecap="round" stroke-linejoin="round" stroke-miterlimit="10" d="
			M1300.1,1318.2c0,0-47-0.7-63-1c-16-0.2-50.8,20.2-51.3,49.7s6.2,148.6,5.9,168.6c-0.3,20,21.6,29.3,31.6,29.5
			c10,0.2,14.7,0.2,14.7,0.2l1.1,23c0,0-25.2-1.4-25.6,25.6c-0.4,27-0.7,45-0.7,45s-5.1,25.3,31.9,25.8c37,0.6,72,1.1,72,1.1
			s23.3,0.4,23.8-28.6c0.4-29,0.7-45,0.7-45s-5.9-26.3-25.8-26.6c0.2-13.8-0.9-18.8-0.9-18.8s248.7,0.5,311.3,1.4
			c62.7,1,54.2-54.2,54.5-74.2c0.3-20-1.3-97-0.8-126c0.4-29-21.4-56.3-76.4-57.2L1300.1,1318.2z"/>
		<path fill="none" stroke-width="18" stroke-linecap="round" stroke-linejoin="round" stroke-miterlimit="10" d="
			M1226.6,1268.1c0,0-15.5,28-16,43.8c-0.5,15.8-0.5,15.8-0.5,15.8"/>
		<path fill="none" stroke-width="18" stroke-linecap="round" stroke-linejoin="round" stroke-miterlimit="10" d="
			M1360.6,1267.5c0,0,14.8,26.3,14.5,48.9"/>
		<path fill="none" stroke-width="18" stroke-linecap="round" stroke-linejoin="round" stroke-miterlimit="10" d="
			M1389.2,1316.1c0,0-6.8-34.2,9.2-34c16,0.2,87.4-1.6,87.4-1.6s10.6,7,9.5,33"/>
		<path fill="none" stroke-width="18" stroke-linecap="round" stroke-linejoin="round" stroke-miterlimit="10" d="
			M1414.4,1279.4c0,0,13.1-28.9,25.1-28.7c12,0.2,27.5,30.2,27.5,30.2"/>
		<path fill="none" stroke-width="18" stroke-linecap="round" stroke-linejoin="round" stroke-miterlimit="10" d="
			M1507.1,1238.4l0.5-34c0,0,13.8-33.8,33.2-33.5c19.3,0.3,98.3-0.2,98.3-0.2s27.4,20.1,27.2,33.8c-0.2,13.7,0.5,33,0.5,33
			L1507.1,1238.4z"/>
		
			<line fill="none" stroke-width="18" stroke-linecap="round" stroke-linejoin="round" stroke-miterlimit="10" x1="1526.4" y1="1238.7" x2="1526" y2="1266.9"/>
		
			<line fill="none" stroke-width="18" stroke-linecap="round" stroke-linejoin="round" stroke-miterlimit="10" x1="1649.7" y1="1237.6" x2="1649.3" y2="1268.8"/>
		
			<polyline fill="none" stroke-width="18" stroke-linecap="round" stroke-linejoin="round" stroke-miterlimit="10" points="
			1505.9,1313.2 1509.8,1275.1 1547.9,1270.4 1628.6,1268.5 1666.2,1274.8 1672.7,1341.2 		"/>
		
			<polygon fill="none" stroke-width="12.9409" stroke-linecap="round" stroke-linejoin="round" stroke-miterlimit="10" points="
			1251.3,1373.5 1617.4,1369.1 1618.3,1507.1 1252.2,1510.5 		"/>
		
			<path fill="none" stroke-width="12.9409" stroke-linecap="round" stroke-linejoin="round" stroke-miterlimit="10" d="
			M1317.5,1645.5c-0.1,7.7-6.5,13.9-14.2,13.8l-50.7-0.8c-7.7-0.1-13.9-6.5-13.8-14.2l0.3-22c0.1-7.7,6.5-13.9,14.2-13.8l50.7,0.8
			c7.7,0.1,13.9,6.5,13.8,14.2L1317.5,1645.5z"/>
		
			<path fill="none" stroke-width="12.9409" stroke-linecap="round" stroke-linejoin="round" stroke-miterlimit="10" d="
			M1319,1887.9c0,2.4-1.9,4.3-4.3,4.3h-55.4c-2.4,0-4.3-1.9-4.3-4.3v-32c0-2.4,1.9-4.3,4.3-4.3h55.4c2.4,0,4.3,1.9,4.3,4.3V1887.9z"
			/>
		
			<path fill="none" stroke-width="12.9409" stroke-linecap="round" stroke-linejoin="round" stroke-miterlimit="10" d="
			M1310.3,1981.1c0,2.4-1.9,4.3-4.3,4.3h-66c-2.4,0-4.3-1.9-4.3-4.3v-32c0-2.4,1.9-4.3,4.3-4.3h66c2.4,0,4.3,1.9,4.3,4.3V1981.1z"/>
		
			<path fill="none" stroke-width="12.9409" stroke-linecap="round" stroke-linejoin="round" stroke-miterlimit="10" d="
			M1417.3,1981.1c0,2.4-1.9,4.3-4.3,4.3h-66c-2.4,0-4.3-1.9-4.3-4.3v-32c0-2.4,1.9-4.3,4.3-4.3h66c2.4,0,4.3,1.9,4.3,4.3V1981.1z"/>
		
			<path fill="none" stroke-width="12.9409" stroke-linecap="round" stroke-linejoin="round" stroke-miterlimit="10" d="
			M1524.3,1981.1c0,2.4-1.9,4.3-4.3,4.3h-66c-2.4,0-4.3-1.9-4.3-4.3v-32c0-2.4,1.9-4.3,4.3-4.3h66c2.4,0,4.3,1.9,4.3,4.3V1981.1z"/>
		
			<path fill="none" stroke-width="12.9409" stroke-linecap="round" stroke-linejoin="round" stroke-miterlimit="10" d="
			M1631.3,1981.1c0,2.4-1.9,4.3-4.3,4.3h-66c-2.4,0-4.3-1.9-4.3-4.3v-32c0-2.4,1.9-4.3,4.3-4.3h66c2.4,0,4.3,1.9,4.3,4.3V1981.1z"/>
		
			<path fill="none" stroke-width="12.9409" stroke-linecap="round" stroke-linejoin="round" stroke-miterlimit="10" d="
			M1648.3,1887.9c0,2.4-1.9,4.3-4.3,4.3h-66c-2.4,0-4.3-1.9-4.3-4.3v-32c0-2.4,1.9-4.3,4.3-4.3h66c2.4,0,4.3,1.9,4.3,4.3V1887.9z"/>
		
			<path fill="none" stroke-width="12.9409" stroke-linecap="round" stroke-linejoin="round" stroke-miterlimit="10" d="
			M1310.3,2048.1c0,2.4-1.9,4.3-4.3,4.3h-66c-2.4,0-4.3-1.9-4.3-4.3v-32c0-2.4,1.9-4.3,4.3-4.3h66c2.4,0,4.3,1.9,4.3,4.3V2048.1z"/>
		
			<path fill="none" stroke-width="12.9409" stroke-linecap="round" stroke-linejoin="round" stroke-miterlimit="10" d="
			M1417.3,2048.1c0,2.4-1.9,4.3-4.3,4.3h-66c-2.4,0-4.3-1.9-4.3-4.3v-32c0-2.4,1.9-4.3,4.3-4.3h66c2.4,0,4.3,1.9,4.3,4.3V2048.1z"/>
		
			<path fill="none" stroke-width="12.9409" stroke-linecap="round" stroke-linejoin="round" stroke-miterlimit="10" d="
			M1524.3,2048.1c0,2.4-1.9,4.3-4.3,4.3h-66c-2.4,0-4.3-1.9-4.3-4.3v-32c0-2.4,1.9-4.3,4.3-4.3h66c2.4,0,4.3,1.9,4.3,4.3V2048.1z"/>
		
			<path fill="none" stroke-width="12.9409" stroke-linecap="round" stroke-linejoin="round" stroke-miterlimit="10" d="
			M1631.3,2048.1c0,2.4-1.9,4.3-4.3,4.3h-66c-2.4,0-4.3-1.9-4.3-4.3v-32c0-2.4,1.9-4.3,4.3-4.3h66c2.4,0,4.3,1.9,4.3,4.3V2048.1z"/>
		
			<path fill="none" stroke-width="12.9409" stroke-linecap="round" stroke-linejoin="round" stroke-miterlimit="10" d="
			M1310.3,2116.1c0,2.4-1.9,4.3-4.3,4.3h-66c-2.4,0-4.3-1.9-4.3-4.3v-32c0-2.4,1.9-4.3,4.3-4.3h66c2.4,0,4.3,1.9,4.3,4.3V2116.1z"/>
		
			<path fill="none" stroke-width="12.9409" stroke-linecap="round" stroke-linejoin="round" stroke-miterlimit="10" d="
			M1417.3,2116.1c0,2.4-1.9,4.3-4.3,4.3h-66c-2.4,0-4.3-1.9-4.3-4.3v-32c0-2.4,1.9-4.3,4.3-4.3h66c2.4,0,4.3,1.9,4.3,4.3V2116.1z"/>
		
			<path fill="none" stroke-width="12.9409" stroke-linecap="round" stroke-linejoin="round" stroke-miterlimit="10" d="
			M1524.3,2116.1c0,2.4-1.9,4.3-4.3,4.3h-66c-2.4,0-4.3-1.9-4.3-4.3v-32c0-2.4,1.9-4.3,4.3-4.3h66c2.4,0,4.3,1.9,4.3,4.3V2116.1z"/>
		
			<path fill="none" stroke-width="12.9409" stroke-linecap="round" stroke-linejoin="round" stroke-miterlimit="10" d="
			M1631.3,2116.1c0,2.4-1.9,4.3-4.3,4.3h-66c-2.4,0-4.3-1.9-4.3-4.3v-32c0-2.4,1.9-4.3,4.3-4.3h66c2.4,0,4.3,1.9,4.3,4.3V2116.1z"/>
		
			<path fill="none" stroke-width="12.9409" stroke-linecap="round" stroke-linejoin="round" stroke-miterlimit="10" d="
			M1310.3,2184.1c0,2.4-1.9,4.3-4.3,4.3h-66c-2.4,0-4.3-1.9-4.3-4.3v-32c0-2.4,1.9-4.3,4.3-4.3h66c2.4,0,4.3,1.9,4.3,4.3V2184.1z"/>
		
			<path fill="none" stroke-width="12.9409" stroke-linecap="round" stroke-linejoin="round" stroke-miterlimit="10" d="
			M1417.3,2184.1c0,2.4-1.9,4.3-4.3,4.3h-66c-2.4,0-4.3-1.9-4.3-4.3v-32c0-2.4,1.9-4.3,4.3-4.3h66c2.4,0,4.3,1.9,4.3,4.3V2184.1z"/>
		
			<path fill="none" stroke-width="12.9409" stroke-linecap="round" stroke-linejoin="round" stroke-miterlimit="10" d="
			M1524.3,2184.1c0,2.4-1.9,4.3-4.3,4.3h-66c-2.4,0-4.3-1.9-4.3-4.3v-32c0-2.4,1.9-4.3,4.3-4.3h66c2.4,0,4.3,1.9,4.3,4.3V2184.1z"/>
		
			<path fill="none" stroke-width="12.9409" stroke-linecap="round" stroke-linejoin="round" stroke-miterlimit="10" d="
			M1631.3,2184.1c0,2.4-1.9,4.3-4.3,4.3h-66c-2.4,0-4.3-1.9-4.3-4.3v-32c0-2.4,1.9-4.3,4.3-4.3h66c2.4,0,4.3,1.9,4.3,4.3V2184.1z"/>
		<path fill="none" stroke-width="18" stroke-linecap="round" stroke-linejoin="round" stroke-miterlimit="10" d="
			M1196.8,1551l1.3,341.2c0,0-32.5-6.7-32.5,0s0,264.7,0,323.2c0,58.5,79.3,57,121.4,57c42.1,0,230.9,0,324,0
			c93.1,0,96.1-55.6,96.1-84s0-328.4,0-328.4l-27-16.5l0.3-307.6"/>
		
			<polyline fill="none" stroke-width="18" stroke-linecap="round" stroke-linejoin="round" stroke-miterlimit="10" points="
			1680.7,1517.1 1720.8,1545.3 1719.6,1780.5 1707.1,1813.5 1679.2,1813.5 		"/>
		
			<polyline fill="none" stroke-width="18" stroke-linecap="round" stroke-linejoin="round" stroke-miterlimit="10" points="
			1188,1436 1170.6,1439.3 1161.7,1453.8 1160.9,1506.5 1170,1524 1173.3,1544 1141.9,1572.2 1133.7,1732.4 1160.3,1757.1 
			1194.1,1755 		"/>
		
			<polyline fill="none" stroke-width="18" stroke-linecap="round" stroke-linejoin="round" stroke-miterlimit="10" points="
			1163.9,1757.1 1165.6,1779.7 1139.7,1796.4 1139.7,1836.4 1169,1861.7 1194.1,1865.1 		"/>
		
			<line fill="none" stroke-width="18" stroke-linecap="round" stroke-linejoin="round" stroke-miterlimit="10" x1="1166.9" y1="1780.4" x2="1192" y2="1780.4"/>
		
			<line fill="none" stroke-width="18" stroke-linecap="round" stroke-linejoin="round" stroke-miterlimit="10" x1="1238.1" y1="1565.3" x2="1314.7" y2="1566.8"/>
		
			<polyline fill="none" stroke-width="18" stroke-linecap="round" stroke-linejoin="round" stroke-miterlimit="10" points="
			1161.7,1453.8 1140.9,1467.3 1140.3,1501.3 1160.9,1506.5 		"/>
		
			<path fill="none" stroke-width="12.9409" stroke-linecap="round" stroke-linejoin="round" stroke-miterlimit="10" d="
			M1203.1,1914c0,0,0,282,0,295.5c15.8,15.8,103.2,19.5,103.2,19.5l4,26.8h14.7l17.7-51.3h191.7l17.3,44.7l16.7,2.7l5.3-28.7
			c0,0,61.3-4.7,78.7-4.7s14-19.3,14-30s0.3-274.4,0.3-274.4"/>
		
			<line fill="none" stroke-width="12.9409" stroke-linecap="round" stroke-linejoin="round" stroke-miterlimit="10" x1="1375" y1="1613.7" x2="1392" y2="1613.7"/>
		
			<line fill="none" stroke-width="12.9409" stroke-linecap="round" stroke-linejoin="round" stroke-miterlimit="10" x1="1419.3" y1="1613.7" x2="1436.3" y2="1613.7"/>
		
			<line fill="none" stroke-width="12.9409" stroke-linecap="round" stroke-linejoin="round" stroke-miterlimit="10" x1="1463.7" y1="1613.7" x2="1480.7" y2="1613.7"/>
		
			<line fill="none" stroke-width="12.9409" stroke-linecap="round" stroke-linejoin="round" stroke-miterlimit="10" x1="1508" y1="1613.7" x2="1525" y2="1613.7"/>
		
			<line fill="none" stroke-width="12.9409" stroke-linecap="round" stroke-linejoin="round" stroke-miterlimit="10" x1="1552.3" y1="1613.7" x2="1569.3" y2="1613.7"/>
		
			<line fill="none" stroke-width="12.9409" stroke-linecap="round" stroke-linejoin="round" stroke-miterlimit="10" x1="1596.7" y1="1613.7" x2="1613.7" y2="1613.7"/>
		
			<line fill="none" stroke-width="12.9409" stroke-linecap="round" stroke-linejoin="round" stroke-miterlimit="10" x1="1351.8" y1="1639" x2="1368.8" y2="1639"/>
		
			<line fill="none" stroke-width="12.9409" stroke-linecap="round" stroke-linejoin="round" stroke-miterlimit="10" x1="1396.2" y1="1639" x2="1413.2" y2="1639"/>
		
			<line fill="none" stroke-width="12.9409" stroke-linecap="round" stroke-linejoin="round" stroke-miterlimit="10" x1="1440.5" y1="1639" x2="1457.5" y2="1639"/>
		
			<line fill="none" stroke-width="12.9409" stroke-linecap="round" stroke-linejoin="round" stroke-miterlimit="10" x1="1484.8" y1="1639" x2="1501.8" y2="1639"/>
		
			<line fill="none" stroke-width="12.9409" stroke-linecap="round" stroke-linejoin="round" stroke-miterlimit="10" x1="1529.2" y1="1639" x2="1546.2" y2="1639"/>
		
			<line fill="none" stroke-width="12.9409" stroke-linecap="round" stroke-linejoin="round" stroke-miterlimit="10" x1="1573.5" y1="1639" x2="1590.5" y2="1639"/>
		
			<line fill="none" stroke-width="12.9409" stroke-linecap="round" stroke-linejoin="round" stroke-miterlimit="10" x1="1375" y1="1665.3" x2="1392" y2="1665.3"/>
		
			<line fill="none" stroke-width="12.9409" stroke-linecap="round" stroke-linejoin="round" stroke-miterlimit="10" x1="1419.3" y1="1665.3" x2="1436.3" y2="1665.3"/>
		
			<line fill="none" stroke-width="12.9409" stroke-linecap="round" stroke-linejoin="round" stroke-miterlimit="10" x1="1463.7" y1="1665.3" x2="1480.7" y2="1665.3"/>
		
			<line fill="none" stroke-width="12.9409" stroke-linecap="round" stroke-linejoin="round" stroke-miterlimit="10" x1="1508" y1="1665.3" x2="1525" y2="1665.3"/>
		
			<line fill="none" stroke-width="12.9409" stroke-linecap="round" stroke-linejoin="round" stroke-miterlimit="10" x1="1552.3" y1="1665.3" x2="1569.3" y2="1665.3"/>
		
			<line fill="none" stroke-width="12.9409" stroke-linecap="round" stroke-linejoin="round" stroke-miterlimit="10" x1="1596.7" y1="1665.3" x2="1613.7" y2="1665.3"/>
		
			<line fill="none" stroke-width="12.9409" stroke-linecap="round" stroke-linejoin="round" stroke-miterlimit="10" x1="1351.8" y1="1690.5" x2="1368.8" y2="1690.5"/>
		
			<line fill="none" stroke-width="12.9409" stroke-linecap="round" stroke-linejoin="round" stroke-miterlimit="10" x1="1396.2" y1="1690.5" x2="1413.2" y2="1690.5"/>
		
			<line fill="none" stroke-width="12.9409" stroke-linecap="round" stroke-linejoin="round" stroke-miterlimit="10" x1="1440.5" y1="1690.5" x2="1457.5" y2="1690.5"/>
		
			<line fill="none" stroke-width="12.9409" stroke-linecap="round" stroke-linejoin="round" stroke-miterlimit="10" x1="1484.8" y1="1690.5" x2="1501.8" y2="1690.5"/>
		
			<line fill="none" stroke-width="12.9409" stroke-linecap="round" stroke-linejoin="round" stroke-miterlimit="10" x1="1529.2" y1="1690.5" x2="1546.2" y2="1690.5"/>
		
			<line fill="none" stroke-width="12.9409" stroke-linecap="round" stroke-linejoin="round" stroke-miterlimit="10" x1="1573.5" y1="1690.5" x2="1590.5" y2="1690.5"/>
		
			<line fill="none" stroke-width="12.9409" stroke-linecap="round" stroke-linejoin="round" stroke-miterlimit="10" x1="1375" y1="1716.8" x2="1392" y2="1716.8"/>
		
			<line fill="none" stroke-width="12.9409" stroke-linecap="round" stroke-linejoin="round" stroke-miterlimit="10" x1="1419.3" y1="1716.8" x2="1436.3" y2="1716.8"/>
		
			<line fill="none" stroke-width="12.9409" stroke-linecap="round" stroke-linejoin="round" stroke-miterlimit="10" x1="1288.3" y1="1716.8" x2="1305.3" y2="1716.8"/>
		
			<line fill="none" stroke-width="12.9409" stroke-linecap="round" stroke-linejoin="round" stroke-miterlimit="10" x1="1332.7" y1="1716.8" x2="1349.7" y2="1716.8"/>
		
			<line fill="none" stroke-width="12.9409" stroke-linecap="round" stroke-linejoin="round" stroke-miterlimit="10" x1="1463.7" y1="1716.8" x2="1480.7" y2="1716.8"/>
		
			<line fill="none" stroke-width="12.9409" stroke-linecap="round" stroke-linejoin="round" stroke-miterlimit="10" x1="1508" y1="1716.8" x2="1525" y2="1716.8"/>
		
			<line fill="none" stroke-width="12.9409" stroke-linecap="round" stroke-linejoin="round" stroke-miterlimit="10" x1="1552.3" y1="1716.8" x2="1569.3" y2="1716.8"/>
		
			<line fill="none" stroke-width="12.9409" stroke-linecap="round" stroke-linejoin="round" stroke-miterlimit="10" x1="1596.7" y1="1716.8" x2="1613.7" y2="1716.8"/>
		
			<line fill="none" stroke-width="12.9409" stroke-linecap="round" stroke-linejoin="round" stroke-miterlimit="10" x1="1351.8" y1="1742" x2="1368.8" y2="1742"/>
		
			<line fill="none" stroke-width="12.9409" stroke-linecap="round" stroke-linejoin="round" stroke-miterlimit="10" x1="1396.2" y1="1742" x2="1413.2" y2="1742"/>
		
			<line fill="none" stroke-width="12.9409" stroke-linecap="round" stroke-linejoin="round" stroke-miterlimit="10" x1="1440.5" y1="1742" x2="1457.5" y2="1742"/>
		
			<line fill="none" stroke-width="12.9409" stroke-linecap="round" stroke-linejoin="round" stroke-miterlimit="10" x1="1484.8" y1="1742" x2="1501.8" y2="1742"/>
		
			<line fill="none" stroke-width="12.9409" stroke-linecap="round" stroke-linejoin="round" stroke-miterlimit="10" x1="1529.2" y1="1742" x2="1546.2" y2="1742"/>
		
			<line fill="none" stroke-width="12.9409" stroke-linecap="round" stroke-linejoin="round" stroke-miterlimit="10" x1="1573.5" y1="1742" x2="1590.5" y2="1742"/>
		
			<line fill="none" stroke-width="12.9409" stroke-linecap="round" stroke-linejoin="round" stroke-miterlimit="10" x1="1375" y1="1768.3" x2="1392" y2="1768.3"/>
		
			<line fill="none" stroke-width="12.9409" stroke-linecap="round" stroke-linejoin="round" stroke-miterlimit="10" x1="1419.3" y1="1768.3" x2="1436.3" y2="1768.3"/>
		
			<line fill="none" stroke-width="12.9409" stroke-linecap="round" stroke-linejoin="round" stroke-miterlimit="10" x1="1463.7" y1="1768.3" x2="1480.7" y2="1768.3"/>
		
			<line fill="none" stroke-width="12.9409" stroke-linecap="round" stroke-linejoin="round" stroke-miterlimit="10" x1="1244" y1="1768.3" x2="1261" y2="1768.3"/>
		
			<line fill="none" stroke-width="12.9409" stroke-linecap="round" stroke-linejoin="round" stroke-miterlimit="10" x1="1288.3" y1="1768.3" x2="1305.3" y2="1768.3"/>
		
			<line fill="none" stroke-width="12.9409" stroke-linecap="round" stroke-linejoin="round" stroke-miterlimit="10" x1="1332.7" y1="1768.3" x2="1349.7" y2="1768.3"/>
		
			<line fill="none" stroke-width="12.9409" stroke-linecap="round" stroke-linejoin="round" stroke-miterlimit="10" x1="1508" y1="1768.3" x2="1525" y2="1768.3"/>
		
			<line fill="none" stroke-width="12.9409" stroke-linecap="round" stroke-linejoin="round" stroke-miterlimit="10" x1="1552.3" y1="1768.3" x2="1569.3" y2="1768.3"/>
		
			<line fill="none" stroke-width="12.9409" stroke-linecap="round" stroke-linejoin="round" stroke-miterlimit="10" x1="1596.7" y1="1768.3" x2="1613.7" y2="1768.3"/>
		
			<line fill="none" stroke-width="12.9409" stroke-linecap="round" stroke-linejoin="round" stroke-miterlimit="10" x1="1375" y1="1813.5" x2="1392" y2="1813.5"/>
		
			<line fill="none" stroke-width="12.9409" stroke-linecap="round" stroke-linejoin="round" stroke-miterlimit="10" x1="1419.3" y1="1813.5" x2="1436.3" y2="1813.5"/>
		
			<line fill="none" stroke-width="12.9409" stroke-linecap="round" stroke-linejoin="round" stroke-miterlimit="10" x1="1463.7" y1="1813.5" x2="1480.7" y2="1813.5"/>
		
			<line fill="none" stroke-width="12.9409" stroke-linecap="round" stroke-linejoin="round" stroke-miterlimit="10" x1="1244" y1="1813.5" x2="1261" y2="1813.5"/>
		
			<line fill="none" stroke-width="12.9409" stroke-linecap="round" stroke-linejoin="round" stroke-miterlimit="10" x1="1288.3" y1="1813.5" x2="1305.3" y2="1813.5"/>
		
			<line fill="none" stroke-width="12.9409" stroke-linecap="round" stroke-linejoin="round" stroke-miterlimit="10" x1="1332.7" y1="1813.5" x2="1349.7" y2="1813.5"/>
		
			<line fill="none" stroke-width="12.9409" stroke-linecap="round" stroke-linejoin="round" stroke-miterlimit="10" x1="1508" y1="1813.5" x2="1525" y2="1813.5"/>
		
			<line fill="none" stroke-width="12.9409" stroke-linecap="round" stroke-linejoin="round" stroke-miterlimit="10" x1="1552.3" y1="1813.5" x2="1569.3" y2="1813.5"/>
		
			<line fill="none" stroke-width="12.9409" stroke-linecap="round" stroke-linejoin="round" stroke-miterlimit="10" x1="1596.7" y1="1813.5" x2="1613.7" y2="1813.5"/>
		
			<line fill="none" stroke-width="12.9409" stroke-linecap="round" stroke-linejoin="round" stroke-miterlimit="10" x1="1351.8" y1="1793.5" x2="1368.8" y2="1793.5"/>
		
			<line fill="none" stroke-width="12.9409" stroke-linecap="round" stroke-linejoin="round" stroke-miterlimit="10" x1="1396.2" y1="1793.5" x2="1413.2" y2="1793.5"/>
		
			<line fill="none" stroke-width="12.9409" stroke-linecap="round" stroke-linejoin="round" stroke-miterlimit="10" x1="1266.1" y1="1793.5" x2="1283.1" y2="1793.5"/>
		
			<line fill="none" stroke-width="12.9409" stroke-linecap="round" stroke-linejoin="round" stroke-miterlimit="10" x1="1310.5" y1="1793.5" x2="1327.5" y2="1793.5"/>
		
			<line fill="none" stroke-width="12.9409" stroke-linecap="round" stroke-linejoin="round" stroke-miterlimit="10" x1="1440.5" y1="1793.5" x2="1457.5" y2="1793.5"/>
		
			<line fill="none" stroke-width="12.9409" stroke-linecap="round" stroke-linejoin="round" stroke-miterlimit="10" x1="1484.8" y1="1793.5" x2="1501.8" y2="1793.5"/>
		
			<line fill="none" stroke-width="12.9409" stroke-linecap="round" stroke-linejoin="round" stroke-miterlimit="10" x1="1529.2" y1="1793.5" x2="1546.2" y2="1793.5"/>
		
			<line fill="none" stroke-width="12.9409" stroke-linecap="round" stroke-linejoin="round" stroke-miterlimit="10" x1="1573.5" y1="1793.5" x2="1590.5" y2="1793.5"/>
		
			<path fill="none" stroke-width="12.9409" stroke-linecap="round" stroke-linejoin="round" stroke-miterlimit="10" d="
			M1261,1737c0,2.8-2.2,5-5,5h-15.3c-2.8,0-5-2.2-5-5v-18.6c0-2.8,2.2-5,5-5h15.3c2.8,0,5,2.2,5,5V1737z"/>
		
			<path fill="none" stroke-width="12.9409" stroke-linecap="round" stroke-linejoin="round" stroke-miterlimit="10" d="
			M1552.3,1876c0,2.8-2.2,5-5,5h-174.5c-2.8,0-5-2.2-5-5v-19.4c0-2.8,2.2-5,5-5h174.5c2.8,0,5,2.2,5,5V1876z"/>
	</g>
	<g>
		<path fill="none" stroke-width="18" stroke-linecap="round" stroke-linejoin="round" stroke-miterlimit="10" d="
			M2036.1,1482.4c0,0-85.5-10.5-90-24c-4.5-13.5,6-100.5,12-130.5c6-30,31.9-177,32.5-192c0.5-15,14-28.5,17-51s-3-31.5,7.5-52.5
			c10.5-21,46.5-64.5,46.5-64.5s-3-31.5,7.5-58.5c10.5-27,55.5-69,67.5-82.5c12-13.5,34.5-45,48-45s58.5,1.5,72-6
			c13.5-7.5,112.5-9,154.5-7.5s144,6,180,39c36,33,99,91.5,120,135c21,43.5,87,192,97.5,309s12,159,12,159s-91.5-9-115.5-9
			s-123,9-148.5,13.5s-73.5,12-73.5,12s-4.5-72-3-106.5c1.5-34.5-6-84-15-126c-9-42-33-141-37.5-153s-52.5-72-52.5-72
			s-9,28.5-16.5,45c-7.5,16.5-22.5,33-22.5,33s3,15-1.5,28.5s-28.5,81-33,117c-4.5,36-19.5,117-24,148.5s-15,114-16.5,121.5
			c-1.5,7.5-23,28.5-46.8,28.5S2036.1,1482.4,2036.1,1482.4z"/>
		<path fill="none" stroke-width="18" stroke-linecap="round" stroke-linejoin="round" stroke-miterlimit="10" d="
			M2069.1,909.4c0,0,46.5,58.5,52.5,76.5c6,18,10.5,46.5,10.5,46.5"/>
		<path fill="none" stroke-width="18" stroke-linecap="round" stroke-linejoin="round" stroke-miterlimit="10" d="
			M2163.6,795.7c0,0,34.1,97.2,50.8,113.7c16.8,16.5,54.3,40.5,72.3,40.5"/>
		<path fill="none" stroke-width="18" stroke-linecap="round" stroke-linejoin="round" stroke-miterlimit="10" d="
			M2249.1,909.4c0,0,15-48,27-51c12-3,37.5,15,48,33c10.5,18,51,72,51,72"/>
		<path fill="none" stroke-width="18" stroke-linecap="round" stroke-linejoin="round" stroke-miterlimit="10" d="
			M2536.6,1367.3c0,0-4-196-38-294s-70-123.4-70-123.4"/>
		<path fill="none" stroke-width="18" stroke-linecap="round" stroke-linejoin="round" stroke-miterlimit="10" d="
			M2028.8,1481.4l-92.3,5.9c0,0-42,77-52,114s-23,228-24,246s9,93,5,115s-9,40-17,44s-38-9.5-38-9.5"/>
		<path fill="none" stroke-width="18" stroke-linecap="round" stroke-linejoin="round" stroke-miterlimit="10" d="
			M1857.6,1945.3c0,0-9.5-23.5-21.5-26.5c-9.7-2.4-18.5-4-24.5,13.5c-5.5,16.1-7,44,0,55s14.7,20.2,14.7,20.2"/>
		
			<ellipse fill="none" stroke-width="18" stroke-linecap="round" stroke-linejoin="round" stroke-miterlimit="10" cx="1841.9" cy="2080.9" rx="19.3" ry="45"/>
		<path fill="none" stroke-width="18" stroke-linecap="round" stroke-linejoin="round" stroke-miterlimit="10" d="
			M1841.9,2125.9l37.3,11.3v17.3l-21.7,12c0,0,36.3,66,51,85.3s85,124.3,203,132.3s180-36,192-43"/>
		<path fill="none" stroke-width="18" stroke-linecap="round" stroke-linejoin="round" stroke-miterlimit="10" d="
			M2140.6,2385.2c0,0-117-9-177-119s-54-127-53-164s-7-180,4-227s25.1-102.5,48-144c24.3-43.9,45-103,132-133
			c55.7-19.2,161-35,201-25s81,31,81,31"/>
		<path fill="none" stroke-width="18" stroke-linecap="round" stroke-linejoin="round" stroke-miterlimit="10" d="
			M1850.6,1917.3c0,0,24-111,38-148s54-109,77-135s79-77,134-89s98-19,141-9s114,44,131,56"/>
		<path fill="none" stroke-width="18" stroke-linecap="round" stroke-linejoin="round" stroke-miterlimit="10" d="
			M2303.6,1709.3c0,0-21-26-71-17s-90,53-102,73s-50,136.2-50,197.1s5.3,171.6,26.8,207.6s35.3,70.3,69.2,77.3
			c44.7,9.2,83.1,1.1,83.1,1.1"/>
		<path fill="none" stroke-width="18" stroke-linecap="round" stroke-linejoin="round" stroke-miterlimit="10" d="
			M2142.6,1613.3c0,0-83.5,82-113.8,170c-30.3,88-60.4,150-58.3,252.7c2,92.1-2,221.3,80,277.3"/>
		
			<line fill="none" stroke-width="18" stroke-linecap="round" stroke-linejoin="round" stroke-miterlimit="10" x1="2254.9" y1="1472.3" x2="2316.6" y2="1563.9"/>
		<path fill="none" stroke-width="18" stroke-linecap="round" stroke-linejoin="round" stroke-miterlimit="10" d="
			M2495.5,1424.9c0,0-1.1,51.5,0,66.4s12.1,23.6,41.1,26.7s67,1.8,88,0s55,2.8,79,0s67,2.8,87,0s14-38.8,15-51.8s0.1-57.3,0.1-57.3"
			/>
		<path fill="none" stroke-width="18" stroke-linecap="round" stroke-linejoin="round" stroke-miterlimit="10" d="
			M2629.8,1406.6c0,0,13.8,28.7,10.8,48.7s-17,36.1-17,36.1"/>
		<path fill="none" stroke-width="18" stroke-linecap="round" stroke-linejoin="round" stroke-miterlimit="10" d="
			M2713.5,1401.6c0,0,5.1,13.7,4.1,42.7s-4.1,47.1-4.1,47.1"/>
		
			<polyline fill="none" stroke-width="18" stroke-linecap="round" stroke-linejoin="round" stroke-miterlimit="10" points="
			2523.1,1420.5 2523.1,1459.3 2577.6,1459.3 2577.6,1412 		"/>
		
			<polyline fill="none" stroke-width="18" stroke-linecap="round" stroke-linejoin="round" stroke-miterlimit="10" points="
			2740.6,1403.3 2743.6,1464.5 2785.6,1464.5 2785.6,1406.6 		"/>
		<path fill="none" stroke-width="18" stroke-linecap="round" stroke-linejoin="round" stroke-miterlimit="10" d="
			M2482.6,1481.4l-21,5.9c0,0-90,119-111,162s-84,247-90,268s-5.7,45.1-5.7,45.1"/>
		
			<ellipse fill="none" stroke-width="18" stroke-linecap="round" stroke-linejoin="round" stroke-miterlimit="10" cx="2250.2" cy="2009.2" rx="28.3" ry="40.8"/>
		<path fill="none" stroke-width="18" stroke-linecap="round" stroke-linejoin="round" stroke-miterlimit="10" d="
			M2254.9,1968.4l34.4-6c0,0,21.3,16,19.3,46.8s-14,45.5-14,45.5l-44.3-4.7"/>
		<path fill="none" stroke-width="18" stroke-linecap="round" stroke-linejoin="round" stroke-miterlimit="10" d="
			M2516.1,2457.3c0,0-117-36-159-63c-42-27-103-145-123-249c-20-104-6-183,44.4-352.5c50.4-169.5,192.6-253.5,323.1-253.5
			c0,0,173.8-16.5,251.8,131.1s87,298.3,90,365.5c3,67.2-24,175.2-24,175.2s-143.8-29.8-179.8-32.8s-67.5-28.5-135-3
			c-67.5,25.5-133.5,66-150,106.5s-28.5,85.5-28.5,85.5"/>
		<path fill="none" stroke-width="18" stroke-linecap="round" stroke-linejoin="round" stroke-miterlimit="10" d="
			M2886.8,2204.5c0,0-36.2,84.7-58.7,108.8c-22.5,24.1-94.5,84.1-118.5,96.1s-63,36-63,36"/>
		<path fill="none" stroke-width="18" stroke-linecap="round" stroke-linejoin="round" stroke-miterlimit="10" d="
			M2412.6,2095.3l-99-12c0,0-28-1-35,32s-12.2,64.5,0.9,89.2s58.1,51.1,58.1,51.1s52-7.3,65-23.3S2412.6,2095.3,2412.6,2095.3z"/>
		<path fill="none" stroke-width="18" stroke-linecap="round" stroke-linejoin="round" stroke-miterlimit="10" d="
			M2303.6,2093.3c0,0,30,16,34,50s18,62,0,75s-23.7,21.4-23.7,21.4"/>
		
			<polyline fill="none" stroke-width="18" stroke-linecap="round" stroke-linejoin="round" stroke-miterlimit="10" points="
			2346.5,2130.3 2376.6,2118.3 2393.6,2166.4 2353.6,2169.4 		"/>
		
			<polyline fill="none" stroke-width="18" stroke-linecap="round" stroke-linejoin="round" stroke-miterlimit="10" points="
			2356.6,2214.3 2381.6,2223.3 2342.1,2246.3 		"/>
		
			<polygon fill="none" stroke-width="12.9409" stroke-linecap="round" stroke-linejoin="round" stroke-miterlimit="10" points="
			2477.6,1962.4 2830.6,1968.4 2830.6,2088.3 2477.6,2093.3 		"/>
		<path fill="none" stroke-width="18" stroke-linecap="round" stroke-linejoin="round" stroke-miterlimit="10" d="
			M2337.6,2255.6c0,0-5.7,27.7,0,51c5.7,23.3,40.7,91,63,104.7"/>
		
			<polyline fill="none" stroke-width="12.9409" stroke-linecap="round" stroke-linejoin="round" stroke-miterlimit="10" points="
			2463.9,2273.9 2527.9,2309.9 2540.8,2204.5 		"/>
		
			<path fill="none" stroke-width="12.9409" stroke-linecap="round" stroke-linejoin="round" stroke-miterlimit="10" d="
			M2567.9,2218.6l-5.3,98h84.1l10.6-94c0,0-24.7-10.7-40.7-13.3C2600.6,2206.6,2567.9,2218.6,2567.9,2218.6z"/>
		
			<path fill="none" stroke-width="12.9409" stroke-linecap="round" stroke-linejoin="round" stroke-miterlimit="10" d="
			M2690.6,2185.9l-6.7,116c0,0,80.3-44.1,82.8-44.7c2.5-0.6,3.2-18.6,3.2-21.3s-3.2-27.1-3.2-27.1L2690.6,2185.9z"/>
		<path fill="none" stroke-width="18" stroke-linecap="round" stroke-linejoin="round" stroke-miterlimit="10" d="
			M2806,1500.4h24.5c0,0,72.6,117,80.1,204c7.5,87,4.2,126.5,4.2,126.5"/>
		<path fill="none" stroke-width="18" stroke-linecap="round" stroke-linejoin="round" stroke-miterlimit="10" d="
			M2548.6,2398.3v-42c0,0,6-17,30-17s45,0,58,0s10.1,38,10.1,59s1.1,67,0,86s2.9,34-10.1,40s-65,5-88,5s-39-3-42-9s0-51,0-51
			L2548.6,2398.3z"/>
		<path fill="none" stroke-width="35" stroke-linecap="round" stroke-linejoin="round" stroke-miterlimit="10" d="
			M2142.6,1491.4c0,0,108,20.5,174-10c66-30.5,166.5-54.5,166.5-54.5"/>
		<path fill="none" stroke-width="35" stroke-linecap="round" stroke-linejoin="round" stroke-miterlimit="10" d="
			M2790.6,1518.1c0,0,132-8.4,182,13.4c50,21.8,142,83.8,142,181.8s-64,226.9-110,264.4s-54.3,50.1-54.3,50.1"/>
		<path fill="none" stroke-width="18" stroke-linecap="round" stroke-linejoin="round" stroke-miterlimit="10" d="
			M2925.2,2185.9c0,0,24.3,13.4,27.3,69.7c46.5-3.8,52.5-16,52.5-16s4.8-97.6-65.9-133.5"/>
		<path fill="none" stroke-width="35" stroke-linecap="round" stroke-linejoin="round" stroke-miterlimit="10" d="
			M2986.9,2249.8c0,0,7.7,42.3-10.3,83.7s-96,116.4-136.5,123.9s-177,26.9-177,26.9"/>
		
			<line fill="none" stroke-width="35" stroke-linecap="round" stroke-linejoin="round" stroke-miterlimit="10" x1="2502.4" y1="2495.3" x2="1432.6" y2="2467.3"/>
		
			<path fill="none" stroke-width="12.9409" stroke-linecap="round" stroke-linejoin="round" stroke-miterlimit="10" d="
			M1432.6,2457.3c0,0,2.1-48,0-66c-2.1-18-21.9-27-32.4-27c-10.5,0-15,9-19.5,13.5s-46.5,13.5-46.5,13.5s-27,4.5-66-27
			c-36-31.5-79.5-25.5-99-22.5c-19.5,3-126.3,48.4-139.5,69.4c-13.1,21-9,32.6-7.5,56c1.5,23.4,22.5,42.5,22.5,42.5l139.5,52.5h32.4
			c0,0,29-17,51-24s60-23,78-22s27,14,35,23s19.8,22.8,29,16c23-17,23-74,23-74"/>
		
			<path fill="none" stroke-width="12.9409" stroke-linecap="round" stroke-linejoin="round" stroke-miterlimit="10" d="
			M1044.7,2509.8c0,0-7.9-40.5,0-59s22.1-36.2,43.9-47.5c20.6-10.7,82-24,110-24s94,34,117,37s44,8,59-4s39-33,39-33"/>
		
			<path fill="none" stroke-width="12.9409" stroke-linecap="round" stroke-linejoin="round" stroke-miterlimit="10" d="
			M1157.6,2428.1c0,0,99.7-47.8,99.7,39.4c0,87.1-99.8,42.3-99.8,42.3"/>
	</g>
</g>
</svg>
