<?xml version="1.0" encoding="utf-8"?>
<!-- Generator: Adobe Illustrator 19.2.0, SVG Export Plug-In . SVG Version: 6.00 Build 0)  -->
<svg version="1.1" id="category-item_svg_spare-parts" xmlns:x="&ns_extend;" xmlns:i="&ns_ai;" xmlns:graph="&ns_graphs;"
	 xmlns="http://www.w3.org/2000/svg" xmlns:xlink="http://www.w3.org/1999/xlink" x="0px" y="0px" viewBox="0 0 3976 2646"
	 enable-background="new 0 0 3976 2646" xml:space="preserve">
<metadata>
	<sfw  xmlns="&ns_sfw;">
		<slices></slices>
		<sliceSourceBounds  bottomLeftOrigin="true" height="1628.2" width="2302.3" x="-191.1" y="-1302.5"></sliceSourceBounds>
	</sfw>
</metadata>
<g>
	<path fill="none" stroke-width="17" stroke-linecap="round" stroke-linejoin="round" stroke-miterlimit="10" d="
		M1068.9,938.2l-187.5,40.5l-36,55.5l33,199.5l163.5,220.5c0,0,1.5,21,1.5,28.5s-4.5,18,91.5,84c96,66,211.5,133.5,219,150
		s22.5,87,28.5,118.5s28.5,123,34.5,126s355.5,115.5,364.5,115.5s25.5,6,31.5-33s42-309,48-336s15.4-49.6,38.4-59.6s150-40,150-40
		s454-105,477-113s52-58,52-58s24-21,24-34s-6-47-8-53s-13-21-37-17s-70,18-86,21s-15-1-21-25c-6-24-21-85-21-85s38-10,56-16
		s45-50,56-58s259-67,259-67s41.7-31.7,55-49.7c13.3-18,48-60,48-60s134-30,150-35.3c16-5.3,54.7-69.3,58-73.3s20.7-22.7,19.3-42.7
		s-16.7-48.7-46-48.7s-37.3,4-40-15.3c-2.7-19.3-7.8-91.9-21.3-135.4c-13.5-43.5-30.5-89.6-66.5-103.6c-12-35.5-14-47.5-14-47.5
		s-7.5-35-56-23.5s-1773,377-1795.5,382.5s-36.5,26-30.5,54S1068.9,938.2,1068.9,938.2z"/>
	<path fill="none" stroke-width="17" stroke-linecap="round" stroke-linejoin="round" stroke-miterlimit="10" d="
		M871.2,1190.5l57.3,48.9l986.7-222.8c10.5,13,27.5,10.5,39.5,6c12-4.5,906.5-202.9,923-207.4c16.5-4.5,0.5-73.4,0-79.8
		c-0.5-6.3-49.5-170.3-83.5-164.3s-24,49-24,64s18,120,27,151s8.3,40.3,8.3,40.3"/>
	<path fill="none" stroke-width="17" stroke-linecap="round" stroke-linejoin="round" stroke-miterlimit="10" d="
		M928.6,1239.4c0,0-26.3-84.3-33.3-127.3s-9.1-134.4-9.1-134.4"/>
	<path fill="none" stroke-width="17" stroke-linecap="round" stroke-linejoin="round" stroke-miterlimit="10" d="
		M1068.9,938.2c0,0,16.5,6,45,0c28.5-6,736.5-160.5,736.5-160.5s31.5,82.5,42,135c10.5,52.5,22.9,103.9,22.9,103.9"/>
	
		<line fill="none" stroke-width="17" stroke-linecap="round" stroke-linejoin="round" stroke-miterlimit="10" x1="1862.3" y1="810.7" x2="2768.9" y2="614.1"/>
	
		<line fill="none" stroke-width="17" stroke-linecap="round" stroke-linejoin="round" stroke-miterlimit="10" x1="1850.3" y1="777.7" x2="2787.5" y2="573"/>
	
		<line fill="none" stroke-width="17" stroke-linecap="round" stroke-linejoin="round" stroke-miterlimit="10" x1="2803" y1="573" x2="2956.7" y2="539.1"/>
	
		<line fill="none" stroke-width="17" stroke-linecap="round" stroke-linejoin="round" stroke-miterlimit="10" x1="2885.2" y1="797.2" x2="3043.3" y2="767.6"/>
	<path fill="none" stroke-width="17" stroke-linecap="round" stroke-linejoin="round" stroke-miterlimit="10" d="
		M1043.1,1473.8c0,0,114.3,71.9,133.8,82.4c19.5,10.5,159,91.5,169.5,115.5c10.5,24,16.8,75.7,16.8,75.7"/>
	<path fill="none" stroke-width="17" stroke-linecap="round" stroke-linejoin="round" stroke-miterlimit="10" d="
		M1043.1,1463.2c0,0,69.3-3,82.8-28.5c13.5-25.5-6-73.5,0-81s201-54,244.5-61.5s84-20.8,84-20.8s10.2,16.7,13.6,16.7
		c3.3,0,195.3-48.7,195.3-48.7l467.6-100.2l10.5-19.5c0,0,261-54,280.5-60c19.5-6,43.5,39.2,48,48.9s13.5,56.1,0,69.6
		s-45,21-46.5,31.5s5.9,34.4,5.9,34.4"/>
	<path fill="none" stroke-width="17" stroke-linecap="round" stroke-linejoin="round" stroke-miterlimit="10" d="
		M1016.2,1402.1c0,0-1-37,16-48c17-11,4-31.4,296-82.7c-7-31.3-4-59.3,0-66.3s0-17,56-29s93-23,123-28s49,23,60,63
		c92-16,566.6-118.4,566.6-118.4s237-60,285-67.5c48-7.5,54,12,70.5,55.5c16.5,43.5,15,60,19.5,76.5s33,7.5,30-10.5
		c-3-18-26.6-37.5,0.2-46.5c26.8-9,298.3-70.5,298.3-70.5s30.6-11.6,44.6-28.9s22.7-56,20.7-63.3c-2-7.3,10-21.3,36.7-27.3
		c26.7-6,180.4-35.9,180.4-35.9"/>
	<path fill="none" stroke-width="17" stroke-linecap="round" stroke-linejoin="round" stroke-miterlimit="10" d="
		M1404.5,1927.1l133.7,40c0,0,29-72,38-99s46-139,46-139l56,14c0,0-68,234-68,241s196.4,65,201.7,64.5"/>
	
		<line fill="none" stroke-width="17" stroke-linecap="round" stroke-linejoin="round" stroke-miterlimit="10" x1="1540.7" y1="1960.9" x2="1611.4" y2="1978.4"/>
	
		<circle fill="none" stroke-width="17" stroke-linecap="round" stroke-linejoin="round" stroke-miterlimit="10" cx="1769" cy="1893.1" r="44"/>
	
		<circle fill="none" stroke-width="17" stroke-linecap="round" stroke-linejoin="round" stroke-miterlimit="10" cx="1441.2" cy="1674.1" r="20"/>
	
		<circle fill="none" stroke-width="15.3865" stroke-linecap="round" stroke-linejoin="round" stroke-miterlimit="10" cx="1670.5" cy="1664.1" r="52"/>
	
		<path fill="none" stroke-width="15.3865" stroke-linecap="round" stroke-linejoin="round" stroke-miterlimit="10" d="
		M1624.1,1687.7c0,0,14.2-27.6,35.2-33.6s53.6-8,62.3,0"/>
	
		<circle fill="none" stroke-width="15.3865" stroke-linecap="round" stroke-linejoin="round" stroke-miterlimit="10" cx="1822.7" cy="1547.6" r="70.5"/>
	
		<circle fill="none" stroke-width="15.3865" stroke-linecap="round" stroke-linejoin="round" stroke-miterlimit="10" cx="1822.7" cy="1547.6" r="22.5"/>
	<path fill="none" stroke-width="17" stroke-linecap="round" stroke-linejoin="round" stroke-miterlimit="10" d="
		M1839.1,1854.7c0,0,8.1-190.1,15.1-205.8s22-51.7,95-65.7s629-146,629-146"/>
	
		<line fill="none" stroke-width="15.3865" stroke-linecap="round" stroke-linejoin="round" stroke-miterlimit="10" x1="2056.2" y1="1583.1" x2="2208.7" y2="1547.6"/>
	
		<line fill="none" stroke-width="15.3865" stroke-linecap="round" stroke-linejoin="round" stroke-miterlimit="10" x1="2385.2" y1="1508.1" x2="2494.2" y2="1483.1"/>
	
		<circle fill="none" stroke-width="15.3865" stroke-linecap="round" stroke-linejoin="round" stroke-miterlimit="10" cx="1560.4" cy="1412.1" r="58"/>
	
		<circle fill="none" stroke-width="15.3865" stroke-linecap="round" stroke-linejoin="round" stroke-miterlimit="10" cx="1827.2" cy="1278.1" r="51"/>
	
		<circle fill="none" stroke-width="15.3865" stroke-linecap="round" stroke-linejoin="round" stroke-miterlimit="10" cx="2042.9" cy="1410.1" r="25"/>
	
		<circle fill="none" stroke-width="15.3865" stroke-linecap="round" stroke-linejoin="round" stroke-miterlimit="10" cx="2153.2" cy="1488.2" r="25"/>
	
		<circle fill="none" stroke-width="15.3865" stroke-linecap="round" stroke-linejoin="round" stroke-miterlimit="10" cx="1262.2" cy="1363.1" r="40"/>
	
		<circle fill="none" stroke-width="15.3865" stroke-linecap="round" stroke-linejoin="round" stroke-miterlimit="10" cx="1010.2" cy="1297.2" r="42"/>
	
		<circle fill="none" stroke-width="15.3865" stroke-linecap="round" stroke-linejoin="round" stroke-miterlimit="10" cx="1081.4" cy="1407.3" r="36.8"/>
	
		<circle fill="none" stroke-width="15.3865" stroke-linecap="round" stroke-linejoin="round" stroke-miterlimit="10" cx="1122.7" cy="882.6" r="36.5"/>
	
		<circle fill="none" stroke-width="15.3865" stroke-linecap="round" stroke-linejoin="round" stroke-miterlimit="10" cx="1733.6" cy="753.3" r="33.7"/>
	
		<circle fill="none" stroke-width="15.3865" stroke-linecap="round" stroke-linejoin="round" stroke-miterlimit="10" cx="2308.1" cy="632.9" r="35.8"/>
	
		<circle fill="none" stroke-width="15.3865" stroke-linecap="round" stroke-linejoin="round" stroke-miterlimit="10" cx="2884.7" cy="506.1" r="35.8"/>
	
		<circle fill="none" stroke-width="15.3865" stroke-linecap="round" stroke-linejoin="round" stroke-miterlimit="10" cx="2536.2" cy="1390.1" r="42"/>
	
		<circle fill="none" stroke-width="15.3865" stroke-linecap="round" stroke-linejoin="round" stroke-miterlimit="10" cx="2435.1" cy="1136.2" r="36.2"/>
	
		<circle fill="none" stroke-width="15.3865" stroke-linecap="round" stroke-linejoin="round" stroke-miterlimit="10" cx="2855.6" cy="962.9" r="41"/>
	
		<circle fill="none" stroke-width="15.3865" stroke-linecap="round" stroke-linejoin="round" stroke-miterlimit="10" cx="3085.2" cy="836.6" r="38"/>
	
		<path fill="none" stroke-width="15.3865" stroke-linecap="round" stroke-linejoin="round" stroke-miterlimit="10" d="
		M1512.1,1444.2c0,0,29.3-34.6,54.8-34s51.3,8.1,51.3,8.1"/>
	
		<path fill="none" stroke-width="15.3865" stroke-linecap="round" stroke-linejoin="round" stroke-miterlimit="10" d="
		M1780.4,1298.4c0,0,28.2-23.9,46.8-20.3c18.6,3.6,48.7,15,48.7,15"/>
	
		<path fill="none" stroke-width="15.3865" stroke-linecap="round" stroke-linejoin="round" stroke-miterlimit="10" d="
		M2485.2,1228.1c0,0,45-2.3,55,11.3s34,89.7,34,89.7"/>
	
		<circle fill="none" stroke-width="15.3865" stroke-linecap="round" stroke-linejoin="round" stroke-miterlimit="10" cx="2492.7" cy="1292.7" r="43.5"/>
</g>
</svg>
