<svg class="logo__icon" id="Layer_1" data-name="Layer 1" xmlns="http://www.w3.org/2000/svg" viewBox="0 0 152.96 160.24"><defs><style>.logo__class-1{fill:#57361f;}.logo__class-2{fill:#d19563;}</style></defs><title>logo</title><g id="Слой_1"><path class="logo__class-1" d="M107.91,110l33.82-58.59,76.48,132.46h-153l4.11-7.12q18.11-31.34,36.2-62.67l2.35-4.08h0Zm33.82-7.17L127,128.38v0l-4.28,7.4,28.57-16.5-2.72-4.71h0l-2.38-4.11-2.35-4.08h0l-2.07-3.6v0Zm22.39,38.78-28.54,16.5h38.07Z" transform="translate(-65.25 -51.36)"/><path class="logo__class-2" d="M162.85,105.7l9.5,16.44,27.1,46.94,3.52,6.09H80.5L84,169.09l27.1-46.94h0l27.1-46.91,3.52-6.09,3.51,6.09,17.6,30.5-7,4L141.73,85.32l-23.58,40.85v0L98.62,160l64.66-37.33-7.46-12.93,7-4.08v0ZM102.7,167h86.17l-21.54-37.3Z" transform="translate(-65.25 -51.36)"/><path class="logo__class-1" d="M158.6,211.32v-20h4.51a5.66,5.66,0,0,1,3.2.94,4.5,4.5,0,0,1,1.76,2.47,6.78,6.78,0,0,1,.28,2.13,4.92,4.92,0,0,1-1,3.23,3.53,3.53,0,0,1-1,.79,3.45,3.45,0,0,1,1.7,1.5,5.62,5.62,0,0,1,.68,2,7,7,0,0,1,.11,1.39A6.71,6.71,0,0,1,168,209a4.33,4.33,0,0,1-1.56,1.64,4.24,4.24,0,0,1-2.27.71h-5.56Zm3.26-3h1.25a2.07,2.07,0,0,0,2.1-1.59,3.4,3.4,0,0,0,.2-1.25,4,4,0,0,0-.62-2.44,2.06,2.06,0,0,0-1.67-.71h-1.25v6Zm0-8.84h1.25a1.82,1.82,0,0,0,1.87-1.39,4,4,0,0,0,.17-1.25,2.72,2.72,0,0,0-.6-1.9,1.88,1.88,0,0,0-1.45-.59h-1.25v5.13Zm9.5,11.82v-20h8.56v3h-5.56v5.44h4.05v3h-4.05v5.44h5.56v3h-8.56Zm14.51-4.59-0.74,4.59H182l3.4-20h4.14l3.34,20h-3.17L189,206.73h-3.12ZM187.43,196l-1.11,7.85h2.24L187.46,196h0Zm12.73-4.56a4.61,4.61,0,0,1,3.71,1.39,5,5,0,0,1,1,3.37V199a4.6,4.6,0,0,1-1.62,3.57l2.24,8.7h-3.23l-1.84-7.51h-2v7.51h-3v-20h4.76v0Zm1.79,4.82a1.52,1.52,0,0,0-1.73-1.73H198.4v6.38h1.81a1.65,1.65,0,0,0,1.22-.51,1.7,1.7,0,0,0,.51-1.22v-2.92Zm15.59,10.37a4.6,4.6,0,0,1-1.39,3.37,4.54,4.54,0,0,1-3.34,1.39h-4.73v-20h4.73a4.49,4.49,0,0,1,3.34,1.39,4.72,4.72,0,0,1,1.39,3.37v10.46Zm-6.46,1.79h1.81a1.65,1.65,0,0,0,1.22-.51,1.62,1.62,0,0,0,.48-1.22V196.19a1.65,1.65,0,0,0-.51-1.22,1.63,1.63,0,0,0-1.19-.51h-1.81v13.92ZM69,194.43h-3.2v-3h9.38v3H72v16.92H69V194.43Zm9.75,12.33L78,211.35H74.83l3.4-20h4.14l3.34,20H82.54l-0.71-4.59H78.72ZM80.28,196l-1.11,7.85h2.24L80.31,196h0Zm12.27,15.62a4.74,4.74,0,0,1-4.76-4.76V196a4.51,4.51,0,0,1,1.39-3.37,4.6,4.6,0,0,1,3.37-1.39,4.51,4.51,0,0,1,3.37,1.39A4.6,4.6,0,0,1,97.31,196v2.27H94.2v-2.35a1.73,1.73,0,0,0-3.46,0v10.91a1.73,1.73,0,0,0,3.46,0V204h3.12v2.78a4.67,4.67,0,0,1-1.39,3.37,4.54,4.54,0,0,1-3.34,1.39Zm10-17.18h-3.2v-3h9.38v3h-3.17v16.92h-3V194.43Zm11.62,16.92h-3v-20h3v20Zm7.43,0.25a4.51,4.51,0,0,1-3.37-1.39,4.56,4.56,0,0,1-1.39-3.37V196a4.51,4.51,0,0,1,1.39-3.37A4.76,4.76,0,0,1,126.4,196v2.27h-3.12v-2.35a1.73,1.73,0,0,0-3.46,0v10.91a1.73,1.73,0,0,0,3.46,0V204h3.12v2.78a4.74,4.74,0,0,1-4.73,4.76ZM132,206.76l-0.74,4.59h-3.15l3.4-20h4.14l3.34,20h-3.17l-0.71-4.59H132ZM133.57,196l-1.11,7.85h2.24L133.6,196h0Zm16.16,15.39h-8.19v-20h3v17h5.19v3Z" transform="translate(-65.25 -51.36)"/></g></svg>